<svg xmlns="http://www.w3.org/2000/svg" xmlns:xlink="http://www.w3.org/1999/xlink" contentStyleType="text/css" data-diagram-type="DESCRIPTION" height="540px" preserveAspectRatio="none" style="width:1707px;height:540px;background:#1B1B1B;" version="1.1" viewBox="0 0 1707 540" width="1707px" zoomAndPan="magnify"><title>Department Service - Component Diagram</title><defs/><g><rect fill="#1B1B1B" height="540" style="stroke:none;stroke-width:1;" width="1707" x="0" y="0"/><g class="title" data-source-line="1"><text fill="#FFFFFF" font-family="sans-serif" font-size="14" font-weight="bold" lengthAdjust="spacing" textLength="335.501" x="678.7507" y="22.9951">Department Service - Component Diagram</text></g><!--cluster Department Service--><g class="cluster" data-entity="Department Service" data-source-line="3" data-uid="ent0002" id="cluster_Department Service"><path d="M8.5,43.2969 L167.499,43.2969 A3.75,3.75 0 0 1 169.999,45.7969 L176.999,65.5938 L819.5,65.5938 A2.5,2.5 0 0 1 822,68.0938 L822,384.6869 A2.5,2.5 0 0 1 819.5,387.1869 L8.5,387.1869 A2.5,2.5 0 0 1 6,384.6869 L6,45.7969 A2.5,2.5 0 0 1 8.5,43.2969" fill="none" style="stroke:#FFFFFF;stroke-width:1.5;"/><line style="stroke:#FFFFFF;stroke-width:1.5;" x1="6" x2="176.999" y1="65.5938" y2="65.5938"/><text fill="#FFFFFF" font-family="sans-serif" font-size="14" font-weight="bold" lengthAdjust="spacing" textLength="157.999" x="10" y="58.292">Department Service</text></g><!--cluster External Systems--><g class="cluster" data-entity="External Systems" data-source-line="12" data-uid="ent0009" id="cluster_External Systems"><path d="M492.5,436.1869 L630.9229,436.1869 A3.75,3.75 0 0 1 633.4229,438.6869 L640.4229,458.4838 L1404.5,458.4838 A2.5,2.5 0 0 1 1407,460.9838 L1407,530.9869 A2.5,2.5 0 0 1 1404.5,533.4869 L492.5,533.4869 A2.5,2.5 0 0 1 490,530.9869 L490,438.6869 A2.5,2.5 0 0 1 492.5,436.1869" fill="none" style="stroke:#FFFFFF;stroke-width:1.5;"/><line style="stroke:#FFFFFF;stroke-width:1.5;" x1="490" x2="640.4229" y1="458.4838" y2="458.4838"/><text fill="#FFFFFF" font-family="sans-serif" font-size="14" font-weight="bold" lengthAdjust="spacing" textLength="137.4229" x="494" y="451.182">External Systems</text></g><!--entity api--><g class="entity" data-entity="api" data-source-line="4" data-uid="ent0003" id="entity_api"><rect fill="#313139" height="46.2969" rx="2.5" ry="2.5" style="stroke:#E7E7E7;stroke-width:0.5;" width="188.6816" x="333.66" y="78.2969"/><rect fill="#313139" height="10" style="stroke:#E7E7E7;stroke-width:0.5;" width="15" x="502.3416" y="83.2969"/><rect fill="#313139" height="2" style="stroke:#E7E7E7;stroke-width:0.5;" width="4" x="500.3416" y="85.2969"/><rect fill="#313139" height="2" style="stroke:#E7E7E7;stroke-width:0.5;" width="4" x="500.3416" y="89.2969"/><text fill="#FFFFFF" font-family="sans-serif" font-size="14" lengthAdjust="spacing" textLength="148.6816" x="348.66" y="111.292">API Gateway Adapter</text></g><!--entity deptCtrl--><g class="entity" data-entity="deptCtrl" data-source-line="5" data-uid="ent0004" id="entity_deptCtrl"><rect fill="#313139" height="46.2969" rx="2.5" ry="2.5" style="stroke:#E7E7E7;stroke-width:0.5;" width="198.3408" x="186.83" y="201.5969"/><rect fill="#313139" height="10" style="stroke:#E7E7E7;stroke-width:0.5;" width="15" x="365.1708" y="206.5969"/><rect fill="#313139" height="2" style="stroke:#E7E7E7;stroke-width:0.5;" width="4" x="363.1708" y="208.5969"/><rect fill="#313139" height="2" style="stroke:#E7E7E7;stroke-width:0.5;" width="4" x="363.1708" y="212.5969"/><text fill="#FFFFFF" font-family="sans-serif" font-size="14" lengthAdjust="spacing" textLength="158.3408" x="201.83" y="234.592">Department Controller</text></g><!--entity studCtrl--><g class="entity" data-entity="studCtrl" data-source-line="6" data-uid="ent0005" id="entity_studCtrl"><rect fill="#313139" height="46.2969" rx="2.5" ry="2.5" style="stroke:#E7E7E7;stroke-width:0.5;" width="265.4082" x="489.3" y="201.5969"/><rect fill="#313139" height="10" style="stroke:#E7E7E7;stroke-width:0.5;" width="15" x="734.7082" y="206.5969"/><rect fill="#313139" height="2" style="stroke:#E7E7E7;stroke-width:0.5;" width="4" x="732.7082" y="208.5969"/><rect fill="#313139" height="2" style="stroke:#E7E7E7;stroke-width:0.5;" width="4" x="732.7082" y="212.5969"/><text fill="#FFFFFF" font-family="sans-serif" font-size="14" lengthAdjust="spacing" textLength="225.4082" x="504.3" y="234.592">Student Management Controller</text></g><!--entity deptRepo--><g class="entity" data-entity="deptRepo" data-source-line="7" data-uid="ent0006" id="entity_deptRepo"><rect fill="#313139" height="46.2969" rx="2.5" ry="2.5" style="stroke:#E7E7E7;stroke-width:0.5;" width="204.2402" x="30.88" y="324.8969"/><rect fill="#313139" height="10" style="stroke:#E7E7E7;stroke-width:0.5;" width="15" x="215.1202" y="329.8969"/><rect fill="#313139" height="2" style="stroke:#E7E7E7;stroke-width:0.5;" width="4" x="213.1202" y="331.8969"/><rect fill="#313139" height="2" style="stroke:#E7E7E7;stroke-width:0.5;" width="4" x="213.1202" y="335.8969"/><text fill="#FFFFFF" font-family="sans-serif" font-size="14" lengthAdjust="spacing" textLength="164.2402" x="45.88" y="357.892">Department Repository</text></g><!--entity studRepo--><g class="entity" data-entity="studRepo" data-source-line="8" data-uid="ent0007" id="entity_studRepo"><rect fill="#313139" height="46.2969" rx="2.5" ry="2.5" style="stroke:#E7E7E7;stroke-width:0.5;" width="174.6338" x="576.68" y="324.8969"/><rect fill="#313139" height="10" style="stroke:#E7E7E7;stroke-width:0.5;" width="15" x="731.3138" y="329.8969"/><rect fill="#313139" height="2" style="stroke:#E7E7E7;stroke-width:0.5;" width="4" x="729.3138" y="331.8969"/><rect fill="#313139" height="2" style="stroke:#E7E7E7;stroke-width:0.5;" width="4" x="729.3138" y="335.8969"/><text fill="#FFFFFF" font-family="sans-serif" font-size="14" lengthAdjust="spacing" textLength="134.6338" x="591.68" y="357.892">Student Repository</text></g><!--entity policy--><g class="entity" data-entity="policy" data-source-line="9" data-uid="ent0008" id="entity_policy"><rect fill="#313139" height="46.2969" rx="2.5" ry="2.5" style="stroke:#E7E7E7;stroke-width:0.5;" width="223.2373" x="302.38" y="324.8969"/><rect fill="#313139" height="10" style="stroke:#E7E7E7;stroke-width:0.5;" width="15" x="505.6173" y="329.8969"/><rect fill="#313139" height="2" style="stroke:#E7E7E7;stroke-width:0.5;" width="4" x="503.6173" y="331.8969"/><rect fill="#313139" height="2" style="stroke:#E7E7E7;stroke-width:0.5;" width="4" x="503.6173" y="335.8969"/><text fill="#FFFFFF" font-family="sans-serif" font-size="14" lengthAdjust="spacing" textLength="183.2373" x="317.38" y="357.892">Validation &amp; Policy Engine</text></g><!--entity deptDB--><g class="entity" data-entity="deptDB" data-source-line="13" data-uid="ent0010" id="entity_deptDB"><rect fill="#313139" height="46.2969" rx="2.5" ry="2.5" style="stroke:#E7E7E7;stroke-width:0.5;" width="234.7559" x="505.62" y="471.1869"/><rect fill="#313139" height="10" style="stroke:#E7E7E7;stroke-width:0.5;" width="15" x="720.3759" y="476.1869"/><rect fill="#313139" height="2" style="stroke:#E7E7E7;stroke-width:0.5;" width="4" x="718.3759" y="478.1869"/><rect fill="#313139" height="2" style="stroke:#E7E7E7;stroke-width:0.5;" width="4" x="718.3759" y="482.1869"/><text fill="#FFFFFF" font-family="sans-serif" font-size="14" lengthAdjust="spacing" textLength="194.7559" x="520.62" y="504.182">PostgreSQL Department DB</text></g><!--entity userAPI--><g class="entity" data-entity="userAPI" data-source-line="14" data-uid="ent0011" id="entity_userAPI"><rect fill="#313139" height="46.2969" rx="2.5" ry="2.5" style="stroke:#E7E7E7;stroke-width:0.5;" width="154.7002" x="775.65" y="471.1869"/><rect fill="#313139" height="10" style="stroke:#E7E7E7;stroke-width:0.5;" width="15" x="910.3502" y="476.1869"/><rect fill="#313139" height="2" style="stroke:#E7E7E7;stroke-width:0.5;" width="4" x="908.3502" y="478.1869"/><rect fill="#313139" height="2" style="stroke:#E7E7E7;stroke-width:0.5;" width="4" x="908.3502" y="482.1869"/><text fill="#FFFFFF" font-family="sans-serif" font-size="14" lengthAdjust="spacing" textLength="114.7002" x="790.65" y="504.182">User Service API</text></g><!--entity notifAPI--><g class="entity" data-entity="notifAPI" data-source-line="15" data-uid="ent0012" id="entity_notifAPI"><rect fill="#313139" height="46.2969" rx="2.5" ry="2.5" style="stroke:#E7E7E7;stroke-width:0.5;" width="203.1191" x="1187.44" y="471.1869"/><rect fill="#313139" height="10" style="stroke:#E7E7E7;stroke-width:0.5;" width="15" x="1370.5591" y="476.1869"/><rect fill="#313139" height="2" style="stroke:#E7E7E7;stroke-width:0.5;" width="4" x="1368.5591" y="478.1869"/><rect fill="#313139" height="2" style="stroke:#E7E7E7;stroke-width:0.5;" width="4" x="1368.5591" y="482.1869"/><text fill="#FFFFFF" font-family="sans-serif" font-size="14" lengthAdjust="spacing" textLength="163.1191" x="1202.44" y="504.182">Notification Service API</text></g><!--entity analyticsAPI--><g class="entity" data-entity="analyticsAPI" data-source-line="16" data-uid="ent0013" id="entity_analyticsAPI"><rect fill="#313139" height="46.2969" rx="2.5" ry="2.5" style="stroke:#E7E7E7;stroke-width:0.5;" width="186.3643" x="965.82" y="471.1869"/><rect fill="#313139" height="10" style="stroke:#E7E7E7;stroke-width:0.5;" width="15" x="1132.1843" y="476.1869"/><rect fill="#313139" height="2" style="stroke:#E7E7E7;stroke-width:0.5;" width="4" x="1130.1843" y="478.1869"/><rect fill="#313139" height="2" style="stroke:#E7E7E7;stroke-width:0.5;" width="4" x="1130.1843" y="482.1869"/><text fill="#FFFFFF" font-family="sans-serif" font-size="14" lengthAdjust="spacing" textLength="146.3643" x="980.82" y="504.182">Analytics Service API</text></g><!--link api to deptCtrl--><g class="link" data-entity-1="api" data-entity-2="deptCtrl" data-source-line="19" data-uid="lnk14" id="link_api_deptCtrl"><path d="M333.33,117.9669 C313.62,125.7269 295.16,137.3069 283,154.5969 C273.6,167.9669 273.6765,180.8039 277.0765,195.3739" fill="none" id="api-to-deptCtrl" style="stroke:#E7E7E7;stroke-width:1;"/><polygon fill="#E7E7E7" points="278.44,201.2169,280.2901,191.5433,277.3037,196.3477,272.4994,193.3614,278.44,201.2169" style="stroke:#E7E7E7;stroke-width:1;"/><text fill="#FFFFFF" font-family="sans-serif" font-size="13" lengthAdjust="spacing" textLength="243.0518" x="284" y="167.6638">REST calls for department operations</text></g><!--link api to studCtrl--><g class="link" data-entity-1="api" data-entity-2="studCtrl" data-source-line="20" data-uid="lnk15" id="link_api_studCtrl"><path d="M477.73,124.9869 C495.27,133.5669 514.89,143.8669 532,154.5969 C554.37,168.6169 573.3359,183.1079 590.7559,197.3579" fill="none" id="api-to-studCtrl" style="stroke:#E7E7E7;stroke-width:1;"/><polygon fill="#E7E7E7" points="595.4,201.1569,590.9665,192.3623,591.5299,197.991,585.9012,198.5545,595.4,201.1569" style="stroke:#E7E7E7;stroke-width:1;"/><text fill="#FFFFFF" font-family="sans-serif" font-size="13" lengthAdjust="spacing" textLength="233.7334" x="557" y="167.6638">REST calls for student management</text></g><!--link deptCtrl to deptRepo--><g class="link" data-entity-1="deptCtrl" data-entity-2="deptRepo" data-source-line="22" data-uid="lnk16" id="link_deptCtrl_deptRepo"><path d="M186.4,239.4869 C141.5,247.9269 95.51,260.4969 82,277.8969 C70.11,293.2069 78.8686,306.9107 94.8786,320.5207" fill="none" id="deptCtrl-to-deptRepo" style="stroke:#E7E7E7;stroke-width:1;"/><polygon fill="#E7E7E7" points="99.45,324.4069,95.1836,315.53,95.6405,321.1684,90.0021,321.6253,99.45,324.4069" style="stroke:#E7E7E7;stroke-width:1;"/><text fill="#FFFFFF" font-family="sans-serif" font-size="13" lengthAdjust="spacing" textLength="125.4487" x="83" y="290.9638">CRUD departments</text></g><!--link deptCtrl to policy--><g class="link" data-entity-1="deptCtrl" data-entity-2="policy" data-source-line="23" data-uid="lnk17" id="link_deptCtrl_policy"><path d="M242.97,248.3769 C223.93,261.3969 208.38,278.4069 221,294.8969 C231.95,309.1869 259.8727,319.1218 296.1727,327.4718" fill="none" id="deptCtrl-to-policy" style="stroke:#E7E7E7;stroke-width:1;"/><polygon fill="#E7E7E7" points="302.02,328.8169,294.1457,322.9011,297.1473,327.696,292.3524,330.6975,302.02,328.8169" style="stroke:#E7E7E7;stroke-width:1;"/><text fill="#FFFFFF" font-family="sans-serif" font-size="13" lengthAdjust="spacing" textLength="258.502" x="222" y="290.9638">Validate rules (e.g. unique dept names)</text></g><!--link studCtrl to studRepo--><g class="link" data-entity-1="studCtrl" data-entity-2="studRepo" data-source-line="25" data-uid="lnk18" id="link_studCtrl_studRepo"><path d="M647.6,248.2669 C655.36,256.6969 662.92,266.9069 667,277.8969 C672.53,292.7569 672.5166,304.7536 670.2766,318.6236" fill="none" id="studCtrl-to-studRepo" style="stroke:#E7E7E7;stroke-width:1;"/><polygon fill="#E7E7E7" points="669.32,324.5469,674.7037,316.2997,670.1172,319.6108,666.8061,315.0243,669.32,324.5469" style="stroke:#E7E7E7;stroke-width:1;"/><text fill="#FFFFFF" font-family="sans-serif" font-size="13" lengthAdjust="spacing" textLength="98.2363" x="671" y="290.9638">CRUD students</text></g><!--link studCtrl to policy--><g class="link" data-entity-1="studCtrl" data-entity-2="policy" data-source-line="26" data-uid="lnk19" id="link_studCtrl_policy"><path d="M573.21,248.3369 C555.27,257.0669 534.95,267.4669 517,277.8969 C492.23,292.2769 470.301,306.9299 450.241,321.0099" fill="none" id="studCtrl-to-policy" style="stroke:#E7E7E7;stroke-width:1;"/><polygon fill="#E7E7E7" points="445.33,324.4569,454.9945,322.5604,449.4225,321.5844,450.3985,316.0123,445.33,324.4569" style="stroke:#E7E7E7;stroke-width:1;"/><text fill="#FFFFFF" font-family="sans-serif" font-size="13" lengthAdjust="spacing" textLength="140.6387" x="518" y="290.9638">Validate student data</text></g><!--link deptRepo to deptDB--><g class="link" data-entity-1="deptRepo" data-entity-2="deptDB" data-source-line="28" data-uid="lnk20" id="link_deptRepo_deptDB"><path d="M206.78,371.6369 C231.61,379.1869 259.49,387.6169 285,395.1869 C373.6,421.4969 469.7238,449.3281 538.2738,469.0481" fill="none" id="deptRepo-to-deptDB" style="stroke:#E7E7E7;stroke-width:1;"/><polygon fill="#E7E7E7" points="544.04,470.7069,536.4966,464.3746,539.2349,469.3246,534.2849,472.0628,544.04,470.7069" style="stroke:#E7E7E7;stroke-width:1;"/><text fill="#FFFFFF" font-family="sans-serif" font-size="13" lengthAdjust="spacing" textLength="208.2539" x="370" y="416.2538">Store/Retrieve department data</text></g><!--link studRepo to deptDB--><g class="link" data-entity-1="studRepo" data-entity-2="deptDB" data-source-line="29" data-uid="lnk21" id="link_studRepo_deptDB"><path d="M639.88,371.6069 C631.96,380.5869 624.13,391.5469 620,403.1869 C612.19,425.1769 613.4518,446.1974 616.7318,464.8674" fill="none" id="studRepo-to-deptDB" style="stroke:#E7E7E7;stroke-width:1;"/><polygon fill="#E7E7E7" points="617.77,470.7769,620.1524,461.2205,616.9048,465.8523,612.273,462.6048,617.77,470.7769" style="stroke:#E7E7E7;stroke-width:1;"/><text fill="#FFFFFF" font-family="sans-serif" font-size="13" lengthAdjust="spacing" textLength="181.0415" x="621" y="416.2538">Store/Retrieve student data</text></g><!--link deptCtrl to userAPI--><g class="link" data-entity-1="deptCtrl" data-entity-2="userAPI" data-source-line="31" data-uid="lnk22" id="link_deptCtrl_userAPI"><path d="M385.38,237.9669 C413.38,241.3069 443.87,244.8369 472,247.8969 C539.93,255.2669 724.31,235.6369 778,277.8969 C838.85,325.7769 850.2175,420.1835 852.3275,464.9535" fill="none" id="deptCtrl-to-userAPI" style="stroke:#E7E7E7;stroke-width:1;"/><polygon fill="#E7E7E7" points="852.61,470.9469,856.1819,461.7685,852.3746,465.9524,848.1907,462.1452,852.61,470.9469" style="stroke:#E7E7E7;stroke-width:1;"/><text fill="#FFFFFF" font-family="sans-serif" font-size="13" lengthAdjust="spacing" textLength="286.1968" x="843" y="352.6038">Link department admins with user accounts</text></g><!--link studCtrl to notifAPI--><g class="link" data-entity-1="studCtrl" data-entity-2="notifAPI" data-source-line="32" data-uid="lnk23" id="link_studCtrl_notifAPI"><path d="M754.87,232.0169 C974.61,243.8169 1393.85,272.9269 1436,324.8969 C1455.68,349.1569 1450.73,367.6369 1436,395.1869 C1417.26,430.2369 1385.2483,452.2976 1352.8683,468.1576" fill="none" id="studCtrl-to-notifAPI" style="stroke:#E7E7E7;stroke-width:1;"/><polygon fill="#E7E7E7" points="1347.48,470.7969,1357.322,470.4302,1351.9703,468.5975,1353.803,463.2458,1347.48,470.7969" style="stroke:#E7E7E7;stroke-width:1;"/><text fill="#FFFFFF" font-family="sans-serif" font-size="13" lengthAdjust="spacing" textLength="250.0024" x="1449" y="352.6038">Send student registration notifications</text></g><!--link deptCtrl to analyticsAPI--><g class="link" data-entity-1="deptCtrl" data-entity-2="analyticsAPI" data-source-line="33" data-uid="lnk24" id="link_deptCtrl_analyticsAPI"><path d="M385.36,238.1469 C413.36,241.4869 443.86,244.9769 472,247.8969 C620.19,263.2469 1040.46,212.2769 1138,324.8969 C1176.7,369.5769 1124.011,432.2737 1088.361,466.7837" fill="none" id="deptCtrl-to-analyticsAPI" style="stroke:#E7E7E7;stroke-width:1;"/><polygon fill="#E7E7E7" points="1084.05,470.9569,1093.2986,467.5712,1087.6425,467.4792,1087.7344,461.8231,1084.05,470.9569" style="stroke:#E7E7E7;stroke-width:1;"/><text fill="#FFFFFF" font-family="sans-serif" font-size="13" lengthAdjust="spacing" textLength="239.2495" x="1151" y="352.6038">Log department creation/edit events</text></g><!--SRC=[VP8nRzmm38Lt_meYGv0Eb-mT0joT3qM0jBYScov51y9cN2Aov4fq4gFeVwzaMu9oBhhPuaU-fqS9Yo8egKSh7Mc1YkmBrmGRs9kkDpgSbOojnQueUgoViIMuM3TSmEy2uFlsU0UVKEWLHzWss0lP7u0EiETGplhsHeirIYr0GxtinQf0LJ8q0VcCsglzYtQUY7GsyqIzSIp6ZcbcECfddY5XK4I-eU86XOs6IpWQnVK81zsofWdjfvFYJnR3uStVJwE2QdH2dLj2E1edhQNguJvFjjmbK-KkO8-ERChR1pUL1t_elqFzYn5-udfsTCxfK5p0hRSm2jTkHM6i1D8xzsk0pUOsfGqVuNIelaADIZbuCZPKec7Javt4NUgBkQ_xt99lbtPM54abIeQaVUl-z5XcGkuzEEViiMKV17PGvE2Ahjjh63J_6cYQ1XexSX-A8hcA5dETnPXxJwr5uWNy3yxMfodHUhdpSENV3TsSI2pJ2-LPJLr9-dzDQvraQjczxxbd_PoFnwPZxU2LvUT40TQr6LQtYeyYg99kafQbbftCovoXvLcTHPy_b-32jBc9sjBKT4CD2_YxUFs_]--></g></svg>