<svg xmlns="http://www.w3.org/2000/svg" xmlns:xlink="http://www.w3.org/1999/xlink" contentStyleType="text/css" data-diagram-type="CLASS" height="995px" preserveAspectRatio="none" style="width:777px;height:995px;background:#1B1B1B;" version="1.1" viewBox="0 0 777 995" width="777px" zoomAndPan="magnify"><title>Attendance Service - ER Diagram</title><defs/><g><rect fill="#1B1B1B" height="995" style="stroke:none;stroke-width:1;" width="777" x="0" y="0"/><g class="title" data-source-line="1"><text fill="#FFFFFF" font-family="sans-serif" font-size="14" font-weight="bold" lengthAdjust="spacing" textLength="261.5908" x="250.8768" y="22.9951">Attendance Service - ER Diagram</text></g><!--class Attendance--><g class="entity" data-entity="Attendance" data-source-line="3" data-uid="ent0002" id="entity_Attendance"><rect fill="#313139" height="227.2656" rx="2.5" ry="2.5" style="stroke:#E7E7E7;stroke-width:0.5;" width="370.1348" x="173.84" y="283.3769"/><ellipse cx="289.6886" cy="299.3769" fill="#2E5233" rx="11" ry="11" style="stroke:#E7E7E7;stroke-width:1;"/><path d="M293.798,305.3769 L286.0793,305.3769 L286.0793,292.9863 L293.798,292.9863 L293.798,295.1425 L288.5324,295.1425 L288.5324,297.8144 L293.298,297.8144 L293.298,299.9706 L288.5324,299.9706 L288.5324,303.2206 L293.798,303.2206 L293.798,305.3769 Z " fill="#FFFFFF"/><text fill="#FFFFFF" font-family="sans-serif" font-size="14" lengthAdjust="spacing" textLength="129.9375" x="310.1886" y="304.2236">AttendanceRecord</text><line style="stroke:#E7E7E7;stroke-width:0.5;" x1="174.84" x2="542.9748" y1="315.3769" y2="315.3769"/><ellipse cx="184.84" cy="329.0253" fill="#000000" rx="3" ry="3" style="stroke:#000000;stroke-width:1;"/><text fill="#FFFFFF" font-family="sans-serif" font-size="14" lengthAdjust="spacing" textLength="148.4902" x="193.84" y="332.372">attendance_id : UUID</text><ellipse cx="184.84" cy="345.3222" fill="#000000" rx="3" ry="3" style="stroke:#000000;stroke-width:1;"/><text fill="#FFFFFF" font-family="sans-serif" font-size="14" lengthAdjust="spacing" textLength="122.3154" x="193.84" y="348.6689">student_id : UUID</text><ellipse cx="184.84" cy="361.6191" fill="#000000" rx="3" ry="3" style="stroke:#000000;stroke-width:1;"/><text fill="#FFFFFF" font-family="sans-serif" font-size="14" lengthAdjust="spacing" textLength="103.5508" x="193.84" y="364.9657">class_id : UUID</text><ellipse cx="184.84" cy="377.9159" fill="#000000" rx="3" ry="3" style="stroke:#000000;stroke-width:1;"/><text fill="#FFFFFF" font-family="sans-serif" font-size="14" lengthAdjust="spacing" textLength="119.54" x="193.84" y="381.2626">subject_id : UUID</text><ellipse cx="184.84" cy="394.2128" fill="#000000" rx="3" ry="3" style="stroke:#000000;stroke-width:1;"/><text fill="#FFFFFF" font-family="sans-serif" font-size="14" lengthAdjust="spacing" textLength="122.418" x="193.84" y="397.5595">teacher_id : UUID</text><ellipse cx="184.84" cy="410.5097" fill="#000000" rx="3" ry="3" style="stroke:#000000;stroke-width:1;"/><text fill="#FFFFFF" font-family="sans-serif" font-size="14" lengthAdjust="spacing" textLength="82.9404" x="193.84" y="413.8564">date : DATE</text><ellipse cx="184.84" cy="426.8066" fill="#000000" rx="3" ry="3" style="stroke:#000000;stroke-width:1;"/><text fill="#FFFFFF" font-family="sans-serif" font-size="14" lengthAdjust="spacing" textLength="202.7266" x="193.84" y="430.1532">recognized_by_ai : BOOLEAN</text><ellipse cx="184.84" cy="443.1034" fill="#000000" rx="3" ry="3" style="stroke:#000000;stroke-width:1;"/><text fill="#FFFFFF" font-family="sans-serif" font-size="14" lengthAdjust="spacing" textLength="154.7246" x="193.84" y="446.4501">ai_confidence : FLOAT</text><ellipse cx="184.84" cy="459.4003" fill="#000000" rx="3" ry="3" style="stroke:#000000;stroke-width:1;"/><text fill="#FFFFFF" font-family="sans-serif" font-size="14" lengthAdjust="spacing" textLength="169.4629" x="193.84" y="462.747">created_at : TIMESTAMP</text><ellipse cx="184.84" cy="475.6972" fill="#000000" rx="3" ry="3" style="stroke:#000000;stroke-width:1;"/><text fill="#FFFFFF" font-family="sans-serif" font-size="14" lengthAdjust="spacing" textLength="174.043" x="193.84" y="479.0439">updated_at : TIMESTAMP</text><line style="stroke:#E7E7E7;stroke-width:0.5;" x1="174.84" x2="542.9748" y1="486.3456" y2="486.3456"/><ellipse cx="184.84" cy="499.9941" fill="#000000" rx="3" ry="3" style="stroke:#000000;stroke-width:1;"/><text fill="#FFFFFF" font-family="sans-serif" font-size="14" lengthAdjust="spacing" textLength="344.1348" x="193.84" y="503.3407">status : ENUM('Present','Absent','Late','Excused')</text></g><!--class ClassSession--><g class="entity" data-entity="ClassSession" data-source-line="17" data-uid="ent0003" id="entity_ClassSession"><rect fill="#313139" height="210.9688" rx="2.5" ry="2.5" style="stroke:#E7E7E7;stroke-width:0.5;" width="213.4551" x="173.18" y="587.6369"/><ellipse cx="230.5335" cy="603.6369" fill="#2E5233" rx="11" ry="11" style="stroke:#E7E7E7;stroke-width:1;"/><path d="M234.6429,609.6369 L226.9241,609.6369 L226.9241,597.2462 L234.6429,597.2462 L234.6429,599.4025 L229.3773,599.4025 L229.3773,602.0744 L234.1429,602.0744 L234.1429,604.2306 L229.3773,604.2306 L229.3773,607.4806 L234.6429,607.4806 L234.6429,609.6369 Z " fill="#FFFFFF"/><text fill="#FFFFFF" font-family="sans-serif" font-size="14" lengthAdjust="spacing" textLength="90.248" x="251.0335" y="608.4836">ClassSession</text><line style="stroke:#E7E7E7;stroke-width:0.5;" x1="174.18" x2="385.6351" y1="619.6369" y2="619.6369"/><ellipse cx="184.18" cy="633.2853" fill="#000000" rx="3" ry="3" style="stroke:#000000;stroke-width:1;"/><text fill="#FFFFFF" font-family="sans-serif" font-size="14" lengthAdjust="spacing" textLength="120.6201" x="193.18" y="636.632">session_id : UUID</text><ellipse cx="184.18" cy="649.5822" fill="#000000" rx="3" ry="3" style="stroke:#000000;stroke-width:1;"/><text fill="#FFFFFF" font-family="sans-serif" font-size="14" lengthAdjust="spacing" textLength="103.5508" x="193.18" y="652.9289">class_id : UUID</text><ellipse cx="184.18" cy="665.8791" fill="#000000" rx="3" ry="3" style="stroke:#000000;stroke-width:1;"/><text fill="#FFFFFF" font-family="sans-serif" font-size="14" lengthAdjust="spacing" textLength="119.54" x="193.18" y="669.2257">subject_id : UUID</text><ellipse cx="184.18" cy="682.1759" fill="#000000" rx="3" ry="3" style="stroke:#000000;stroke-width:1;"/><text fill="#FFFFFF" font-family="sans-serif" font-size="14" lengthAdjust="spacing" textLength="122.418" x="193.18" y="685.5226">teacher_id : UUID</text><ellipse cx="184.18" cy="698.4728" fill="#000000" rx="3" ry="3" style="stroke:#000000;stroke-width:1;"/><text fill="#FFFFFF" font-family="sans-serif" font-size="14" lengthAdjust="spacing" textLength="141.7637" x="193.18" y="701.8195">session_date : DATE</text><ellipse cx="184.18" cy="714.7697" fill="#000000" rx="3" ry="3" style="stroke:#000000;stroke-width:1;"/><text fill="#FFFFFF" font-family="sans-serif" font-size="14" lengthAdjust="spacing" textLength="118.46" x="193.18" y="718.1164">start_time : TIME</text><ellipse cx="184.18" cy="731.0666" fill="#000000" rx="3" ry="3" style="stroke:#000000;stroke-width:1;"/><text fill="#FFFFFF" font-family="sans-serif" font-size="14" lengthAdjust="spacing" textLength="112.2256" x="193.18" y="734.4132">end_time : TIME</text><ellipse cx="184.18" cy="747.3634" fill="#000000" rx="3" ry="3" style="stroke:#000000;stroke-width:1;"/><text fill="#FFFFFF" font-family="sans-serif" font-size="14" lengthAdjust="spacing" textLength="187.4551" x="193.18" y="750.7101">classroom_photo_id : UUID</text><ellipse cx="184.18" cy="763.6603" fill="#000000" rx="3" ry="3" style="stroke:#000000;stroke-width:1;"/><text fill="#FFFFFF" font-family="sans-serif" font-size="14" lengthAdjust="spacing" textLength="169.4629" x="193.18" y="767.007">created_at : TIMESTAMP</text><ellipse cx="184.18" cy="779.9572" fill="#000000" rx="3" ry="3" style="stroke:#000000;stroke-width:1;"/><text fill="#FFFFFF" font-family="sans-serif" font-size="14" lengthAdjust="spacing" textLength="174.043" x="193.18" y="783.3039">updated_at : TIMESTAMP</text><line style="stroke:#E7E7E7;stroke-width:0.5;" x1="174.18" x2="385.6351" y1="790.6056" y2="790.6056"/></g><!--class AIRecognition--><g class="entity" data-entity="AIRecognition" data-source-line="30" data-uid="ent0004" id="entity_AIRecognition"><rect fill="#313139" height="162.0781" rx="2.5" ry="2.5" style="stroke:#E7E7E7;stroke-width:0.5;" width="213.4346" x="252.19" y="44.2969"/><ellipse cx="293.9228" cy="60.2969" fill="#2E5233" rx="11" ry="11" style="stroke:#E7E7E7;stroke-width:1;"/><path d="M298.0322,66.2969 L290.3134,66.2969 L290.3134,53.9063 L298.0322,53.9063 L298.0322,56.0625 L292.7666,56.0625 L292.7666,58.7344 L297.5322,58.7344 L297.5322,60.8906 L292.7666,60.8906 L292.7666,64.1406 L298.0322,64.1406 L298.0322,66.2969 Z " fill="#FFFFFF"/><text fill="#FFFFFF" font-family="sans-serif" font-size="14" lengthAdjust="spacing" textLength="122.0283" x="313.8634" y="65.1436">AIRecognitionLog</text><line style="stroke:#E7E7E7;stroke-width:0.5;" x1="253.19" x2="464.6246" y1="76.2969" y2="76.2969"/><ellipse cx="263.19" cy="89.9453" fill="#000000" rx="3" ry="3" style="stroke:#000000;stroke-width:1;"/><text fill="#FFFFFF" font-family="sans-serif" font-size="14" lengthAdjust="spacing" textLength="90.1387" x="272.19" y="93.292">log_id : UUID</text><ellipse cx="263.19" cy="106.2422" fill="#000000" rx="3" ry="3" style="stroke:#000000;stroke-width:1;"/><text fill="#FFFFFF" font-family="sans-serif" font-size="14" lengthAdjust="spacing" textLength="120.6201" x="272.19" y="109.5889">session_id : UUID</text><ellipse cx="263.19" cy="122.5391" fill="#000000" rx="3" ry="3" style="stroke:#000000;stroke-width:1;"/><text fill="#FFFFFF" font-family="sans-serif" font-size="14" lengthAdjust="spacing" textLength="122.3154" x="272.19" y="125.8857">student_id : UUID</text><ellipse cx="263.19" cy="138.8359" fill="#000000" rx="3" ry="3" style="stroke:#000000;stroke-width:1;"/><text fill="#FFFFFF" font-family="sans-serif" font-size="14" lengthAdjust="spacing" textLength="159.0859" x="272.19" y="142.1826">recognized : BOOLEAN</text><ellipse cx="263.19" cy="155.1328" fill="#000000" rx="3" ry="3" style="stroke:#000000;stroke-width:1;"/><text fill="#FFFFFF" font-family="sans-serif" font-size="14" lengthAdjust="spacing" textLength="135.2559" x="272.19" y="158.4795">confidence : FLOAT</text><ellipse cx="263.19" cy="171.4297" fill="#000000" rx="3" ry="3" style="stroke:#000000;stroke-width:1;"/><text fill="#FFFFFF" font-family="sans-serif" font-size="14" lengthAdjust="spacing" textLength="112.4033" x="272.19" y="174.7764">image_id : UUID</text><ellipse cx="263.19" cy="187.7266" fill="#000000" rx="3" ry="3" style="stroke:#000000;stroke-width:1;"/><text fill="#FFFFFF" font-family="sans-serif" font-size="14" lengthAdjust="spacing" textLength="187.4346" x="272.19" y="191.0732">processed_at : TIMESTAMP</text><line style="stroke:#E7E7E7;stroke-width:0.5;" x1="253.19" x2="464.6246" y1="198.375" y2="198.375"/></g><!--class Class--><g class="entity" data-entity="Class" data-source-line="40" data-uid="ent0005" id="entity_Class"><rect fill="#313139" height="113.1875" rx="2.5" ry="2.5" style="stroke:#E7E7E7;stroke-width:0.5;" width="147.8096" x="206" y="875.6069"/><ellipse cx="257.2388" cy="891.6069" fill="#2E5233" rx="11" ry="11" style="stroke:#E7E7E7;stroke-width:1;"/><path d="M261.3481,897.6069 L253.6294,897.6069 L253.6294,885.2163 L261.3481,885.2163 L261.3481,887.3725 L256.0825,887.3725 L256.0825,890.0444 L260.8481,890.0444 L260.8481,892.2006 L256.0825,892.2006 L256.0825,895.4506 L261.3481,895.4506 L261.3481,897.6069 Z " fill="#FFFFFF"/><text fill="#FFFFFF" font-family="sans-serif" font-size="14" lengthAdjust="spacing" textLength="36.832" x="277.7388" y="896.4536">Class</text><line style="stroke:#E7E7E7;stroke-width:0.5;" x1="207" x2="352.8096" y1="907.6069" y2="907.6069"/><ellipse cx="217" cy="921.2553" fill="#000000" rx="3" ry="3" style="stroke:#000000;stroke-width:1;"/><text fill="#FFFFFF" font-family="sans-serif" font-size="14" lengthAdjust="spacing" textLength="103.5508" x="226" y="924.602">class_id : UUID</text><ellipse cx="217" cy="937.5522" fill="#000000" rx="3" ry="3" style="stroke:#000000;stroke-width:1;"/><text fill="#FFFFFF" font-family="sans-serif" font-size="14" lengthAdjust="spacing" textLength="100.6729" x="226" y="940.8989">dept_id : UUID</text><ellipse cx="217" cy="953.8491" fill="#000000" rx="3" ry="3" style="stroke:#000000;stroke-width:1;"/><text fill="#FFFFFF" font-family="sans-serif" font-size="14" lengthAdjust="spacing" textLength="121.8096" x="226" y="957.1957">name : VARCHAR</text><ellipse cx="217" cy="970.1459" fill="#000000" rx="3" ry="3" style="stroke:#000000;stroke-width:1;"/><text fill="#FFFFFF" font-family="sans-serif" font-size="14" lengthAdjust="spacing" textLength="68.0039" x="226" y="973.4926">year : INT</text><line style="stroke:#E7E7E7;stroke-width:0.5;" x1="207" x2="352.8096" y1="980.7944" y2="980.7944"/></g><!--class Subject--><g class="entity" data-entity="Subject" data-source-line="47" data-uid="ent0006" id="entity_Subject"><rect fill="#313139" height="113.1875" rx="2.5" ry="2.5" style="stroke:#E7E7E7;stroke-width:0.5;" width="147.8096" x="7" y="875.6069"/><ellipse cx="50.5631" cy="891.6069" fill="#2E5233" rx="11" ry="11" style="stroke:#E7E7E7;stroke-width:1;"/><path d="M54.6725,897.6069 L46.9538,897.6069 L46.9538,885.2163 L54.6725,885.2163 L54.6725,887.3725 L49.4069,887.3725 L49.4069,890.0444 L54.1725,890.0444 L54.1725,892.2006 L49.4069,892.2006 L49.4069,895.4506 L54.6725,895.4506 L54.6725,897.6069 Z " fill="#FFFFFF"/><text fill="#FFFFFF" font-family="sans-serif" font-size="14" lengthAdjust="spacing" textLength="52.3359" x="70.9105" y="896.4536">Subject</text><line style="stroke:#E7E7E7;stroke-width:0.5;" x1="8" x2="153.8096" y1="907.6069" y2="907.6069"/><ellipse cx="18" cy="921.2553" fill="#000000" rx="3" ry="3" style="stroke:#000000;stroke-width:1;"/><text fill="#FFFFFF" font-family="sans-serif" font-size="14" lengthAdjust="spacing" textLength="119.54" x="27" y="924.602">subject_id : UUID</text><ellipse cx="18" cy="937.5522" fill="#000000" rx="3" ry="3" style="stroke:#000000;stroke-width:1;"/><text fill="#FFFFFF" font-family="sans-serif" font-size="14" lengthAdjust="spacing" textLength="100.6729" x="27" y="940.8989">dept_id : UUID</text><ellipse cx="18" cy="953.8491" fill="#000000" rx="3" ry="3" style="stroke:#000000;stroke-width:1;"/><text fill="#FFFFFF" font-family="sans-serif" font-size="14" lengthAdjust="spacing" textLength="121.8096" x="27" y="957.1957">name : VARCHAR</text><ellipse cx="18" cy="970.1459" fill="#000000" rx="3" ry="3" style="stroke:#000000;stroke-width:1;"/><text fill="#FFFFFF" font-family="sans-serif" font-size="14" lengthAdjust="spacing" textLength="115.8691" x="27" y="973.4926">code : VARCHAR</text><line style="stroke:#E7E7E7;stroke-width:0.5;" x1="8" x2="153.8096" y1="980.7944" y2="980.7944"/></g><!--class Student--><g class="entity" data-entity="Student" data-source-line="54" data-uid="ent0007" id="entity_Student"><rect fill="#313139" height="113.1875" rx="2.5" ry="2.5" style="stroke:#E7E7E7;stroke-width:0.5;" width="148.3154" x="604.75" y="636.5269"/><ellipse cx="647.2918" cy="652.5269" fill="#2E5233" rx="11" ry="11" style="stroke:#E7E7E7;stroke-width:1;"/><path d="M651.4012,658.5269 L643.6825,658.5269 L643.6825,646.1363 L651.4012,646.1363 L651.4012,648.2925 L646.1356,648.2925 L646.1356,650.9644 L650.9012,650.9644 L650.9012,653.1206 L646.1356,653.1206 L646.1356,656.3706 L651.4012,656.3706 L651.4012,658.5269 Z " fill="#FFFFFF"/><text fill="#FFFFFF" font-family="sans-serif" font-size="14" lengthAdjust="spacing" textLength="55.1113" x="667.4123" y="657.3736">Student</text><line style="stroke:#E7E7E7;stroke-width:0.5;" x1="605.75" x2="752.0654" y1="668.5269" y2="668.5269"/><ellipse cx="615.75" cy="682.1753" fill="#000000" rx="3" ry="3" style="stroke:#000000;stroke-width:1;"/><text fill="#FFFFFF" font-family="sans-serif" font-size="14" lengthAdjust="spacing" textLength="122.3154" x="624.75" y="685.522">student_id : UUID</text><ellipse cx="615.75" cy="698.4722" fill="#000000" rx="3" ry="3" style="stroke:#000000;stroke-width:1;"/><text fill="#FFFFFF" font-family="sans-serif" font-size="14" lengthAdjust="spacing" textLength="99.333" x="624.75" y="701.8189">user_id : UUID</text><ellipse cx="615.75" cy="714.7691" fill="#000000" rx="3" ry="3" style="stroke:#000000;stroke-width:1;"/><text fill="#FFFFFF" font-family="sans-serif" font-size="14" lengthAdjust="spacing" textLength="100.6729" x="624.75" y="718.1157">dept_id : UUID</text><ellipse cx="615.75" cy="731.0659" fill="#000000" rx="3" ry="3" style="stroke:#000000;stroke-width:1;"/><text fill="#FFFFFF" font-family="sans-serif" font-size="14" lengthAdjust="spacing" textLength="103.5508" x="624.75" y="734.4126">class_id : UUID</text><line style="stroke:#E7E7E7;stroke-width:0.5;" x1="605.75" x2="752.0654" y1="741.7144" y2="741.7144"/></g><!--class Teacher--><g class="entity" data-entity="Teacher" data-source-line="61" data-uid="ent0008" id="entity_Teacher"><rect fill="#313139" height="96.8906" rx="2.5" ry="2.5" style="stroke:#E7E7E7;stroke-width:0.5;" width="148.418" x="421.7" y="644.6769"/><ellipse cx="463.5805" cy="660.6769" fill="#2E5233" rx="11" ry="11" style="stroke:#E7E7E7;stroke-width:1;"/><path d="M467.6898,666.6769 L459.9711,666.6769 L459.9711,654.2863 L467.6898,654.2863 L467.6898,656.4425 L462.4242,656.4425 L462.4242,659.1144 L467.1898,659.1144 L467.1898,661.2706 L462.4242,661.2706 L462.4242,664.5206 L467.6898,664.5206 L467.6898,666.6769 Z " fill="#FFFFFF"/><text fill="#FFFFFF" font-family="sans-serif" font-size="14" lengthAdjust="spacing" textLength="56.6836" x="483.5539" y="665.5236">Teacher</text><line style="stroke:#E7E7E7;stroke-width:0.5;" x1="422.7" x2="569.118" y1="676.6769" y2="676.6769"/><ellipse cx="432.7" cy="690.3253" fill="#000000" rx="3" ry="3" style="stroke:#000000;stroke-width:1;"/><text fill="#FFFFFF" font-family="sans-serif" font-size="14" lengthAdjust="spacing" textLength="122.418" x="441.7" y="693.672">teacher_id : UUID</text><ellipse cx="432.7" cy="706.6222" fill="#000000" rx="3" ry="3" style="stroke:#000000;stroke-width:1;"/><text fill="#FFFFFF" font-family="sans-serif" font-size="14" lengthAdjust="spacing" textLength="99.333" x="441.7" y="709.9689">user_id : UUID</text><ellipse cx="432.7" cy="722.9191" fill="#000000" rx="3" ry="3" style="stroke:#000000;stroke-width:1;"/><text fill="#FFFFFF" font-family="sans-serif" font-size="14" lengthAdjust="spacing" textLength="100.6729" x="441.7" y="726.2657">dept_id : UUID</text><line style="stroke:#E7E7E7;stroke-width:0.5;" x1="422.7" x2="569.118" y1="733.5675" y2="733.5675"/></g><!--link Attendance to Student--><g class="link" data-entity-1="Attendance" data-entity-2="Student" data-source-line="67" data-uid="lnk9" id="link_Attendance_Student"><path codeLine="67" d="M508.9353,516.2746 C537.8653,540.6746 561.39,561.7769 587.9,587.6369 C603.32,602.6769 613.8304,613.9215 627.8104,630.0515" fill="none" id="Attendance-Student" style="stroke:#E7E7E7;stroke-width:1;"/><line style="stroke:#E7E7E7;stroke-width:1;" x1="503.2988" x2="508.4566" y1="516.7534" y2="510.6381"/><line style="stroke:#E7E7E7;stroke-width:1;" x1="505.592" x2="510.7498" y1="518.6876" y2="512.5723"/><line style="stroke:#E7E7E7;stroke-width:1;" x1="508.9353" x2="502.82" y1="516.2746" y2="511.1169"/><line style="stroke:#E7E7E7;stroke-width:1;" x1="633.4529" x2="627.4075" y1="630.4544" y2="635.694"/><line style="stroke:#E7E7E7;stroke-width:1;" x1="631.4881" x2="625.4427" y1="628.1874" y2="633.427"/><line style="stroke:#E7E7E7;stroke-width:1;" x1="627.8104" x2="633.05" y1="630.0515" y2="636.0969"/><text fill="#FFFFFF" font-family="sans-serif" font-size="13" lengthAdjust="spacing" textLength="70.6304" x="553.9" y="553.7038">belongs_to</text></g><!--link Attendance to ClassSession--><g class="link" data-entity-1="Attendance" data-entity-2="ClassSession" data-source-line="68" data-uid="lnk10" id="link_Attendance_ClassSession"><path codeLine="68" d="M326.5132,518.6026 C319.7632,543.7126 316.7943,554.7805 310.1443,579.5505" fill="none" id="Attendance-ClassSession" style="stroke:#E7E7E7;stroke-width:1;"/><line style="stroke:#E7E7E7;stroke-width:1;" x1="323.6887" x2="331.4145" y1="513.7013" y2="515.7781"/><line style="stroke:#E7E7E7;stroke-width:1;" x1="322.9099" x2="330.6357" y1="516.5985" y2="518.6753"/><line style="stroke:#E7E7E7;stroke-width:1;" x1="326.5132" x2="328.59" y1="518.6026" y2="510.8769"/><line style="stroke:#E7E7E7;stroke-width:1;" x1="312.9704" x2="305.244" y1="584.4508" y2="582.3765"/><line style="stroke:#E7E7E7;stroke-width:1;" x1="313.7482" x2="306.0218" y1="581.5534" y2="579.4791"/><line style="stroke:#E7E7E7;stroke-width:1;" x1="310.1443" x2="308.07" y1="579.5505" y2="587.2769"/><text fill="#FFFFFF" font-family="sans-serif" font-size="13" lengthAdjust="spacing" textLength="41.939" x="320.9" y="553.7038">during</text></g><!--link Attendance to Teacher--><g class="link" data-entity-1="Attendance" data-entity-2="Teacher" data-source-line="69" data-uid="lnk11" id="link_Attendance_Teacher"><path codeLine="69" d="M414.8579,518.1288 C436.4379,564.4588 453.503,601.0846 470.313,637.1846" fill="none" id="Attendance-Teacher" style="stroke:#E7E7E7;stroke-width:1;"/><line style="stroke:#E7E7E7;stroke-width:1;" x1="409.543" x2="416.7949" y1="516.1918" y2="512.8139"/><line style="stroke:#E7E7E7;stroke-width:1;" x1="410.8097" x2="418.0616" y1="518.9112" y2="515.5334"/><line style="stroke:#E7E7E7;stroke-width:1;" x1="414.8579" x2="411.48" y1="518.1288" y2="510.8769"/><line style="stroke:#E7E7E7;stroke-width:1;" x1="475.6276" x2="468.3753" y1="639.1222" y2="642.4992"/><line style="stroke:#E7E7E7;stroke-width:1;" x1="474.3612" x2="467.109" y1="636.4026" y2="639.7796"/><line style="stroke:#E7E7E7;stroke-width:1;" x1="470.313" x2="473.69" y1="637.1846" y2="644.4369"/><text fill="#FFFFFF" font-family="sans-serif" font-size="13" lengthAdjust="spacing" textLength="80.7358" x="432.9" y="553.7038">recorded_by</text></g><!--link Attendance to Subject--><g class="link" data-entity-1="Attendance" data-entity-2="Subject" data-source-line="70" data-uid="lnk12" id="link_Attendance_Subject"><path codeLine="70" d="M166.8269,511.3687 C124.4169,540.2387 94.85,565.1069 82.9,587.6369 C34.52,678.9469 49.0087,796.2099 64.5287,867.5199" fill="none" id="Attendance-Subject" style="stroke:#E7E7E7;stroke-width:1;"/><line style="stroke:#E7E7E7;stroke-width:1;" x1="167.8825" x2="172.3843" y1="505.8112" y2="512.4244"/><line style="stroke:#E7E7E7;stroke-width:1;" x1="165.4026" x2="169.9044" y1="507.4994" y2="514.1125"/><line style="stroke:#E7E7E7;stroke-width:1;" x1="166.8269" x2="173.44" y1="511.3687" y2="506.8669"/><line style="stroke:#E7E7E7;stroke-width:1;" x1="69.2879" x2="61.4708" y1="870.5777" y2="872.279"/><line style="stroke:#E7E7E7;stroke-width:1;" x1="68.6499" x2="60.8329" y1="867.6463" y2="869.3476"/><line style="stroke:#E7E7E7;stroke-width:1;" x1="64.5287" x2="66.23" y1="867.5199" y2="875.3369"/><text fill="#FFFFFF" font-family="sans-serif" font-size="13" lengthAdjust="spacing" textLength="71.4937" x="83.9" y="697.6938">for_subject</text></g><!--link ClassSession to Class--><g class="link" data-entity-1="ClassSession" data-entity-2="Class" data-source-line="71" data-uid="lnk13" id="link_ClassSession_Class"><path codeLine="71" d="M279.9,806.7969 C279.9,833.0969 279.9,844.3169 279.9,867.1869" fill="none" id="ClassSession-Class" style="stroke:#E7E7E7;stroke-width:1;"/><line style="stroke:#E7E7E7;stroke-width:1;" x1="275.9" x2="283.9" y1="802.7969" y2="802.7969"/><line style="stroke:#E7E7E7;stroke-width:1;" x1="275.9" x2="283.9" y1="805.7969" y2="805.7969"/><line style="stroke:#E7E7E7;stroke-width:1;" x1="279.9" x2="279.9" y1="806.7969" y2="798.7969"/><line style="stroke:#E7E7E7;stroke-width:1;" x1="283.9" x2="275.9" y1="871.1869" y2="871.1869"/><line style="stroke:#E7E7E7;stroke-width:1;" x1="283.9" x2="275.9" y1="868.1869" y2="868.1869"/><line style="stroke:#E7E7E7;stroke-width:1;" x1="279.9" x2="279.9" y1="867.1869" y2="875.1869"/><text fill="#FFFFFF" font-family="sans-serif" font-size="13" lengthAdjust="spacing" textLength="70.6304" x="280.9" y="841.6738">belongs_to</text></g><!--link ClassSession to Subject--><g class="link" data-entity-1="ClassSession" data-entity-2="Subject" data-source-line="72" data-uid="lnk14" id="link_ClassSession_Subject"><path codeLine="72" d="M186.8975,804.925 C164.8275,831.225 152.2638,846.1898 133.0638,869.0598" fill="none" id="ClassSession-Subject" style="stroke:#E7E7E7;stroke-width:1;"/><line style="stroke:#E7E7E7;stroke-width:1;" x1="186.4047" x2="192.5328" y1="799.2897" y2="804.4322"/><line style="stroke:#E7E7E7;stroke-width:1;" x1="184.4762" x2="190.6044" y1="801.5878" y2="806.7303"/><line style="stroke:#E7E7E7;stroke-width:1;" x1="186.8975" x2="192.04" y1="804.925" y2="798.7969"/><line style="stroke:#E7E7E7;stroke-width:1;" x1="133.5555" x2="127.4284" y1="874.6953" y2="869.5514"/><line style="stroke:#E7E7E7;stroke-width:1;" x1="135.4844" x2="129.3573" y1="872.3976" y2="867.2538"/><line style="stroke:#E7E7E7;stroke-width:1;" x1="133.0638" x2="127.92" y1="869.0598" y2="875.1869"/><text fill="#FFFFFF" font-family="sans-serif" font-size="13" lengthAdjust="spacing" textLength="71.4937" x="163.9" y="841.6738">for_subject</text></g><!--link AIRecognition to Attendance--><g class="link" data-entity-1="AIRecognition" data-entity-2="Attendance" data-source-line="73" data-uid="lnk15" id="link_AIRecognition_Attendance"><path codeLine="73" d="M358.9,214.5169 C358.9,238.5769 358.9,249.4469 358.9,275.1969" fill="none" id="AIRecognition-Attendance" style="stroke:#E7E7E7;stroke-width:1;"/><line style="stroke:#E7E7E7;stroke-width:1;" x1="354.9" x2="362.9" y1="210.5169" y2="210.5169"/><line style="stroke:#E7E7E7;stroke-width:1;" x1="354.9" x2="362.9" y1="213.5169" y2="213.5169"/><line style="stroke:#E7E7E7;stroke-width:1;" x1="358.9" x2="358.9" y1="214.5169" y2="206.5169"/><line style="stroke:#E7E7E7;stroke-width:1;" x1="362.9" x2="354.9" y1="279.1969" y2="279.1969"/><line style="stroke:#E7E7E7;stroke-width:1;" x1="362.9" x2="354.9" y1="276.1969" y2="276.1969"/><line style="stroke:#E7E7E7;stroke-width:1;" x1="358.9" x2="358.9" y1="275.1969" y2="283.1969"/><text fill="#FFFFFF" font-family="sans-serif" font-size="13" lengthAdjust="spacing" textLength="65.8188" x="359.9" y="249.4438">related_to</text></g><!--link AIRecognition to Student--><g class="link" data-entity-1="AIRecognition" data-entity-2="Student" data-source-line="74" data-uid="lnk16" id="link_AIRecognition_Student"><path codeLine="74" d="M472.3433,194.1837 C507.3133,219.4637 537.03,246.6769 561.9,283.3769 C636.96,394.1269 663.4623,544.9997 673.0823,628.3097" fill="none" id="AIRecognition-Student" style="stroke:#E7E7E7;stroke-width:1;"/><line style="stroke:#E7E7E7;stroke-width:1;" x1="466.7582" x2="471.4451" y1="195.082" y2="188.5986"/><line style="stroke:#E7E7E7;stroke-width:1;" x1="469.1895" x2="473.8763" y1="196.8395" y2="190.3562"/><line style="stroke:#E7E7E7;stroke-width:1;" x1="472.3433" x2="465.86" y1="194.1837" y2="189.4969"/><line style="stroke:#E7E7E7;stroke-width:1;" x1="677.5148" x2="669.5676" y1="631.8244" y2="632.7421"/><line style="stroke:#E7E7E7;stroke-width:1;" x1="677.1706" x2="669.2234" y1="628.8442" y2="629.7619"/><line style="stroke:#E7E7E7;stroke-width:1;" x1="673.0823" x2="674" y1="628.3097" y2="636.2569"/><text fill="#FFFFFF" font-family="sans-serif" font-size="13" lengthAdjust="spacing" textLength="117.4443" x="651.9" y="401.5738">identified_student</text></g><!--link AIRecognition to ClassSession--><g class="link" data-entity-1="AIRecognition" data-entity-2="ClassSession" data-source-line="75" data-uid="lnk17" id="link_AIRecognition_ClassSession"><path codeLine="75" d="M244.7125,166.9011 C190.6225,191.7911 137.19,227.1269 105.9,283.3769 C56.8,371.6469 68.24,416.9169 105.9,510.6369 C120.39,546.6869 140.2425,573.8913 167.2725,601.4913" fill="none" id="AIRecognition-ClassSession" style="stroke:#E7E7E7;stroke-width:1;"/><line style="stroke:#E7E7E7;stroke-width:1;" x1="246.6742" x2="250.0184" y1="161.5952" y2="168.8627"/><line style="stroke:#E7E7E7;stroke-width:1;" x1="243.9489" x2="247.2931" y1="162.8493" y2="170.1168"/><line style="stroke:#E7E7E7;stroke-width:1;" x1="244.7125" x2="251.98" y1="166.9011" y2="163.5569"/><line style="stroke:#E7E7E7;stroke-width:1;" x1="172.929" x2="167.2135" y1="601.5503" y2="607.1479"/><line style="stroke:#E7E7E7;stroke-width:1;" x1="170.8299" x2="165.1144" y1="599.407" y2="605.0045"/><line style="stroke:#E7E7E7;stroke-width:1;" x1="167.2725" x2="172.87" y1="601.4913" y2="607.2069"/><text fill="#FFFFFF" font-family="sans-serif" font-size="13" lengthAdjust="spacing" textLength="48.1216" x="106.9" y="401.5738">session</text></g><!--SRC=[hLHDZzCm4BttLrXxAI3w1t8Bso0gzMELfbmZrvvcZTAuiXr4eVnt9hQxSOrNNGbESLx6yzwycOaHfWMI6mCTfnq3iWNrNU1pHegIp0Lj53rE9j0POSxaOGmiWKd57mZLuUrV4q8-4Fe2r8AJZEnsYxdze4tFCLM4ifPg7KVs-s_0uaW3b3s3Yb1E3U3xFAyApq9Dhn4frhlLk-cJ0esaqu_JVEyFIxo1Z-87wpNmwNjxJM55JIT-0g_tvveAJF1firaM-TeL9MeckuF00jX0ztcvoIkdNm7cupKr25UBLR6jyjMJ_TIVUEhJxz7Hnw7uBMWjP6VT307lftPl_zcsQzQ4VShKHXp1QxOeDlGlp2fGKXxhqxCqCjRtBxRaYzArmw34fMpSe8MWzwQLpIjrlMNqnfv7tNwbrU98ctYeJqeofBpVvR6zNdkgWnnEiSYEMjk_vkNZbxoqq1ceGcYnhaAMhUk-vV7dwmGbv-9jN4po40hvdAUEpvslV4ctSTdKVGcnAm5XvGRP4lgp9qoF-7r2J1xylYwNsUnoUQab8tjePTVesiX4sCscPeJtIdHD8kwgDBFZfhZzmQHeVSioSf2gzYsRtB24pBVoKc7fXBTRv4C3DOFCrgxdK7KgUFHdM14Z3WA3VSlJDoAh_8h-0G00]--></g></svg>