<svg xmlns="http://www.w3.org/2000/svg" xmlns:xlink="http://www.w3.org/1999/xlink" contentStyleType="text/css" data-diagram-type="CLASS" height="783px" preserveAspectRatio="none" style="width:778px;height:783px;background:#1B1B1B;" version="1.1" viewBox="0 0 778 783" width="778px" zoomAndPan="magnify"><title>Department Service - ER Diagram (Updated)</title><defs/><g><rect fill="#1B1B1B" height="783" style="stroke:none;stroke-width:1;" width="778" x="0" y="0"/><g class="title" data-source-line="1"><text fill="#FFFFFF" font-family="sans-serif" font-size="14" font-weight="bold" lengthAdjust="spacing" textLength="350.3418" x="206.8506" y="22.9951">Department Service - ER Diagram (Updated)</text></g><!--class Department--><g class="entity" data-entity="Department" data-source-line="3" data-uid="ent0002" id="entity_Department"><rect fill="#313139" height="129.4844" rx="2.5" ry="2.5" style="stroke:#E7E7E7;stroke-width:0.5;" width="200.043" x="206" y="44.2969"/><ellipse cx="259.4126" cy="60.2969" fill="#2E5233" rx="11" ry="11" style="stroke:#E7E7E7;stroke-width:1;"/><path d="M263.522,66.2969 L255.8032,66.2969 L255.8032,53.9063 L263.522,53.9063 L263.522,56.0625 L258.2563,56.0625 L258.2563,58.7344 L263.022,58.7344 L263.022,60.8906 L258.2563,60.8906 L258.2563,64.1406 L263.522,64.1406 L263.522,66.2969 Z " fill="#FFFFFF"/><text fill="#FFFFFF" font-family="sans-serif" font-size="14" lengthAdjust="spacing" textLength="84.7178" x="279.9126" y="65.1436">Department</text><line style="stroke:#E7E7E7;stroke-width:0.5;" x1="207" x2="405.043" y1="76.2969" y2="76.2969"/><ellipse cx="217" cy="89.9453" fill="#000000" rx="3" ry="3" style="stroke:#000000;stroke-width:1;"/><text fill="#FFFFFF" font-family="sans-serif" font-size="14" lengthAdjust="spacing" textLength="100.6729" x="226" y="93.292">dept_id : UUID</text><ellipse cx="217" cy="106.2422" fill="#000000" rx="3" ry="3" style="stroke:#000000;stroke-width:1;"/><text fill="#FFFFFF" font-family="sans-serif" font-size="14" lengthAdjust="spacing" textLength="121.8096" x="226" y="109.5889">name : VARCHAR</text><ellipse cx="217" cy="122.5391" fill="#000000" rx="3" ry="3" style="stroke:#000000;stroke-width:1;"/><text fill="#FFFFFF" font-family="sans-serif" font-size="14" lengthAdjust="spacing" textLength="126.998" x="226" y="125.8857">description : TEXT</text><ellipse cx="217" cy="138.8359" fill="#000000" rx="3" ry="3" style="stroke:#000000;stroke-width:1;"/><text fill="#FFFFFF" font-family="sans-serif" font-size="14" lengthAdjust="spacing" textLength="169.4629" x="226" y="142.1826">created_at : TIMESTAMP</text><ellipse cx="217" cy="155.1328" fill="#000000" rx="3" ry="3" style="stroke:#000000;stroke-width:1;"/><text fill="#FFFFFF" font-family="sans-serif" font-size="14" lengthAdjust="spacing" textLength="174.043" x="226" y="158.4795">updated_at : TIMESTAMP</text><line style="stroke:#E7E7E7;stroke-width:0.5;" x1="207" x2="405.043" y1="165.7813" y2="165.7813"/></g><!--class Class--><g class="entity" data-entity="Class" data-source-line="11" data-uid="ent0003" id="entity_Class"><rect fill="#313139" height="145.7813" rx="2.5" ry="2.5" style="stroke:#E7E7E7;stroke-width:0.5;" width="200.043" x="7" y="250.7769"/><ellipse cx="84.3555" cy="266.7769" fill="#2E5233" rx="11" ry="11" style="stroke:#E7E7E7;stroke-width:1;"/><path d="M88.4648,272.7769 L80.7461,272.7769 L80.7461,260.3863 L88.4648,260.3863 L88.4648,262.5425 L83.1992,262.5425 L83.1992,265.2144 L87.9648,265.2144 L87.9648,267.3706 L83.1992,267.3706 L83.1992,270.6206 L88.4648,270.6206 L88.4648,272.7769 Z " fill="#FFFFFF"/><text fill="#FFFFFF" font-family="sans-serif" font-size="14" lengthAdjust="spacing" textLength="36.832" x="104.8555" y="271.6236">Class</text><line style="stroke:#E7E7E7;stroke-width:0.5;" x1="8" x2="206.043" y1="282.7769" y2="282.7769"/><ellipse cx="18" cy="296.4253" fill="#000000" rx="3" ry="3" style="stroke:#000000;stroke-width:1;"/><text fill="#FFFFFF" font-family="sans-serif" font-size="14" lengthAdjust="spacing" textLength="103.5508" x="27" y="299.772">class_id : UUID</text><ellipse cx="18" cy="312.7222" fill="#000000" rx="3" ry="3" style="stroke:#000000;stroke-width:1;"/><text fill="#FFFFFF" font-family="sans-serif" font-size="14" lengthAdjust="spacing" textLength="100.6729" x="27" y="316.0689">dept_id : UUID</text><ellipse cx="18" cy="329.0191" fill="#000000" rx="3" ry="3" style="stroke:#000000;stroke-width:1;"/><text fill="#FFFFFF" font-family="sans-serif" font-size="14" lengthAdjust="spacing" textLength="121.8096" x="27" y="332.3657">name : VARCHAR</text><ellipse cx="18" cy="345.3159" fill="#000000" rx="3" ry="3" style="stroke:#000000;stroke-width:1;"/><text fill="#FFFFFF" font-family="sans-serif" font-size="14" lengthAdjust="spacing" textLength="68.0039" x="27" y="348.6626">year : INT</text><ellipse cx="18" cy="361.6128" fill="#000000" rx="3" ry="3" style="stroke:#000000;stroke-width:1;"/><text fill="#FFFFFF" font-family="sans-serif" font-size="14" lengthAdjust="spacing" textLength="169.4629" x="27" y="364.9595">created_at : TIMESTAMP</text><ellipse cx="18" cy="377.9097" fill="#000000" rx="3" ry="3" style="stroke:#000000;stroke-width:1;"/><text fill="#FFFFFF" font-family="sans-serif" font-size="14" lengthAdjust="spacing" textLength="174.043" x="27" y="381.2564">updated_at : TIMESTAMP</text><line style="stroke:#E7E7E7;stroke-width:0.5;" x1="8" x2="206.043" y1="388.5581" y2="388.5581"/></g><!--class Student--><g class="entity" data-entity="Student" data-source-line="20" data-uid="ent0004" id="entity_Student"><rect fill="#313139" height="178.375" rx="2.5" ry="2.5" style="stroke:#E7E7E7;stroke-width:0.5;" width="250.8271" x="115.61" y="473.5569"/><ellipse cx="209.2179" cy="489.5569" fill="#2E5233" rx="11" ry="11" style="stroke:#E7E7E7;stroke-width:1;"/><path d="M213.3273,495.5569 L205.6085,495.5569 L205.6085,483.1663 L213.3273,483.1663 L213.3273,485.3225 L208.0617,485.3225 L208.0617,487.9944 L212.8273,487.9944 L212.8273,490.1506 L208.0617,490.1506 L208.0617,493.4006 L213.3273,493.4006 L213.3273,495.5569 Z " fill="#FFFFFF"/><text fill="#FFFFFF" font-family="sans-serif" font-size="14" lengthAdjust="spacing" textLength="55.1113" x="229.7179" y="494.4036">Student</text><line style="stroke:#E7E7E7;stroke-width:0.5;" x1="116.61" x2="365.4371" y1="505.5569" y2="505.5569"/><ellipse cx="126.61" cy="519.2053" fill="#000000" rx="3" ry="3" style="stroke:#000000;stroke-width:1;"/><text fill="#FFFFFF" font-family="sans-serif" font-size="14" lengthAdjust="spacing" textLength="122.3154" x="135.61" y="522.552">student_id : UUID</text><ellipse cx="126.61" cy="535.5022" fill="#000000" rx="3" ry="3" style="stroke:#000000;stroke-width:1;"/><text fill="#FFFFFF" font-family="sans-serif" font-size="14" lengthAdjust="spacing" textLength="99.333" x="135.61" y="538.8489">user_id : UUID</text><ellipse cx="126.61" cy="551.7991" fill="#000000" rx="3" ry="3" style="stroke:#000000;stroke-width:1;"/><text fill="#FFFFFF" font-family="sans-serif" font-size="14" lengthAdjust="spacing" textLength="100.6729" x="135.61" y="555.1457">dept_id : UUID</text><ellipse cx="126.61" cy="568.0959" fill="#000000" rx="3" ry="3" style="stroke:#000000;stroke-width:1;"/><text fill="#FFFFFF" font-family="sans-serif" font-size="14" lengthAdjust="spacing" textLength="103.5508" x="135.61" y="571.4426">class_id : UUID</text><ellipse cx="126.61" cy="584.3928" fill="#000000" rx="3" ry="3" style="stroke:#000000;stroke-width:1;"/><text fill="#FFFFFF" font-family="sans-serif" font-size="14" lengthAdjust="spacing" textLength="224.8271" x="135.61" y="587.7395">registration_number : VARCHAR</text><ellipse cx="126.61" cy="600.6897" fill="#000000" rx="3" ry="3" style="stroke:#000000;stroke-width:1;"/><text fill="#FFFFFF" font-family="sans-serif" font-size="14" lengthAdjust="spacing" textLength="166.1406" x="135.61" y="604.0364">enrollment_date : DATE</text><ellipse cx="126.61" cy="616.9866" fill="#000000" rx="3" ry="3" style="stroke:#000000;stroke-width:1;"/><text fill="#FFFFFF" font-family="sans-serif" font-size="14" lengthAdjust="spacing" textLength="169.4629" x="135.61" y="620.3332">created_at : TIMESTAMP</text><ellipse cx="126.61" cy="633.2834" fill="#000000" rx="3" ry="3" style="stroke:#000000;stroke-width:1;"/><text fill="#FFFFFF" font-family="sans-serif" font-size="14" lengthAdjust="spacing" textLength="174.043" x="135.61" y="636.6301">updated_at : TIMESTAMP</text><line style="stroke:#E7E7E7;stroke-width:0.5;" x1="116.61" x2="365.4371" y1="643.9319" y2="643.9319"/></g><!--class Teacher--><g class="entity" data-entity="Teacher" data-source-line="31" data-uid="ent0005" id="entity_Teacher"><rect fill="#313139" height="129.4844" rx="2.5" ry="2.5" style="stroke:#E7E7E7;stroke-width:0.5;" width="200.043" x="336" y="258.9269"/><ellipse cx="403.4297" cy="274.9269" fill="#2E5233" rx="11" ry="11" style="stroke:#E7E7E7;stroke-width:1;"/><path d="M407.5391,280.9269 L399.8203,280.9269 L399.8203,268.5363 L407.5391,268.5363 L407.5391,270.6925 L402.2734,270.6925 L402.2734,273.3644 L407.0391,273.3644 L407.0391,275.5206 L402.2734,275.5206 L402.2734,278.7706 L407.5391,278.7706 L407.5391,280.9269 Z " fill="#FFFFFF"/><text fill="#FFFFFF" font-family="sans-serif" font-size="14" lengthAdjust="spacing" textLength="56.6836" x="423.9297" y="279.7736">Teacher</text><line style="stroke:#E7E7E7;stroke-width:0.5;" x1="337" x2="535.043" y1="290.9269" y2="290.9269"/><ellipse cx="347" cy="304.5753" fill="#000000" rx="3" ry="3" style="stroke:#000000;stroke-width:1;"/><text fill="#FFFFFF" font-family="sans-serif" font-size="14" lengthAdjust="spacing" textLength="122.418" x="356" y="307.922">teacher_id : UUID</text><ellipse cx="347" cy="320.8722" fill="#000000" rx="3" ry="3" style="stroke:#000000;stroke-width:1;"/><text fill="#FFFFFF" font-family="sans-serif" font-size="14" lengthAdjust="spacing" textLength="99.333" x="356" y="324.2189">user_id : UUID</text><ellipse cx="347" cy="337.1691" fill="#000000" rx="3" ry="3" style="stroke:#000000;stroke-width:1;"/><text fill="#FFFFFF" font-family="sans-serif" font-size="14" lengthAdjust="spacing" textLength="100.6729" x="356" y="340.5157">dept_id : UUID</text><ellipse cx="347" cy="353.4659" fill="#000000" rx="3" ry="3" style="stroke:#000000;stroke-width:1;"/><text fill="#FFFFFF" font-family="sans-serif" font-size="14" lengthAdjust="spacing" textLength="169.4629" x="356" y="356.8126">created_at : TIMESTAMP</text><ellipse cx="347" cy="369.7628" fill="#000000" rx="3" ry="3" style="stroke:#000000;stroke-width:1;"/><text fill="#FFFFFF" font-family="sans-serif" font-size="14" lengthAdjust="spacing" textLength="174.043" x="356" y="373.1095">updated_at : TIMESTAMP</text><line style="stroke:#E7E7E7;stroke-width:0.5;" x1="337" x2="535.043" y1="380.4113" y2="380.4113"/></g><!--class Subject--><g class="entity" data-entity="Subject" data-source-line="39" data-uid="ent0006" id="entity_Subject"><rect fill="#313139" height="145.7813" rx="2.5" ry="2.5" style="stroke:#E7E7E7;stroke-width:0.5;" width="200.043" x="571" y="250.7769"/><ellipse cx="640.6035" cy="266.7769" fill="#2E5233" rx="11" ry="11" style="stroke:#E7E7E7;stroke-width:1;"/><path d="M644.7129,272.7769 L636.9941,272.7769 L636.9941,260.3863 L644.7129,260.3863 L644.7129,262.5425 L639.4473,262.5425 L639.4473,265.2144 L644.2129,265.2144 L644.2129,267.3706 L639.4473,267.3706 L639.4473,270.6206 L644.7129,270.6206 L644.7129,272.7769 Z " fill="#FFFFFF"/><text fill="#FFFFFF" font-family="sans-serif" font-size="14" lengthAdjust="spacing" textLength="52.3359" x="661.1035" y="271.6236">Subject</text><line style="stroke:#E7E7E7;stroke-width:0.5;" x1="572" x2="770.043" y1="282.7769" y2="282.7769"/><ellipse cx="582" cy="296.4253" fill="#000000" rx="3" ry="3" style="stroke:#000000;stroke-width:1;"/><text fill="#FFFFFF" font-family="sans-serif" font-size="14" lengthAdjust="spacing" textLength="119.54" x="591" y="299.772">subject_id : UUID</text><ellipse cx="582" cy="312.7222" fill="#000000" rx="3" ry="3" style="stroke:#000000;stroke-width:1;"/><text fill="#FFFFFF" font-family="sans-serif" font-size="14" lengthAdjust="spacing" textLength="121.8096" x="591" y="316.0689">name : VARCHAR</text><ellipse cx="582" cy="329.0191" fill="#000000" rx="3" ry="3" style="stroke:#000000;stroke-width:1;"/><text fill="#FFFFFF" font-family="sans-serif" font-size="14" lengthAdjust="spacing" textLength="115.8691" x="591" y="332.3657">code : VARCHAR</text><ellipse cx="582" cy="345.3159" fill="#000000" rx="3" ry="3" style="stroke:#000000;stroke-width:1;"/><text fill="#FFFFFF" font-family="sans-serif" font-size="14" lengthAdjust="spacing" textLength="100.6729" x="591" y="348.6626">dept_id : UUID</text><ellipse cx="582" cy="361.6128" fill="#000000" rx="3" ry="3" style="stroke:#000000;stroke-width:1;"/><text fill="#FFFFFF" font-family="sans-serif" font-size="14" lengthAdjust="spacing" textLength="169.4629" x="591" y="364.9595">created_at : TIMESTAMP</text><ellipse cx="582" cy="377.9097" fill="#000000" rx="3" ry="3" style="stroke:#000000;stroke-width:1;"/><text fill="#FFFFFF" font-family="sans-serif" font-size="14" lengthAdjust="spacing" textLength="174.043" x="591" y="381.2564">updated_at : TIMESTAMP</text><line style="stroke:#E7E7E7;stroke-width:0.5;" x1="572" x2="770.043" y1="388.5581" y2="388.5581"/></g><!--class TeacherSubj--><g class="entity" data-entity="TeacherSubj" data-source-line="48" data-uid="ent0007" id="entity_TeacherSubj"><rect fill="#313139" height="80.5938" rx="2.5" ry="2.5" style="stroke:#E7E7E7;stroke-width:0.5;" width="148.418" x="563.81" y="522.4569"/><ellipse cx="582.1393" cy="538.4569" fill="#2E5233" rx="11" ry="11" style="stroke:#E7E7E7;stroke-width:1;"/><path d="M586.2487,544.4569 L578.5299,544.4569 L578.5299,532.0663 L586.2487,532.0663 L586.2487,534.2225 L580.983,534.2225 L580.983,536.8944 L585.7487,536.8944 L585.7487,539.0506 L580.983,539.0506 L580.983,542.3006 L586.2487,542.3006 L586.2487,544.4569 Z " fill="#FFFFFF"/><text fill="#FFFFFF" font-family="sans-serif" font-size="14" lengthAdjust="spacing" textLength="109.0195" x="596.8791" y="543.3036">TeacherSubject</text><line style="stroke:#E7E7E7;stroke-width:0.5;" x1="564.81" x2="711.228" y1="554.4569" y2="554.4569"/><ellipse cx="574.81" cy="568.1053" fill="#000000" rx="3" ry="3" style="stroke:#000000;stroke-width:1;"/><text fill="#FFFFFF" font-family="sans-serif" font-size="14" lengthAdjust="spacing" textLength="122.418" x="583.81" y="571.452">teacher_id : UUID</text><ellipse cx="574.81" cy="584.4022" fill="#000000" rx="3" ry="3" style="stroke:#000000;stroke-width:1;"/><text fill="#FFFFFF" font-family="sans-serif" font-size="14" lengthAdjust="spacing" textLength="119.54" x="583.81" y="587.7489">subject_id : UUID</text><line style="stroke:#E7E7E7;stroke-width:0.5;" x1="564.81" x2="711.228" y1="595.0506" y2="595.0506"/></g><!--class User--><g class="entity" data-entity="User" data-source-line="57" data-uid="ent0012" id="entity_User"><rect fill="#313139" height="48" rx="2.5" ry="2.5" style="stroke:#E7E7E7;stroke-width:0.5;" width="63.9102" x="306.07" y="728.9369"/><ellipse cx="321.07" cy="744.9369" fill="#2E5233" rx="11" ry="11" style="stroke:#E7E7E7;stroke-width:1;"/><path d="M324.0388,750.5775 Q323.4606,750.8744 322.82,751.015 Q322.1794,751.1713 321.4763,751.1713 Q318.9763,751.1713 317.6481,749.5306 Q316.3356,747.8744 316.3356,744.7494 Q316.3356,741.6244 317.6481,739.9681 Q318.9763,738.3119 321.4763,738.3119 Q322.1794,738.3119 322.82,738.4681 Q323.4763,738.6244 324.0388,738.9213 L324.0388,741.64 Q323.4138,741.0619 322.82,740.7963 Q322.2263,740.515 321.6013,740.515 Q320.2575,740.515 319.57,741.5931 Q318.8825,742.6556 318.8825,744.7494 Q318.8825,746.8431 319.57,747.9213 Q320.2575,748.9838 321.6013,748.9838 Q322.2263,748.9838 322.82,748.7181 Q323.4138,748.4369 324.0388,747.8588 L324.0388,750.5775 Z " fill="#FFFFFF"/><text fill="#FFFFFF" font-family="sans-serif" font-size="14" lengthAdjust="spacing" textLength="31.9102" x="335.07" y="749.7836">User</text><line style="stroke:#E7E7E7;stroke-width:0.5;" x1="307.07" x2="368.9802" y1="760.9369" y2="760.9369"/><line style="stroke:#E7E7E7;stroke-width:0.5;" x1="307.07" x2="368.9802" y1="768.9369" y2="768.9369"/></g><!--link Department to Class--><g class="link" data-entity-1="Department" data-entity-2="Class" data-source-line="53" data-uid="lnk8" id="link_Department_Class"><path codeLine="53" d="M218.6892,179.4325 C208.0092,188.9925 203.47,193.6969 194.02,203.7769 C180.64,218.0569 178.2392,219.9789 166.3792,235.9089" fill="none" id="Department-Class" style="stroke:#E7E7E7;stroke-width:1;"/><line style="stroke:#E7E7E7;stroke-width:1;" x1="219.0018" x2="224.3375" y1="173.7843" y2="179.7451"/><line style="stroke:#E7E7E7;stroke-width:1;" x1="216.7665" x2="222.1022" y1="175.7852" y2="181.746"/><line style="stroke:#E7E7E7;stroke-width:1;" x1="218.6892" x2="224.65" y1="179.4325" y2="174.0969"/><line style="stroke:#E7E7E7;stroke-width:1;" x1="160.4074" x2="160.4427" y1="243.93" y2="253.9299"/><line style="stroke:#E7E7E7;stroke-width:1;" x1="160.4074" x2="150.8173" y1="243.93" y2="246.7638"/><line style="stroke:#E7E7E7;stroke-width:1;" x1="160.4074" x2="155.63" y1="243.93" y2="250.3469"/><ellipse cx="163.9905" cy="239.1173" fill="none" rx="4" ry="4" style="stroke:#E7E7E7;stroke-width:1;"/><text fill="#FFFFFF" font-family="sans-serif" font-size="13" lengthAdjust="spacing" textLength="55.0278" x="195.02" y="216.8438">contains</text></g><!--link Department to Student--><g class="link" data-entity-1="Department" data-entity-2="Student" data-source-line="54" data-uid="lnk9" id="link_Department_Student"><path codeLine="54" d="M295.6404,182.1953 C284.3704,260.5053 268.9749,367.5105 256.3149,455.4505" fill="none" id="Department-Student" style="stroke:#E7E7E7;stroke-width:1;"/><line style="stroke:#E7E7E7;stroke-width:1;" x1="292.251" x2="300.1694" y1="177.6663" y2="178.8059"/><line style="stroke:#E7E7E7;stroke-width:1;" x1="291.8237" x2="299.7421" y1="180.6357" y2="181.7753"/><line style="stroke:#E7E7E7;stroke-width:1;" x1="295.6404" x2="296.78" y1="182.1953" y2="174.2769"/><line style="stroke:#E7E7E7;stroke-width:1;" x1="254.8899" x2="259.6888" y1="465.3485" y2="474.1218"/><line style="stroke:#E7E7E7;stroke-width:1;" x1="254.8899" x2="247.8112" y1="465.3485" y2="472.4119"/><line style="stroke:#E7E7E7;stroke-width:1;" x1="254.8899" x2="253.75" y1="465.3485" y2="473.2669"/><ellipse cx="255.7449" cy="459.4097" fill="none" rx="4" ry="4" style="stroke:#E7E7E7;stroke-width:1;"/><text fill="#FFFFFF" font-family="sans-serif" font-size="13" lengthAdjust="spacing" textLength="22.9785" x="286.02" y="328.2338">has</text></g><!--link Department to Teacher--><g class="link" data-entity-1="Department" data-entity-2="Teacher" data-source-line="55" data-uid="lnk10" id="link_Department_Teacher"><path codeLine="55" d="M349.3724,180.9526 C365.7424,207.7326 371.1737,216.5879 387.5337,243.3579" fill="none" id="Department-Teacher" style="stroke:#E7E7E7;stroke-width:1;"/><line style="stroke:#E7E7E7;stroke-width:1;" x1="343.8733" x2="350.6991" y1="179.626" y2="175.4535"/><line style="stroke:#E7E7E7;stroke-width:1;" x1="345.438" x2="352.2637" y1="182.1856" y2="178.0132"/><line style="stroke:#E7E7E7;stroke-width:1;" x1="349.3724" x2="345.2" y1="180.9526" y2="174.1269"/><line style="stroke:#E7E7E7;stroke-width:1;" x1="392.7483" x2="402.0396" y1="251.8907" y2="255.5881"/><line style="stroke:#E7E7E7;stroke-width:1;" x1="392.7483" x2="391.8004" y1="251.8907" y2="261.8457"/><line style="stroke:#E7E7E7;stroke-width:1;" x1="392.7483" x2="396.92" y1="251.8907" y2="258.7169"/><ellipse cx="389.6195" cy="246.771" fill="none" rx="4" ry="4" style="stroke:#E7E7E7;stroke-width:1;"/><text fill="#FFFFFF" font-family="sans-serif" font-size="13" lengthAdjust="spacing" textLength="22.9785" x="372.02" y="216.8438">has</text></g><!--link Class to Student--><g class="link" data-entity-1="Class" data-entity-2="Student" data-source-line="56" data-uid="lnk11" id="link_Class_Student"><path codeLine="56" d="M151.707,403.7311 C165.337,427.8411 167.8952,432.3655 182.1452,457.5855" fill="none" id="Class-Student" style="stroke:#E7E7E7;stroke-width:1;"/><line style="stroke:#E7E7E7;stroke-width:1;" x1="146.2564" x2="153.2206" y1="402.2175" y2="398.2805"/><line style="stroke:#E7E7E7;stroke-width:1;" x1="147.7328" x2="154.697" y1="404.829" y2="400.892"/><line style="stroke:#E7E7E7;stroke-width:1;" x1="151.707" x2="147.77" y1="403.7311" y2="396.7669"/><line style="stroke:#E7E7E7;stroke-width:1;" x1="187.0645" x2="196.2238" y1="466.2918" y2="470.3053"/><line style="stroke:#E7E7E7;stroke-width:1;" x1="187.0645" x2="185.7762" y1="466.2918" y2="476.2085"/><line style="stroke:#E7E7E7;stroke-width:1;" x1="187.0645" x2="191" y1="466.2918" y2="473.2569"/><ellipse cx="184.113" cy="461.068" fill="none" rx="4" ry="4" style="stroke:#E7E7E7;stroke-width:1;"/><text fill="#FFFFFF" font-family="sans-serif" font-size="13" lengthAdjust="spacing" textLength="22.9785" x="175.02" y="439.6238">has</text></g><!--link Student to User--><g class="link" data-entity-1="Student" data-entity-2="User" data-source-line="57" data-uid="lnk13" id="link_Student_User"><path codeLine="57" d="M290.3472,659.4469 C304.8972,687.6569 312.4443,702.3261 322.4143,721.6661" fill="none" id="Student-User" style="stroke:#E7E7E7;stroke-width:1;stroke-dasharray:7,7;"/><line style="stroke:#E7E7E7;stroke-width:1;" x1="290.3472" x2="281.3475" y1="659.4469" y2="655.0872"/><line style="stroke:#E7E7E7;stroke-width:1;" x1="290.3472" x2="292.0125" y1="659.4469" y2="649.5865"/><line style="stroke:#E7E7E7;stroke-width:1;" x1="290.3472" x2="286.68" y1="659.4469" y2="652.3369"/><line style="stroke:#E7E7E7;stroke-width:1;" x1="287.7089" x2="294.8189" y1="663.0579" y2="659.3908"/><line style="stroke:#E7E7E7;stroke-width:1;" x1="327.8025" x2="320.6918" y1="723.3887" y2="727.0543"/><line style="stroke:#E7E7E7;stroke-width:1;" x1="326.4279" x2="319.3172" y1="720.7221" y2="724.3878"/><line style="stroke:#E7E7E7;stroke-width:1;" x1="322.4143" x2="326.08" y1="721.6661" y2="728.7769"/><text fill="#FFFFFF" font-family="sans-serif" font-size="13" lengthAdjust="spacing" textLength="58.792" x="310.02" y="695.0038">linked_to</text></g><!--link Teacher to User--><g class="link" data-entity-1="Teacher" data-entity-2="User" data-source-line="58" data-uid="lnk14" id="link_Teacher_User"><path codeLine="58" d="M434.7402,396.7401 C431.5802,473.3201 419.96,596.0469 377.02,698.9369 C372.62,709.4769 370.6145,713.5566 363.8245,722.3066" fill="none" id="Teacher-User" style="stroke:#E7E7E7;stroke-width:1;stroke-dasharray:7,7;"/><line style="stroke:#E7E7E7;stroke-width:1;" x1="434.7402" x2="429.0751" y1="396.7401" y2="388.4995"/><line style="stroke:#E7E7E7;stroke-width:1;" x1="434.7402" x2="441.0649" y1="396.7401" y2="388.9942"/><line style="stroke:#E7E7E7;stroke-width:1;" x1="434.7402" x2="435.07" y1="396.7401" y2="388.7469"/><line style="stroke:#E7E7E7;stroke-width:1;" x1="430.6611" x2="438.6543" y1="398.5735" y2="398.9033"/><line style="stroke:#E7E7E7;stroke-width:1;" x1="364.5324" x2="358.2121" y1="727.919" y2="723.0145"/><line style="stroke:#E7E7E7;stroke-width:1;" x1="366.3716" x2="360.0513" y1="725.5489" y2="720.6444"/><line style="stroke:#E7E7E7;stroke-width:1;" x1="363.8245" x2="358.92" y1="722.3066" y2="728.6269"/><text fill="#FFFFFF" font-family="sans-serif" font-size="13" lengthAdjust="spacing" textLength="58.792" x="429.02" y="567.3138">linked_to</text></g><!--link Department to Subject--><g class="link" data-entity-1="Department" data-entity-2="Subject" data-source-line="59" data-uid="lnk15" id="link_Department_Subject"><path codeLine="59" d="M413.3008,169.8422 C458.6208,195.3622 505.75,222.2669 554.02,250.7769 C559.46,253.9969 549.5878,248.0681 555.1978,251.4281" fill="none" id="Department-Subject" style="stroke:#E7E7E7;stroke-width:1;"/><line style="stroke:#E7E7E7;stroke-width:1;" x1="407.8527" x2="411.778" y1="171.3649" y2="164.3941"/><line style="stroke:#E7E7E7;stroke-width:1;" x1="410.4668" x2="414.3921" y1="172.8369" y2="165.8661"/><line style="stroke:#E7E7E7;stroke-width:1;" x1="413.3008" x2="406.33" y1="169.8422" y2="165.9169"/><line style="stroke:#E7E7E7;stroke-width:1;" x1="563.7768" x2="573.7229" y1="256.5663" y2="255.5295"/><line style="stroke:#E7E7E7;stroke-width:1;" x1="563.7768" x2="567.5571" y1="256.5663" y2="265.8243"/><line style="stroke:#E7E7E7;stroke-width:1;" x1="563.7768" x2="570.64" y1="256.5663" y2="260.6769"/><ellipse cx="558.6294" cy="253.4834" fill="none" rx="4" ry="4" style="stroke:#E7E7E7;stroke-width:1;"/><text fill="#FFFFFF" font-family="sans-serif" font-size="13" lengthAdjust="spacing" textLength="37.2227" x="501.02" y="216.8438">offers</text></g><!--link Teacher to TeacherSubj--><g class="link" data-entity-1="Teacher" data-entity-2="TeacherSubj" data-source-line="60" data-uid="lnk16" id="link_Teacher_TeacherSubj"><path codeLine="60" d="M495.8784,394.9163 C532.0984,437.4263 561.6053,472.0665 592.5553,508.3865" fill="none" id="Teacher-TeacherSubj" style="stroke:#E7E7E7;stroke-width:1;"/><line style="stroke:#E7E7E7;stroke-width:1;" x1="490.2395" x2="496.3289" y1="394.4658" y2="389.2774"/><line style="stroke:#E7E7E7;stroke-width:1;" x1="492.1851" x2="498.2745" y1="396.7493" y2="391.5609"/><line style="stroke:#E7E7E7;stroke-width:1;" x1="495.8784" x2="490.69" y1="394.9163" y2="388.8269"/><line style="stroke:#E7E7E7;stroke-width:1;" x1="599.0412" x2="608.7968" y1="515.9978" y2="518.1953"/><line style="stroke:#E7E7E7;stroke-width:1;" x1="599.0412" x2="599.6632" y1="515.9978" y2="525.9785"/><line style="stroke:#E7E7E7;stroke-width:1;" x1="599.0412" x2="604.23" y1="515.9978" y2="522.0869"/><ellipse cx="595.1496" cy="511.431" fill="none" rx="4" ry="4" style="stroke:#E7E7E7;stroke-width:1;"/><text fill="#FFFFFF" font-family="sans-serif" font-size="13" lengthAdjust="spacing" textLength="51.2192" x="538.02" y="439.6238">teaches</text></g><!--link Subject to TeacherSubj--><g class="link" data-entity-1="Subject" data-entity-2="TeacherSubj" data-source-line="61" data-uid="lnk17" id="link_Subject_TeacherSubj"><path codeLine="61" d="M659.8864,404.6904 C654.1564,445.8304 650.7834,470.089 646.0334,504.189" fill="none" id="Subject-TeacherSubj" style="stroke:#E7E7E7;stroke-width:1;"/><line style="stroke:#E7E7E7;stroke-width:1;" x1="656.4764" x2="664.4" y1="400.1768" y2="401.2804"/><line style="stroke:#E7E7E7;stroke-width:1;" x1="656.0626" x2="663.9861" y1="403.1482" y2="404.2517"/><line style="stroke:#E7E7E7;stroke-width:1;" x1="659.8864" x2="660.99" y1="404.6904" y2="396.7669"/><line style="stroke:#E7E7E7;stroke-width:1;" x1="644.6537" x2="649.4926" y1="514.0934" y2="522.8447"/><line style="stroke:#E7E7E7;stroke-width:1;" x1="644.6537" x2="637.6074" y1="514.0934" y2="521.1891"/><line style="stroke:#E7E7E7;stroke-width:1;" x1="644.6537" x2="643.55" y1="514.0934" y2="522.0169"/><ellipse cx="645.4815" cy="508.1508" fill="none" rx="4" ry="4" style="stroke:#E7E7E7;stroke-width:1;"/><text fill="#FFFFFF" font-family="sans-serif" font-size="13" lengthAdjust="spacing" textLength="65.3364" x="657.02" y="439.6238">taught_by</text></g><!--SRC=[hPFFRe904CRlFCN4Kzj47u0R4P9wi6aKcjx82gDk2mlP7PeOyTsxB4kbIcjJlSs_7NxVjmjnoX1yB9ca70N14kK7Jn3642p0vsmZMGvtKPaomlJUSVGCfnsCZaT6m5H_mzu1U80KIufv2Yv4qSmt9S5orFcBjvW-UWixfHB9I-A5q9qmU0rDEP7OV2vcr5Hdys0PUlDdqwfQajFMuKWspPXI1if4bYTfuXEWlp7ka4bTcZtTW6r9LTfPPcFBfzhi1ATIA2z33scJkE6A96kiZKMLhr2Uw48XYonhhYnki7NNzyBWUeqXicIBqcYqiTL8RVO_ZLVPNgtUCB6sjt5dUvjTVWL9aPu_tjjIMhFwiBtIhnwUoz1xU_zaNO_7nTx-4AuM8uXneGP6kbVfmfODzRiRRVljmi6ZNNQe9vEwXaYPGnaNxze4AfnkqK_z0JHxSouKwpLAzRNYEvenoxL6QGvxQdY8LPijnQlT9m00]--></g></svg>