<svg xmlns="http://www.w3.org/2000/svg" xmlns:xlink="http://www.w3.org/1999/xlink" contentStyleType="text/css" data-diagram-type="DESCRIPTION" height="951px" preserveAspectRatio="none" style="width:460px;height:951px;background:#003153;" version="1.1" viewBox="0 0 460 951" width="460px" zoomAndPan="magnify"><defs/><g><rect fill="#003153" height="951" style="stroke:none;stroke-width:1;" width="460" x="0" y="0"/><!--cluster VISION System--><g class="cluster" data-entity="VISION System" data-source-line="8" data-uid="ent0006" id="cluster_VISION System"><rect fill="#003153" height="933" rx="2.5" ry="2.5" style="stroke:#D9D3D0;stroke-width:1;" width="265.6" x="189.03" y="12"/><text fill="#D9D3D0" font-family="Verdana" font-size="14" font-weight="bold" lengthAdjust="spacing" textLength="118.1455" x="262.7572" y="26.9951">VISION System</text></g><!--entity UC1--><g class="entity" data-entity="UC1" data-source-line="9" data-uid="ent0007" id="entity_UC1"><ellipse cx="321.8309" cy="299.0002" fill="#003153" rx="116.8009" ry="25.7602" style="stroke:#D9D3D0;stroke-width:1;"/><text fill="#D9D3D0" font-family="Verdana" font-size="14" lengthAdjust="spacing" textLength="212.5156" x="215.5731" y="303.6486">Create / Manage Departments</text></g><!--entity UC2--><g class="entity" data-entity="UC2" data-source-line="10" data-uid="ent0008" id="entity_UC2"><ellipse cx="321.8336" cy="214.0047" fill="#003153" rx="111.6236" ry="24.7247" style="stroke:#D9D3D0;stroke-width:1;"/><text fill="#D9D3D0" font-family="Verdana" font-size="14" lengthAdjust="spacing" textLength="201.3867" x="221.1402" y="218.6532">Manage Department Admins</text></g><!--entity UC3--><g class="entity" data-entity="UC3" data-source-line="11" data-uid="ent0009" id="entity_UC3"><ellipse cx="321.8344" cy="448.0009" fill="#003153" rx="77.2044" ry="17.8409" style="stroke:#D9D3D0;stroke-width:1;"/><text fill="#D9D3D0" font-family="Verdana" font-size="14" lengthAdjust="spacing" textLength="124.0381" x="259.8153" y="452.6493">Manage Teachers</text></g><!--entity UC4--><g class="entity" data-entity="UC4" data-source-line="12" data-uid="ent0010" id="entity_UC4"><ellipse cx="321.8286" cy="376.9997" fill="#003153" rx="76.5486" ry="17.7097" style="stroke:#D9D3D0;stroke-width:1;"/><text fill="#D9D3D0" font-family="Verdana" font-size="14" lengthAdjust="spacing" textLength="122.4658" x="260.5957" y="381.6482">Manage Students</text></g><!--entity UC5--><g class="entity" data-entity="UC5" data-source-line="13" data-uid="ent0011" id="entity_UC5"><ellipse cx="321.827" cy="132.9994" fill="#003153" rx="96.147" ry="21.6294" style="stroke:#D9D3D0;stroke-width:1;"/><text fill="#D9D3D0" font-family="Verdana" font-size="14" lengthAdjust="spacing" textLength="167.5283" x="238.0628" y="137.6478">Institution-wide Reports</text></g><!--entity UC6--><g class="entity" data-entity="UC6" data-source-line="14" data-uid="ent0012" id="entity_UC6"><ellipse cx="321.8322" cy="62.0036" fill="#003153" rx="55.1222" ry="14.5236" style="stroke:#D9D3D0;stroke-width:1;"/><text fill="#D9D3D0" font-family="Verdana" font-size="14" lengthAdjust="spacing" textLength="73.7119" x="284.9762" y="66.6521">Audit Logs</text></g><!--entity UC7--><g class="entity" data-entity="UC7" data-source-line="15" data-uid="ent0013" id="entity_UC7"><ellipse cx="321.8305" cy="520.0021" fill="#003153" rx="85.5105" ry="19.5021" style="stroke:#D9D3D0;stroke-width:1;"/><text fill="#D9D3D0" font-family="Verdana" font-size="14" lengthAdjust="spacing" textLength="143.5" x="250.0805" y="524.6505">Department Reports</text></g><!--entity UC8--><g class="entity" data-entity="UC8" data-source-line="16" data-uid="ent0014" id="entity_UC8"><ellipse cx="321.8283" cy="750.9997" fill="#003153" rx="89.9483" ry="20.3897" style="stroke:#D9D3D0;stroke-width:1;"/><text fill="#D9D3D0" font-family="Verdana" font-size="14" lengthAdjust="spacing" textLength="153.624" x="245.0163" y="755.6481">Class Attendance Ops</text></g><!--entity UC9--><g class="entity" data-entity="UC9" data-source-line="17" data-uid="ent0015" id="entity_UC9"><ellipse cx="321.8252" cy="597.003" fill="#003153" rx="100.6652" ry="22.533" style="stroke:#D9D3D0;stroke-width:1;"/><text fill="#D9D3D0" font-family="Verdana" font-size="14" lengthAdjust="spacing" textLength="177.5225" x="233.0639" y="601.6515">Edit / Correct Attendance</text></g><!--entity UC10--><g class="entity" data-entity="UC10" data-source-line="18" data-uid="ent0016" id="entity_UC10"><ellipse cx="321.8266" cy="675.0013" fill="#003153" rx="92.7566" ry="20.9513" style="stroke:#D9D3D0;stroke-width:1;"/><text fill="#D9D3D0" font-family="Verdana" font-size="14" lengthAdjust="spacing" textLength="159.9541" x="241.8496" y="679.6498">View Class Attendance</text></g><!--entity UC11--><g class="entity" data-entity="UC11" data-source-line="19" data-uid="ent0017" id="entity_UC11"><ellipse cx="321.8255" cy="908.0031" fill="#003153" rx="91.8655" ry="20.7731" style="stroke:#D9D3D0;stroke-width:1;"/><text fill="#D9D3D0" font-family="Verdana" font-size="14" lengthAdjust="spacing" textLength="157.9512" x="242.8499" y="912.6515">Submit Leave Request</text></g><!--entity UC12--><g class="entity" data-entity="UC12" data-source-line="20" data-uid="ent0018" id="entity_UC12"><ellipse cx="321.8323" cy="829.0045" fill="#003153" rx="103.2223" ry="23.0445" style="stroke:#D9D3D0;stroke-width:1;"/><text fill="#D9D3D0" font-family="Verdana" font-size="14" lengthAdjust="spacing" textLength="183.1348" x="230.2649" y="833.6529">View Personal Attendance</text></g><!--entity PA--><g class="entity" data-entity="PA" data-source-line="3" data-uid="ent0002" id="entity_PA"><ellipse cx="78.0189" cy="227.35" fill="#003153" rx="8" ry="8" style="stroke:#D9D3D0;stroke-width:1;"/><path d="M78.0189,235.35 L78.0189,262.35 M65.0189,243.35 L91.0189,243.35 M78.0189,262.35 L65.0189,277.35 M78.0189,262.35 L91.0189,277.35" fill="none" style="stroke:#D9D3D0;stroke-width:1;"/><text fill="#D9D3D0" font-family="Verdana" font-size="14" lengthAdjust="spacing" textLength="109.2178" x="23.41" y="292.3451">Principal Admin</text></g><!--entity DA--><g class="entity" data-entity="DA" data-source-line="4" data-uid="ent0003" id="entity_DA"><ellipse cx="78.0161" cy="454.35" fill="#003153" rx="8" ry="8" style="stroke:#D9D3D0;stroke-width:1;"/><path d="M78.0161,462.35 L78.0161,489.35 M65.0161,470.35 L91.0161,470.35 M78.0161,489.35 L65.0161,504.35 M78.0161,489.35 L91.0161,504.35" fill="none" style="stroke:#D9D3D0;stroke-width:1;"/><text fill="#D9D3D0" font-family="Verdana" font-size="14" lengthAdjust="spacing" textLength="134.0322" x="11" y="519.3451">Department Admin</text></g><!--entity T--><g class="entity" data-entity="T" data-source-line="5" data-uid="ent0004" id="entity_T"><ellipse cx="78.0118" cy="645.35" fill="#003153" rx="8" ry="8" style="stroke:#D9D3D0;stroke-width:1;"/><path d="M78.0118,653.35 L78.0118,680.35 M65.0118,661.35 L91.0118,661.35 M78.0118,680.35 L65.0118,695.35 M78.0118,680.35 L91.0118,695.35" fill="none" style="stroke:#D9D3D0;stroke-width:1;"/><text fill="#D9D3D0" font-family="Verdana" font-size="14" lengthAdjust="spacing" textLength="56.6836" x="49.67" y="710.3451">Teacher</text></g><!--entity S--><g class="entity" data-entity="S" data-source-line="6" data-uid="ent0005" id="entity_S"><ellipse cx="78.0157" cy="838.35" fill="#003153" rx="8" ry="8" style="stroke:#D9D3D0;stroke-width:1;"/><path d="M78.0157,846.35 L78.0157,873.35 M65.0157,854.35 L91.0157,854.35 M78.0157,873.35 L65.0157,888.35 M78.0157,873.35 L91.0157,888.35" fill="none" style="stroke:#D9D3D0;stroke-width:1;"/><text fill="#D9D3D0" font-family="Verdana" font-size="14" lengthAdjust="spacing" textLength="55.1113" x="50.46" y="903.3451">Student</text></g><!--link PA to UC1--><g class="link" data-entity-1="PA" data-entity-2="UC1" data-source-line="23" data-uid="lnk19" id="link_PA_UC1"><path d="M132.98,266.37 C161.24,271.28 190.7085,276.4031 223.1185,282.0331" fill="none" id="PA-to-UC1" style="stroke:#D9D3D0;stroke-width:1;"/><polygon fill="#D9D3D0" points="229.03,283.06,220.8474,277.5787,224.1038,282.2043,219.4782,285.4606,229.03,283.06" style="stroke:#D9D3D0;stroke-width:1;"/></g><!--link PA to UC2--><g class="link" data-entity-1="PA" data-entity-2="UC2" data-source-line="24" data-uid="lnk20" id="link_PA_UC2"><path d="M132.98,247.4 C162.63,242.13 194.2124,236.5089 227.8924,230.5289" fill="none" id="PA-to-UC2" style="stroke:#D9D3D0;stroke-width:1;"/><polygon fill="#D9D3D0" points="233.8,229.48,224.2393,227.115,228.877,230.3541,225.6379,234.9918,233.8,229.48" style="stroke:#D9D3D0;stroke-width:1;"/></g><!--link PA to UC3--><g class="link" data-entity-1="PA" data-entity-2="UC3" data-source-line="25" data-uid="lnk21" id="link_PA_UC3"><path d="M94.84,296.1 C111.2,331.62 140.14,382.78 181.03,412 C201.42,426.57 221.3561,433.9794 245.2161,439.1494" fill="none" id="PA-to-UC3" style="stroke:#D9D3D0;stroke-width:1;"/><polygon fill="#D9D3D0" points="251.08,440.42,243.1312,434.6048,246.1934,439.3612,241.4371,442.4234,251.08,440.42" style="stroke:#D9D3D0;stroke-width:1;"/></g><!--link PA to UC4--><g class="link" data-entity-1="PA" data-entity-2="UC4" data-source-line="26" data-uid="lnk22" id="link_PA_UC4"><path d="M117.21,295.89 C135.21,312.26 157.81,330.2 181.03,342 C204.57,353.95 226.5856,360.7315 251.2256,366.0615" fill="none" id="PA-to-UC4" style="stroke:#D9D3D0;stroke-width:1;"/><polygon fill="#D9D3D0" points="257.09,367.33,249.1392,361.5176,252.203,366.2729,247.4478,369.3368,257.09,367.33" style="stroke:#D9D3D0;stroke-width:1;"/></g><!--link PA to UC5--><g class="link" data-entity-1="PA" data-entity-2="UC5" data-source-line="27" data-uid="lnk23" id="link_PA_UC5"><path d="M117.84,217.96 C135.79,201.77 158.17,184 181.03,172 C201.67,161.17 219.8526,154.616 242.0526,148.696" fill="none" id="PA-to-UC5" style="stroke:#D9D3D0;stroke-width:1;"/><polygon fill="#D9D3D0" points="247.85,147.15,238.1232,145.604,243.0188,148.4383,240.1845,153.3339,247.85,147.15" style="stroke:#D9D3D0;stroke-width:1;"/></g><!--link PA to UC6--><g class="link" data-entity-1="PA" data-entity-2="UC6" data-source-line="28" data-uid="lnk24" id="link_PA_UC6"><path d="M93.08,218.13 C108.72,180.54 137.64,124.86 181.03,94 C205.99,76.25 233.2899,68.9424 261.0999,65.3324" fill="none" id="PA-to-UC6" style="stroke:#D9D3D0;stroke-width:1;"/><polygon fill="#D9D3D0" points="267.05,64.56,257.61,61.7518,262.0916,65.2036,258.6398,69.6853,267.05,64.56" style="stroke:#D9D3D0;stroke-width:1;"/></g><!--link DA to UC3--><g class="link" data-entity-1="DA" data-entity-2="UC3" data-source-line="30" data-uid="lnk25" id="link_DA_UC3"><path d="M145.41,474.12 C179.81,468.99 215.7154,463.6535 249.9054,458.5635" fill="none" id="DA-to-UC3" style="stroke:#D9D3D0;stroke-width:1;"/><polygon fill="#D9D3D0" points="255.84,457.68,246.3491,455.0489,250.8945,458.4163,247.5271,462.9617,255.84,457.68" style="stroke:#D9D3D0;stroke-width:1;"/></g><!--link DA to UC4--><g class="link" data-entity-1="DA" data-entity-2="UC4" data-source-line="31" data-uid="lnk26" id="link_DA_UC4"><path d="M127.46,445.03 C143.75,433.4 162.5,421.5 181.03,413 C205.86,401.61 229.0373,394.7113 254.1973,389.0313" fill="none" id="DA-to-UC4" style="stroke:#D9D3D0;stroke-width:1;"/><polygon fill="#D9D3D0" points="260.05,387.71,250.3901,385.7901,255.1727,388.8111,252.1518,393.5937,260.05,387.71" style="stroke:#D9D3D0;stroke-width:1;"/></g><!--link DA to UC7--><g class="link" data-entity-1="DA" data-entity-2="UC7" data-source-line="32" data-uid="lnk27" id="link_DA_UC7"><path d="M145.41,493.88 C177.71,498.69 210.6353,503.5969 243.5653,508.4969" fill="none" id="DA-to-UC7" style="stroke:#D9D3D0;stroke-width:1;"/><polygon fill="#D9D3D0" points="249.5,509.38,241.1867,504.0989,244.5545,508.6441,240.0093,512.0118,249.5,509.38" style="stroke:#D9D3D0;stroke-width:1;"/></g><!--link DA to UC9--><g class="link" data-entity-1="DA" data-entity-2="UC9" data-source-line="33" data-uid="lnk28" id="link_DA_UC9"><path d="M126.43,523.06 C142.95,535.24 162.11,547.86 181.03,557 C202.06,567.15 220.3566,573.5923 242.5466,579.7223" fill="none" id="DA-to-UC9" style="stroke:#D9D3D0;stroke-width:1;"/><polygon fill="#D9D3D0" points="248.33,581.32,240.72,575.0679,243.5105,579.9886,238.5898,582.7791,248.33,581.32" style="stroke:#D9D3D0;stroke-width:1;"/></g><!--link T to UC8--><g class="link" data-entity-1="T" data-entity-2="UC8" data-source-line="35" data-uid="lnk29" id="link_T_UC8"><path d="M106.49,686.01 C126.89,693.99 155.48,704.79 181.03,713 C206.77,721.27 229.749,727.7676 254.469,734.2976" fill="none" id="T-to-UC8" style="stroke:#D9D3D0;stroke-width:1;"/><polygon fill="#D9D3D0" points="260.27,735.83,252.5901,729.6641,255.4358,734.553,250.5469,737.3988,260.27,735.83" style="stroke:#D9D3D0;stroke-width:1;"/></g><!--link T to UC9--><g class="link" data-entity-1="T" data-entity-2="UC9" data-source-line="36" data-uid="lnk30" id="link_T_UC9"><path d="M106.52,664.09 C126.94,656.16 155.54,645.38 181.03,637 C205.37,629 226.6137,622.6729 250.3537,616.0029" fill="none" id="T-to-UC9" style="stroke:#D9D3D0;stroke-width:1;"/><polygon fill="#D9D3D0" points="256.13,614.38,246.3835,612.9635,251.3164,615.7324,248.5474,620.6653,256.13,614.38" style="stroke:#D9D3D0;stroke-width:1;"/></g><!--link T to UC10--><g class="link" data-entity-1="T" data-entity-2="UC10" data-source-line="37" data-uid="lnk31" id="link_T_UC10"><path d="M106.76,675 C136.47,675 179.23,675 222.71,675" fill="none" id="T-to-UC10" style="stroke:#D9D3D0;stroke-width:1;"/><polygon fill="#D9D3D0" points="228.71,675,219.71,671,223.71,675,219.71,679,228.71,675" style="stroke:#D9D3D0;stroke-width:1;"/></g><!--link S to UC11--><g class="link" data-entity-1="S" data-entity-2="UC11" data-source-line="39" data-uid="lnk32" id="link_S_UC11"><path d="M105.82,872.43 C139.51,878.01 192.8004,886.821 240.5704,894.721" fill="none" id="S-to-UC11" style="stroke:#D9D3D0;stroke-width:1;"/><polygon fill="#D9D3D0" points="246.49,895.7,238.2632,890.2852,241.557,894.8842,236.958,898.178,246.49,895.7" style="stroke:#D9D3D0;stroke-width:1;"/></g><!--link S to UC12--><g class="link" data-entity-1="S" data-entity-2="UC12" data-source-line="40" data-uid="lnk33" id="link_S_UC12"><path d="M105.82,863.68 C137.36,858.59 185.3366,850.8554 231.2766,843.4454" fill="none" id="S-to-UC12" style="stroke:#D9D3D0;stroke-width:1;"/><polygon fill="#D9D3D0" points="237.2,842.49,227.6779,839.9742,232.2638,843.2862,228.9518,847.8721,237.2,842.49" style="stroke:#D9D3D0;stroke-width:1;"/></g><!--SRC=[PP5DJyCm38Rl-HMc9pXCOztt1QbQEKm2Lj71FMjD5wbDI-eo8SH_fnvDKzZjaTydZkDSqH4BX4FUO6MK9f7Z6m6LO5Hs94YLmOHKgOLCg3JWHQsKg4hc4AI5qXx86gB0fY5Mqb21cWPnsCTxbCaHpRcwjyMOchGzS2x6Gl1zKcSvWlUwZRUx9uW_QyB2Woy1SBqnA0bX38zIomp1tLZVS8UNpOIrY_Ht7klu0wSRoaRJGTIDPgCPHrjTawA6Tp8wgHJX6QlIzCwSdQ195S53cTdgWgk3OVwUMPuVbikwXe08TIfrWh2hRBxY_9vRZc5J6jxGGEoaDKkl2a_mlvFTooqRSNCeU3QK7ppwUuCrMM7IjuZQVPIQF_cYYo- -XOW268tkpilkqNSuTJXpE7Uu429qSkZa7fSErqBiErprjEwfVPU8BKyS-Zy0]--></g></svg>