<svg xmlns="http://www.w3.org/2000/svg" xmlns:xlink="http://www.w3.org/1999/xlink" contentStyleType="text/css" data-diagram-type="DESCRIPTION" height="701px" preserveAspectRatio="none" style="width:3206px;height:701px;background:#1B1B1B;" version="1.1" viewBox="0 0 3206 701" width="3206px" zoomAndPan="magnify"><title>Media / Storage Service - Component Diagram</title><defs/><g><rect fill="#1B1B1B" height="701" style="stroke:none;stroke-width:1;" width="3206" x="0" y="0"/><g class="title" data-source-line="1"><text fill="#FFFFFF" font-family="sans-serif" font-size="14" font-weight="bold" lengthAdjust="spacing" textLength="365.3945" x="1413.3027" y="22.9951">Media / Storage Service - Component Diagram</text></g><!--cluster Media / Storage Service--><g class="cluster" data-entity="Media . Storage Service" data-source-line="3" data-uid="ent0002" id="cluster_Media . Storage Service"><path d="M8.5,43.2969 L197.3926,43.2969 A3.75,3.75 0 0 1 199.8926,45.7969 L206.8926,65.5938 L1661.5,65.5938 A2.5,2.5 0 0 1 1664,68.0938 L1664,692.2769 A2.5,2.5 0 0 1 1661.5,694.7769 L8.5,694.7769 A2.5,2.5 0 0 1 6,692.2769 L6,45.7969 A2.5,2.5 0 0 1 8.5,43.2969" fill="none" style="stroke:#FFFFFF;stroke-width:1.5;"/><line style="stroke:#FFFFFF;stroke-width:1.5;" x1="6" x2="206.8926" y1="65.5938" y2="65.5938"/><text fill="#FFFFFF" font-family="sans-serif" font-size="14" font-weight="bold" lengthAdjust="spacing" textLength="187.8926" x="10" y="58.292">Media / Storage Service</text></g><!--cluster External Systems--><g class="cluster" data-entity="External Systems" data-source-line="15" data-uid="ent0012" id="cluster_External Systems"><path d="M1690.5,206.5869 L1828.9229,206.5869 A3.75,3.75 0 0 1 1831.4229,209.0869 L1838.4229,228.8838 L3196.5,228.8838 A2.5,2.5 0 0 1 3199,231.3838 L3199,320.3869 A2.5,2.5 0 0 1 3196.5,322.8869 L1690.5,322.8869 A2.5,2.5 0 0 1 1688,320.3869 L1688,209.0869 A2.5,2.5 0 0 1 1690.5,206.5869" fill="none" style="stroke:#FFFFFF;stroke-width:1.5;"/><line style="stroke:#FFFFFF;stroke-width:1.5;" x1="1688" x2="1838.4229" y1="228.8838" y2="228.8838"/><text fill="#FFFFFF" font-family="sans-serif" font-size="14" font-weight="bold" lengthAdjust="spacing" textLength="137.4229" x="1692" y="221.582">External Systems</text></g><!--entity api--><g class="entity" data-entity="api" data-source-line="4" data-uid="ent0003" id="entity_api"><rect fill="#313139" height="46.2969" rx="2.5" ry="2.5" style="stroke:#E7E7E7;stroke-width:0.5;" width="188.6816" x="419.66" y="97.2969"/><rect fill="#313139" height="10" style="stroke:#E7E7E7;stroke-width:0.5;" width="15" x="588.3416" y="102.2969"/><rect fill="#313139" height="2" style="stroke:#E7E7E7;stroke-width:0.5;" width="4" x="586.3416" y="104.2969"/><rect fill="#313139" height="2" style="stroke:#E7E7E7;stroke-width:0.5;" width="4" x="586.3416" y="108.2969"/><text fill="#FFFFFF" font-family="sans-serif" font-size="14" lengthAdjust="spacing" textLength="148.6816" x="434.66" y="130.292">API Gateway Adapter</text></g><!--entity mediaCtrl--><g class="entity" data-entity="mediaCtrl" data-source-line="5" data-uid="ent0004" id="entity_mediaCtrl"><rect fill="#313139" height="46.2969" rx="2.5" ry="2.5" style="stroke:#E7E7E7;stroke-width:0.5;" width="155.6709" x="22.16" y="260.5869"/><rect fill="#313139" height="10" style="stroke:#E7E7E7;stroke-width:0.5;" width="15" x="157.8309" y="265.5869"/><rect fill="#313139" height="2" style="stroke:#E7E7E7;stroke-width:0.5;" width="4" x="155.8309" y="267.5869"/><rect fill="#313139" height="2" style="stroke:#E7E7E7;stroke-width:0.5;" width="4" x="155.8309" y="271.5869"/><text fill="#FFFFFF" font-family="sans-serif" font-size="14" lengthAdjust="spacing" textLength="115.6709" x="37.16" y="293.582">Media Controller</text></g><!--entity uploadMgr--><g class="entity" data-entity="uploadMgr" data-source-line="6" data-uid="ent0005" id="entity_uploadMgr"><rect fill="#313139" height="46.2969" rx="2.5" ry="2.5" style="stroke:#E7E7E7;stroke-width:0.5;" width="154.8711" x="380.56" y="385.8869"/><rect fill="#313139" height="10" style="stroke:#E7E7E7;stroke-width:0.5;" width="15" x="515.4311" y="390.8869"/><rect fill="#313139" height="2" style="stroke:#E7E7E7;stroke-width:0.5;" width="4" x="513.4311" y="392.8869"/><rect fill="#313139" height="2" style="stroke:#E7E7E7;stroke-width:0.5;" width="4" x="513.4311" y="396.8869"/><text fill="#FFFFFF" font-family="sans-serif" font-size="14" lengthAdjust="spacing" textLength="114.8711" x="395.56" y="418.882">Upload Manager</text></g><!--entity downloadMgr--><g class="entity" data-entity="downloadMgr" data-source-line="7" data-uid="ent0006" id="entity_downloadMgr"><rect fill="#313139" height="46.2969" rx="2.5" ry="2.5" style="stroke:#E7E7E7;stroke-width:0.5;" width="175.4063" x="844.3" y="385.8869"/><rect fill="#313139" height="10" style="stroke:#E7E7E7;stroke-width:0.5;" width="15" x="999.7063" y="390.8869"/><rect fill="#313139" height="2" style="stroke:#E7E7E7;stroke-width:0.5;" width="4" x="997.7063" y="392.8869"/><rect fill="#313139" height="2" style="stroke:#E7E7E7;stroke-width:0.5;" width="4" x="997.7063" y="396.8869"/><text fill="#FFFFFF" font-family="sans-serif" font-size="14" lengthAdjust="spacing" textLength="135.4063" x="859.3" y="418.882">Download Manager</text></g><!--entity preProc--><g class="entity" data-entity="preProc" data-source-line="8" data-uid="ent0007" id="entity_preProc"><rect fill="#313139" height="46.2969" rx="2.5" ry="2.5" style="stroke:#E7E7E7;stroke-width:0.5;" width="190.999" x="592.5" y="509.1869"/><rect fill="#313139" height="10" style="stroke:#E7E7E7;stroke-width:0.5;" width="15" x="763.499" y="514.1869"/><rect fill="#313139" height="2" style="stroke:#E7E7E7;stroke-width:0.5;" width="4" x="761.499" y="516.1869"/><rect fill="#313139" height="2" style="stroke:#E7E7E7;stroke-width:0.5;" width="4" x="761.499" y="520.1869"/><text fill="#FFFFFF" font-family="sans-serif" font-size="14" lengthAdjust="spacing" textLength="150.999" x="607.5" y="542.182">Preprocessing Engine</text></g><!--entity storageMgr--><g class="entity" data-entity="storageMgr" data-source-line="9" data-uid="ent0008" id="entity_storageMgr"><rect fill="#313139" height="46.2969" rx="2.5" ry="2.5" style="stroke:#E7E7E7;stroke-width:0.5;" width="160.5928" x="1314.7" y="632.4769"/><rect fill="#313139" height="10" style="stroke:#E7E7E7;stroke-width:0.5;" width="15" x="1455.2928" y="637.4769"/><rect fill="#313139" height="2" style="stroke:#E7E7E7;stroke-width:0.5;" width="4" x="1453.2928" y="639.4769"/><rect fill="#313139" height="2" style="stroke:#E7E7E7;stroke-width:0.5;" width="4" x="1453.2928" y="643.4769"/><text fill="#FFFFFF" font-family="sans-serif" font-size="14" lengthAdjust="spacing" textLength="120.5928" x="1329.7" y="665.472">Storage Manager</text></g><!--entity metaRepo--><g class="entity" data-entity="metaRepo" data-source-line="10" data-uid="ent0009" id="entity_metaRepo"><rect fill="#313139" height="46.2969" rx="2.5" ry="2.5" style="stroke:#E7E7E7;stroke-width:0.5;" width="185.8174" x="1047.09" y="509.1869"/><rect fill="#313139" height="10" style="stroke:#E7E7E7;stroke-width:0.5;" width="15" x="1212.9074" y="514.1869"/><rect fill="#313139" height="2" style="stroke:#E7E7E7;stroke-width:0.5;" width="4" x="1210.9074" y="516.1869"/><rect fill="#313139" height="2" style="stroke:#E7E7E7;stroke-width:0.5;" width="4" x="1210.9074" y="520.1869"/><text fill="#FFFFFF" font-family="sans-serif" font-size="14" lengthAdjust="spacing" textLength="145.8174" x="1062.09" y="542.182">Metadata Repository</text></g><!--entity security--><g class="entity" data-entity="security" data-source-line="11" data-uid="ent0010" id="entity_security"><rect fill="#313139" height="46.2969" rx="2.5" ry="2.5" style="stroke:#E7E7E7;stroke-width:0.5;" width="220.8447" x="1225.58" y="97.2969"/><rect fill="#313139" height="10" style="stroke:#E7E7E7;stroke-width:0.5;" width="15" x="1426.4247" y="102.2969"/><rect fill="#313139" height="2" style="stroke:#E7E7E7;stroke-width:0.5;" width="4" x="1424.4247" y="104.2969"/><rect fill="#313139" height="2" style="stroke:#E7E7E7;stroke-width:0.5;" width="4" x="1424.4247" y="108.2969"/><text fill="#FFFFFF" font-family="sans-serif" font-size="14" lengthAdjust="spacing" textLength="180.8447" x="1240.58" y="130.292">Access Control &amp; Security</text></g><!--entity mediaMetrics--><g class="entity" data-entity="mediaMetrics" data-source-line="12" data-uid="ent0011" id="entity_mediaMetrics"><rect fill="#313139" height="46.2969" rx="2.5" ry="2.5" style="stroke:#E7E7E7;stroke-width:0.5;" width="166.4238" x="1481.79" y="97.2969"/><rect fill="#313139" height="10" style="stroke:#E7E7E7;stroke-width:0.5;" width="15" x="1628.2138" y="102.2969"/><rect fill="#313139" height="2" style="stroke:#E7E7E7;stroke-width:0.5;" width="4" x="1626.2138" y="104.2969"/><rect fill="#313139" height="2" style="stroke:#E7E7E7;stroke-width:0.5;" width="4" x="1626.2138" y="108.2969"/><text fill="#FFFFFF" font-family="sans-serif" font-size="14" lengthAdjust="spacing" textLength="126.4238" x="1496.79" y="130.292">Logging &amp; Metrics</text></g><!--entity objectStore--><g class="entity" data-entity="objectStore" data-source-line="16" data-uid="ent0013" id="entity_objectStore"><rect fill="#313139" height="46.2969" rx="2.5" ry="2.5" style="stroke:#E7E7E7;stroke-width:0.5;" width="231.5977" x="2001.2" y="260.5869"/><rect fill="#313139" height="10" style="stroke:#E7E7E7;stroke-width:0.5;" width="15" x="2212.7977" y="265.5869"/><rect fill="#313139" height="2" style="stroke:#E7E7E7;stroke-width:0.5;" width="4" x="2210.7977" y="267.5869"/><rect fill="#313139" height="2" style="stroke:#E7E7E7;stroke-width:0.5;" width="4" x="2210.7977" y="271.5869"/><text fill="#FFFFFF" font-family="sans-serif" font-size="14" lengthAdjust="spacing" textLength="191.5977" x="2016.2" y="293.582">Object Storage (S3 / MinIO)</text></g><!--entity metaDB--><g class="entity" data-entity="metaDB" data-source-line="17" data-uid="ent0014" id="entity_metaDB"><rect fill="#313139" height="46.2969" rx="2.5" ry="2.5" style="stroke:#E7E7E7;stroke-width:0.5;" width="262.8311" x="1703.58" y="260.5869"/><rect fill="#313139" height="10" style="stroke:#E7E7E7;stroke-width:0.5;" width="15" x="1946.4111" y="265.5869"/><rect fill="#313139" height="2" style="stroke:#E7E7E7;stroke-width:0.5;" width="4" x="1944.4111" y="267.5869"/><rect fill="#313139" height="2" style="stroke:#E7E7E7;stroke-width:0.5;" width="4" x="1944.4111" y="271.5869"/><text fill="#FFFFFF" font-family="sans-serif" font-size="14" lengthAdjust="spacing" textLength="222.8311" x="1718.58" y="293.582">PostgreSQL Media Metadata DB</text></g><!--entity aiAPI--><g class="entity" data-entity="aiAPI" data-source-line="18" data-uid="ent0015" id="entity_aiAPI"><rect fill="#313139" height="46.2969" rx="2.5" ry="2.5" style="stroke:#E7E7E7;stroke-width:0.5;" width="266.249" x="2267.88" y="260.5869"/><rect fill="#313139" height="10" style="stroke:#E7E7E7;stroke-width:0.5;" width="15" x="2514.129" y="265.5869"/><rect fill="#313139" height="2" style="stroke:#E7E7E7;stroke-width:0.5;" width="4" x="2512.129" y="267.5869"/><rect fill="#313139" height="2" style="stroke:#E7E7E7;stroke-width:0.5;" width="4" x="2512.129" y="271.5869"/><text fill="#FFFFFF" font-family="sans-serif" font-size="14" lengthAdjust="spacing" textLength="226.249" x="2282.88" y="293.582">AI / Computer Vision Service API</text></g><!--entity userAPI--><g class="entity" data-entity="userAPI" data-source-line="19" data-uid="ent0016" id="entity_userAPI"><rect fill="#313139" height="46.2969" rx="2.5" ry="2.5" style="stroke:#E7E7E7;stroke-width:0.5;" width="154.7002" x="2568.65" y="260.5869"/><rect fill="#313139" height="10" style="stroke:#E7E7E7;stroke-width:0.5;" width="15" x="2703.3502" y="265.5869"/><rect fill="#313139" height="2" style="stroke:#E7E7E7;stroke-width:0.5;" width="4" x="2701.3502" y="267.5869"/><rect fill="#313139" height="2" style="stroke:#E7E7E7;stroke-width:0.5;" width="4" x="2701.3502" y="271.5869"/><text fill="#FFFFFF" font-family="sans-serif" font-size="14" lengthAdjust="spacing" textLength="114.7002" x="2583.65" y="293.582">User Service API</text></g><!--entity attAPI--><g class="entity" data-entity="attAPI" data-source-line="20" data-uid="ent0017" id="entity_attAPI"><rect fill="#313139" height="46.2969" rx="2.5" ry="2.5" style="stroke:#E7E7E7;stroke-width:0.5;" width="203.4814" x="2758.26" y="260.5869"/><rect fill="#313139" height="10" style="stroke:#E7E7E7;stroke-width:0.5;" width="15" x="2941.7414" y="265.5869"/><rect fill="#313139" height="2" style="stroke:#E7E7E7;stroke-width:0.5;" width="4" x="2939.7414" y="267.5869"/><rect fill="#313139" height="2" style="stroke:#E7E7E7;stroke-width:0.5;" width="4" x="2939.7414" y="271.5869"/><text fill="#FFFFFF" font-family="sans-serif" font-size="14" lengthAdjust="spacing" textLength="163.4814" x="2773.26" y="293.582">Attendance Service API</text></g><!--entity analyticsAPI--><g class="entity" data-entity="analyticsAPI" data-source-line="21" data-uid="ent0018" id="entity_analyticsAPI"><rect fill="#313139" height="46.2969" rx="2.5" ry="2.5" style="stroke:#E7E7E7;stroke-width:0.5;" width="186.3643" x="2996.82" y="260.5869"/><rect fill="#313139" height="10" style="stroke:#E7E7E7;stroke-width:0.5;" width="15" x="3163.1843" y="265.5869"/><rect fill="#313139" height="2" style="stroke:#E7E7E7;stroke-width:0.5;" width="4" x="3161.1843" y="267.5869"/><rect fill="#313139" height="2" style="stroke:#E7E7E7;stroke-width:0.5;" width="4" x="3161.1843" y="271.5869"/><text fill="#FFFFFF" font-family="sans-serif" font-size="14" lengthAdjust="spacing" textLength="146.3643" x="3011.82" y="293.582">Analytics Service API</text></g><!--link api to mediaCtrl--><g class="link" data-entity-1="api" data-entity-2="mediaCtrl" data-source-line="24" data-uid="lnk19" id="link_api_mediaCtrl"><path d="M506.7,143.9869 C500.59,159.3369 490.37,178.9269 475,190.5869 C387.95,256.6469 265.7074,275.5476 184.0374,280.8576" fill="none" id="api-to-mediaCtrl" style="stroke:#E7E7E7;stroke-width:1;"/><polygon fill="#E7E7E7" points="178.05,281.2469,187.2906,284.6545,183.0395,280.9225,186.7715,276.6714,178.05,281.2469" style="stroke:#E7E7E7;stroke-width:1;"/><text fill="#FFFFFF" font-family="sans-serif" font-size="13" lengthAdjust="spacing" textLength="245.5781" x="491" y="186.6538">REST calls (upload, download, delete)</text></g><!--link mediaCtrl to uploadMgr--><g class="link" data-entity-1="mediaCtrl" data-entity-2="uploadMgr" data-source-line="25" data-uid="lnk20" id="link_mediaCtrl_uploadMgr"><path d="M165.66,307.3569 C230.16,329.5669 322.3271,361.3028 386.7771,383.5028" fill="none" id="mediaCtrl-to-uploadMgr" style="stroke:#E7E7E7;stroke-width:1;"/><polygon fill="#E7E7E7" points="392.45,385.4569,385.2434,378.7439,387.7226,383.8285,382.638,386.3077,392.45,385.4569" style="stroke:#E7E7E7;stroke-width:1;"/><text fill="#FFFFFF" font-family="sans-serif" font-size="13" lengthAdjust="spacing" textLength="101.0229" x="302" y="351.9538">Handle uploads</text></g><!--link mediaCtrl to downloadMgr--><g class="link" data-entity-1="mediaCtrl" data-entity-2="downloadMgr" data-source-line="26" data-uid="lnk21" id="link_mediaCtrl_downloadMgr"><path d="M178.27,296.3369 C333.81,319.3869 674.8749,369.927 838.0549,394.117" fill="none" id="mediaCtrl-to-downloadMgr" style="stroke:#E7E7E7;stroke-width:1;"/><polygon fill="#E7E7E7" points="843.99,394.9969,835.6738,389.7204,839.044,394.2637,834.5007,397.6339,843.99,394.9969" style="stroke:#E7E7E7;stroke-width:1;"/><text fill="#FFFFFF" font-family="sans-serif" font-size="13" lengthAdjust="spacing" textLength="119.6089" x="567" y="351.9538">Handle downloads</text></g><!--link uploadMgr to preProc--><g class="link" data-entity-1="uploadMgr" data-entity-2="preProc" data-source-line="27" data-uid="lnk22" id="link_uploadMgr_preProc"><path d="M449.99,432.6369 C446.29,447.4369 444.71,466.3369 455,479.1869 C472.43,500.9369 529.9157,513.4115 586.1957,521.1315" fill="none" id="uploadMgr-to-preProc" style="stroke:#E7E7E7;stroke-width:1;"/><polygon fill="#E7E7E7" points="592.14,521.9469,583.7671,516.7609,587.1864,521.2674,582.6799,524.6867,592.14,521.9469" style="stroke:#E7E7E7;stroke-width:1;"/><text fill="#FFFFFF" font-family="sans-serif" font-size="13" lengthAdjust="spacing" textLength="298.6826" x="456" y="475.2538">Preprocess images (resize, compress, format)</text></g><!--link preProc to storageMgr--><g class="link" data-entity-1="preProc" data-entity-2="storageMgr" data-source-line="28" data-uid="lnk23" id="link_preProc_storageMgr"><path d="M783.72,549.7569 C924.05,573.8269 1177.2364,617.2724 1308.4464,639.7824" fill="none" id="preProc-to-storageMgr" style="stroke:#E7E7E7;stroke-width:1;"/><polygon fill="#E7E7E7" points="1314.36,640.7969,1306.1659,635.3327,1309.432,639.9514,1304.8132,643.2175,1314.36,640.7969" style="stroke:#E7E7E7;stroke-width:1;"/><text fill="#FFFFFF" font-family="sans-serif" font-size="13" lengthAdjust="spacing" textLength="149.8936" x="1085" y="598.5438">Store processed media</text></g><!--link storageMgr to objectStore--><g class="link" data-entity-1="storageMgr" data-entity-2="objectStore" data-source-line="29" data-uid="lnk24" id="link_storageMgr_objectStore"><path d="M1438.96,632.1069 C1567.85,566.0769 1938.5301,376.1728 2067.5801,310.0528" fill="none" id="storageMgr-to-objectStore" style="stroke:#E7E7E7;stroke-width:1;"/><polygon fill="#E7E7E7" points="2072.92,307.3169,2063.0862,307.8609,2068.4701,309.5968,2066.7341,314.9807,2072.92,307.3169" style="stroke:#E7E7E7;stroke-width:1;"/><text fill="#FFFFFF" font-family="sans-serif" font-size="13" lengthAdjust="spacing" textLength="118.7646" x="1765" y="475.2538">Persist media files</text></g><!--link uploadMgr to metaRepo--><g class="link" data-entity-1="uploadMgr" data-entity-2="metaRepo" data-source-line="30" data-uid="lnk25" id="link_uploadMgr_metaRepo"><path d="M535.75,416.6769 C597.54,423.5669 685.49,437.0069 759,462.1869 C774.24,467.3969 775.7,474.1469 791,479.1869 C875.08,506.8869 969.4517,519.4266 1040.9217,525.5266" fill="none" id="uploadMgr-to-metaRepo" style="stroke:#E7E7E7;stroke-width:1;"/><polygon fill="#E7E7E7" points="1046.9,526.0369,1038.2728,521.286,1041.9181,525.6117,1037.5924,529.257,1046.9,526.0369" style="stroke:#E7E7E7;stroke-width:1;"/><text fill="#FFFFFF" font-family="sans-serif" font-size="13" lengthAdjust="spacing" textLength="300.4028" x="792" y="475.2538">Save metadata (owner, timestamps, file path)</text></g><!--link downloadMgr to metaRepo--><g class="link" data-entity-1="downloadMgr" data-entity-2="metaRepo" data-source-line="31" data-uid="lnk26" id="link_downloadMgr_metaRepo"><path d="M1020.19,423.8869 C1048.24,431.6069 1077.93,443.5869 1101,462.1869 C1115.92,474.2069 1123.8519,488.0062 1130.0819,503.1862" fill="none" id="downloadMgr-to-metaRepo" style="stroke:#E7E7E7;stroke-width:1;"/><polygon fill="#E7E7E7" points="1132.36,508.7369,1132.6434,498.8921,1130.4616,504.1113,1125.2424,501.9295,1132.36,508.7369" style="stroke:#E7E7E7;stroke-width:1;"/><text fill="#FFFFFF" font-family="sans-serif" font-size="13" lengthAdjust="spacing" textLength="274.6377" x="1117" y="475.2538">Retrieve metadata &amp; validate permissions</text></g><!--link metaRepo to metaDB--><g class="link" data-entity-1="metaRepo" data-entity-2="metaDB" data-source-line="32" data-uid="lnk27" id="link_metaRepo_metaDB"><path d="M1233.33,517.7869 C1283.42,509.2269 1345.84,496.4769 1400,479.1869 C1549.72,431.3669 1711.5106,350.2116 1787.7106,310.1016" fill="none" id="metaRepo-to-metaDB" style="stroke:#E7E7E7;stroke-width:1;"/><polygon fill="#E7E7E7" points="1793.02,307.3069,1783.1928,307.9594,1788.5955,309.6358,1786.9191,315.0386,1793.02,307.3069" style="stroke:#E7E7E7;stroke-width:1;"/><text fill="#FFFFFF" font-family="sans-serif" font-size="13" lengthAdjust="spacing" textLength="184.2979" x="1629" y="413.6038">Read/Write media metadata</text></g><!--link security to mediaCtrl--><g class="link" data-entity-1="security" data-entity-2="mediaCtrl" data-source-line="33" data-uid="lnk28" id="link_security_mediaCtrl"><path d="M1355.39,144.0369 C1365.68,158.8169 1373.96,177.7169 1362,190.5869 C1281.37,277.3169 447.25,283.3228 184.25,283.0628" fill="none" id="security-to-mediaCtrl" style="stroke:#E7E7E7;stroke-width:1;"/><polygon fill="#E7E7E7" points="178.25,283.0569,187.246,287.0658,183.25,283.0618,187.2539,279.0658,178.25,283.0569" style="stroke:#E7E7E7;stroke-width:1;"/><text fill="#FFFFFF" font-family="sans-serif" font-size="13" lengthAdjust="spacing" textLength="245.1147" x="1369" y="186.6538">Enforce access control &amp; signed URLs</text></g><!--link mediaMetrics to analyticsAPI--><g class="link" data-entity-1="mediaMetrics" data-entity-2="analyticsAPI" data-source-line="34" data-uid="lnk29" id="link_mediaMetrics_analyticsAPI"><path d="M1648.65,123.1569 C1933.4,129.3769 2854.36,152.8669 2979,198.5869 C3014.42,211.5769 3043.5928,235.7995 3064.3328,256.0095" fill="none" id="mediaMetrics-to-analyticsAPI" style="stroke:#E7E7E7;stroke-width:1;"/><polygon fill="#E7E7E7" points="3068.63,260.1969,3064.9758,251.051,3065.049,256.7074,3059.3926,256.7806,3068.63,260.1969" style="stroke:#E7E7E7;stroke-width:1;"/><text fill="#FFFFFF" font-family="sans-serif" font-size="13" lengthAdjust="spacing" textLength="201.1572" x="2941" y="186.6538">Send upload/download metrics</text></g><!--link aiAPI to mediaCtrl--><g class="link" data-entity-1="aiAPI" data-entity-2="mediaCtrl" data-source-line="36" data-uid="lnk30" id="link_aiAPI_mediaCtrl"><path d="M2370.38,260.1769 C2341.25,239.3569 2295.26,210.4969 2250,198.5869 C2059.1,148.3769 670.89,196.9569 473.5,196.8669 C357.5,196.8069 322.29,159.4069 212.5,196.8669 C175.83,209.3769 146.0331,234.9351 125.2131,256.1451" fill="none" id="aiAPI-to-mediaCtrl" style="stroke:#E7E7E7;stroke-width:1;"/><polygon fill="#E7E7E7" points="121.01,260.4269,130.1692,256.8062,124.5126,256.8587,124.4601,251.2021,121.01,260.4269" style="stroke:#E7E7E7;stroke-width:1;"/><text fill="#FFFFFF" font-family="sans-serif" font-size="13" lengthAdjust="spacing" textLength="259.1177" x="213.5" y="186.6538">Request images for recognition/training</text></g><!--link userAPI to mediaCtrl--><g class="link" data-entity-1="userAPI" data-entity-2="mediaCtrl" data-source-line="37" data-uid="lnk31" id="link_userAPI_mediaCtrl"><path d="M2628.52,260.1769 C2611.58,239.5069 2583.84,210.8869 2552,198.5869 C2445.05,157.2669 1308.28,186.9269 1083,196.8669 C745.39,211.7569 350.4104,254.5888 184.1704,273.7788" fill="none" id="userAPI-to-mediaCtrl" style="stroke:#E7E7E7;stroke-width:1;"/><polygon fill="#E7E7E7" points="178.21,274.4669,187.6093,277.4084,183.177,273.8935,186.6919,269.4612,178.21,274.4669" style="stroke:#E7E7E7;stroke-width:1;"/><text fill="#FFFFFF" font-family="sans-serif" font-size="13" lengthAdjust="spacing" textLength="276.3896" x="1084" y="186.6538">Fetch profile images for students/teachers</text></g><!--link attAPI to mediaCtrl--><g class="link" data-entity-1="attAPI" data-entity-2="mediaCtrl" data-source-line="38" data-uid="lnk32" id="link_attAPI_mediaCtrl"><path d="M2836.98,260.4669 C2814.66,239.6869 2778.73,210.7169 2741,198.5869 C2661.94,173.1769 840.3,192.0369 766,196.8669 C552.19,210.7469 308.1078,248.4672 184.0278,269.2172" fill="none" id="attAPI-to-mediaCtrl" style="stroke:#E7E7E7;stroke-width:1;"/><polygon fill="#E7E7E7" points="178.11,270.2069,187.6465,272.6676,183.0415,269.3822,186.327,264.7772,178.11,270.2069" style="stroke:#E7E7E7;stroke-width:1;"/><text fill="#FFFFFF" font-family="sans-serif" font-size="13" lengthAdjust="spacing" textLength="310.9082" x="767" y="186.6538">Store classroom photos for attendance auditing</text></g><!--SRC=[TLHDRnD13Btlhx1wg1efLGxSE22rJO1AZLeI2WV4mSowcu7TcMN6sn8G_ntFntueAsuR-_cDxVSSrbmJRAdK22lOitLO4Up9FMj5S0atjccj8SEmrbWvR8gYHVKZWCx-KtK6Vmg0BrSFj_0EcLxm25SbjapkAw07R7L8f-8RQzZPkiwv9WHlsDK1yTZM5alOeX7obEzYQ5kva5_R5pD3b3cOCG-EMcSLUQzD1HjJQKCHrpfwa4J0zErFQNoAPPOjCPR823jghTUIE-Ps6KCeZgl2A_r0S2xRK9tJd90-_mZ8ErjLePjpMJixhVmuUWuKVoTRtloIpHciON_qJ8tFwxt_zfqK3xk_sByI9RRQtDul8f-D-P2ck0ZhkNAq_t2NnHvcMbyFiwoluoItmXHqx-HX-AIzjcPmXAYQLDJo5LNo0ZhDTXBC-IjcCYKQHNCEvXuaynrP9fzZ-an0obh4FN1v-MPq2ho6tMR_4HJMjOUBv93bu0FvefgO5iLO4Ue79qdzUpIb744A-HFWn50Zj0_wOkG9uEmg0Ox60zs8GDAQ8wz_qnAKh5Q-_HAUh6kG5qLV5YX6vmbBb0yo4PLfwc822HKJfSF3vBpsdA3mf6iwRR9tRU37Pug_enCkP2foIs3Ta6Tisj2Y442BV5WKqqsSyEo2RsdATGxFM6lvb6foZVR1HM6tkQOdM5_7SYnNd-K-ABVTqnJztSmqtnXPdlW4qzcfuUoyheniwd5tbvNCDnKPfcuAuuipi-ohVhhmThp18bfyRZRwsSbsUbMb2t2aR6KqouGhTgYDN7UHJs1M_vPO7OAaSRCJ5izTAV-pViM4wY0g5ka-PWn9QLMZzyxQ1jg3PPiuS3msx4hfo5J_0000]--></g></svg>