<svg xmlns="http://www.w3.org/2000/svg" xmlns:xlink="http://www.w3.org/1999/xlink" contentStyleType="text/css" data-diagram-type="DESCRIPTION" height="1113px" preserveAspectRatio="none" style="width:3241px;height:1113px;background:#1B1B1B;" version="1.1" viewBox="0 0 3241 1113" width="3241px" zoomAndPan="magnify"><title>VISION - High-Level Microservice Architecture</title><defs/><g><rect fill="#1B1B1B" height="1113" style="stroke:none;stroke-width:1;" width="3241" x="0" y="0"/><g class="title" data-source-line="1"><text fill="#FFFFFF" font-family="sans-serif" font-size="14" font-weight="bold" lengthAdjust="spacing" textLength="362.7627" x="1432.1187" y="22.9951">VISION - High-Level Microservice Architecture</text></g><!--cluster Frontend / Dashboard--><g class="cluster" data-entity="Frontend . Dashboard" data-source-line="3" data-uid="ent0002" id="cluster_Frontend . Dashboard"><path d="M1495.5,43.2969 L1668.9707,43.2969 A3.75,3.75 0 0 1 1671.4707,45.7969 L1678.4707,65.5938 L1678.5,65.5938 A2.5,2.5 0 0 1 1681,68.0938 L1681,138.0969 A2.5,2.5 0 0 1 1678.5,140.5969 L1495.5,140.5969 A2.5,2.5 0 0 1 1493,138.0969 L1493,45.7969 A2.5,2.5 0 0 1 1495.5,43.2969" fill="none" style="stroke:#FFFFFF;stroke-width:1.5;"/><line style="stroke:#FFFFFF;stroke-width:1.5;" x1="1493" x2="1678.4707" y1="65.5938" y2="65.5938"/><text fill="#FFFFFF" font-family="sans-serif" font-size="14" font-weight="bold" lengthAdjust="spacing" textLength="172.4707" x="1497" y="58.292">Frontend / Dashboard</text></g><!--cluster API Gateway--><g class="cluster" data-entity="API Gateway" data-source-line="7" data-uid="ent0004" id="cluster_API Gateway"><path d="M1452.5,189.5969 L1553.3115,189.5969 A3.75,3.75 0 0 1 1555.8115,192.0969 L1562.8115,211.8938 L1721.5,211.8938 A2.5,2.5 0 0 1 1724,214.3938 L1724,284.3869 A2.5,2.5 0 0 1 1721.5,286.8869 L1452.5,286.8869 A2.5,2.5 0 0 1 1450,284.3869 L1450,192.0969 A2.5,2.5 0 0 1 1452.5,189.5969" fill="none" style="stroke:#FFFFFF;stroke-width:1.5;"/><line style="stroke:#FFFFFF;stroke-width:1.5;" x1="1450" x2="1562.8115" y1="211.8938" y2="211.8938"/><text fill="#FFFFFF" font-family="sans-serif" font-size="14" font-weight="bold" lengthAdjust="spacing" textLength="99.8115" x="1454" y="204.592">API Gateway</text></g><!--cluster Microservices--><g class="cluster" data-entity="Microservices" data-source-line="11" data-uid="ent0006" id="cluster_Microservices"><path d="M8.5,319.8869 L117.8359,319.8869 A3.75,3.75 0 0 1 120.3359,322.3869 L127.3359,342.1838 L1322.5,342.1838 A2.5,2.5 0 0 1 1325,344.6838 L1325,958.1669 A2.5,2.5 0 0 1 1322.5,960.6669 L8.5,960.6669 A2.5,2.5 0 0 1 6,958.1669 L6,322.3869 A2.5,2.5 0 0 1 8.5,319.8869" fill="none" style="stroke:#FFFFFF;stroke-width:1.5;"/><line style="stroke:#FFFFFF;stroke-width:1.5;" x1="6" x2="127.3359" y1="342.1838" y2="342.1838"/><text fill="#FFFFFF" font-family="sans-serif" font-size="14" font-weight="bold" lengthAdjust="spacing" textLength="108.3359" x="10" y="334.882">Microservices</text></g><!--cluster Databases / Storage--><g class="cluster" data-entity="Databases . Storage" data-source-line="21" data-uid="ent0014" id="cluster_Databases . Storage"><path d="M1351.5,863.3769 L1512.4609,863.3769 A3.75,3.75 0 0 1 1514.9609,865.8769 L1521.9609,885.6738 L3231.5,885.6738 A2.5,2.5 0 0 1 3234,888.1738 L3234,958.1669 A2.5,2.5 0 0 1 3231.5,960.6669 L1351.5,960.6669 A2.5,2.5 0 0 1 1349,958.1669 L1349,865.8769 A2.5,2.5 0 0 1 1351.5,863.3769" fill="none" style="stroke:#FFFFFF;stroke-width:1.5;"/><line style="stroke:#FFFFFF;stroke-width:1.5;" x1="1349" x2="1521.9609" y1="885.6738" y2="885.6738"/><text fill="#FFFFFF" font-family="sans-serif" font-size="14" font-weight="bold" lengthAdjust="spacing" textLength="159.9609" x="1353" y="878.372">Databases / Storage</text></g><!--cluster External Systems--><g class="cluster" data-entity="External Systems" data-source-line="31" data-uid="ent0022" id="cluster_External Systems"><path d="M214.5,1009.6669 L352.9229,1009.6669 A3.75,3.75 0 0 1 355.4229,1012.1669 L362.4229,1031.9638 L680.5,1031.9638 A2.5,2.5 0 0 1 683,1034.4638 L683,1104.4669 A2.5,2.5 0 0 1 680.5,1106.9669 L214.5,1106.9669 A2.5,2.5 0 0 1 212,1104.4669 L212,1012.1669 A2.5,2.5 0 0 1 214.5,1009.6669" fill="none" style="stroke:#FFFFFF;stroke-width:1.5;"/><line style="stroke:#FFFFFF;stroke-width:1.5;" x1="212" x2="362.4229" y1="1031.9638" y2="1031.9638"/><text fill="#FFFFFF" font-family="sans-serif" font-size="14" font-weight="bold" lengthAdjust="spacing" textLength="137.4229" x="216" y="1024.662">External Systems</text></g><!--entity webUI--><g class="entity" data-entity="webUI" data-source-line="4" data-uid="ent0003" id="entity_webUI"><rect fill="#313139" height="46.2969" rx="2.5" ry="2.5" style="stroke:#E7E7E7;stroke-width:0.5;" width="145.6494" x="1514.18" y="78.2969"/><rect fill="#313139" height="10" style="stroke:#E7E7E7;stroke-width:0.5;" width="15" x="1639.8294" y="83.2969"/><rect fill="#313139" height="2" style="stroke:#E7E7E7;stroke-width:0.5;" width="4" x="1637.8294" y="85.2969"/><rect fill="#313139" height="2" style="stroke:#E7E7E7;stroke-width:0.5;" width="4" x="1637.8294" y="89.2969"/><text fill="#FFFFFF" font-family="sans-serif" font-size="14" lengthAdjust="spacing" textLength="105.6494" x="1529.18" y="111.292">Web UI (React)</text></g><!--entity apiGW--><g class="entity" data-entity="apiGW" data-source-line="8" data-uid="ent0005" id="entity_apiGW"><rect fill="#313139" height="46.2969" rx="2.5" ry="2.5" style="stroke:#E7E7E7;stroke-width:0.5;" width="242.7471" x="1465.63" y="224.5969"/><rect fill="#313139" height="10" style="stroke:#E7E7E7;stroke-width:0.5;" width="15" x="1688.3771" y="229.5969"/><rect fill="#313139" height="2" style="stroke:#E7E7E7;stroke-width:0.5;" width="4" x="1686.3771" y="231.5969"/><rect fill="#313139" height="2" style="stroke:#E7E7E7;stroke-width:0.5;" width="4" x="1686.3771" y="235.5969"/><text fill="#FFFFFF" font-family="sans-serif" font-size="14" lengthAdjust="spacing" textLength="202.7471" x="1480.63" y="257.592">API Gateway / Reverse Proxy</text></g><!--entity user--><g class="entity" data-entity="user" data-source-line="12" data-uid="ent0007" id="entity_user"><rect fill="#313139" height="46.2969" rx="2.5" ry="2.5" style="stroke:#E7E7E7;stroke-width:0.5;" width="128.1016" x="893.95" y="754.0769"/><rect fill="#313139" height="10" style="stroke:#E7E7E7;stroke-width:0.5;" width="15" x="1002.0516" y="759.0769"/><rect fill="#313139" height="2" style="stroke:#E7E7E7;stroke-width:0.5;" width="4" x="1000.0516" y="761.0769"/><rect fill="#313139" height="2" style="stroke:#E7E7E7;stroke-width:0.5;" width="4" x="1000.0516" y="765.0769"/><text fill="#FFFFFF" font-family="sans-serif" font-size="14" lengthAdjust="spacing" textLength="88.1016" x="908.95" y="787.072">User Service</text></g><!--entity dept--><g class="entity" data-entity="dept" data-source-line="13" data-uid="ent0008" id="entity_dept"><rect fill="#313139" height="46.2969" rx="2.5" ry="2.5" style="stroke:#E7E7E7;stroke-width:0.5;" width="180.9092" x="1128.55" y="554.4869"/><rect fill="#313139" height="10" style="stroke:#E7E7E7;stroke-width:0.5;" width="15" x="1289.4592" y="559.4869"/><rect fill="#313139" height="2" style="stroke:#E7E7E7;stroke-width:0.5;" width="4" x="1287.4592" y="561.4869"/><rect fill="#313139" height="2" style="stroke:#E7E7E7;stroke-width:0.5;" width="4" x="1287.4592" y="565.4869"/><text fill="#FFFFFF" font-family="sans-serif" font-size="14" lengthAdjust="spacing" textLength="140.9092" x="1143.55" y="587.482">Department Service</text></g><!--entity att--><g class="entity" data-entity="att" data-source-line="14" data-uid="ent0009" id="entity_att"><rect fill="#313139" height="46.2969" rx="2.5" ry="2.5" style="stroke:#E7E7E7;stroke-width:0.5;" width="176.8828" x="459.56" y="354.8869"/><rect fill="#313139" height="10" style="stroke:#E7E7E7;stroke-width:0.5;" width="15" x="616.4428" y="359.8869"/><rect fill="#313139" height="2" style="stroke:#E7E7E7;stroke-width:0.5;" width="4" x="614.4428" y="361.8869"/><rect fill="#313139" height="2" style="stroke:#E7E7E7;stroke-width:0.5;" width="4" x="614.4428" y="365.8869"/><text fill="#FFFFFF" font-family="sans-serif" font-size="14" lengthAdjust="spacing" textLength="136.8828" x="474.56" y="387.882">Attendance Service</text></g><!--entity ai--><g class="entity" data-entity="ai" data-source-line="15" data-uid="ent0010" id="entity_ai"><rect fill="#313139" height="46.2969" rx="2.5" ry="2.5" style="stroke:#E7E7E7;stroke-width:0.5;" width="239.6504" x="922.17" y="478.1869"/><rect fill="#313139" height="10" style="stroke:#E7E7E7;stroke-width:0.5;" width="15" x="1141.8204" y="483.1869"/><rect fill="#313139" height="2" style="stroke:#E7E7E7;stroke-width:0.5;" width="4" x="1139.8204" y="485.1869"/><rect fill="#313139" height="2" style="stroke:#E7E7E7;stroke-width:0.5;" width="4" x="1139.8204" y="489.1869"/><text fill="#FFFFFF" font-family="sans-serif" font-size="14" lengthAdjust="spacing" textLength="199.6504" x="937.17" y="511.182">AI / Computer Vision Service</text></g><!--entity notif--><g class="entity" data-entity="notif" data-source-line="16" data-uid="ent0011" id="entity_notif"><rect fill="#313139" height="46.2969" rx="2.5" ry="2.5" style="stroke:#E7E7E7;stroke-width:0.5;" width="176.5205" x="358.74" y="898.3769"/><rect fill="#313139" height="10" style="stroke:#E7E7E7;stroke-width:0.5;" width="15" x="515.2605" y="903.3769"/><rect fill="#313139" height="2" style="stroke:#E7E7E7;stroke-width:0.5;" width="4" x="513.2605" y="905.3769"/><rect fill="#313139" height="2" style="stroke:#E7E7E7;stroke-width:0.5;" width="4" x="513.2605" y="909.3769"/><text fill="#FFFFFF" font-family="sans-serif" font-size="14" lengthAdjust="spacing" textLength="136.5205" x="373.74" y="931.372">Notification Service</text></g><!--entity analytics--><g class="entity" data-entity="analytics" data-source-line="17" data-uid="ent0012" id="entity_analytics"><rect fill="#313139" height="46.2969" rx="2.5" ry="2.5" style="stroke:#E7E7E7;stroke-width:0.5;" width="159.7656" x="459.12" y="754.0769"/><rect fill="#313139" height="10" style="stroke:#E7E7E7;stroke-width:0.5;" width="15" x="598.8856" y="759.0769"/><rect fill="#313139" height="2" style="stroke:#E7E7E7;stroke-width:0.5;" width="4" x="596.8856" y="761.0769"/><rect fill="#313139" height="2" style="stroke:#E7E7E7;stroke-width:0.5;" width="4" x="596.8856" y="765.0769"/><text fill="#FFFFFF" font-family="sans-serif" font-size="14" lengthAdjust="spacing" textLength="119.7656" x="474.12" y="787.072">Analytics Service</text></g><!--entity media--><g class="entity" data-entity="media" data-source-line="18" data-uid="ent0013" id="entity_media"><rect fill="#313139" height="46.2969" rx="2.5" ry="2.5" style="stroke:#E7E7E7;stroke-width:0.5;" width="206.6328" x="802.68" y="630.7769"/><rect fill="#313139" height="10" style="stroke:#E7E7E7;stroke-width:0.5;" width="15" x="989.3128" y="635.7769"/><rect fill="#313139" height="2" style="stroke:#E7E7E7;stroke-width:0.5;" width="4" x="987.3128" y="637.7769"/><rect fill="#313139" height="2" style="stroke:#E7E7E7;stroke-width:0.5;" width="4" x="987.3128" y="641.7769"/><text fill="#FFFFFF" font-family="sans-serif" font-size="14" lengthAdjust="spacing" textLength="166.6328" x="817.68" y="663.772">Media / Storage Service</text></g><!--entity userDB--><g class="entity" data-entity="userDB" data-source-line="22" data-uid="ent0015" id="entity_userDB"><rect fill="#313139" height="46.2969" rx="2.5" ry="2.5" style="stroke:#E7E7E7;stroke-width:0.5;" width="181.9482" x="1664.03" y="898.3769"/><rect fill="#313139" height="10" style="stroke:#E7E7E7;stroke-width:0.5;" width="15" x="1825.9782" y="903.3769"/><rect fill="#313139" height="2" style="stroke:#E7E7E7;stroke-width:0.5;" width="4" x="1823.9782" y="905.3769"/><rect fill="#313139" height="2" style="stroke:#E7E7E7;stroke-width:0.5;" width="4" x="1823.9782" y="909.3769"/><text fill="#FFFFFF" font-family="sans-serif" font-size="14" lengthAdjust="spacing" textLength="141.9482" x="1679.03" y="931.372">PostgreSQL User DB</text></g><!--entity deptDB--><g class="entity" data-entity="deptDB" data-source-line="23" data-uid="ent0016" id="entity_deptDB"><rect fill="#313139" height="46.2969" rx="2.5" ry="2.5" style="stroke:#E7E7E7;stroke-width:0.5;" width="309.6846" x="2436.16" y="898.3769"/><rect fill="#313139" height="10" style="stroke:#E7E7E7;stroke-width:0.5;" width="15" x="2725.8446" y="903.3769"/><rect fill="#313139" height="2" style="stroke:#E7E7E7;stroke-width:0.5;" width="4" x="2723.8446" y="905.3769"/><rect fill="#313139" height="2" style="stroke:#E7E7E7;stroke-width:0.5;" width="4" x="2723.8446" y="909.3769"/><text fill="#FFFFFF" font-family="sans-serif" font-size="14" lengthAdjust="spacing" textLength="269.6846" x="2451.16" y="931.372">PostgreSQL Department &amp; Student DB</text></g><!--entity attDB--><g class="entity" data-entity="attDB" data-source-line="24" data-uid="ent0017" id="entity_attDB"><rect fill="#313139" height="46.2969" rx="2.5" ry="2.5" style="stroke:#E7E7E7;stroke-width:0.5;" width="230.7295" x="2987.64" y="898.3769"/><rect fill="#313139" height="10" style="stroke:#E7E7E7;stroke-width:0.5;" width="15" x="3198.3695" y="903.3769"/><rect fill="#313139" height="2" style="stroke:#E7E7E7;stroke-width:0.5;" width="4" x="3196.3695" y="905.3769"/><rect fill="#313139" height="2" style="stroke:#E7E7E7;stroke-width:0.5;" width="4" x="3196.3695" y="909.3769"/><text fill="#FFFFFF" font-family="sans-serif" font-size="14" lengthAdjust="spacing" textLength="190.7295" x="3002.64" y="931.372">PostgreSQL Attendance DB</text></g><!--entity faissDB--><g class="entity" data-entity="faissDB" data-source-line="25" data-uid="ent0018" id="entity_faissDB"><rect fill="#313139" height="46.2969" rx="2.5" ry="2.5" style="stroke:#E7E7E7;stroke-width:0.5;" width="171.4414" x="2781.28" y="898.3769"/><rect fill="#313139" height="10" style="stroke:#E7E7E7;stroke-width:0.5;" width="15" x="2932.7214" y="903.3769"/><rect fill="#313139" height="2" style="stroke:#E7E7E7;stroke-width:0.5;" width="4" x="2930.7214" y="905.3769"/><rect fill="#313139" height="2" style="stroke:#E7E7E7;stroke-width:0.5;" width="4" x="2930.7214" y="909.3769"/><text fill="#FFFFFF" font-family="sans-serif" font-size="14" lengthAdjust="spacing" textLength="131.4414" x="2796.28" y="931.372">FAISS Vector Store</text></g><!--entity mediaDB--><g class="entity" data-entity="mediaDB" data-source-line="26" data-uid="ent0019" id="entity_mediaDB"><rect fill="#313139" height="46.2969" rx="2.5" ry="2.5" style="stroke:#E7E7E7;stroke-width:0.5;" width="262.8311" x="2138.58" y="898.3769"/><rect fill="#313139" height="10" style="stroke:#E7E7E7;stroke-width:0.5;" width="15" x="2381.4111" y="903.3769"/><rect fill="#313139" height="2" style="stroke:#E7E7E7;stroke-width:0.5;" width="4" x="2379.4111" y="905.3769"/><rect fill="#313139" height="2" style="stroke:#E7E7E7;stroke-width:0.5;" width="4" x="2379.4111" y="909.3769"/><text fill="#FFFFFF" font-family="sans-serif" font-size="14" lengthAdjust="spacing" textLength="222.8311" x="2153.58" y="931.372">PostgreSQL Media Metadata DB</text></g><!--entity objectStore--><g class="entity" data-entity="objectStore" data-source-line="27" data-uid="ent0020" id="entity_objectStore"><rect fill="#313139" height="46.2969" rx="2.5" ry="2.5" style="stroke:#E7E7E7;stroke-width:0.5;" width="222.6973" x="1880.65" y="898.3769"/><rect fill="#313139" height="10" style="stroke:#E7E7E7;stroke-width:0.5;" width="15" x="2083.3473" y="903.3769"/><rect fill="#313139" height="2" style="stroke:#E7E7E7;stroke-width:0.5;" width="4" x="2081.3473" y="905.3769"/><rect fill="#313139" height="2" style="stroke:#E7E7E7;stroke-width:0.5;" width="4" x="2081.3473" y="909.3769"/><text fill="#FFFFFF" font-family="sans-serif" font-size="14" lengthAdjust="spacing" textLength="182.6973" x="1895.65" y="931.372">Object Storage (S3/MinIO)</text></g><!--entity analyticsDB--><g class="entity" data-entity="analyticsDB" data-source-line="28" data-uid="ent0021" id="entity_analyticsDB"><rect fill="#313139" height="46.2969" rx="2.5" ry="2.5" style="stroke:#E7E7E7;stroke-width:0.5;" width="264.0684" x="1364.97" y="898.3769"/><rect fill="#313139" height="10" style="stroke:#E7E7E7;stroke-width:0.5;" width="15" x="1609.0384" y="903.3769"/><rect fill="#313139" height="2" style="stroke:#E7E7E7;stroke-width:0.5;" width="4" x="1607.0384" y="905.3769"/><rect fill="#313139" height="2" style="stroke:#E7E7E7;stroke-width:0.5;" width="4" x="1607.0384" y="909.3769"/><text fill="#FFFFFF" font-family="sans-serif" font-size="14" lengthAdjust="spacing" textLength="224.0684" x="1379.97" y="931.372">PostgreSQL / OLAP Analytics DB</text></g><!--entity emailSMS--><g class="entity" data-entity="emailSMS" data-source-line="32" data-uid="ent0023" id="entity_emailSMS"><rect fill="#313139" height="46.2969" rx="2.5" ry="2.5" style="stroke:#E7E7E7;stroke-width:0.5;" width="179.7061" x="228.15" y="1044.6669"/><rect fill="#313139" height="10" style="stroke:#E7E7E7;stroke-width:0.5;" width="15" x="387.8561" y="1049.6669"/><rect fill="#313139" height="2" style="stroke:#E7E7E7;stroke-width:0.5;" width="4" x="385.8561" y="1051.6669"/><rect fill="#313139" height="2" style="stroke:#E7E7E7;stroke-width:0.5;" width="4" x="385.8561" y="1055.6669"/><text fill="#FFFFFF" font-family="sans-serif" font-size="14" lengthAdjust="spacing" textLength="139.7061" x="243.15" y="1077.662">Email/SMS Gateway</text></g><!--entity push--><g class="entity" data-entity="push" data-source-line="33" data-uid="ent0024" id="entity_push"><rect fill="#313139" height="46.2969" rx="2.5" ry="2.5" style="stroke:#E7E7E7;stroke-width:0.5;" width="224.5566" x="442.72" y="1044.6669"/><rect fill="#313139" height="10" style="stroke:#E7E7E7;stroke-width:0.5;" width="15" x="647.2766" y="1049.6669"/><rect fill="#313139" height="2" style="stroke:#E7E7E7;stroke-width:0.5;" width="4" x="645.2766" y="1051.6669"/><rect fill="#313139" height="2" style="stroke:#E7E7E7;stroke-width:0.5;" width="4" x="645.2766" y="1055.6669"/><text fill="#FFFFFF" font-family="sans-serif" font-size="14" lengthAdjust="spacing" textLength="184.5566" x="457.72" y="1077.662">Push Notification Gateway</text></g><!--link webUI to apiGW--><g class="link" data-entity-1="webUI" data-entity-2="apiGW" data-source-line="37" data-uid="lnk25" id="link_webUI_apiGW"><path d="M1587,124.9869 C1587,152.0969 1587,191.3169 1587,218.3569" fill="none" id="webUI-to-apiGW" style="stroke:#E7E7E7;stroke-width:1;"/><polygon fill="#E7E7E7" points="1587,224.3569,1591,215.3569,1587,219.3569,1583,215.3569,1587,224.3569" style="stroke:#E7E7E7;stroke-width:1;"/><text fill="#FFFFFF" font-family="sans-serif" font-size="13" lengthAdjust="spacing" textLength="159.4658" x="1588" y="169.6638">REST/GraphQL Requests</text></g><!--link apiGW to user--><g class="link" data-entity-1="apiGW" data-entity-2="user" data-source-line="40" data-uid="lnk26" id="link_apiGW_user"><path d="M1708.56,258.2069 C1783.75,271.4769 1866,302.9269 1866,377.0369 C1866,377.0369 1866,377.0369 1866,578.6269 C1866,647.2769 1869.28,683.3769 1814,724.0769 C1749.7,771.4169 1175.44,746.0669 1096,754.0769 C1071.86,756.5069 1051.4378,759.4272 1028.2978,763.2972" fill="none" id="apiGW-to-user" style="stroke:#E7E7E7;stroke-width:1;"/><polygon fill="#E7E7E7" points="1022.38,764.2869,1031.9165,766.7475,1027.3115,763.4621,1030.5969,758.8571,1022.38,764.2869" style="stroke:#E7E7E7;stroke-width:1;"/></g><!--link apiGW to dept--><g class="link" data-entity-1="apiGW" data-entity-2="dept" data-source-line="41" data-uid="lnk27" id="link_apiGW_dept"><path d="M1568.06,271.2569 C1541.77,301.9669 1492.12,358.1169 1445,401.1869 C1379.92,460.6669 1301.3311,518.5317 1256.2511,550.5617" fill="none" id="apiGW-to-dept" style="stroke:#E7E7E7;stroke-width:1;"/><polygon fill="#E7E7E7" points="1251.36,554.0369,1261.0135,552.0848,1255.4359,551.1409,1256.3799,545.5633,1251.36,554.0369" style="stroke:#E7E7E7;stroke-width:1;"/></g><!--link apiGW to att--><g class="link" data-entity-1="apiGW" data-entity-2="att" data-source-line="42" data-uid="lnk28" id="link_apiGW_att"><path d="M1465.27,263.7669 C1253.6,289.9069 828.5348,342.3915 642.6048,365.3515" fill="none" id="apiGW-to-att" style="stroke:#E7E7E7;stroke-width:1;"/><polygon fill="#E7E7E7" points="636.65,366.0869,646.0724,368.9537,641.6123,365.4741,645.0919,361.014,636.65,366.0869" style="stroke:#E7E7E7;stroke-width:1;"/></g><!--link apiGW to ai--><g class="link" data-entity-1="apiGW" data-entity-2="ai" data-source-line="43" data-uid="lnk29" id="link_apiGW_ai"><path d="M1522.91,271.3769 C1503.41,279.7569 1482.52,290.3369 1465,302.8869 C1393.59,354.0569 1408,405.9069 1331,448.1869 C1279.72,476.3469 1222.3012,489.0554 1167.9812,495.2654" fill="none" id="apiGW-to-ai" style="stroke:#E7E7E7;stroke-width:1;"/><polygon fill="#E7E7E7" points="1162.02,495.9469,1171.4161,498.8987,1166.9876,495.379,1170.5074,490.9505,1162.02,495.9469" style="stroke:#E7E7E7;stroke-width:1;"/></g><!--link apiGW to notif--><g class="link" data-entity-1="apiGW" data-entity-2="notif" data-source-line="44" data-uid="lnk30" id="link_apiGW_notif"><path d="M1708.77,256.9969 C1763.4,265.1369 1826.72,281.0169 1877,311.8869 C1913.5,334.2969 1948,334.2069 1948,377.0369 C1948,377.0369 1948,377.0369 1948,716.5769 C1948,788.2969 863.6386,885.4005 541.5486,912.6805" fill="none" id="apiGW-to-notif" style="stroke:#E7E7E7;stroke-width:1;"/><polygon fill="#E7E7E7" points="535.57,913.1869,544.8755,916.4131,540.5522,912.7649,544.2003,908.4416,535.57,913.1869" style="stroke:#E7E7E7;stroke-width:1;"/></g><!--link apiGW to analytics--><g class="link" data-entity-1="apiGW" data-entity-2="analytics" data-source-line="45" data-uid="lnk31" id="link_apiGW_analytics"><path d="M1688.56,271.2969 C1741.36,289.6569 1795,321.8769 1795,377.0369 C1795,377.0369 1795,377.0369 1795,654.9269 C1795,687.1769 1798.71,704.6069 1773,724.0769 C1733.25,754.1769 925.8,751.6069 876,754.0769 C788.16,758.4269 693.5444,764.8546 625.2944,769.7846" fill="none" id="apiGW-to-analytics" style="stroke:#E7E7E7;stroke-width:1;"/><polygon fill="#E7E7E7" points="619.31,770.2169,628.5748,773.5581,624.297,769.8566,627.9984,765.5788,619.31,770.2169" style="stroke:#E7E7E7;stroke-width:1;"/></g><!--link apiGW to media--><g class="link" data-entity-1="apiGW" data-entity-2="media" data-source-line="46" data-uid="lnk32" id="link_apiGW_media"><path d="M1578.78,271.2669 C1553.45,336.9469 1469.51,528.1669 1327,600.7769 C1229.25,650.5869 1190.87,617.2669 1082,630.7769 C1058.62,633.6869 1039.4533,636.0796 1015.7133,639.0596" fill="none" id="apiGW-to-media" style="stroke:#E7E7E7;stroke-width:1;"/><polygon fill="#E7E7E7" points="1009.76,639.8069,1019.1881,642.6548,1014.7211,639.1841,1018.1917,634.7171,1009.76,639.8069" style="stroke:#E7E7E7;stroke-width:1;"/></g><!--link user to userDB--><g class="link" data-entity-1="user" data-entity-2="userDB" data-source-line="49" data-uid="lnk33" id="link_user_userDB"><path d="M949.43,800.5769 C945.18,815.8469 943.17,835.4069 955,847.3769 C968.51,861.0469 1628.51,850.1169 1647,855.3769 C1676.7,863.8169 1701.6094,879.168 1722.3494,894.448" fill="none" id="user-to-userDB" style="stroke:#E7E7E7;stroke-width:1;"/><polygon fill="#E7E7E7" points="1727.18,898.0069,1722.3067,889.4482,1723.1545,895.0411,1717.5616,895.8889,1727.18,898.0069" style="stroke:#E7E7E7;stroke-width:1;"/><text fill="#FFFFFF" font-family="sans-serif" font-size="13" lengthAdjust="spacing" textLength="120.2056" x="956" y="843.4438">CRUD user &amp; roles</text></g><!--link dept to deptDB--><g class="link" data-entity-1="dept" data-entity-2="deptDB" data-source-line="52" data-uid="lnk34" id="link_dept_deptDB"><path d="M1301.19,601.2269 C1315.89,608.5469 1329.76,618.1769 1340,630.7769 C1366.69,663.6169 1333.37,690.4069 1359,724.0769 C1376.82,747.4869 1392.17,739.9969 1418,754.0769 C1490.27,793.4769 1498.64,825.5169 1578,847.3769 C1623.05,859.7769 2373.08,846.7469 2419,855.3769 C2463.25,863.6869 2505.4621,880.1366 2539.3721,895.4566" fill="none" id="dept-to-deptDB" style="stroke:#E7E7E7;stroke-width:1;"/><polygon fill="#E7E7E7" points="2544.84,897.9269,2538.2851,890.5762,2540.2834,895.8683,2534.9913,897.8667,2544.84,897.9269" style="stroke:#E7E7E7;stroke-width:1;"/><text fill="#FFFFFF" font-family="sans-serif" font-size="13" lengthAdjust="spacing" textLength="200.3193" x="1360" y="720.1438">CRUD departments &amp; students</text></g><!--link dept to user--><g class="link" data-entity-1="dept" data-entity-2="user" data-source-line="53" data-uid="lnk35" id="link_dept_user"><path d="M1147.17,601.2069 C1132.01,608.6669 1117.22,618.3469 1106,630.7769 C1076.62,663.3169 1103.54,691.6869 1074,724.0769 C1060.16,739.2469 1046.597,747.9419 1027.897,755.8419" fill="none" id="dept-to-user" style="stroke:#E7E7E7;stroke-width:1;"/><polygon fill="#E7E7E7" points="1022.37,758.1769,1032.2172,758.3591,1026.9759,756.2311,1029.1039,750.9898,1022.37,758.1769" style="stroke:#E7E7E7;stroke-width:1;"/><text fill="#FFFFFF" font-family="sans-serif" font-size="13" lengthAdjust="spacing" textLength="228.5093" x="1107" y="658.4938">Link department admins / teachers</text></g><!--link att to attDB--><g class="link" data-entity-1="att" data-entity-2="attDB" data-source-line="56" data-uid="lnk36" id="link_att_attDB"><path d="M636.69,380.4169 C813.22,383.8969 1202.61,395.4869 1331,431.1869 C1560.79,495.0869 1581.16,603.3869 1808,677.0769 C2304.92,838.5069 2471.45,699.0369 2970,855.3769 C3003.37,865.8369 3033.57,880.6621 3059.47,894.9921" fill="none" id="att-to-attDB" style="stroke:#E7E7E7;stroke-width:1;"/><polygon fill="#E7E7E7" points="3064.72,897.8969,3058.7815,890.0398,3060.345,895.4763,3054.9085,897.0398,3064.72,897.8969" style="stroke:#E7E7E7;stroke-width:1;"/><text fill="#FFFFFF" font-family="sans-serif" font-size="13" lengthAdjust="spacing" textLength="112.7788" x="1809" y="658.4938">Store attendance</text></g><!--link att to user--><g class="link" data-entity-1="att" data-entity-2="user" data-source-line="57" data-uid="lnk37" id="link_att_user"><path d="M514.3,401.4569 C503.98,409.7369 493.41,419.8969 486,431.1869 C474.05,449.4069 476.28,456.8169 472,478.1869 C461.24,531.9069 494.26,558.8369 459,600.7769 C427.77,637.9269 383.23,592.0369 354,630.7769 C341.61,647.2069 339.95,662.0469 354,677.0769 C387.76,713.1969 749.94,695.4369 798,707.0769 C840.06,717.2669 879.7002,734.9304 911.2302,750.9404" fill="none" id="att-to-user" style="stroke:#E7E7E7;stroke-width:1;"/><polygon fill="#E7E7E7" points="916.58,753.6569,910.3662,746.0156,912.1218,751.3931,906.7443,753.1487,916.58,753.6569" style="stroke:#E7E7E7;stroke-width:1;"/><text fill="#FFFFFF" font-family="sans-serif" font-size="13" lengthAdjust="spacing" textLength="172.4722" x="476" y="582.1938">Fetch student/teacher info</text></g><!--link att to dept--><g class="link" data-entity-1="att" data-entity-2="dept" data-source-line="58" data-uid="lnk38" id="link_att_dept"><path d="M636.85,383.6569 C767.31,391.1169 1004.1,407.4269 1086,431.1869 C1130.48,444.0869 1147.62,444.1269 1179,478.1869 C1198.87,499.7569 1208.0962,526.671 1213.2862,548.401" fill="none" id="att-to-dept" style="stroke:#E7E7E7;stroke-width:1;"/><polygon fill="#E7E7E7" points="1214.68,554.2369,1216.4798,544.5539,1213.5185,549.3737,1208.6987,546.4123,1214.68,554.2369" style="stroke:#E7E7E7;stroke-width:1;"/><text fill="#FFFFFF" font-family="sans-serif" font-size="13" lengthAdjust="spacing" textLength="182.165" x="1140" y="444.2538">Fetch class/department info</text></g><!--link att to ai--><g class="link" data-entity-1="att" data-entity-2="ai" data-source-line="59" data-uid="lnk39" id="link_att_ai"><path d="M636.68,393.1169 C683.05,401.7269 740.34,414.3569 790,431.1869 C806.76,436.8669 809.31,442.2969 826,448.1869 C858.93,459.7969 889.7319,468.3325 923.3419,476.3025" fill="none" id="att-to-ai" style="stroke:#E7E7E7;stroke-width:1;"/><polygon fill="#E7E7E7" points="929.18,477.6869,921.3458,471.7182,924.3149,476.5332,919.4999,479.5023,929.18,477.6869" style="stroke:#E7E7E7;stroke-width:1;"/><text fill="#FFFFFF" font-family="sans-serif" font-size="13" lengthAdjust="spacing" textLength="254.0459" x="827" y="444.2538">Send classroom images for recognition</text></g><!--link ai to att--><g class="link" data-entity-1="ai" data-entity-2="att" data-source-line="67" data-uid="lnk45" id="link_ai_att"><path d="M921.74,481.6769 C912.7,480.4369 903.71,479.2569 895,478.1869 C825.65,469.6469 639.48,487.9069 582,448.1869 C566.37,437.3869 559.3347,423.0466 554.6347,407.2866" fill="none" id="ai-to-att" style="stroke:#E7E7E7;stroke-width:1;"/><polygon fill="#E7E7E7" points="552.92,401.5369,551.6589,411.3047,554.3489,406.3283,559.3252,409.0184,552.92,401.5369" style="stroke:#E7E7E7;stroke-width:1;"/><text fill="#FFFFFF" font-family="sans-serif" font-size="13" lengthAdjust="spacing" textLength="198.2817" x="583" y="444.2538">Return recognized student IDs</text></g><!--link att to notif--><g class="link" data-entity-1="att" data-entity-2="notif" data-source-line="60" data-uid="lnk40" id="link_att_notif"><path d="M459.31,385.1769 C385.57,391.8669 278.46,405.2869 188,431.1869 C138.07,445.4869 118.02,441.7569 81,478.1869 C54.41,504.3469 53.96,518.0369 46,554.4869 C34.33,607.9269 27.11,631.2569 57,677.0769 C133.31,794.0669 281.9089,862.8054 371.8589,895.8954" fill="none" id="att-to-notif" style="stroke:#E7E7E7;stroke-width:1;"/><polygon fill="#E7E7E7" points="377.49,897.9669,370.4244,891.1056,372.7974,896.2406,367.6624,898.6137,377.49,897.9669" style="stroke:#E7E7E7;stroke-width:1;"/><text fill="#FFFFFF" font-family="sans-serif" font-size="13" lengthAdjust="spacing" textLength="87.6675" x="58" y="658.4938">Trigger alerts</text></g><!--link att to analytics--><g class="link" data-entity-1="att" data-entity-2="analytics" data-source-line="61" data-uid="lnk41" id="link_att_analytics"><path d="M472.18,401.6169 C451.78,409.3969 430.32,419.2269 412,431.1869 C356.9,467.1569 208.67,623.5869 247,677.0769 C294.79,743.7669 384.0327,765.521 452.7727,772.731" fill="none" id="att-to-analytics" style="stroke:#E7E7E7;stroke-width:1;"/><polygon fill="#E7E7E7" points="458.74,773.3569,450.2064,768.4399,453.7673,772.8353,449.3718,776.3962,458.74,773.3569" style="stroke:#E7E7E7;stroke-width:1;"/><text fill="#FFFFFF" font-family="sans-serif" font-size="13" lengthAdjust="spacing" textLength="163.6426" x="290" y="582.1938">Send attendance metrics</text></g><!--link analytics to att--><g class="link" data-entity-1="analytics" data-entity-2="att" data-source-line="76" data-uid="lnk50" id="link_analytics_att"><path d="M458.72,771.2069 C403.02,765.2669 328.31,752.3169 268,724.0769 C208.71,696.3069 211.44,662.1969 154,630.7769 C116.27,610.1369 87.26,635.5869 62,600.7769 C49.91,584.1269 50.36,571.4569 62,554.4869 C150.77,425.0069 339.2979,391.0299 453.4979,382.1899" fill="none" id="analytics-to-att" style="stroke:#E7E7E7;stroke-width:1;"/><polygon fill="#E7E7E7" points="459.48,381.7269,450.1981,378.4334,454.4949,382.1128,450.8156,386.4095,459.48,381.7269" style="stroke:#E7E7E7;stroke-width:1;"/><text fill="#FFFFFF" font-family="sans-serif" font-size="13" lengthAdjust="spacing" textLength="187.0083" x="63" y="582.1938">Consume attendance events</text></g><!--link att to media--><g class="link" data-entity-1="att" data-entity-2="media" data-source-line="62" data-uid="lnk42" id="link_att_media"><path d="M545.34,401.5869 C544.86,416.5469 546.9,435.6569 558,448.1869 C591.9,486.4269 625.86,450.7969 669,478.1869 C729.32,516.4769 714.87,559.2369 773,600.7769 C789.95,612.8969 804.5205,620.4603 823.9405,628.1403" fill="none" id="att-to-media" style="stroke:#E7E7E7;stroke-width:1;"/><polygon fill="#E7E7E7" points="829.52,630.3469,822.6217,623.3174,824.8704,628.5081,819.6797,630.7568,829.52,630.3469" style="stroke:#E7E7E7;stroke-width:1;"/><text fill="#FFFFFF" font-family="sans-serif" font-size="13" lengthAdjust="spacing" textLength="154.6797" x="714" y="505.9038">Fetch classroom photos</text></g><!--link media to att--><g class="link" data-entity-1="media" data-entity-2="att" data-source-line="85" data-uid="lnk57" id="link_media_att"><path d="M802.41,632.4969 C775.54,624.7969 747.33,614.4669 723,600.7769 C696.6,585.9369 700.2,567.8069 673,554.4869 C599.78,518.6069 544.73,586.6769 492,524.4869 C461.03,487.9569 495.7123,436.934 522.5023,406.134" fill="none" id="media-to-att" style="stroke:#E7E7E7;stroke-width:1;"/><polygon fill="#E7E7E7" points="526.44,401.6069,517.5154,405.7724,523.1586,405.3795,523.5515,411.0226,526.44,401.6069" style="stroke:#E7E7E7;stroke-width:1;"/><text fill="#FFFFFF" font-family="sans-serif" font-size="13" lengthAdjust="spacing" textLength="167.4131" x="493" y="505.9038">Provide classroom photos</text></g><!--link ai to media--><g class="link" data-entity-1="ai" data-entity-2="media" data-source-line="65" data-uid="lnk43" id="link_ai_media"><path d="M921.82,520.3669 C861.76,530.5969 799.92,543.5169 791,554.4869 C778.01,570.4469 779.85,583.4869 791,600.7769 C799.14,613.3969 805.894,620.1129 819.134,627.4029" fill="none" id="ai-to-media" style="stroke:#E7E7E7;stroke-width:1;"/><polygon fill="#E7E7E7" points="824.39,630.2969,818.4354,622.452,820.01,627.8852,814.5768,629.4599,824.39,630.2969" style="stroke:#E7E7E7;stroke-width:1;"/><text fill="#FFFFFF" font-family="sans-serif" font-size="13" lengthAdjust="spacing" textLength="186.9448" x="792" y="582.1938">Fetch images for recognition</text></g><!--link media to ai--><g class="link" data-entity-1="media" data-entity-2="ai" data-source-line="84" data-uid="lnk56" id="link_media_ai"><path d="M946.74,630.3869 C959.34,622.1569 972.62,612.0669 983,600.7769 C998.98,583.4069 996.91,574.7469 1009,554.4869 C1014.87,544.6369 1018.368,538.972 1024.218,529.822" fill="none" id="media-to-ai" style="stroke:#E7E7E7;stroke-width:1;"/><polygon fill="#E7E7E7" points="1027.45,524.7669,1019.232,530.1949,1024.7567,528.9795,1025.9721,534.5042,1027.45,524.7669" style="stroke:#E7E7E7;stroke-width:1;"/><text fill="#FFFFFF" font-family="sans-serif" font-size="13" lengthAdjust="spacing" textLength="100.0898" x="1010" y="582.1938">Provide images</text></g><!--link ai to faissDB--><g class="link" data-entity-1="ai" data-entity-2="faissDB" data-source-line="66" data-uid="lnk44" id="link_ai_faissDB"><path d="M1162.14,516.5069 C1213.74,524.5769 1274.2,536.7269 1327,554.4869 C1600.73,646.4969 1626.39,779.1569 1907,847.3769 C1953.21,858.6069 2717.35,842.0269 2763,855.3769 C2791.83,863.8069 2815.6922,879.0513 2835.5922,894.3413" fill="none" id="ai-to-faissDB" style="stroke:#E7E7E7;stroke-width:1;"/><polygon fill="#E7E7E7" points="2840.35,897.9969,2835.6504,889.3416,2836.3852,894.9505,2830.7762,895.6853,2840.35,897.9969" style="stroke:#E7E7E7;stroke-width:1;"/><text fill="#FFFFFF" font-family="sans-serif" font-size="13" lengthAdjust="spacing" textLength="166.918" x="1632" y="720.1438">Store/search embeddings</text></g><!--link ai to analytics--><g class="link" data-entity-1="ai" data-entity-2="analytics" data-source-line="68" data-uid="lnk46" id="link_ai_analytics"><path d="M921.75,517.6669 C874.52,525.7469 820.38,537.5769 773,554.4869 C732.11,569.0669 726.93,583.7569 687,600.7769 C647.05,617.8069 625.46,600.8369 594,630.7769 C559,664.0969 546.9132,715.9893 542.2932,747.7693" fill="none" id="ai-to-analytics" style="stroke:#E7E7E7;stroke-width:1;"/><polygon fill="#E7E7E7" points="541.43,753.7069,546.6832,745.3759,542.1493,748.7589,538.7664,744.225,541.43,753.7069" style="stroke:#E7E7E7;stroke-width:1;"/><text fill="#FFFFFF" font-family="sans-serif" font-size="13" lengthAdjust="spacing" textLength="189.9854" x="595" y="658.4938">Send AI performance metrics</text></g><!--link analytics to ai--><g class="link" data-entity-1="analytics" data-entity-2="ai" data-source-line="77" data-uid="lnk51" id="link_analytics_ai"><path d="M479.48,753.6869 C416.19,726.5169 330.71,678.5169 374,630.7769 C419.9,580.1669 628.99,646.2369 680,600.7769 C695.72,586.7769 674.63,568.8669 690,554.4869 C694.35,550.4069 815.7156,533.072 915.9856,519.322" fill="none" id="analytics-to-ai" style="stroke:#E7E7E7;stroke-width:1;"/><polygon fill="#E7E7E7" points="921.93,518.5069,912.47,515.7667,916.9764,519.1862,913.5569,523.6925,921.93,518.5069" style="stroke:#E7E7E7;stroke-width:1;"/><text fill="#FFFFFF" font-family="sans-serif" font-size="13" lengthAdjust="spacing" textLength="178.75" x="375" y="658.4938">Consume AI metrics/events</text></g><!--link notif to emailSMS--><g class="link" data-entity-1="notif" data-entity-2="emailSMS" data-source-line="71" data-uid="lnk47" id="link_notif_emailSMS"><path d="M411,945.1369 C398.44,954.0469 384.8,964.9469 374,976.6669 C355.03,997.2669 341.6058,1019.8624 331.5858,1039.1524" fill="none" id="notif-to-emailSMS" style="stroke:#E7E7E7;stroke-width:1;"/><polygon fill="#E7E7E7" points="328.82,1044.4769,336.5183,1038.3339,331.1248,1040.0398,329.419,1034.6462,328.82,1044.4769" style="stroke:#E7E7E7;stroke-width:1;"/><text fill="#FFFFFF" font-family="sans-serif" font-size="13" lengthAdjust="spacing" textLength="104.8252" x="375" y="989.7338">Send email/SMS</text></g><!--link notif to push--><g class="link" data-entity-1="notif" data-entity-2="push" data-source-line="72" data-uid="lnk48" id="link_notif_push"><path d="M463.88,945.0669 C484.16,972.1769 514.4148,1012.5933 534.6448,1039.6233" fill="none" id="notif-to-push" style="stroke:#E7E7E7;stroke-width:1;"/><polygon fill="#E7E7E7" points="538.24,1044.4269,536.0497,1034.8247,535.244,1040.4239,529.6448,1039.6182,538.24,1044.4269" style="stroke:#E7E7E7;stroke-width:1;"/><text fill="#FFFFFF" font-family="sans-serif" font-size="13" lengthAdjust="spacing" textLength="152.3882" x="498" y="989.7338">Send push notifications</text></g><!--link notif to analytics--><g class="link" data-entity-1="notif" data-entity-2="analytics" data-source-line="73" data-uid="lnk49" id="link_notif_analytics"><path d="M396.14,898.0369 C364.64,880.8969 333.6,855.9569 353,830.3769 C366.27,812.8669 408.785,800.7961 452.875,792.0361" fill="none" id="notif-to-analytics" style="stroke:#E7E7E7;stroke-width:1;"/><polygon fill="#E7E7E7" points="458.76,790.8669,449.153,788.6974,453.8559,791.8413,450.712,796.5441,458.76,790.8669" style="stroke:#E7E7E7;stroke-width:1;"/><text fill="#FFFFFF" font-family="sans-serif" font-size="13" lengthAdjust="spacing" textLength="141.8447" x="354" y="843.4438">Send delivery metrics</text></g><!--link analytics to notif--><g class="link" data-entity-1="analytics" data-entity-2="notif" data-source-line="78" data-uid="lnk52" id="link_analytics_notif"><path d="M527.16,800.7169 C519.73,814.4269 509.75,832.1769 500,847.3769 C488.82,864.7969 478.6838,878.8997 467.9938,893.1297" fill="none" id="analytics-to-notif" style="stroke:#E7E7E7;stroke-width:1;"/><polygon fill="#E7E7E7" points="464.39,897.9269,472.9938,893.1336,467.3931,893.9292,466.5976,888.3286,464.39,897.9269" style="stroke:#E7E7E7;stroke-width:1;"/><text fill="#FFFFFF" font-family="sans-serif" font-size="13" lengthAdjust="spacing" textLength="190.9502" x="511" y="843.4438">Consume notification metrics</text></g><!--link analytics to analyticsDB--><g class="link" data-entity-1="analytics" data-entity-2="analyticsDB" data-source-line="79" data-uid="lnk53" id="link_analytics_analyticsDB"><path d="M613.68,800.8769 C675.24,819.1269 757.79,842.5169 792,847.3769 C850.64,855.6869 1266.82,844.2769 1325,855.3769 C1369.23,863.8069 1411.4394,880.2525 1445.3594,895.5325" fill="none" id="analytics-to-analyticsDB" style="stroke:#E7E7E7;stroke-width:1;"/><polygon fill="#E7E7E7" points="1450.83,897.9969,1444.267,890.6533,1446.2712,895.9433,1440.9813,897.9474,1450.83,897.9969" style="stroke:#E7E7E7;stroke-width:1;"/><text fill="#FFFFFF" font-family="sans-serif" font-size="13" lengthAdjust="spacing" textLength="145.2598" x="793" y="843.4438">Store aggregated KPIs</text></g><!--link media to objectStore--><g class="link" data-entity-1="media" data-entity-2="objectStore" data-source-line="82" data-uid="lnk54" id="link_media_objectStore"><path d="M1009.65,672.4869 C1033.88,680.1669 1058.32,691.2169 1078,707.0769 C1114.96,736.8669 1093.91,769.5369 1130,800.3769 C1176.07,839.7469 1198.4,836.3669 1258,847.3769 C1324.11,859.5769 1797.71,839.3669 1863,855.3769 C1897.36,863.7969 1927.8764,879.5845 1952.9664,894.8745" fill="none" id="media-to-objectStore" style="stroke:#E7E7E7;stroke-width:1;"/><polygon fill="#E7E7E7" points="1958.09,897.9969,1952.4862,889.8977,1953.8204,895.3949,1948.3231,896.7291,1958.09,897.9969" style="stroke:#E7E7E7;stroke-width:1;"/><text fill="#FFFFFF" font-family="sans-serif" font-size="13" lengthAdjust="spacing" textLength="109.9731" x="1131" y="781.7938">Store media files</text></g><!--link media to mediaDB--><g class="link" data-entity-1="media" data-entity-2="mediaDB" data-source-line="83" data-uid="lnk55" id="link_media_mediaDB"><path d="M1009.59,674.4869 C1078.78,690.0869 1170.41,715.7569 1245,754.0769 C1276.87,770.4469 1279.9,782.5769 1311,800.3769 C1354.67,825.3669 1364.89,836.4069 1414,847.3769 C1490.67,864.4969 2044.19,838.8569 2121,855.3769 C2159.92,863.7369 2195.8554,879.8722 2225.0554,895.1722" fill="none" id="media-to-mediaDB" style="stroke:#E7E7E7;stroke-width:1;"/><polygon fill="#E7E7E7" points="2230.37,897.9569,2224.2545,890.2367,2225.9411,895.6363,2220.5416,897.3229,2230.37,897.9569" style="stroke:#E7E7E7;stroke-width:1;"/><text fill="#FFFFFF" font-family="sans-serif" font-size="13" lengthAdjust="spacing" textLength="101.7847" x="1312" y="781.7938">Store metadata</text></g><!--link media to user--><g class="link" data-entity-1="media" data-entity-2="user" data-source-line="86" data-uid="lnk58" id="link_media_user"><path d="M909.46,677.3769 C912.09,691.2369 916.4,709.1469 923,724.0769 C927.54,734.3469 930.6358,739.8909 936.8458,748.7109" fill="none" id="media-to-user" style="stroke:#E7E7E7;stroke-width:1;"/><polygon fill="#E7E7E7" points="940.3,753.6169,938.3893,743.9551,937.4215,749.5286,931.8481,748.5607,940.3,753.6169" style="stroke:#E7E7E7;stroke-width:1;"/><text fill="#FFFFFF" font-family="sans-serif" font-size="13" lengthAdjust="spacing" textLength="145.5708" x="924" y="720.1438">Provide profile images</text></g><!--link media to analytics--><g class="link" data-entity-1="media" data-entity-2="analytics" data-source-line="87" data-uid="lnk59" id="link_media_analytics"><path d="M811.58,677.5169 C779.13,685.9469 742.73,696.1469 710,707.0769 C668.99,720.7669 629.1961,736.8861 595.5261,751.2961" fill="none" id="media-to-analytics" style="stroke:#E7E7E7;stroke-width:1;"/><polygon fill="#E7E7E7" points="590.01,753.6569,599.8579,753.7931,594.6067,751.6896,596.7103,746.4384,590.01,753.6569" style="stroke:#E7E7E7;stroke-width:1;"/><text fill="#FFFFFF" font-family="sans-serif" font-size="13" lengthAdjust="spacing" textLength="196.6821" x="711" y="720.1438">Send media operation metrics</text></g><!--SRC=[VLQnSjim3Dtz5RWERJhuD7JBq3idIb9TxTYrucJeTQ0bM69ZYIf99t5x_VU2f2XHSj8f5l7m03m2O3JNUuJx94sMjp25BxmeftDymZqiU2Q5Gld4CuIPp4gkCTC7YPD9mx97LY2ykvQYrbZd447CLBaLJERluCy4uFi3Rc6JmDaQMQO__W2cu1ctcsJoD_2VhHAuOHgVsR5r2qw8T4sPI8MmakBbQ3bOmsyU1XnXdgfbsT0tfExCkXtem1XYR9ZK5TPwOCwnqJQwDjMmcYeEpKmxQq8fNOggEMYYl-UAYtg8umPsApJVyOpfiRas1ajKi_rHyqmDlVsfWImmvup2fLf8KsO8h8nje47CDDioXQhtQ9LO2QKBYUctELXHuejEZ_XY10Z4UKyqXzpyQXsCGYSEWLmjZ9HogEjPagPmJnqZf4t9fRvZNAaJ7bVi0ZNBgH3FPSjqsENs9p5rOfobdw85hvEbwojXhJR8Y3Y2vNosWbvldwO_8FfGnwiNkbcoGNfK6YlVJbSLu_ieNQI-DIq9cbCwj34FgeJ1nOV8XgmcpWVe1eRJ7qcJGT29dGkOJZ-xxePpM5-bTz6DP4r9HQpnrm6LLiO_70yfg0yLQ06- -oVEtp3PXky_ROFtdwQXWoyUVBWc3OnTL_PdhW4fdN3EmfBKnCJl4ealgARBzIQsNzHSKkpHrdCwZqCQatTNG4-JTswAs9HhrG1jmvp3dDUF0HPONl7Qp8YcfLJIPh6IdipyC0NIocjc4x1zPhvQhmxG1hr6dPK-fwYDH9GxqI5jdXwPxPbIKP3b0Cgu2MawnkAa41NmYfgLPeacIs8cYfhRDl8kzWR9wqxoeg3GR8zI1tLqmz0IzwNGnMffhxh5seiUPcepQ4gXXLFlFpjnf2D_XVAjKXostHPUz4WXetU81c-BUSxheYCr-TBK83rFjIVwZRc_1KZY7ZekdofeK586rK02gksrHJwioKbjQFqoyApeLqQ0CMl0s-tlEWWGaftacEEUqqju3BCxUKH6SdVcNg1BCXogi7c17bWpEICq3y2aJnirUXNisytZmwBwXXhoz-kt7wY2TdP1gos7hwl4LlZ66pYiq_MJOGsUWOxLMNVSh9iUsRui0SgzF074Ia3_TZpn7Dik3QrMJcy-cOiUsEu4ZsoaCBcyGZY-SMSIr9a38Vy1]--></g></svg>