<svg xmlns="http://www.w3.org/2000/svg" xmlns:xlink="http://www.w3.org/1999/xlink" contentStyleType="text/css" data-diagram-type="DESCRIPTION" height="910px" preserveAspectRatio="none" style="width:1831px;height:910px;background:#1B1B1B;" version="1.1" viewBox="0 0 1831 910" width="1831px" zoomAndPan="magnify"><title>AI / Computer Vision Service - Component Diagram</title><defs/><g><rect fill="#1B1B1B" height="910" style="stroke:none;stroke-width:1;" width="1831" x="0" y="0"/><g class="title" data-source-line="1"><text fill="#FFFFFF" font-family="sans-serif" font-size="14" font-weight="bold" lengthAdjust="spacing" textLength="402.2676" x="707.832" y="22.9951">AI / Computer Vision Service - Component Diagram</text></g><!--cluster AI / Computer Vision Service--><g class="cluster" data-entity="AI . Computer Vision Service" data-source-line="3" data-uid="ent0002" id="cluster_AI . Computer Vision Service"><path d="M8.5,43.2969 L234.2656,43.2969 A3.75,3.75 0 0 1 236.7656,45.7969 L243.7656,65.5938 L576.5,65.5938 A2.5,2.5 0 0 1 579,68.0938 L579,754.5769 A2.5,2.5 0 0 1 576.5,757.0769 L8.5,757.0769 A2.5,2.5 0 0 1 6,754.5769 L6,45.7969 A2.5,2.5 0 0 1 8.5,43.2969" fill="none" style="stroke:#FFFFFF;stroke-width:1.5;"/><line style="stroke:#FFFFFF;stroke-width:1.5;" x1="6" x2="243.7656" y1="65.5938" y2="65.5938"/><text fill="#FFFFFF" font-family="sans-serif" font-size="14" font-weight="bold" lengthAdjust="spacing" textLength="224.7656" x="10" y="58.292">AI / Computer Vision Service</text></g><!--cluster External Systems--><g class="cluster" data-entity="External Systems" data-source-line="14" data-uid="ent0011" id="cluster_External Systems"><path d="M264.5,806.0769 L402.9229,806.0769 A3.75,3.75 0 0 1 405.4229,808.5769 L412.4229,828.3738 L1380.5,828.3738 A2.5,2.5 0 0 1 1383,830.8738 L1383,900.8769 A2.5,2.5 0 0 1 1380.5,903.3769 L264.5,903.3769 A2.5,2.5 0 0 1 262,900.8769 L262,808.5769 A2.5,2.5 0 0 1 264.5,806.0769" fill="none" style="stroke:#FFFFFF;stroke-width:1.5;"/><line style="stroke:#FFFFFF;stroke-width:1.5;" x1="262" x2="412.4229" y1="828.3738" y2="828.3738"/><text fill="#FFFFFF" font-family="sans-serif" font-size="14" font-weight="bold" lengthAdjust="spacing" textLength="137.4229" x="266" y="821.072">External Systems</text></g><!--entity api--><g class="entity" data-entity="api" data-source-line="4" data-uid="ent0003" id="entity_api"><rect fill="#313139" height="46.2969" rx="2.5" ry="2.5" style="stroke:#E7E7E7;stroke-width:0.5;" width="188.6816" x="105.66" y="78.2969"/><rect fill="#313139" height="10" style="stroke:#E7E7E7;stroke-width:0.5;" width="15" x="274.3416" y="83.2969"/><rect fill="#313139" height="2" style="stroke:#E7E7E7;stroke-width:0.5;" width="4" x="272.3416" y="85.2969"/><rect fill="#313139" height="2" style="stroke:#E7E7E7;stroke-width:0.5;" width="4" x="272.3416" y="89.2969"/><text fill="#FFFFFF" font-family="sans-serif" font-size="14" lengthAdjust="spacing" textLength="148.6816" x="120.66" y="111.292">API Gateway Adapter</text></g><!--entity faceCtrl--><g class="entity" data-entity="faceCtrl" data-source-line="5" data-uid="ent0004" id="entity_faceCtrl"><rect fill="#313139" height="46.2969" rx="2.5" ry="2.5" style="stroke:#E7E7E7;stroke-width:0.5;" width="234.0859" x="328.96" y="201.5969"/><rect fill="#313139" height="10" style="stroke:#E7E7E7;stroke-width:0.5;" width="15" x="543.0459" y="206.5969"/><rect fill="#313139" height="2" style="stroke:#E7E7E7;stroke-width:0.5;" width="4" x="541.0459" y="208.5969"/><rect fill="#313139" height="2" style="stroke:#E7E7E7;stroke-width:0.5;" width="4" x="541.0459" y="212.5969"/><text fill="#FFFFFF" font-family="sans-serif" font-size="14" lengthAdjust="spacing" textLength="194.0859" x="343.96" y="234.592">Face Recognition Controller</text></g><!--entity detectEng--><g class="entity" data-entity="detectEng" data-source-line="6" data-uid="ent0005" id="entity_detectEng"><rect fill="#313139" height="46.2969" rx="2.5" ry="2.5" style="stroke:#E7E7E7;stroke-width:0.5;" width="316.8965" x="21.55" y="448.1869"/><rect fill="#313139" height="10" style="stroke:#E7E7E7;stroke-width:0.5;" width="15" x="318.4465" y="453.1869"/><rect fill="#313139" height="2" style="stroke:#E7E7E7;stroke-width:0.5;" width="4" x="316.4465" y="455.1869"/><rect fill="#313139" height="2" style="stroke:#E7E7E7;stroke-width:0.5;" width="4" x="316.4465" y="459.1869"/><text fill="#FFFFFF" font-family="sans-serif" font-size="14" lengthAdjust="spacing" textLength="276.8965" x="36.55" y="481.182">Detection Engine (YOLOv8 / MediaPipe)</text></g><!--entity embedEng--><g class="entity" data-entity="embedEng" data-source-line="7" data-uid="ent0006" id="entity_embedEng"><rect fill="#313139" height="46.2969" rx="2.5" ry="2.5" style="stroke:#E7E7E7;stroke-width:0.5;" width="307.0117" x="188.49" y="571.4869"/><rect fill="#313139" height="10" style="stroke:#E7E7E7;stroke-width:0.5;" width="15" x="475.5017" y="576.4869"/><rect fill="#313139" height="2" style="stroke:#E7E7E7;stroke-width:0.5;" width="4" x="473.5017" y="578.4869"/><rect fill="#313139" height="2" style="stroke:#E7E7E7;stroke-width:0.5;" width="4" x="473.5017" y="582.4869"/><text fill="#FFFFFF" font-family="sans-serif" font-size="14" lengthAdjust="spacing" textLength="267.0117" x="203.49" y="604.482">Embedding Engine (ArcFace / ResNet)</text></g><!--entity faissMgr--><g class="entity" data-entity="faissMgr" data-source-line="8" data-uid="ent0007" id="entity_faissMgr"><rect fill="#313139" height="46.2969" rx="2.5" ry="2.5" style="stroke:#E7E7E7;stroke-width:0.5;" width="188.5859" x="250.71" y="694.7869"/><rect fill="#313139" height="10" style="stroke:#E7E7E7;stroke-width:0.5;" width="15" x="419.2959" y="699.7869"/><rect fill="#313139" height="2" style="stroke:#E7E7E7;stroke-width:0.5;" width="4" x="417.2959" y="701.7869"/><rect fill="#313139" height="2" style="stroke:#E7E7E7;stroke-width:0.5;" width="4" x="417.2959" y="705.7869"/><text fill="#FFFFFF" font-family="sans-serif" font-size="14" lengthAdjust="spacing" textLength="148.5859" x="265.71" y="727.782">FAISS Index Manager</text></g><!--entity modelReg--><g class="entity" data-entity="modelReg" data-source-line="9" data-uid="ent0008" id="entity_modelReg"><rect fill="#313139" height="46.2969" rx="2.5" ry="2.5" style="stroke:#E7E7E7;stroke-width:0.5;" width="212.4434" x="274.78" y="324.8969"/><rect fill="#313139" height="10" style="stroke:#E7E7E7;stroke-width:0.5;" width="15" x="467.2234" y="329.8969"/><rect fill="#313139" height="2" style="stroke:#E7E7E7;stroke-width:0.5;" width="4" x="465.2234" y="331.8969"/><rect fill="#313139" height="2" style="stroke:#E7E7E7;stroke-width:0.5;" width="4" x="465.2234" y="335.8969"/><text fill="#FFFFFF" font-family="sans-serif" font-size="14" lengthAdjust="spacing" textLength="172.4434" x="289.78" y="357.892">Model Registry &amp; Loader</text></g><!--entity preProc--><g class="entity" data-entity="preProc" data-source-line="10" data-uid="ent0009" id="entity_preProc"><rect fill="#313139" height="46.2969" rx="2.5" ry="2.5" style="stroke:#E7E7E7;stroke-width:0.5;" width="190.999" x="35.5" y="324.8969"/><rect fill="#313139" height="10" style="stroke:#E7E7E7;stroke-width:0.5;" width="15" x="206.499" y="329.8969"/><rect fill="#313139" height="2" style="stroke:#E7E7E7;stroke-width:0.5;" width="4" x="204.499" y="331.8969"/><rect fill="#313139" height="2" style="stroke:#E7E7E7;stroke-width:0.5;" width="4" x="204.499" y="335.8969"/><text fill="#FFFFFF" font-family="sans-serif" font-size="14" lengthAdjust="spacing" textLength="150.999" x="50.5" y="357.892">Preprocessing Engine</text></g><!--entity aiMetrics--><g class="entity" data-entity="aiMetrics" data-source-line="11" data-uid="ent0010" id="entity_aiMetrics"><rect fill="#313139" height="46.2969" rx="2.5" ry="2.5" style="stroke:#E7E7E7;stroke-width:0.5;" width="184.5801" x="378.71" y="78.2969"/><rect fill="#313139" height="10" style="stroke:#E7E7E7;stroke-width:0.5;" width="15" x="543.2901" y="83.2969"/><rect fill="#313139" height="2" style="stroke:#E7E7E7;stroke-width:0.5;" width="4" x="541.2901" y="85.2969"/><rect fill="#313139" height="2" style="stroke:#E7E7E7;stroke-width:0.5;" width="4" x="541.2901" y="89.2969"/><text fill="#FFFFFF" font-family="sans-serif" font-size="14" lengthAdjust="spacing" textLength="144.5801" x="393.71" y="111.292">AI Logging &amp; Metrics</text></g><!--entity faissDB--><g class="entity" data-entity="faissDB" data-source-line="15" data-uid="ent0012" id="entity_faissDB"><rect fill="#313139" height="46.2969" rx="2.5" ry="2.5" style="stroke:#E7E7E7;stroke-width:0.5;" width="171.4414" x="278.28" y="841.0769"/><rect fill="#313139" height="10" style="stroke:#E7E7E7;stroke-width:0.5;" width="15" x="429.7214" y="846.0769"/><rect fill="#313139" height="2" style="stroke:#E7E7E7;stroke-width:0.5;" width="4" x="427.7214" y="848.0769"/><rect fill="#313139" height="2" style="stroke:#E7E7E7;stroke-width:0.5;" width="4" x="427.7214" y="852.0769"/><text fill="#FFFFFF" font-family="sans-serif" font-size="14" lengthAdjust="spacing" textLength="131.4414" x="293.28" y="874.072">FAISS Vector Store</text></g><!--entity mediaAPI--><g class="entity" data-entity="mediaAPI" data-source-line="16" data-uid="ent0013" id="entity_mediaAPI"><rect fill="#313139" height="46.2969" rx="2.5" ry="2.5" style="stroke:#E7E7E7;stroke-width:0.5;" width="233.2314" x="484.38" y="841.0769"/><rect fill="#313139" height="10" style="stroke:#E7E7E7;stroke-width:0.5;" width="15" x="697.6114" y="846.0769"/><rect fill="#313139" height="2" style="stroke:#E7E7E7;stroke-width:0.5;" width="4" x="695.6114" y="848.0769"/><rect fill="#313139" height="2" style="stroke:#E7E7E7;stroke-width:0.5;" width="4" x="695.6114" y="852.0769"/><text fill="#FFFFFF" font-family="sans-serif" font-size="14" lengthAdjust="spacing" textLength="193.2314" x="499.38" y="874.072">Media / Storage Service API</text></g><!--entity attAPI--><g class="entity" data-entity="attAPI" data-source-line="17" data-uid="ent0014" id="entity_attAPI"><rect fill="#313139" height="46.2969" rx="2.5" ry="2.5" style="stroke:#E7E7E7;stroke-width:0.5;" width="203.4814" x="752.26" y="841.0769"/><rect fill="#313139" height="10" style="stroke:#E7E7E7;stroke-width:0.5;" width="15" x="935.7414" y="846.0769"/><rect fill="#313139" height="2" style="stroke:#E7E7E7;stroke-width:0.5;" width="4" x="933.7414" y="848.0769"/><rect fill="#313139" height="2" style="stroke:#E7E7E7;stroke-width:0.5;" width="4" x="933.7414" y="852.0769"/><text fill="#FFFFFF" font-family="sans-serif" font-size="14" lengthAdjust="spacing" textLength="163.4814" x="767.26" y="874.072">Attendance Service API</text></g><!--entity userAPI--><g class="entity" data-entity="userAPI" data-source-line="18" data-uid="ent0015" id="entity_userAPI"><rect fill="#313139" height="46.2969" rx="2.5" ry="2.5" style="stroke:#E7E7E7;stroke-width:0.5;" width="154.7002" x="990.65" y="841.0769"/><rect fill="#313139" height="10" style="stroke:#E7E7E7;stroke-width:0.5;" width="15" x="1125.3502" y="846.0769"/><rect fill="#313139" height="2" style="stroke:#E7E7E7;stroke-width:0.5;" width="4" x="1123.3502" y="848.0769"/><rect fill="#313139" height="2" style="stroke:#E7E7E7;stroke-width:0.5;" width="4" x="1123.3502" y="852.0769"/><text fill="#FFFFFF" font-family="sans-serif" font-size="14" lengthAdjust="spacing" textLength="114.7002" x="1005.65" y="874.072">User Service API</text></g><!--entity analyticsAPI--><g class="entity" data-entity="analyticsAPI" data-source-line="19" data-uid="ent0016" id="entity_analyticsAPI"><rect fill="#313139" height="46.2969" rx="2.5" ry="2.5" style="stroke:#E7E7E7;stroke-width:0.5;" width="186.3643" x="1180.82" y="841.0769"/><rect fill="#313139" height="10" style="stroke:#E7E7E7;stroke-width:0.5;" width="15" x="1347.1843" y="846.0769"/><rect fill="#313139" height="2" style="stroke:#E7E7E7;stroke-width:0.5;" width="4" x="1345.1843" y="848.0769"/><rect fill="#313139" height="2" style="stroke:#E7E7E7;stroke-width:0.5;" width="4" x="1345.1843" y="852.0769"/><text fill="#FFFFFF" font-family="sans-serif" font-size="14" lengthAdjust="spacing" textLength="146.3643" x="1195.82" y="874.072">Analytics Service API</text></g><!--link api to faceCtrl--><g class="link" data-entity-1="api" data-entity-2="faceCtrl" data-source-line="22" data-uid="lnk17" id="link_api_faceCtrl"><path d="M245.69,124.9769 C289.74,146.6969 350.6489,176.7229 394.7489,198.4729" fill="none" id="api-to-faceCtrl" style="stroke:#E7E7E7;stroke-width:1;"/><polygon fill="#E7E7E7" points="400.13,201.1269,393.8276,193.5585,395.6457,198.9152,390.289,200.7334,400.13,201.1269" style="stroke:#E7E7E7;stroke-width:1;"/><text fill="#FFFFFF" font-family="sans-serif" font-size="13" lengthAdjust="spacing" textLength="361.7466" x="339" y="167.6638">REST/GRPC calls (recognize, train, update embeddings)</text></g><!--link faceCtrl to preProc--><g class="link" data-entity-1="faceCtrl" data-entity-2="preProc" data-source-line="24" data-uid="lnk18" id="link_faceCtrl_preProc"><path d="M372.72,248.3069 C345.87,257.0069 315.37,267.3769 288,277.8969 C250.88,292.1569 215.2337,307.8455 184.4037,321.9855" fill="none" id="faceCtrl-to-preProc" style="stroke:#E7E7E7;stroke-width:1;"/><polygon fill="#E7E7E7" points="178.95,324.4869,188.7982,324.3707,183.4948,322.4024,185.4631,317.0991,178.95,324.4869" style="stroke:#E7E7E7;stroke-width:1;"/><text fill="#FFFFFF" font-family="sans-serif" font-size="13" lengthAdjust="spacing" textLength="300.1235" x="289" y="290.9638">Preprocess images (alignment, normalization)</text></g><!--link preProc to detectEng--><g class="link" data-entity-1="preProc" data-entity-2="detectEng" data-source-line="25" data-uid="lnk19" id="link_preProc_detectEng"><path d="M87.56,371.4369 C68.99,384.1269 53.85,400.8969 65,418.1869 C73.14,430.8069 79.894,437.5229 93.134,444.8129" fill="none" id="preProc-to-detectEng" style="stroke:#E7E7E7;stroke-width:1;"/><polygon fill="#E7E7E7" points="98.39,447.7069,92.4354,439.862,94.01,445.2952,88.5768,446.8699,98.39,447.7069" style="stroke:#E7E7E7;stroke-width:1;"/><text fill="#FFFFFF" font-family="sans-serif" font-size="13" lengthAdjust="spacing" textLength="149.3223" x="66" y="414.2538">Detect faces in images</text></g><!--link detectEng to embedEng--><g class="link" data-entity-1="detectEng" data-entity-2="embedEng" data-source-line="26" data-uid="lnk20" id="link_detectEng_embedEng"><path d="M126.52,494.9569 C104.47,507.5269 86.98,524.1069 101,541.4869 C113.47,556.9369 142.6448,566.869 182.3048,574.739" fill="none" id="detectEng-to-embedEng" style="stroke:#E7E7E7;stroke-width:1;"/><polygon fill="#E7E7E7" points="188.19,575.9069,180.1407,570.2316,183.2856,574.9337,178.5836,578.0786,188.19,575.9069" style="stroke:#E7E7E7;stroke-width:1;"/><text fill="#FFFFFF" font-family="sans-serif" font-size="13" lengthAdjust="spacing" textLength="296.4229" x="102" y="537.5538">Generate embeddings for each detected face</text></g><!--link embedEng to faissMgr--><g class="link" data-entity-1="embedEng" data-entity-2="faissMgr" data-source-line="27" data-uid="lnk21" id="link_embedEng_faissMgr"><path d="M342.56,618.1669 C343.1,639.9569 343.761,666.7787 344.301,688.5187" fill="none" id="embedEng-to-faissMgr" style="stroke:#E7E7E7;stroke-width:1;"/><polygon fill="#E7E7E7" points="344.45,694.5169,348.2253,685.4203,344.3258,689.5184,340.2278,685.619,344.45,694.5169" style="stroke:#E7E7E7;stroke-width:1;"/><text fill="#FFFFFF" font-family="sans-serif" font-size="13" lengthAdjust="spacing" textLength="219.7432" x="345" y="660.8538">Insert/update/search embeddings</text></g><!--link faissMgr to faissDB--><g class="link" data-entity-1="faissMgr" data-entity-2="faissDB" data-source-line="28" data-uid="lnk22" id="link_faissMgr_faissDB"><path d="M347.97,741.4769 C351.54,768.5869 356.7065,807.8582 360.2665,834.8882" fill="none" id="faissMgr-to-faissDB" style="stroke:#E7E7E7;stroke-width:1;"/><polygon fill="#E7E7E7" points="361.05,840.8369,363.8406,831.3916,360.3971,835.8797,355.909,832.4362,361.05,840.8369" style="stroke:#E7E7E7;stroke-width:1;"/><text fill="#FFFFFF" font-family="sans-serif" font-size="13" lengthAdjust="spacing" textLength="173.2275" x="355" y="786.1438">Persist vector embeddings</text></g><!--link modelReg to detectEng--><g class="link" data-entity-1="modelReg" data-entity-2="detectEng" data-source-line="30" data-uid="lnk23" id="link_modelReg_detectEng"><path d="M314.98,371.6569 C295.3,379.6869 274.15,389.6369 256,401.1869 C235.38,414.3069 219.2717,428.9037 204.8317,443.6237" fill="none" id="modelReg-to-detectEng" style="stroke:#E7E7E7;stroke-width:1;"/><polygon fill="#E7E7E7" points="200.63,447.9069,209.788,444.2832,204.1314,444.3376,204.0771,438.681,200.63,447.9069" style="stroke:#E7E7E7;stroke-width:1;"/><text fill="#FFFFFF" font-family="sans-serif" font-size="13" lengthAdjust="spacing" textLength="141.5527" x="257" y="414.2538">Load detection model</text></g><!--link modelReg to embedEng--><g class="link" data-entity-1="modelReg" data-entity-2="embedEng" data-source-line="31" data-uid="lnk24" id="link_modelReg_embedEng"><path d="M392.8,371.5169 C396.89,380.4869 400.95,391.0769 403,401.1869 C415.36,462.3069 429.09,484.8569 403,541.4869 C397.64,553.1269 392.8921,559.3354 383.0621,567.3854" fill="none" id="modelReg-to-embedEng" style="stroke:#E7E7E7;stroke-width:1;"/><polygon fill="#E7E7E7" points="378.42,571.1869,387.9174,568.5794,382.2884,568.019,382.8488,562.3899,378.42,571.1869" style="stroke:#E7E7E7;stroke-width:1;"/><text fill="#FFFFFF" font-family="sans-serif" font-size="13" lengthAdjust="spacing" textLength="153.6768" x="419" y="475.9038">Load embedding model</text></g><!--link faceCtrl to mediaAPI--><g class="link" data-entity-1="faceCtrl" data-entity-2="mediaAPI" data-source-line="33" data-uid="lnk25" id="link_faceCtrl_mediaAPI"><path d="M558.49,248.2169 C572.38,255.5169 584.87,265.1569 594,277.8969 C595.04,279.3469 599.6296,727.4172 600.7096,834.7072" fill="none" id="faceCtrl-to-mediaAPI" style="stroke:#E7E7E7;stroke-width:1;"/><polygon fill="#E7E7E7" points="600.77,840.7069,604.6792,831.6671,600.7197,835.7071,596.6796,831.7476,600.77,840.7069" style="stroke:#E7E7E7;stroke-width:1;"/><text fill="#FFFFFF" font-family="sans-serif" font-size="13" lengthAdjust="spacing" textLength="211.7515" x="598" y="537.5538">Fetch student/classroom images</text></g><!--link faceCtrl to userAPI--><g class="link" data-entity-1="faceCtrl" data-entity-2="userAPI" data-source-line="34" data-uid="lnk26" id="link_faceCtrl_userAPI"><path d="M563.2,231.4669 C786.74,243.9669 1252,278.2369 1252,347.0369 C1252,347.0369 1252,347.0369 1252,718.9269 C1252,728.5269 1156.5656,799.0822 1104.0656,837.1922" fill="none" id="faceCtrl-to-userAPI" style="stroke:#E7E7E7;stroke-width:1;"/><polygon fill="#E7E7E7" points="1099.21,840.7169,1108.8432,838.6669,1103.2563,837.7796,1104.1436,832.1928,1099.21,840.7169" style="stroke:#E7E7E7;stroke-width:1;"/><text fill="#FFFFFF" font-family="sans-serif" font-size="13" lengthAdjust="spacing" textLength="227.7031" x="1253" y="537.5538">Validate student IDs and metadata</text></g><!--link aiMetrics to analyticsAPI--><g class="link" data-entity-1="aiMetrics" data-entity-2="analyticsAPI" data-source-line="36" data-uid="lnk27" id="link_aiMetrics_analyticsAPI"><path d="M563.58,103.6869 C817.13,108.3069 1504,129.5069 1504,223.7469 C1504,223.7469 1504,223.7469 1504,718.9269 C1504,786.8069 1436.9663,822.2276 1373.2863,841.7576" fill="none" id="aiMetrics-to-analyticsAPI" style="stroke:#E7E7E7;stroke-width:1;"/><polygon fill="#E7E7E7" points="1367.55,843.5169,1377.3273,844.7022,1372.3302,842.0508,1374.9816,837.0538,1367.55,843.5169" style="stroke:#E7E7E7;stroke-width:1;"/><text fill="#FFFFFF" font-family="sans-serif" font-size="13" lengthAdjust="spacing" textLength="318.9316" x="1505" y="475.9038">Send AI performance metrics (latency, accuracy)</text></g><!--link faceCtrl to attAPI--><g class="link" data-entity-1="faceCtrl" data-entity-2="attAPI" data-source-line="37" data-uid="lnk28" id="link_faceCtrl_attAPI"><path d="M563.46,237.6469 C683.99,253.2069 854,285.9869 854,347.0369 C854,347.0369 854,347.0369 854,718.9269 C854,762.0169 854,806.3469 854,834.7369" fill="none" id="faceCtrl-to-attAPI" style="stroke:#E7E7E7;stroke-width:1;"/><polygon fill="#E7E7E7" points="854,840.7369,858,831.7369,854,835.7369,850,831.7369,854,840.7369" style="stroke:#E7E7E7;stroke-width:1;"/><text fill="#FFFFFF" font-family="sans-serif" font-size="13" lengthAdjust="spacing" textLength="356.1606" x="855" y="537.5538">Return recognized student IDs for attendance marking</text></g><!--SRC=[VLHDQnin4BtlhnXo234u-5fwA3Z-20jnOx9je8GUfj9uAx8hBPASnYdzxvtHQjTs0xqOjFFUqvkP9qSJ6u9v2JDOkBRRH_BmQ89n5YhoBqOHNAUAisGZB0tM7jkYw50zOqrmyJ_g1Vmk09xcsn9kCT8lFC1SOyV0xu01i3DINYDVya3ArTP4OI-SZTurJORjkBw8lX7iaYAf15hPsbY2gs_tT_Sl7zZ3XhJ1hUbeabWw8Habj5NxWxGsjXvfSw_IlJE-ENocs9D8S9cpdfTL1QNLz0eRjDpiOCU4iAczO3PEKyCAjGdH7-0IxXpgZ6kbnYN1RJrrtYaAuUWXWJfFMowaAPNChci1N78pqHiL-Z6PV2h-dCnzzSfZjDX0TGYHsf1dtRj-vDQTXuf_w6XwUPCyovouRocAqh1ctbBlM-fyI9vY9AlHglSmZ363lWPU_B_bFNySHDZb8RB_znf3HP3S70S2hgy_ZHk7Z_2mghxCRX-s2r3OD06kV1-KDvf2z6Zi5FQTvd3rkvCTXqbHZ0eYbuVCQiSzW6cvUTR3njIsvMnFmJhVyl4D9M2JOg29n9Wc5kapc4ooZCrAnH4YX259ZBybI_xS8UnuEuJgPnOcdUIAaTLFeGyQIvIMnnbdVQUpGEYPUfGhHkZ8Mzv8k-G39nDU-ZYS48eXdU-wamJd3_BC4kuSVT9Q0e-o6Nm-_25EZ5vJPDiXxZMFUwOQ3C4xrmu3FAFb_33haLUI5fo9K2ubEPgL8t81EJV32qdKqrGnl-84onzSHtud2vOmjnb-rR2mLOSfe59xZ-emERVHfrnoI77lBOpfqsTsP9ruV2ij-cUUnry0]--></g></svg>