<svg xmlns="http://www.w3.org/2000/svg" xmlns:xlink="http://www.w3.org/1999/xlink" contentStyleType="text/css" data-diagram-type="DESCRIPTION" height="663px" preserveAspectRatio="none" style="width:1680px;height:663px;background:#1B1B1B;" version="1.1" viewBox="0 0 1680 663" width="1680px" zoomAndPan="magnify"><title>Analytics Service - Component Diagram</title><defs/><g><rect fill="#1B1B1B" height="663" style="stroke:none;stroke-width:1;" width="1680" x="0" y="0"/><g class="title" data-source-line="1"><text fill="#FFFFFF" font-family="sans-serif" font-size="14" font-weight="bold" lengthAdjust="spacing" textLength="312.874" x="676.563" y="22.9951">Analytics Service - Component Diagram</text></g><!--cluster Analytics Service--><g class="cluster" data-entity="Analytics Service" data-source-line="3" data-uid="ent0002" id="cluster_Analytics Service"><path d="M242.5,189.5869 L378.8721,189.5869 A3.75,3.75 0 0 1 381.3721,192.0869 L388.3721,211.8838 L1344.5,211.8838 A2.5,2.5 0 0 1 1347,214.3838 L1347,654.2769 A2.5,2.5 0 0 1 1344.5,656.7769 L242.5,656.7769 A2.5,2.5 0 0 1 240,654.2769 L240,192.0869 A2.5,2.5 0 0 1 242.5,189.5869" fill="none" style="stroke:#FFFFFF;stroke-width:1.5;"/><line style="stroke:#FFFFFF;stroke-width:1.5;" x1="240" x2="388.3721" y1="211.8838" y2="211.8838"/><text fill="#FFFFFF" font-family="sans-serif" font-size="14" font-weight="bold" lengthAdjust="spacing" textLength="135.3721" x="244" y="204.582">Analytics Service</text></g><!--cluster External Systems--><g class="cluster" data-entity="External Systems" data-source-line="14" data-uid="ent0011" id="cluster_External Systems"><path d="M8.5,43.2969 L146.9229,43.2969 A3.75,3.75 0 0 1 149.4229,45.7969 L156.4229,65.5938 L1670.5,65.5938 A2.5,2.5 0 0 1 1673,68.0938 L1673,138.0869 A2.5,2.5 0 0 1 1670.5,140.5869 L8.5,140.5869 A2.5,2.5 0 0 1 6,138.0869 L6,45.7969 A2.5,2.5 0 0 1 8.5,43.2969" fill="none" style="stroke:#FFFFFF;stroke-width:1.5;"/><line style="stroke:#FFFFFF;stroke-width:1.5;" x1="6" x2="156.4229" y1="65.5938" y2="65.5938"/><text fill="#FFFFFF" font-family="sans-serif" font-size="14" font-weight="bold" lengthAdjust="spacing" textLength="137.4229" x="10" y="58.292">External Systems</text></g><!--entity api--><g class="entity" data-entity="api" data-source-line="4" data-uid="ent0003" id="entity_api"><rect fill="#313139" height="46.2969" rx="2.5" ry="2.5" style="stroke:#E7E7E7;stroke-width:0.5;" width="188.6816" x="819.66" y="224.5869"/><rect fill="#313139" height="10" style="stroke:#E7E7E7;stroke-width:0.5;" width="15" x="988.3416" y="229.5869"/><rect fill="#313139" height="2" style="stroke:#E7E7E7;stroke-width:0.5;" width="4" x="986.3416" y="231.5869"/><rect fill="#313139" height="2" style="stroke:#E7E7E7;stroke-width:0.5;" width="4" x="986.3416" y="235.5869"/><text fill="#FFFFFF" font-family="sans-serif" font-size="14" lengthAdjust="spacing" textLength="148.6816" x="834.66" y="257.582">API Gateway Adapter</text></g><!--entity analyticsCtrl--><g class="entity" data-entity="analyticsCtrl" data-source-line="5" data-uid="ent0004" id="entity_analyticsCtrl"><rect fill="#313139" height="46.2969" rx="2.5" ry="2.5" style="stroke:#E7E7E7;stroke-width:0.5;" width="177.1973" x="791.4" y="347.8869"/><rect fill="#313139" height="10" style="stroke:#E7E7E7;stroke-width:0.5;" width="15" x="948.5973" y="352.8869"/><rect fill="#313139" height="2" style="stroke:#E7E7E7;stroke-width:0.5;" width="4" x="946.5973" y="354.8869"/><rect fill="#313139" height="2" style="stroke:#E7E7E7;stroke-width:0.5;" width="4" x="946.5973" y="358.8869"/><text fill="#FFFFFF" font-family="sans-serif" font-size="14" lengthAdjust="spacing" textLength="137.1973" x="806.4" y="380.882">Analytics Controller</text></g><!--entity aggEng--><g class="entity" data-entity="aggEng" data-source-line="6" data-uid="ent0005" id="entity_aggEng"><rect fill="#313139" height="46.2969" rx="2.5" ry="2.5" style="stroke:#E7E7E7;stroke-width:0.5;" width="216.3125" x="255.84" y="347.8869"/><rect fill="#313139" height="10" style="stroke:#E7E7E7;stroke-width:0.5;" width="15" x="452.1525" y="352.8869"/><rect fill="#313139" height="2" style="stroke:#E7E7E7;stroke-width:0.5;" width="4" x="450.1525" y="354.8869"/><rect fill="#313139" height="2" style="stroke:#E7E7E7;stroke-width:0.5;" width="4" x="450.1525" y="358.8869"/><text fill="#FFFFFF" font-family="sans-serif" font-size="14" lengthAdjust="spacing" textLength="176.3125" x="270.84" y="380.882">Data Aggregation Engine</text></g><!--entity kpiCalc--><g class="entity" data-entity="kpiCalc" data-source-line="7" data-uid="ent0006" id="entity_kpiCalc"><rect fill="#313139" height="46.2969" rx="2.5" ry="2.5" style="stroke:#E7E7E7;stroke-width:0.5;" width="207.9316" x="503.03" y="471.1869"/><rect fill="#313139" height="10" style="stroke:#E7E7E7;stroke-width:0.5;" width="15" x="690.9616" y="476.1869"/><rect fill="#313139" height="2" style="stroke:#E7E7E7;stroke-width:0.5;" width="4" x="688.9616" y="478.1869"/><rect fill="#313139" height="2" style="stroke:#E7E7E7;stroke-width:0.5;" width="4" x="688.9616" y="482.1869"/><text fill="#FFFFFF" font-family="sans-serif" font-size="14" lengthAdjust="spacing" textLength="167.9316" x="518.03" y="504.182">Metrics &amp; KPI Calculator</text></g><!--entity reportEng--><g class="entity" data-entity="reportEng" data-source-line="8" data-uid="ent0007" id="entity_reportEng"><rect fill="#313139" height="46.2969" rx="2.5" ry="2.5" style="stroke:#E7E7E7;stroke-width:0.5;" width="161.1191" x="1036.44" y="471.1869"/><rect fill="#313139" height="10" style="stroke:#E7E7E7;stroke-width:0.5;" width="15" x="1177.5591" y="476.1869"/><rect fill="#313139" height="2" style="stroke:#E7E7E7;stroke-width:0.5;" width="4" x="1175.5591" y="478.1869"/><rect fill="#313139" height="2" style="stroke:#E7E7E7;stroke-width:0.5;" width="4" x="1175.5591" y="482.1869"/><text fill="#FFFFFF" font-family="sans-serif" font-size="14" lengthAdjust="spacing" textLength="121.1191" x="1051.44" y="504.182">Reporting Engine</text></g><!--entity vizAdapter--><g class="entity" data-entity="vizAdapter" data-source-line="9" data-uid="ent0008" id="entity_vizAdapter"><rect fill="#313139" height="46.2969" rx="2.5" ry="2.5" style="stroke:#E7E7E7;stroke-width:0.5;" width="188.9756" x="745.51" y="471.1869"/><rect fill="#313139" height="10" style="stroke:#E7E7E7;stroke-width:0.5;" width="15" x="914.4856" y="476.1869"/><rect fill="#313139" height="2" style="stroke:#E7E7E7;stroke-width:0.5;" width="4" x="912.4856" y="478.1869"/><rect fill="#313139" height="2" style="stroke:#E7E7E7;stroke-width:0.5;" width="4" x="912.4856" y="482.1869"/><text fill="#FFFFFF" font-family="sans-serif" font-size="14" lengthAdjust="spacing" textLength="148.9756" x="760.51" y="504.182">Visualization Adapter</text></g><!--entity analyticsRepo--><g class="entity" data-entity="analyticsRepo" data-source-line="10" data-uid="ent0009" id="entity_analyticsRepo"><rect fill="#313139" height="46.2969" rx="2.5" ry="2.5" style="stroke:#E7E7E7;stroke-width:0.5;" width="183.0967" x="728.45" y="594.4769"/><rect fill="#313139" height="10" style="stroke:#E7E7E7;stroke-width:0.5;" width="15" x="891.5467" y="599.4769"/><rect fill="#313139" height="2" style="stroke:#E7E7E7;stroke-width:0.5;" width="4" x="889.5467" y="601.4769"/><rect fill="#313139" height="2" style="stroke:#E7E7E7;stroke-width:0.5;" width="4" x="889.5467" y="605.4769"/><text fill="#FFFFFF" font-family="sans-serif" font-size="14" lengthAdjust="spacing" textLength="143.0967" x="743.45" y="627.472">Analytics Repository</text></g><!--entity eventListener--><g class="entity" data-entity="eventListener" data-source-line="11" data-uid="ent0010" id="entity_eventListener"><rect fill="#313139" height="46.2969" rx="2.5" ry="2.5" style="stroke:#E7E7E7;stroke-width:0.5;" width="276.332" x="255.83" y="224.5869"/><rect fill="#313139" height="10" style="stroke:#E7E7E7;stroke-width:0.5;" width="15" x="512.162" y="229.5869"/><rect fill="#313139" height="2" style="stroke:#E7E7E7;stroke-width:0.5;" width="4" x="510.162" y="231.5869"/><rect fill="#313139" height="2" style="stroke:#E7E7E7;stroke-width:0.5;" width="4" x="510.162" y="235.5869"/><text fill="#FFFFFF" font-family="sans-serif" font-size="14" lengthAdjust="spacing" textLength="236.332" x="270.83" y="257.582">Event Consumer / Queue Listener</text></g><!--entity analyticsDB--><g class="entity" data-entity="analyticsDB" data-source-line="15" data-uid="ent0012" id="entity_analyticsDB"><rect fill="#313139" height="46.2969" rx="2.5" ry="2.5" style="stroke:#E7E7E7;stroke-width:0.5;" width="196.0439" x="1460.98" y="78.2969"/><rect fill="#313139" height="10" style="stroke:#E7E7E7;stroke-width:0.5;" width="15" x="1637.0239" y="83.2969"/><rect fill="#313139" height="2" style="stroke:#E7E7E7;stroke-width:0.5;" width="4" x="1635.0239" y="85.2969"/><rect fill="#313139" height="2" style="stroke:#E7E7E7;stroke-width:0.5;" width="4" x="1635.0239" y="89.2969"/><text fill="#FFFFFF" font-family="sans-serif" font-size="14" lengthAdjust="spacing" textLength="156.0439" x="1475.98" y="111.292">PostgreSQL / OLAP DB</text></g><!--entity attAPI--><g class="entity" data-entity="attAPI" data-source-line="16" data-uid="ent0013" id="entity_attAPI"><rect fill="#313139" height="46.2969" rx="2.5" ry="2.5" style="stroke:#E7E7E7;stroke-width:0.5;" width="203.4814" x="22.26" y="78.2969"/><rect fill="#313139" height="10" style="stroke:#E7E7E7;stroke-width:0.5;" width="15" x="205.7414" y="83.2969"/><rect fill="#313139" height="2" style="stroke:#E7E7E7;stroke-width:0.5;" width="4" x="203.7414" y="85.2969"/><rect fill="#313139" height="2" style="stroke:#E7E7E7;stroke-width:0.5;" width="4" x="203.7414" y="89.2969"/><text fill="#FFFFFF" font-family="sans-serif" font-size="14" lengthAdjust="spacing" textLength="163.4814" x="37.26" y="111.292">Attendance Service API</text></g><!--entity aiAPI--><g class="entity" data-entity="aiAPI" data-source-line="17" data-uid="ent0014" id="entity_aiAPI"><rect fill="#313139" height="46.2969" rx="2.5" ry="2.5" style="stroke:#E7E7E7;stroke-width:0.5;" width="266.249" x="260.88" y="78.2969"/><rect fill="#313139" height="10" style="stroke:#E7E7E7;stroke-width:0.5;" width="15" x="507.129" y="83.2969"/><rect fill="#313139" height="2" style="stroke:#E7E7E7;stroke-width:0.5;" width="4" x="505.129" y="85.2969"/><rect fill="#313139" height="2" style="stroke:#E7E7E7;stroke-width:0.5;" width="4" x="505.129" y="89.2969"/><text fill="#FFFFFF" font-family="sans-serif" font-size="14" lengthAdjust="spacing" textLength="226.249" x="275.88" y="111.292">AI / Computer Vision Service API</text></g><!--entity notifAPI--><g class="entity" data-entity="notifAPI" data-source-line="18" data-uid="ent0015" id="entity_notifAPI"><rect fill="#313139" height="46.2969" rx="2.5" ry="2.5" style="stroke:#E7E7E7;stroke-width:0.5;" width="203.1191" x="562.44" y="78.2969"/><rect fill="#313139" height="10" style="stroke:#E7E7E7;stroke-width:0.5;" width="15" x="745.5591" y="83.2969"/><rect fill="#313139" height="2" style="stroke:#E7E7E7;stroke-width:0.5;" width="4" x="743.5591" y="85.2969"/><rect fill="#313139" height="2" style="stroke:#E7E7E7;stroke-width:0.5;" width="4" x="743.5591" y="89.2969"/><text fill="#FFFFFF" font-family="sans-serif" font-size="14" lengthAdjust="spacing" textLength="163.1191" x="577.44" y="111.292">Notification Service API</text></g><!--entity userAPI--><g class="entity" data-entity="userAPI" data-source-line="19" data-uid="ent0016" id="entity_userAPI"><rect fill="#313139" height="46.2969" rx="2.5" ry="2.5" style="stroke:#E7E7E7;stroke-width:0.5;" width="154.7002" x="1028.65" y="78.2969"/><rect fill="#313139" height="10" style="stroke:#E7E7E7;stroke-width:0.5;" width="15" x="1163.3502" y="83.2969"/><rect fill="#313139" height="2" style="stroke:#E7E7E7;stroke-width:0.5;" width="4" x="1161.3502" y="85.2969"/><rect fill="#313139" height="2" style="stroke:#E7E7E7;stroke-width:0.5;" width="4" x="1161.3502" y="89.2969"/><text fill="#FFFFFF" font-family="sans-serif" font-size="14" lengthAdjust="spacing" textLength="114.7002" x="1043.65" y="111.292">User Service API</text></g><!--entity deptAPI--><g class="entity" data-entity="deptAPI" data-source-line="20" data-uid="ent0017" id="entity_deptAPI"><rect fill="#313139" height="46.2969" rx="2.5" ry="2.5" style="stroke:#E7E7E7;stroke-width:0.5;" width="207.5078" x="1218.25" y="78.2969"/><rect fill="#313139" height="10" style="stroke:#E7E7E7;stroke-width:0.5;" width="15" x="1405.7578" y="83.2969"/><rect fill="#313139" height="2" style="stroke:#E7E7E7;stroke-width:0.5;" width="4" x="1403.7578" y="85.2969"/><rect fill="#313139" height="2" style="stroke:#E7E7E7;stroke-width:0.5;" width="4" x="1403.7578" y="89.2969"/><text fill="#FFFFFF" font-family="sans-serif" font-size="14" lengthAdjust="spacing" textLength="167.5078" x="1233.25" y="111.292">Department Service API</text></g><!--entity dashboard--><g class="entity" data-entity="dashboard" data-source-line="21" data-uid="ent0018" id="entity_dashboard"><rect fill="#313139" height="46.2969" rx="2.5" ry="2.5" style="stroke:#E7E7E7;stroke-width:0.5;" width="192.9268" x="800.54" y="78.2969"/><rect fill="#313139" height="10" style="stroke:#E7E7E7;stroke-width:0.5;" width="15" x="973.4668" y="83.2969"/><rect fill="#313139" height="2" style="stroke:#E7E7E7;stroke-width:0.5;" width="4" x="971.4668" y="85.2969"/><rect fill="#313139" height="2" style="stroke:#E7E7E7;stroke-width:0.5;" width="4" x="971.4668" y="89.2969"/><text fill="#FFFFFF" font-family="sans-serif" font-size="14" lengthAdjust="spacing" textLength="152.9268" x="815.54" y="111.292">Dashboard / Frontend</text></g><!--link api to analyticsCtrl--><g class="link" data-entity-1="api" data-entity-2="analyticsCtrl" data-source-line="24" data-uid="lnk19" id="link_api_analyticsCtrl"><path d="M907.68,271.2669 C901.58,293.0569 894.0002,320.0998 887.9002,341.8498" fill="none" id="api-to-analyticsCtrl" style="stroke:#E7E7E7;stroke-width:1;"/><polygon fill="#E7E7E7" points="886.28,347.6269,892.5618,340.0414,887.6302,342.8126,884.859,337.8811,886.28,347.6269" style="stroke:#E7E7E7;stroke-width:1;"/><text fill="#FFFFFF" font-family="sans-serif" font-size="13" lengthAdjust="spacing" textLength="221.8125" x="900" y="313.9538">REST calls (fetch reports, metrics)</text></g><!--link analyticsCtrl to vizAdapter--><g class="link" data-entity-1="analyticsCtrl" data-entity-2="vizAdapter" data-source-line="25" data-uid="lnk20" id="link_analyticsCtrl_vizAdapter"><path d="M855.75,394.4769 C848.25,402.9769 840.93,413.2469 837,424.1869 C831.64,439.1069 831.6594,451.1011 833.8594,464.9611" fill="none" id="analyticsCtrl-to-vizAdapter" style="stroke:#E7E7E7;stroke-width:1;"/><polygon fill="#E7E7E7" points="834.8,470.8869,837.3396,461.3711,834.0162,465.9487,829.4385,462.6252,834.8,470.8869" style="stroke:#E7E7E7;stroke-width:1;"/><text fill="#FFFFFF" font-family="sans-serif" font-size="13" lengthAdjust="spacing" textLength="241.6616" x="838" y="437.2538">Format data for frontend dashboards</text></g><!--link analyticsCtrl to reportEng--><g class="link" data-entity-1="analyticsCtrl" data-entity-2="reportEng" data-source-line="26" data-uid="lnk21" id="link_analyticsCtrl_reportEng"><path d="M968.95,377.9469 C1007.83,384.4869 1051.8,397.7269 1084,424.1869 C1098.39,436.0069 1105.1253,449.8485 1109.8953,465.1585" fill="none" id="analyticsCtrl-to-reportEng" style="stroke:#E7E7E7;stroke-width:1;"/><polygon fill="#E7E7E7" points="1111.68,470.8869,1112.8218,461.1044,1110.1927,466.1132,1105.1839,463.4841,1111.68,470.8869" style="stroke:#E7E7E7;stroke-width:1;"/><text fill="#FFFFFF" font-family="sans-serif" font-size="13" lengthAdjust="spacing" textLength="206.4321" x="1098" y="437.2538">Generate downloadable reports</text></g><!--link analyticsCtrl to kpiCalc--><g class="link" data-entity-1="analyticsCtrl" data-entity-2="kpiCalc" data-source-line="27" data-uid="lnk22" id="link_analyticsCtrl_kpiCalc"><path d="M790.93,376.0569 C745.28,381.9069 690.86,395.0969 650,424.1869 C633.76,435.7469 624.8331,450.0757 617.8731,465.5357" fill="none" id="analyticsCtrl-to-kpiCalc" style="stroke:#E7E7E7;stroke-width:1;"/><polygon fill="#E7E7E7" points="615.41,471.0069,622.752,464.4422,617.4626,466.4476,615.4572,461.1581,615.41,471.0069" style="stroke:#E7E7E7;stroke-width:1;"/><text fill="#FFFFFF" font-family="sans-serif" font-size="13" lengthAdjust="spacing" textLength="173.1768" x="651" y="437.2538">Calculate metrics and KPIs</text></g><!--link eventListener to aggEng--><g class="link" data-entity-1="eventListener" data-entity-2="aggEng" data-source-line="29" data-uid="lnk23" id="link_eventListener_aggEng"><path d="M361.09,271.1969 C351.86,279.3669 342.98,289.4369 338,300.8869 C331.3,316.2869 335.1171,328.9259 343.5171,342.5859" fill="none" id="eventListener-to-aggEng" style="stroke:#E7E7E7;stroke-width:1;"/><polygon fill="#E7E7E7" points="346.66,347.6969,345.3529,337.9351,344.0409,343.4377,338.5383,342.1257,346.66,347.6969" style="stroke:#E7E7E7;stroke-width:1;"/><text fill="#FFFFFF" font-family="sans-serif" font-size="13" lengthAdjust="spacing" textLength="537.3228" x="339" y="313.9538">Consume events from services (attendance marked, notifications sent, AI metrics)</text></g><!--link aggEng to kpiCalc--><g class="link" data-entity-1="aggEng" data-entity-2="kpiCalc" data-source-line="30" data-uid="lnk24" id="link_aggEng_kpiCalc"><path d="M318.49,394.4969 C297.95,407.5969 281.08,424.7469 295,441.1869 C298.46,445.2669 407.6303,462.8208 497.0203,476.6308" fill="none" id="aggEng-to-kpiCalc" style="stroke:#E7E7E7;stroke-width:1;"/><polygon fill="#E7E7E7" points="502.95,477.5469,494.6662,472.2197,498.0086,476.7835,493.4448,480.1259,502.95,477.5469" style="stroke:#E7E7E7;stroke-width:1;"/><text fill="#FFFFFF" font-family="sans-serif" font-size="13" lengthAdjust="spacing" textLength="285.1685" x="296" y="437.2538">Process raw events into meaningful metrics</text></g><!--link aggEng to analyticsRepo--><g class="link" data-entity-1="aggEng" data-entity-2="analyticsRepo" data-source-line="31" data-uid="lnk25" id="link_aggEng_analyticsRepo"><path d="M311.5,394.4769 C299.73,402.1169 288.74,411.9069 282,424.1869 C260.09,464.0769 293.55,489.3669 337,517.4769 C400.51,558.5769 600.6191,589.4208 722.1091,605.0608" fill="none" id="aggEng-to-analyticsRepo" style="stroke:#E7E7E7;stroke-width:1;"/><polygon fill="#E7E7E7" points="728.06,605.8269,719.6444,600.7105,723.1009,605.1885,718.6229,608.645,728.06,605.8269" style="stroke:#E7E7E7;stroke-width:1;"/><text fill="#FFFFFF" font-family="sans-serif" font-size="13" lengthAdjust="spacing" textLength="147.5703" x="338" y="498.8938">Store aggregated data</text></g><!--link kpiCalc to analyticsRepo--><g class="link" data-entity-1="kpiCalc" data-entity-2="analyticsRepo" data-source-line="32" data-uid="lnk26" id="link_kpiCalc_analyticsRepo"><path d="M632.86,517.7269 C650.45,532.2469 674.67,550.9069 698,564.4769 C717.11,575.5969 733.5093,583.4145 753.4593,591.7045" fill="none" id="kpiCalc-to-analyticsRepo" style="stroke:#E7E7E7;stroke-width:1;"/><polygon fill="#E7E7E7" points="759,594.0069,752.2239,586.8595,754.3828,592.0882,749.1541,594.2471,759,594.0069" style="stroke:#E7E7E7;stroke-width:1;"/><text fill="#FFFFFF" font-family="sans-serif" font-size="13" lengthAdjust="spacing" textLength="106.9453" x="699" y="560.5438">Store KPI results</text></g><!--link reportEng to analyticsRepo--><g class="link" data-entity-1="reportEng" data-entity-2="analyticsRepo" data-source-line="33" data-uid="lnk27" id="link_reportEng_analyticsRepo"><path d="M1107.69,517.7669 C1100.09,533.2769 1087.84,553.0969 1071,564.4769 C1024.35,596.0069 968.4887,608.4949 917.8687,613.6849" fill="none" id="reportEng-to-analyticsRepo" style="stroke:#E7E7E7;stroke-width:1;"/><polygon fill="#E7E7E7" points="911.9,614.2969,921.261,617.3581,916.8739,613.7869,920.4451,609.3998,911.9,614.2969" style="stroke:#E7E7E7;stroke-width:1;"/><text fill="#FFFFFF" font-family="sans-serif" font-size="13" lengthAdjust="spacing" textLength="219.0767" x="1089" y="560.5438">Read aggregated data for reports</text></g><!--link vizAdapter to analyticsRepo--><g class="link" data-entity-1="vizAdapter" data-entity-2="analyticsRepo" data-source-line="34" data-uid="lnk28" id="link_vizAdapter_analyticsRepo"><path d="M827.67,517.7469 C823.4,526.7169 819.14,537.3169 817,547.4769 C813.75,562.8869 813.9177,574.6681 815.5277,588.3281" fill="none" id="vizAdapter-to-analyticsRepo" style="stroke:#E7E7E7;stroke-width:1;"/><polygon fill="#E7E7E7" points="816.23,594.2869,819.149,584.8805,815.6447,589.3212,811.204,585.817,816.23,594.2869" style="stroke:#E7E7E7;stroke-width:1;"/><text fill="#FFFFFF" font-family="sans-serif" font-size="13" lengthAdjust="spacing" textLength="248.0854" x="818" y="560.5438">Read aggregated data for dashboards</text></g><!--link analyticsRepo to analyticsDB--><g class="link" data-entity-1="analyticsRepo" data-entity-2="analyticsDB" data-source-line="36" data-uid="lnk29" id="link_analyticsRepo_analyticsDB"><path d="M911.65,616.7069 C1012.81,614.5669 1179.55,604.4669 1317,564.4769 C1383.25,545.2069 1456,564.3269 1456,495.3269 C1456,246.7369 1456,246.7369 1456,246.7369 C1456,195.9569 1494.2112,154.5643 1524.6312,128.8043" fill="none" id="analyticsRepo-to-analyticsDB" style="stroke:#E7E7E7;stroke-width:1;"/><polygon fill="#E7E7E7" points="1529.21,124.9269,1519.7568,127.6904,1525.3943,128.158,1524.9267,133.7955,1529.21,124.9269" style="stroke:#E7E7E7;stroke-width:1;"/><text fill="#FFFFFF" font-family="sans-serif" font-size="13" lengthAdjust="spacing" textLength="165.3691" x="1457" y="375.6038">Persist analytics and KPIs</text></g><!--link dashboard to api--><g class="link" data-entity-1="dashboard" data-entity-2="api" data-source-line="37" data-uid="lnk30" id="link_dashboard_api"><path d="M899.66,124.9869 C902.85,152.0969 907.479,191.358 910.659,218.388" fill="none" id="dashboard-to-api" style="stroke:#E7E7E7;stroke-width:1;"/><polygon fill="#E7E7E7" points="911.36,224.3469,914.281,214.9412,910.7758,219.3811,906.3358,215.8759,911.36,224.3469" style="stroke:#E7E7E7;stroke-width:1;"/><text fill="#FFFFFF" font-family="sans-serif" font-size="13" lengthAdjust="spacing" textLength="195.3491" x="905" y="169.6538">Fetch dashboards and reports</text></g><!--link attAPI to eventListener--><g class="link" data-entity-1="attAPI" data-entity-2="eventListener" data-source-line="38" data-uid="lnk31" id="link_attAPI_eventListener"><path d="M153.87,124.7869 C174.4,139.6069 202.62,158.9569 229,173.5869 C263.53,192.7369 298.4971,208.4599 330.7371,221.8199" fill="none" id="attAPI-to-eventListener" style="stroke:#E7E7E7;stroke-width:1;"/><polygon fill="#E7E7E7" points="336.28,224.1169,329.4969,216.9762,331.6609,222.2028,326.4343,224.3667,336.28,224.1169" style="stroke:#E7E7E7;stroke-width:1;"/><text fill="#FFFFFF" font-family="sans-serif" font-size="13" lengthAdjust="spacing" textLength="155.6509" x="230" y="169.6538">Emit attendance events</text></g><!--link aiAPI to eventListener--><g class="link" data-entity-1="aiAPI" data-entity-2="eventListener" data-source-line="39" data-uid="lnk32" id="link_aiAPI_eventListener"><path d="M394,124.9869 C394,152.0969 394,191.3169 394,218.3469" fill="none" id="aiAPI-to-eventListener" style="stroke:#E7E7E7;stroke-width:1;"/><polygon fill="#E7E7E7" points="394,224.3469,398,215.3469,394,219.3469,390,215.3469,394,224.3469" style="stroke:#E7E7E7;stroke-width:1;"/><text fill="#FFFFFF" font-family="sans-serif" font-size="13" lengthAdjust="spacing" textLength="181.9937" x="395" y="169.6538">Emit AI performance events</text></g><!--link notifAPI to eventListener--><g class="link" data-entity-1="notifAPI" data-entity-2="eventListener" data-source-line="40" data-uid="lnk33" id="link_notifAPI_eventListener"><path d="M643.29,125.0469 C628.29,140.3669 606.88,160.1869 585,173.5869 C550.02,195.0069 513.4112,210.0572 477.5212,222.2472" fill="none" id="notifAPI-to-eventListener" style="stroke:#E7E7E7;stroke-width:1;"/><polygon fill="#E7E7E7" points="471.84,224.1769,481.6483,225.0699,476.5744,222.5689,479.0754,217.4949,471.84,224.1769" style="stroke:#E7E7E7;stroke-width:1;"/><text fill="#FFFFFF" font-family="sans-serif" font-size="13" lengthAdjust="spacing" textLength="211.0913" x="609" y="169.6538">Emit notification delivery events</text></g><!--SRC=[bLFBRjim4BphAnOv52qGe_SS2ZYM4mHDMoTkUmbws4XhXGX52YHbrodwxrs-BCbn3hr9vEpiScRM2IS9vWhbtedAmfhCLbG4CrZejjEAb8DIO6EmBOeEgsTi2CvUuS_WJm7mC5_Tm3Kwsk4UvZLsZimlG0lOYN1zA5jevOoMCj_dYuKpqYDBT0ZpfZ7Ke1DQmL8rGb44Dmt_UTGNSiQplOFFt7Y1ikebEXqvdplXJppkdZfjd53DcCQ4myJqKzWUfNY9pSQZRyLB-fs-m7DQmStsqnVuSuzSRhrq_4xRjsJW8zprr1FS2kj89Mxoc7nI_1q9lFpD3PaIrdk-RMtITwMjOqtMTxTC-ErsleBoSjg-l0nZEgQiKR6HsL2s9YATuyy0kc4IxtBFlO0Ly4z_1HS9_LKxiH5L5EWOfVnb0lwmp7OCwFamtPVKeN6jL-SOLLENXolHFZrgD3NFU6KuBVoUYCaNNY_E5SncdwRvWGkuNww_GuLIMdY_8LSz9RVjERGnCn-AQOrd6QncYYjjMdJSZeEuqGOsQOXX07k2uX0gPhZshl8oGArtIcgiyP5NBGroeZO5bYjpaYbFom-iVSPjKKmo4nyVzi6NnR35M5a_SGisIimwu9295iqprUVHjkIfPQXovy2f62IApDFXLaOp7-yFxd8dePpcAbIyOfjUPe9n_MG_c6NDcqD-zB3XL0UXYzpbxGg_w8PiBrd2GUnJ-7l2-hX1S38xCBBxl-f70IYcHHEQyjABHSQoLyFfuEI19fPnaZbq8Qj3Wu0-92PiRa1FGt01orOu61aSVId2yhvTm5PtP3O-wAEYlCjlrurZmpihnPRCFfN_0m00]--></g></svg>