<svg xmlns="http://www.w3.org/2000/svg" xmlns:xlink="http://www.w3.org/1999/xlink" contentStyleType="text/css" data-diagram-type="CLASS" height="561px" preserveAspectRatio="none" style="width:479px;height:561px;background:#1B1B1B;" version="1.1" viewBox="0 0 479 561" width="479px" zoomAndPan="magnify"><title>User Service - ER Diagram</title><defs/><g><rect fill="#1B1B1B" height="561" style="stroke:none;stroke-width:1;" width="479" x="0" y="0"/><g class="title" data-source-line="1"><text fill="#FFFFFF" font-family="sans-serif" font-size="14" font-weight="bold" lengthAdjust="spacing" textLength="206.7803" x="129.3443" y="22.9951">User Service - ER Diagram</text></g><!--class User--><g class="entity" data-entity="User" data-source-line="3" data-uid="ent0002" id="entity_User"><rect fill="#313139" height="178.375" rx="2.5" ry="2.5" style="stroke:#E7E7E7;stroke-width:0.5;" width="215.4375" x="7" y="44.2969"/><ellipse cx="94.5137" cy="60.2969" fill="#2E5233" rx="11" ry="11" style="stroke:#E7E7E7;stroke-width:1;"/><path d="M98.623,66.2969 L90.9043,66.2969 L90.9043,53.9063 L98.623,53.9063 L98.623,56.0625 L93.3574,56.0625 L93.3574,58.7344 L98.123,58.7344 L98.123,60.8906 L93.3574,60.8906 L93.3574,64.1406 L98.623,64.1406 L98.623,66.2969 Z " fill="#FFFFFF"/><text fill="#FFFFFF" font-family="sans-serif" font-size="14" lengthAdjust="spacing" textLength="31.9102" x="115.0137" y="65.1436">User</text><line style="stroke:#E7E7E7;stroke-width:0.5;" x1="8" x2="221.4375" y1="76.2969" y2="76.2969"/><ellipse cx="18" cy="89.9453" fill="#000000" rx="3" ry="3" style="stroke:#000000;stroke-width:1;"/><text fill="#FFFFFF" font-family="sans-serif" font-size="14" lengthAdjust="spacing" textLength="99.333" x="27" y="93.292">user_id : UUID</text><ellipse cx="18" cy="106.2422" fill="#000000" rx="3" ry="3" style="stroke:#000000;stroke-width:1;"/><text fill="#FFFFFF" font-family="sans-serif" font-size="14" lengthAdjust="spacing" textLength="156.167" x="27" y="109.5889">first_name : VARCHAR</text><ellipse cx="18" cy="122.5391" fill="#000000" rx="3" ry="3" style="stroke:#000000;stroke-width:1;"/><text fill="#FFFFFF" font-family="sans-serif" font-size="14" lengthAdjust="spacing" textLength="154.0615" x="27" y="125.8857">last_name : VARCHAR</text><ellipse cx="18" cy="138.8359" fill="#000000" rx="3" ry="3" style="stroke:#000000;stroke-width:1;"/><text fill="#FFFFFF" font-family="sans-serif" font-size="14" lengthAdjust="spacing" textLength="120.7158" x="27" y="142.1826">email : VARCHAR</text><ellipse cx="18" cy="155.1328" fill="#000000" rx="3" ry="3" style="stroke:#000000;stroke-width:1;"/><text fill="#FFFFFF" font-family="sans-serif" font-size="14" lengthAdjust="spacing" textLength="189.4375" x="27" y="158.4795">password_hash : VARCHAR</text><ellipse cx="18" cy="171.4297" fill="#000000" rx="3" ry="3" style="stroke:#000000;stroke-width:1;"/><text fill="#FFFFFF" font-family="sans-serif" font-size="14" lengthAdjust="spacing" textLength="95.6211" x="27" y="174.7764">role_id : UUID</text><ellipse cx="18" cy="187.7266" fill="#000000" rx="3" ry="3" style="stroke:#000000;stroke-width:1;"/><text fill="#FFFFFF" font-family="sans-serif" font-size="14" lengthAdjust="spacing" textLength="169.4629" x="27" y="191.0732">created_at : TIMESTAMP</text><ellipse cx="18" cy="204.0234" fill="#000000" rx="3" ry="3" style="stroke:#000000;stroke-width:1;"/><text fill="#FFFFFF" font-family="sans-serif" font-size="14" lengthAdjust="spacing" textLength="174.043" x="27" y="207.3701">updated_at : TIMESTAMP</text><line style="stroke:#E7E7E7;stroke-width:0.5;" x1="8" x2="221.4375" y1="214.6719" y2="214.6719"/></g><!--class Role--><g class="entity" data-entity="Role" data-source-line="14" data-uid="ent0003" id="entity_Role"><rect fill="#313139" height="96.8906" rx="2.5" ry="2.5" style="stroke:#E7E7E7;stroke-width:0.5;" width="181.6338" x="23.9" y="299.6769"/><ellipse cx="95.0689" cy="315.6769" fill="#2E5233" rx="11" ry="11" style="stroke:#E7E7E7;stroke-width:1;"/><path d="M99.1783,321.6769 L91.4596,321.6769 L91.4596,309.2863 L99.1783,309.2863 L99.1783,311.4425 L93.9127,311.4425 L93.9127,314.1144 L98.6783,314.1144 L98.6783,316.2706 L93.9127,316.2706 L93.9127,319.5206 L99.1783,319.5206 L99.1783,321.6769 Z " fill="#FFFFFF"/><text fill="#FFFFFF" font-family="sans-serif" font-size="14" lengthAdjust="spacing" textLength="30.7959" x="115.5689" y="320.5236">Role</text><line style="stroke:#E7E7E7;stroke-width:0.5;" x1="24.9" x2="204.5338" y1="331.6769" y2="331.6769"/><ellipse cx="34.9" cy="345.3253" fill="#000000" rx="3" ry="3" style="stroke:#000000;stroke-width:1;"/><text fill="#FFFFFF" font-family="sans-serif" font-size="14" lengthAdjust="spacing" textLength="95.6211" x="43.9" y="348.672">role_id : UUID</text><ellipse cx="34.9" cy="361.6222" fill="#000000" rx="3" ry="3" style="stroke:#000000;stroke-width:1;"/><text fill="#FFFFFF" font-family="sans-serif" font-size="14" lengthAdjust="spacing" textLength="155.6338" x="43.9" y="364.9689">role_name : VARCHAR</text><ellipse cx="34.9" cy="377.9191" fill="#000000" rx="3" ry="3" style="stroke:#000000;stroke-width:1;"/><text fill="#FFFFFF" font-family="sans-serif" font-size="14" lengthAdjust="spacing" textLength="126.998" x="43.9" y="381.2657">description : TEXT</text><line style="stroke:#E7E7E7;stroke-width:0.5;" x1="24.9" x2="204.5338" y1="388.5675" y2="388.5675"/></g><!--class Permission--><g class="entity" data-entity="Permission" data-source-line="20" data-uid="ent0004" id="entity_Permission"><rect fill="#313139" height="96.8906" rx="2.5" ry="2.5" style="stroke:#E7E7E7;stroke-width:0.5;" width="231.5088" x="240.96" y="299.6769"/><ellipse cx="314.337" cy="315.6769" fill="#2E5233" rx="11" ry="11" style="stroke:#E7E7E7;stroke-width:1;"/><path d="M318.4463,321.6769 L310.7276,321.6769 L310.7276,309.2863 L318.4463,309.2863 L318.4463,311.4425 L313.1807,311.4425 L313.1807,314.1144 L317.9463,314.1144 L317.9463,316.2706 L313.1807,316.2706 L313.1807,319.5206 L318.4463,319.5206 L318.4463,321.6769 Z " fill="#FFFFFF"/><text fill="#FFFFFF" font-family="sans-serif" font-size="14" lengthAdjust="spacing" textLength="76.2549" x="334.837" y="320.5236">Permission</text><line style="stroke:#E7E7E7;stroke-width:0.5;" x1="241.96" x2="471.4688" y1="331.6769" y2="331.6769"/><ellipse cx="251.96" cy="345.3253" fill="#000000" rx="3" ry="3" style="stroke:#000000;stroke-width:1;"/><text fill="#FFFFFF" font-family="sans-serif" font-size="14" lengthAdjust="spacing" textLength="145.4961" x="260.96" y="348.672">permission_id : UUID</text><ellipse cx="251.96" cy="361.6222" fill="#000000" rx="3" ry="3" style="stroke:#000000;stroke-width:1;"/><text fill="#FFFFFF" font-family="sans-serif" font-size="14" lengthAdjust="spacing" textLength="205.5088" x="260.96" y="364.9689">permission_name : VARCHAR</text><ellipse cx="251.96" cy="377.9191" fill="#000000" rx="3" ry="3" style="stroke:#000000;stroke-width:1;"/><text fill="#FFFFFF" font-family="sans-serif" font-size="14" lengthAdjust="spacing" textLength="126.998" x="260.96" y="381.2657">description : TEXT</text><line style="stroke:#E7E7E7;stroke-width:0.5;" x1="241.96" x2="471.4688" y1="388.5675" y2="388.5675"/></g><!--class RolePerm--><g class="entity" data-entity="RolePerm" data-source-line="26" data-uid="ent0005" id="entity_RolePerm"><rect fill="#313139" height="80.5938" rx="2.5" ry="2.5" style="stroke:#E7E7E7;stroke-width:0.5;" width="171.4961" x="149.97" y="473.5669"/><ellipse cx="179.5704" cy="489.5669" fill="#2E5233" rx="11" ry="11" style="stroke:#E7E7E7;stroke-width:1;"/><path d="M183.6798,495.5669 L175.961,495.5669 L175.961,483.1763 L183.6798,483.1763 L183.6798,485.3325 L178.4141,485.3325 L178.4141,488.0044 L183.1798,488.0044 L183.1798,490.1606 L178.4141,490.1606 L178.4141,493.4106 L183.6798,493.4106 L183.6798,495.5669 Z " fill="#FFFFFF"/><text fill="#FFFFFF" font-family="sans-serif" font-size="14" lengthAdjust="spacing" textLength="107.0508" x="196.8149" y="494.4136">RolePermission</text><line style="stroke:#E7E7E7;stroke-width:0.5;" x1="150.97" x2="320.4661" y1="505.5669" y2="505.5669"/><ellipse cx="160.97" cy="519.2153" fill="#000000" rx="3" ry="3" style="stroke:#000000;stroke-width:1;"/><text fill="#FFFFFF" font-family="sans-serif" font-size="14" lengthAdjust="spacing" textLength="95.6211" x="169.97" y="522.562">role_id : UUID</text><ellipse cx="160.97" cy="535.5122" fill="#000000" rx="3" ry="3" style="stroke:#000000;stroke-width:1;"/><text fill="#FFFFFF" font-family="sans-serif" font-size="14" lengthAdjust="spacing" textLength="145.4961" x="169.97" y="538.8589">permission_id : UUID</text><line style="stroke:#E7E7E7;stroke-width:0.5;" x1="150.97" x2="320.4661" y1="546.1606" y2="546.1606"/></g><!--link User to Role--><g class="link" data-entity-1="User" data-entity-2="Role" data-source-line="31" data-uid="lnk6" id="link_User_Role"><path codeLine="31" d="M114.72,231.1169 C114.72,257.2169 114.72,268.7769 114.72,291.2669" fill="none" id="User-Role" style="stroke:#E7E7E7;stroke-width:1;stroke-dasharray:7,7;"/><line style="stroke:#E7E7E7;stroke-width:1;" x1="114.72" x2="108.72" y1="231.1169" y2="223.1169"/><line style="stroke:#E7E7E7;stroke-width:1;" x1="114.72" x2="120.72" y1="231.1169" y2="223.1169"/><line style="stroke:#E7E7E7;stroke-width:1;" x1="114.72" x2="114.72" y1="231.1169" y2="223.1169"/><line style="stroke:#E7E7E7;stroke-width:1;" x1="110.72" x2="118.72" y1="233.1169" y2="233.1169"/><line style="stroke:#E7E7E7;stroke-width:1;" x1="118.72" x2="110.72" y1="295.2669" y2="295.2669"/><line style="stroke:#E7E7E7;stroke-width:1;" x1="118.72" x2="110.72" y1="292.2669" y2="292.2669"/><line style="stroke:#E7E7E7;stroke-width:1;" x1="114.72" x2="114.72" y1="291.2669" y2="299.2669"/><text fill="#FFFFFF" font-family="sans-serif" font-size="13" lengthAdjust="spacing" textLength="22.9785" x="115.72" y="265.7438">has</text></g><!--link Role to RolePerm--><g class="link" data-entity-1="Role" data-entity-2="RolePerm" data-source-line="32" data-uid="lnk7" id="link_Role_RolePerm"><path codeLine="32" d="M154.7949,403.3504 C172.7249,427.6104 184.7372,443.8618 201.7172,466.8518" fill="none" id="Role-RolePerm" style="stroke:#E7E7E7;stroke-width:1;stroke-dasharray:7,7;"/><line style="stroke:#E7E7E7;stroke-width:1;" x1="154.7949" x2="145.2148" y1="403.3504" y2="400.4831"/><line style="stroke:#E7E7E7;stroke-width:1;" x1="154.7949" x2="154.8652" y1="403.3504" y2="393.3507"/><line style="stroke:#E7E7E7;stroke-width:1;" x1="154.7949" x2="150.04" y1="403.3504" y2="396.9169"/><line style="stroke:#E7E7E7;stroke-width:1;" x1="152.7668" x2="159.2004" y1="407.3363" y2="402.5814"/><line style="stroke:#E7E7E7;stroke-width:1;" x1="207.3111" x2="200.876" y1="467.6929" y2="472.4458"/><line style="stroke:#E7E7E7;stroke-width:1;" x1="205.5288" x2="199.0937" y1="465.2797" y2="470.0326"/><line style="stroke:#E7E7E7;stroke-width:1;" x1="201.7172" x2="206.47" y1="466.8518" y2="473.2869"/><text fill="#FFFFFF" font-family="sans-serif" font-size="13" lengthAdjust="spacing" textLength="55.0278" x="183.72" y="439.6338">contains</text></g><!--link Permission to RolePerm--><g class="link" data-entity-1="Permission" data-entity-2="RolePerm" data-source-line="33" data-uid="lnk8" id="link_Permission_RolePerm"><path codeLine="33" d="M316.6451,403.3504 C298.7151,427.6104 286.7028,443.8618 269.7228,466.8518" fill="none" id="Permission-RolePerm" style="stroke:#E7E7E7;stroke-width:1;stroke-dasharray:7,7;"/><line style="stroke:#E7E7E7;stroke-width:1;" x1="316.6451" x2="316.5748" y1="403.3504" y2="393.3507"/><line style="stroke:#E7E7E7;stroke-width:1;" x1="316.6451" x2="326.2252" y1="403.3504" y2="400.4831"/><line style="stroke:#E7E7E7;stroke-width:1;" x1="316.6451" x2="321.4" y1="403.3504" y2="396.9169"/><line style="stroke:#E7E7E7;stroke-width:1;" x1="312.2396" x2="318.6732" y1="402.5814" y2="407.3363"/><line style="stroke:#E7E7E7;stroke-width:1;" x1="270.564" x2="264.1289" y1="472.4458" y2="467.6929"/><line style="stroke:#E7E7E7;stroke-width:1;" x1="272.3463" x2="265.9112" y1="470.0326" y2="465.2797"/><line style="stroke:#E7E7E7;stroke-width:1;" x1="269.7228" x2="264.97" y1="466.8518" y2="473.2869"/><text fill="#FFFFFF" font-family="sans-serif" font-size="13" lengthAdjust="spacing" textLength="72.9346" x="296.72" y="439.6338">mapped_to</text></g><!--SRC=[bP71QiCm38RlVWhHus1zWDp26bWFXP8cOxSWOcqLn8cntPQnzDtdEDqQFE-mc_pzGhz-ox7h26fB1WvapjmIF49HmeRntQ0IWdh7xWDMKyiAqCwzdmBW0Kw-R5X21dMztGJqniQwfaT5dhxavTDpNWQXmpGdXTn5JAErby78veZs66bcw2ZoR0sX8zcWyxJQxef3bU_syuPQfgJhFLVfvuLSKt7BbV08AB6-9DiQrew7Vd8eNglby3qPnTPwCLZSdpSZ_GCYkuNmRzCfI6JyZVxEbzp43mtNlexhzJZEFvI1Fue8vGA7uHcqG- -GUoiMINztATJQtyGDNm00]--></g></svg>