<svg xmlns="http://www.w3.org/2000/svg" xmlns:xlink="http://www.w3.org/1999/xlink" contentStyleType="text/css" data-diagram-type="CLASS" height="561px" preserveAspectRatio="none" style="width:726px;height:561px;background:#1B1B1B;" version="1.1" viewBox="0 0 726 561" width="726px" zoomAndPan="magnify"><title>AI / Computer Vision Service - ER Diagram</title><defs/><g><rect fill="#1B1B1B" height="561" style="stroke:none;stroke-width:1;" width="726" x="0" y="0"/><g class="title" data-source-line="1"><text fill="#FFFFFF" font-family="sans-serif" font-size="14" font-weight="bold" lengthAdjust="spacing" textLength="332.3701" x="190.1743" y="22.9951">AI / Computer Vision Service - ER Diagram</text></g><!--class StudentEmbedding--><g class="entity" data-entity="StudentEmbedding" data-source-line="3" data-uid="ent0002" id="entity_StudentEmbedding"><rect fill="#313139" height="129.4844" rx="2.5" ry="2.5" style="stroke:#E7E7E7;stroke-width:0.5;" width="200.043" x="7" y="52.4469"/><ellipse cx="37.0864" cy="68.4469" fill="#2E5233" rx="11" ry="11" style="stroke:#E7E7E7;stroke-width:1;"/><path d="M41.1958,74.4469 L33.4771,74.4469 L33.4771,62.0563 L41.1958,62.0563 L41.1958,64.2125 L35.9302,64.2125 L35.9302,66.8844 L40.6958,66.8844 L40.6958,69.0406 L35.9302,69.0406 L35.9302,72.2906 L41.1958,72.2906 L41.1958,74.4469 Z " fill="#FFFFFF"/><text fill="#FFFFFF" font-family="sans-serif" font-size="14" lengthAdjust="spacing" textLength="134.5176" x="54.439" y="73.2936">StudentEmbedding</text><line style="stroke:#E7E7E7;stroke-width:0.5;" x1="8" x2="206.043" y1="84.4469" y2="84.4469"/><ellipse cx="18" cy="98.0953" fill="#000000" rx="3" ry="3" style="stroke:#000000;stroke-width:1;"/><text fill="#FFFFFF" font-family="sans-serif" font-size="14" lengthAdjust="spacing" textLength="147.9707" x="27" y="101.442">embedding_id : UUID</text><ellipse cx="18" cy="114.3922" fill="#000000" rx="3" ry="3" style="stroke:#000000;stroke-width:1;"/><text fill="#FFFFFF" font-family="sans-serif" font-size="14" lengthAdjust="spacing" textLength="122.3154" x="27" y="117.7389">student_id : UUID</text><ellipse cx="18" cy="130.6891" fill="#000000" rx="3" ry="3" style="stroke:#000000;stroke-width:1;"/><text fill="#FFFFFF" font-family="sans-serif" font-size="14" lengthAdjust="spacing" textLength="113.9482" x="27" y="134.0357">vector : FLOAT[]</text><ellipse cx="18" cy="146.9859" fill="#000000" rx="3" ry="3" style="stroke:#000000;stroke-width:1;"/><text fill="#FFFFFF" font-family="sans-serif" font-size="14" lengthAdjust="spacing" textLength="169.4629" x="27" y="150.3326">created_at : TIMESTAMP</text><ellipse cx="18" cy="163.2828" fill="#000000" rx="3" ry="3" style="stroke:#000000;stroke-width:1;"/><text fill="#FFFFFF" font-family="sans-serif" font-size="14" lengthAdjust="spacing" textLength="174.043" x="27" y="166.6295">updated_at : TIMESTAMP</text><line style="stroke:#E7E7E7;stroke-width:0.5;" x1="8" x2="206.043" y1="173.9313" y2="173.9313"/></g><!--class RecognitionJob--><g class="entity" data-entity="RecognitionJob" data-source-line="11" data-uid="ent0003" id="entity_RecognitionJob"><rect fill="#313139" height="145.7813" rx="2.5" ry="2.5" style="stroke:#E7E7E7;stroke-width:0.5;" width="429.3887" x="290.33" y="267.0769"/><ellipse cx="448.4487" cy="283.0769" fill="#2E5233" rx="11" ry="11" style="stroke:#E7E7E7;stroke-width:1;"/><path d="M452.558,289.0769 L444.8393,289.0769 L444.8393,276.6863 L452.558,276.6863 L452.558,278.8425 L447.2924,278.8425 L447.2924,281.5144 L452.058,281.5144 L452.058,283.6706 L447.2924,283.6706 L447.2924,286.9206 L452.558,286.9206 L452.558,289.0769 Z " fill="#FFFFFF"/><text fill="#FFFFFF" font-family="sans-serif" font-size="14" lengthAdjust="spacing" textLength="104.6514" x="468.9487" y="287.9236">RecognitionJob</text><line style="stroke:#E7E7E7;stroke-width:0.5;" x1="291.33" x2="718.7187" y1="299.0769" y2="299.0769"/><ellipse cx="301.33" cy="312.7253" fill="#000000" rx="3" ry="3" style="stroke:#000000;stroke-width:1;"/><text fill="#FFFFFF" font-family="sans-serif" font-size="14" lengthAdjust="spacing" textLength="90.1387" x="310.33" y="316.072">job_id : UUID</text><ellipse cx="301.33" cy="329.0222" fill="#000000" rx="3" ry="3" style="stroke:#000000;stroke-width:1;"/><text fill="#FFFFFF" font-family="sans-serif" font-size="14" lengthAdjust="spacing" textLength="120.6201" x="310.33" y="332.3689">session_id : UUID</text><ellipse cx="301.33" cy="345.3191" fill="#000000" rx="3" ry="3" style="stroke:#000000;stroke-width:1;"/><text fill="#FFFFFF" font-family="sans-serif" font-size="14" lengthAdjust="spacing" textLength="187.4551" x="310.33" y="348.6657">classroom_photo_id : UUID</text><ellipse cx="301.33" cy="361.6159" fill="#000000" rx="3" ry="3" style="stroke:#000000;stroke-width:1;"/><text fill="#FFFFFF" font-family="sans-serif" font-size="14" lengthAdjust="spacing" textLength="165.9355" x="310.33" y="364.9626">started_at : TIMESTAMP</text><ellipse cx="301.33" cy="377.9128" fill="#000000" rx="3" ry="3" style="stroke:#000000;stroke-width:1;"/><text fill="#FFFFFF" font-family="sans-serif" font-size="14" lengthAdjust="spacing" textLength="190.1074" x="310.33" y="381.2595">completed_at : TIMESTAMP</text><line style="stroke:#E7E7E7;stroke-width:0.5;" x1="291.33" x2="718.7187" y1="388.5613" y2="388.5613"/><ellipse cx="301.33" cy="402.2097" fill="#000000" rx="3" ry="3" style="stroke:#000000;stroke-width:1;"/><text fill="#FFFFFF" font-family="sans-serif" font-size="14" lengthAdjust="spacing" textLength="403.3887" x="310.33" y="405.5564">status : ENUM('Pending','Processing','Completed','Failed')</text></g><!--class RecognitionResult--><g class="entity" data-entity="RecognitionResult" data-source-line="20" data-uid="ent0004" id="entity_RecognitionResult"><rect fill="#313139" height="145.7813" rx="2.5" ry="2.5" style="stroke:#E7E7E7;stroke-width:0.5;" width="195.4629" x="242.29" y="44.2969"/><ellipse cx="273.7176" cy="60.2969" fill="#2E5233" rx="11" ry="11" style="stroke:#E7E7E7;stroke-width:1;"/><path d="M277.827,66.2969 L270.1083,66.2969 L270.1083,53.9063 L277.827,53.9063 L277.827,56.0625 L272.5614,56.0625 L272.5614,58.7344 L277.327,58.7344 L277.327,60.8906 L272.5614,60.8906 L272.5614,64.1406 L277.827,64.1406 L277.827,66.2969 Z " fill="#FFFFFF"/><text fill="#FFFFFF" font-family="sans-serif" font-size="14" lengthAdjust="spacing" textLength="126.957" x="291.3682" y="65.1436">RecognitionResult</text><line style="stroke:#E7E7E7;stroke-width:0.5;" x1="243.29" x2="436.7529" y1="76.2969" y2="76.2969"/><ellipse cx="253.29" cy="89.9453" fill="#000000" rx="3" ry="3" style="stroke:#000000;stroke-width:1;"/><text fill="#FFFFFF" font-family="sans-serif" font-size="14" lengthAdjust="spacing" textLength="108.7119" x="262.29" y="93.292">result_id : UUID</text><ellipse cx="253.29" cy="106.2422" fill="#000000" rx="3" ry="3" style="stroke:#000000;stroke-width:1;"/><text fill="#FFFFFF" font-family="sans-serif" font-size="14" lengthAdjust="spacing" textLength="90.1387" x="262.29" y="109.5889">job_id : UUID</text><ellipse cx="253.29" cy="122.5391" fill="#000000" rx="3" ry="3" style="stroke:#000000;stroke-width:1;"/><text fill="#FFFFFF" font-family="sans-serif" font-size="14" lengthAdjust="spacing" textLength="122.3154" x="262.29" y="125.8857">student_id : UUID</text><ellipse cx="253.29" cy="138.8359" fill="#000000" rx="3" ry="3" style="stroke:#000000;stroke-width:1;"/><text fill="#FFFFFF" font-family="sans-serif" font-size="14" lengthAdjust="spacing" textLength="159.0859" x="262.29" y="142.1826">recognized : BOOLEAN</text><ellipse cx="253.29" cy="155.1328" fill="#000000" rx="3" ry="3" style="stroke:#000000;stroke-width:1;"/><text fill="#FFFFFF" font-family="sans-serif" font-size="14" lengthAdjust="spacing" textLength="135.2559" x="262.29" y="158.4795">confidence : FLOAT</text><ellipse cx="253.29" cy="171.4297" fill="#000000" rx="3" ry="3" style="stroke:#000000;stroke-width:1;"/><text fill="#FFFFFF" font-family="sans-serif" font-size="14" lengthAdjust="spacing" textLength="169.4629" x="262.29" y="174.7764">created_at : TIMESTAMP</text><line style="stroke:#E7E7E7;stroke-width:0.5;" x1="243.29" x2="436.7529" y1="182.0781" y2="182.0781"/></g><!--class ModelVersion--><g class="entity" data-entity="ModelVersion" data-source-line="29" data-uid="ent0005" id="entity_ModelVersion"><rect fill="#313139" height="129.4844" rx="2.5" ry="2.5" style="stroke:#E7E7E7;stroke-width:0.5;" width="206.4551" x="472.79" y="52.4469"/><ellipse cx="524.4663" cy="68.4469" fill="#2E5233" rx="11" ry="11" style="stroke:#E7E7E7;stroke-width:1;"/><path d="M528.5756,74.4469 L520.8569,74.4469 L520.8569,62.0563 L528.5756,62.0563 L528.5756,64.2125 L523.31,64.2125 L523.31,66.8844 L528.0756,66.8844 L528.0756,69.0406 L523.31,69.0406 L523.31,72.2906 L528.5756,72.2906 L528.5756,74.4469 Z " fill="#FFFFFF"/><text fill="#FFFFFF" font-family="sans-serif" font-size="14" lengthAdjust="spacing" textLength="94.6025" x="544.9663" y="73.2936">ModelVersion</text><line style="stroke:#E7E7E7;stroke-width:0.5;" x1="473.79" x2="678.2451" y1="84.4469" y2="84.4469"/><ellipse cx="483.79" cy="98.0953" fill="#000000" rx="3" ry="3" style="stroke:#000000;stroke-width:1;"/><text fill="#FFFFFF" font-family="sans-serif" font-size="14" lengthAdjust="spacing" textLength="112.3896" x="492.79" y="101.442">model_id : UUID</text><ellipse cx="483.79" cy="114.3922" fill="#000000" rx="3" ry="3" style="stroke:#000000;stroke-width:1;"/><text fill="#FFFFFF" font-family="sans-serif" font-size="14" lengthAdjust="spacing" textLength="121.8096" x="492.79" y="117.7389">name : VARCHAR</text><ellipse cx="483.79" cy="130.6891" fill="#000000" rx="3" ry="3" style="stroke:#000000;stroke-width:1;"/><text fill="#FFFFFF" font-family="sans-serif" font-size="14" lengthAdjust="spacing" textLength="133.3828" x="492.79" y="134.0357">version : VARCHAR</text><ellipse cx="483.79" cy="146.9859" fill="#000000" rx="3" ry="3" style="stroke:#000000;stroke-width:1;"/><text fill="#FFFFFF" font-family="sans-serif" font-size="14" lengthAdjust="spacing" textLength="126.998" x="492.79" y="150.3326">description : TEXT</text><ellipse cx="483.79" cy="163.2828" fill="#000000" rx="3" ry="3" style="stroke:#000000;stroke-width:1;"/><text fill="#FFFFFF" font-family="sans-serif" font-size="14" lengthAdjust="spacing" textLength="180.4551" x="492.79" y="166.6295">deployed_at : TIMESTAMP</text><line style="stroke:#E7E7E7;stroke-width:0.5;" x1="473.79" x2="678.2451" y1="173.9313" y2="173.9313"/></g><!--class Student--><g class="entity" data-entity="Student" data-source-line="37" data-uid="ent0006" id="entity_Student"><rect fill="#313139" height="64.2969" rx="2.5" ry="2.5" style="stroke:#E7E7E7;stroke-width:0.5;" width="148.3154" x="69.86" y="307.8169"/><ellipse cx="112.4018" cy="323.8169" fill="#2E5233" rx="11" ry="11" style="stroke:#E7E7E7;stroke-width:1;"/><path d="M116.5112,329.8169 L108.7925,329.8169 L108.7925,317.4263 L116.5112,317.4263 L116.5112,319.5825 L111.2456,319.5825 L111.2456,322.2544 L116.0112,322.2544 L116.0112,324.4106 L111.2456,324.4106 L111.2456,327.6606 L116.5112,327.6606 L116.5112,329.8169 Z " fill="#FFFFFF"/><text fill="#FFFFFF" font-family="sans-serif" font-size="14" lengthAdjust="spacing" textLength="55.1113" x="132.5223" y="328.6636">Student</text><line style="stroke:#E7E7E7;stroke-width:0.5;" x1="70.86" x2="217.1754" y1="339.8169" y2="339.8169"/><ellipse cx="80.86" cy="353.4653" fill="#000000" rx="3" ry="3" style="stroke:#000000;stroke-width:1;"/><text fill="#FFFFFF" font-family="sans-serif" font-size="14" lengthAdjust="spacing" textLength="122.3154" x="89.86" y="356.812">student_id : UUID</text><line style="stroke:#E7E7E7;stroke-width:0.5;" x1="70.86" x2="217.1754" y1="364.1138" y2="364.1138"/></g><!--class ClassSession--><g class="entity" data-entity="ClassSession" data-source-line="41" data-uid="ent0007" id="entity_ClassSession"><rect fill="#313139" height="64.2969" rx="2.5" ry="2.5" style="stroke:#E7E7E7;stroke-width:0.5;" width="146.6201" x="342.71" y="489.8569"/><ellipse cx="368.6774" cy="505.8569" fill="#2E5233" rx="11" ry="11" style="stroke:#E7E7E7;stroke-width:1;"/><path d="M372.7868,511.8569 L365.0681,511.8569 L365.0681,499.4662 L372.7868,499.4662 L372.7868,501.6225 L367.5212,501.6225 L367.5212,504.2944 L372.2868,504.2944 L372.2868,506.4506 L367.5212,506.4506 L367.5212,509.7006 L372.7868,509.7006 L372.7868,511.8569 Z " fill="#FFFFFF"/><text fill="#FFFFFF" font-family="sans-serif" font-size="14" lengthAdjust="spacing" textLength="90.248" x="385.1146" y="510.7036">ClassSession</text><line style="stroke:#E7E7E7;stroke-width:0.5;" x1="343.71" x2="488.3301" y1="521.8569" y2="521.8569"/><ellipse cx="353.71" cy="535.5053" fill="#000000" rx="3" ry="3" style="stroke:#000000;stroke-width:1;"/><text fill="#FFFFFF" font-family="sans-serif" font-size="14" lengthAdjust="spacing" textLength="120.6201" x="362.71" y="538.852">session_id : UUID</text><line style="stroke:#E7E7E7;stroke-width:0.5;" x1="343.71" x2="488.3301" y1="546.1538" y2="546.1538"/></g><!--class Media--><g class="entity" data-entity="Media" data-source-line="45" data-uid="ent0008" id="entity_Media"><rect fill="#313139" height="64.2969" rx="2.5" ry="2.5" style="stroke:#E7E7E7;stroke-width:0.5;" width="138.4033" x="524.82" y="489.8569"/><ellipse cx="568.78" cy="505.8569" fill="#2E5233" rx="11" ry="11" style="stroke:#E7E7E7;stroke-width:1;"/><path d="M572.8893,511.8569 L565.1706,511.8569 L565.1706,499.4662 L572.8893,499.4662 L572.8893,501.6225 L567.6237,501.6225 L567.6237,504.2944 L572.3893,504.2944 L572.3893,506.4506 L567.6237,506.4506 L567.6237,509.7006 L572.8893,509.7006 L572.8893,511.8569 Z " fill="#FFFFFF"/><text fill="#FFFFFF" font-family="sans-serif" font-size="14" lengthAdjust="spacing" textLength="42.0479" x="589.2155" y="510.7036">Media</text><line style="stroke:#E7E7E7;stroke-width:0.5;" x1="525.82" x2="662.2233" y1="521.8569" y2="521.8569"/><ellipse cx="535.82" cy="535.5053" fill="#000000" rx="3" ry="3" style="stroke:#000000;stroke-width:1;"/><text fill="#FFFFFF" font-family="sans-serif" font-size="14" lengthAdjust="spacing" textLength="112.4033" x="544.82" y="538.852">media_id : UUID</text><line style="stroke:#E7E7E7;stroke-width:0.5;" x1="525.82" x2="662.2233" y1="546.1538" y2="546.1538"/></g><!--link StudentEmbedding to Student--><g class="link" data-entity-1="StudentEmbedding" data-entity-2="Student" data-source-line="49" data-uid="lnk9" id="link_StudentEmbedding_Student"><path codeLine="49" d="M119.092,190.2369 C125.982,231.3569 131.9881,267.1468 137.4281,299.6168" fill="none" id="StudentEmbedding-Student" style="stroke:#E7E7E7;stroke-width:1;"/><line style="stroke:#E7E7E7;stroke-width:1;" x1="114.486" x2="122.376" y1="186.9529" y2="185.6309"/><line style="stroke:#E7E7E7;stroke-width:1;" x1="114.9818" x2="122.8718" y1="189.9116" y2="188.5896"/><line style="stroke:#E7E7E7;stroke-width:1;" x1="119.092" x2="117.77" y1="190.2369" y2="182.3469"/><line style="stroke:#E7E7E7;stroke-width:1;" x1="142.0341" x2="134.144" y1="302.9009" y2="304.2228"/><line style="stroke:#E7E7E7;stroke-width:1;" x1="141.5384" x2="133.6483" y1="299.9422" y2="301.264"/><line style="stroke:#E7E7E7;stroke-width:1;" x1="137.4281" x2="138.75" y1="299.6168" y2="307.5069"/><text fill="#FFFFFF" font-family="sans-serif" font-size="13" lengthAdjust="spacing" textLength="70.6304" x="128.02" y="233.1438">belongs_to</text></g><!--link RecognitionJob to ClassSession--><g class="link" data-entity-1="RecognitionJob" data-entity-2="ClassSession" data-source-line="50" data-uid="lnk10" id="link_RecognitionJob_ClassSession"><path codeLine="50" d="M465.7858,420.3289 C452.6358,446.9389 445.5065,461.3759 435.0565,482.5059" fill="none" id="RecognitionJob-ClassSession" style="stroke:#E7E7E7;stroke-width:1;"/><line style="stroke:#E7E7E7;stroke-width:1;" x1="463.9719" x2="471.1439" y1="414.9708" y2="418.515"/><line style="stroke:#E7E7E7;stroke-width:1;" x1="462.6428" x2="469.8148" y1="417.6603" y2="421.2045"/><line style="stroke:#E7E7E7;stroke-width:1;" x1="465.7858" x2="469.33" y1="420.3289" y2="413.1569"/><line style="stroke:#E7E7E7;stroke-width:1;" x1="436.8687" x2="429.6977" y1="487.8646" y2="484.3182"/><line style="stroke:#E7E7E7;stroke-width:1;" x1="438.1986" x2="431.0277" y1="485.1755" y2="481.6291"/><line style="stroke:#E7E7E7;stroke-width:1;" x1="435.0565" x2="431.51" y1="482.5059" y2="489.6769"/><text fill="#FFFFFF" font-family="sans-serif" font-size="13" lengthAdjust="spacing" textLength="72.4966" x="454.02" y="455.9238">for_session</text></g><!--link RecognitionJob to Media--><g class="link" data-entity-1="RecognitionJob" data-entity-2="Media" data-source-line="51" data-uid="lnk11" id="link_RecognitionJob_Media"><path codeLine="51" d="M544.2542,420.3289 C557.4042,446.9389 564.5463,461.3746 574.9863,482.5046" fill="none" id="RecognitionJob-Media" style="stroke:#E7E7E7;stroke-width:1;"/><line style="stroke:#E7E7E7;stroke-width:1;" x1="538.8961" x2="546.0681" y1="418.515" y2="414.9708"/><line style="stroke:#E7E7E7;stroke-width:1;" x1="540.2252" x2="547.3972" y1="421.2045" y2="417.6603"/><line style="stroke:#E7E7E7;stroke-width:1;" x1="544.2542" x2="540.71" y1="420.3289" y2="413.1569"/><line style="stroke:#E7E7E7;stroke-width:1;" x1="580.3443" x2="573.172" y1="484.3189" y2="487.8626"/><line style="stroke:#E7E7E7;stroke-width:1;" x1="579.0154" x2="571.8431" y1="481.6292" y2="485.173"/><line style="stroke:#E7E7E7;stroke-width:1;" x1="574.9863" x2="578.53" y1="482.5046" y2="489.6769"/><text fill="#FFFFFF" font-family="sans-serif" font-size="13" lengthAdjust="spacing" textLength="105.5425" x="563.02" y="455.9238">image_analyzed</text></g><!--link RecognitionResult to RecognitionJob--><g class="link" data-entity-1="RecognitionResult" data-entity-2="RecognitionJob" data-source-line="52" data-uid="lnk12" id="link_RecognitionResult_RecognitionJob"><path codeLine="52" d="M398.8387,196.8853 C417.1687,221.4153 428.0521,235.9778 446.3621,260.4878" fill="none" id="RecognitionResult-RecognitionJob" style="stroke:#E7E7E7;stroke-width:1;"/><line style="stroke:#E7E7E7;stroke-width:1;" x1="393.2401" x2="399.6486" y1="196.0755" y2="191.2867"/><line style="stroke:#E7E7E7;stroke-width:1;" x1="395.0359" x2="401.4443" y1="198.4786" y2="193.6899"/><line style="stroke:#E7E7E7;stroke-width:1;" x1="398.8387" x2="394.05" y1="196.8853" y2="190.4769"/><line style="stroke:#E7E7E7;stroke-width:1;" x1="451.9606" x2="445.5515" y1="261.2984" y2="266.0863"/><line style="stroke:#E7E7E7;stroke-width:1;" x1="450.1652" x2="443.7561" y1="258.895" y2="263.6829"/><line style="stroke:#E7E7E7;stroke-width:1;" x1="446.3621" x2="451.15" y1="260.4878" y2="266.8969"/><text fill="#FFFFFF" font-family="sans-serif" font-size="13" lengthAdjust="spacing" textLength="56.0942" x="429.02" y="233.1438">result_of</text></g><!--link RecognitionResult to Student--><g class="link" data-entity-1="RecognitionResult" data-entity-2="Student" data-source-line="53" data-uid="lnk13" id="link_RecognitionResult_Student"><path codeLine="53" d="M270.53,196.4605 C235.37,236.0805 204.1909,271.184 177.2409,301.544" fill="none" id="RecognitionResult-Student" style="stroke:#E7E7E7;stroke-width:1;"/><line style="stroke:#E7E7E7;stroke-width:1;" x1="270.1932" x2="276.1768" y1="190.8137" y2="196.1237"/><line style="stroke:#E7E7E7;stroke-width:1;" x1="268.2019" x2="274.1855" y1="193.0575" y2="198.3675"/><line style="stroke:#E7E7E7;stroke-width:1;" x1="270.53" x2="275.84" y1="196.4605" y2="190.4769"/><line style="stroke:#E7E7E7;stroke-width:1;" x1="177.5769" x2="171.594" y1="307.1909" y2="301.88"/><line style="stroke:#E7E7E7;stroke-width:1;" x1="179.5684" x2="173.5856" y1="304.9473" y2="299.6364"/><line style="stroke:#E7E7E7;stroke-width:1;" x1="177.2409" x2="171.93" y1="301.544" y2="307.5269"/><text fill="#FFFFFF" font-family="sans-serif" font-size="13" lengthAdjust="spacing" textLength="127.8164" x="249.02" y="233.1438">recognized_student</text></g><!--link ModelVersion to RecognitionJob--><g class="link" data-entity-1="ModelVersion" data-entity-2="RecognitionJob" data-source-line="54" data-uid="lnk14" id="link_ModelVersion_RecognitionJob"><path codeLine="54" d="M552.9397,189.9624 C544.4197,216.4424 539.4075,232.0205 530.6475,259.2805" fill="none" id="ModelVersion-RecognitionJob" style="stroke:#E7E7E7;stroke-width:1;"/><line style="stroke:#E7E7E7;stroke-width:1;" x1="550.3571" x2="557.9726" y1="184.9295" y2="187.3798"/><line style="stroke:#E7E7E7;stroke-width:1;" x1="549.4382" x2="557.0537" y1="187.7853" y2="190.2356"/><line style="stroke:#E7E7E7;stroke-width:1;" x1="552.9397" x2="555.39" y1="189.9624" y2="182.3469"/><line style="stroke:#E7E7E7;stroke-width:1;" x1="533.232" x2="525.6156" y1="264.3124" y2="261.8649"/><line style="stroke:#E7E7E7;stroke-width:1;" x1="534.1498" x2="526.5334" y1="261.4563" y2="259.0088"/><line style="stroke:#E7E7E7;stroke-width:1;" x1="530.6475" x2="528.2" y1="259.2805" y2="266.8969"/><text fill="#FFFFFF" font-family="sans-serif" font-size="13" lengthAdjust="spacing" textLength="55.6372" x="543.02" y="233.1438">used_for</text></g><!--SRC=[ZLF1Zfim5Bpp5KzxILirwfqRpR9gLfjDH4XKQLKX1xzGLs0ZswoKDlttsc0QCCbgRyzZZvaP3vhf4Y5QmXTOYAfkD4hOCyK4XotALvOZp25Eu9wHGf8g291hfazmjzKDDNDS7P1Ineix80fy4Fu409y0-tN6A8ImsotlMrnrnptq5NCjf44UdjPH-lAZ1NE9H2FDY3ORwN8LRzDejMctcffUs_fxqPfWBWhEj77rA0wjqZ7aTFuI1ryXAfk5X-ObKKeAKMNrJw75n1NHZJ98_BnRVPXja5lhiy-pZHIvlQzTsBHBDBhD_41OQOQFFLtUS9htdFTvJL0rfVRjTgXpBDk5P-1A35SVIdQN_aQBVbsld-BesUdaHsO8fZpk5Tzwmu7ubQ1Oxb7Qp5lTGy19hYpaAU6aif_QHydYMvIu5dMaCKfHvPBLkjj9u- -fW-jIdDwKvgezhBaJD0rdG5lOgcox5hNS8T1VC2dPC1AaZ7HPsAaFmSvZmkJVEv_dy_FvlzWG3bWANgXCYy2hlpiwqXR2KSZCQRj1w2I5m2fIO4OuAK-c3S6qRUwyTqlOzqySRtCk-YzzorpcmQWVjpxIACCmPlu1]--></g></svg>