<svg xmlns="http://www.w3.org/2000/svg" xmlns:xlink="http://www.w3.org/1999/xlink" contentStyleType="text/css" data-diagram-type="DESCRIPTION" height="787px" preserveAspectRatio="none" style="width:1180px;height:787px;background:#1B1B1B;" version="1.1" viewBox="0 0 1180 787" width="1180px" zoomAndPan="magnify"><title>Notification Service - Component Diagram</title><defs/><g><rect fill="#1B1B1B" height="787" style="stroke:none;stroke-width:1;" width="1180" x="0" y="0"/><g class="title" data-source-line="1"><text fill="#FFFFFF" font-family="sans-serif" font-size="14" font-weight="bold" lengthAdjust="spacing" textLength="333.1152" x="416.6721" y="22.9951">Notification Service - Component Diagram</text></g><!--cluster Notification Service--><g class="cluster" data-entity="Notification Service" data-source-line="3" data-uid="ent0002" id="cluster_Notification Service"><path d="M199.5,43.2969 L356.1133,43.2969 A3.75,3.75 0 0 1 358.6133,45.7969 L365.6133,65.5938 L816.5,65.5938 A2.5,2.5 0 0 1 819,68.0938 L819,631.2769 A2.5,2.5 0 0 1 816.5,633.7769 L199.5,633.7769 A2.5,2.5 0 0 1 197,631.2769 L197,45.7969 A2.5,2.5 0 0 1 199.5,43.2969" fill="none" style="stroke:#FFFFFF;stroke-width:1.5;"/><line style="stroke:#FFFFFF;stroke-width:1.5;" x1="197" x2="365.6133" y1="65.5938" y2="65.5938"/><text fill="#FFFFFF" font-family="sans-serif" font-size="14" font-weight="bold" lengthAdjust="spacing" textLength="155.6133" x="201" y="58.292">Notification Service</text></g><!--cluster External Systems--><g class="cluster" data-entity="External Systems" data-source-line="13" data-uid="ent0010" id="cluster_External Systems"><path d="M8.5,682.7769 L146.9229,682.7769 A3.75,3.75 0 0 1 149.4229,685.2769 L156.4229,705.0738 L1026.5,705.0738 A2.5,2.5 0 0 1 1029,707.5738 L1029,777.5769 A2.5,2.5 0 0 1 1026.5,780.0769 L8.5,780.0769 A2.5,2.5 0 0 1 6,777.5769 L6,685.2769 A2.5,2.5 0 0 1 8.5,682.7769" fill="none" style="stroke:#FFFFFF;stroke-width:1.5;"/><line style="stroke:#FFFFFF;stroke-width:1.5;" x1="6" x2="156.4229" y1="705.0738" y2="705.0738"/><text fill="#FFFFFF" font-family="sans-serif" font-size="14" font-weight="bold" lengthAdjust="spacing" textLength="137.4229" x="10" y="697.772">External Systems</text></g><!--entity api--><g class="entity" data-entity="api" data-source-line="4" data-uid="ent0003" id="entity_api"><rect fill="#313139" height="46.2969" rx="2.5" ry="2.5" style="stroke:#E7E7E7;stroke-width:0.5;" width="188.6816" x="296.66" y="78.2969"/><rect fill="#313139" height="10" style="stroke:#E7E7E7;stroke-width:0.5;" width="15" x="465.3416" y="83.2969"/><rect fill="#313139" height="2" style="stroke:#E7E7E7;stroke-width:0.5;" width="4" x="463.3416" y="85.2969"/><rect fill="#313139" height="2" style="stroke:#E7E7E7;stroke-width:0.5;" width="4" x="463.3416" y="89.2969"/><text fill="#FFFFFF" font-family="sans-serif" font-size="14" lengthAdjust="spacing" textLength="148.6816" x="311.66" y="111.292">API Gateway Adapter</text></g><!--entity notifCtrl--><g class="entity" data-entity="notifCtrl" data-source-line="5" data-uid="ent0004" id="entity_notifCtrl"><rect fill="#313139" height="46.2969" rx="2.5" ry="2.5" style="stroke:#E7E7E7;stroke-width:0.5;" width="193.9521" x="294.02" y="201.5969"/><rect fill="#313139" height="10" style="stroke:#E7E7E7;stroke-width:0.5;" width="15" x="467.9721" y="206.5969"/><rect fill="#313139" height="2" style="stroke:#E7E7E7;stroke-width:0.5;" width="4" x="465.9721" y="208.5969"/><rect fill="#313139" height="2" style="stroke:#E7E7E7;stroke-width:0.5;" width="4" x="465.9721" y="212.5969"/><text fill="#FFFFFF" font-family="sans-serif" font-size="14" lengthAdjust="spacing" textLength="153.9521" x="309.02" y="234.592">Notification Controller</text></g><!--entity notifMgr--><g class="entity" data-entity="notifMgr" data-source-line="6" data-uid="ent0005" id="entity_notifMgr"><rect fill="#313139" height="46.2969" rx="2.5" ry="2.5" style="stroke:#E7E7E7;stroke-width:0.5;" width="186.1455" x="297.93" y="324.8869"/><rect fill="#313139" height="10" style="stroke:#E7E7E7;stroke-width:0.5;" width="15" x="464.0755" y="329.8869"/><rect fill="#313139" height="2" style="stroke:#E7E7E7;stroke-width:0.5;" width="4" x="462.0755" y="331.8869"/><rect fill="#313139" height="2" style="stroke:#E7E7E7;stroke-width:0.5;" width="4" x="462.0755" y="335.8869"/><text fill="#FFFFFF" font-family="sans-serif" font-size="14" lengthAdjust="spacing" textLength="146.1455" x="312.93" y="357.882">Notification Manager</text></g><!--entity templateEng--><g class="entity" data-entity="templateEng" data-source-line="7" data-uid="ent0006" id="entity_templateEng"><rect fill="#313139" height="46.2969" rx="2.5" ry="2.5" style="stroke:#E7E7E7;stroke-width:0.5;" width="158.6924" x="212.65" y="448.1869"/><rect fill="#313139" height="10" style="stroke:#E7E7E7;stroke-width:0.5;" width="15" x="351.3424" y="453.1869"/><rect fill="#313139" height="2" style="stroke:#E7E7E7;stroke-width:0.5;" width="4" x="349.3424" y="455.1869"/><rect fill="#313139" height="2" style="stroke:#E7E7E7;stroke-width:0.5;" width="4" x="349.3424" y="459.1869"/><text fill="#FFFFFF" font-family="sans-serif" font-size="14" lengthAdjust="spacing" textLength="118.6924" x="227.65" y="481.182">Template Engine</text></g><!--entity queueSched--><g class="entity" data-entity="queueSched" data-source-line="8" data-uid="ent0007" id="entity_queueSched"><rect fill="#313139" height="46.2969" rx="2.5" ry="2.5" style="stroke:#E7E7E7;stroke-width:0.5;" width="175.8984" x="451.05" y="448.1869"/><rect fill="#313139" height="10" style="stroke:#E7E7E7;stroke-width:0.5;" width="15" x="606.9484" y="453.1869"/><rect fill="#313139" height="2" style="stroke:#E7E7E7;stroke-width:0.5;" width="4" x="604.9484" y="455.1869"/><rect fill="#313139" height="2" style="stroke:#E7E7E7;stroke-width:0.5;" width="4" x="604.9484" y="459.1869"/><text fill="#FFFFFF" font-family="sans-serif" font-size="14" lengthAdjust="spacing" textLength="135.8984" x="466.05" y="481.182">Queue &amp; Scheduler</text></g><!--entity delivery--><g class="entity" data-entity="delivery" data-source-line="9" data-uid="ent0008" id="entity_delivery"><rect fill="#313139" height="46.2969" rx="2.5" ry="2.5" style="stroke:#E7E7E7;stroke-width:0.5;" width="157.6875" x="391.16" y="571.4869"/><rect fill="#313139" height="10" style="stroke:#E7E7E7;stroke-width:0.5;" width="15" x="528.8475" y="576.4869"/><rect fill="#313139" height="2" style="stroke:#E7E7E7;stroke-width:0.5;" width="4" x="526.8475" y="578.4869"/><rect fill="#313139" height="2" style="stroke:#E7E7E7;stroke-width:0.5;" width="4" x="526.8475" y="582.4869"/><text fill="#FFFFFF" font-family="sans-serif" font-size="14" lengthAdjust="spacing" textLength="117.6875" x="406.16" y="604.482">Delivery Handler</text></g><!--entity notifMetrics--><g class="entity" data-entity="notifMetrics" data-source-line="10" data-uid="ent0009" id="entity_notifMetrics"><rect fill="#313139" height="46.2969" rx="2.5" ry="2.5" style="stroke:#E7E7E7;stroke-width:0.5;" width="166.4238" x="636.79" y="78.2969"/><rect fill="#313139" height="10" style="stroke:#E7E7E7;stroke-width:0.5;" width="15" x="783.2138" y="83.2969"/><rect fill="#313139" height="2" style="stroke:#E7E7E7;stroke-width:0.5;" width="4" x="781.2138" y="85.2969"/><rect fill="#313139" height="2" style="stroke:#E7E7E7;stroke-width:0.5;" width="4" x="781.2138" y="89.2969"/><text fill="#FFFFFF" font-family="sans-serif" font-size="14" lengthAdjust="spacing" textLength="126.4238" x="651.79" y="111.292">Logging &amp; Metrics</text></g><!--entity emailGateway--><g class="entity" data-entity="emailGateway" data-source-line="14" data-uid="ent0011" id="entity_emailGateway"><rect fill="#313139" height="46.2969" rx="2.5" ry="2.5" style="stroke:#E7E7E7;stroke-width:0.5;" width="229.8066" x="22.1" y="717.7769"/><rect fill="#313139" height="10" style="stroke:#E7E7E7;stroke-width:0.5;" width="15" x="231.9066" y="722.7769"/><rect fill="#313139" height="2" style="stroke:#E7E7E7;stroke-width:0.5;" width="4" x="229.9066" y="724.7769"/><rect fill="#313139" height="2" style="stroke:#E7E7E7;stroke-width:0.5;" width="4" x="229.9066" y="728.7769"/><text fill="#FFFFFF" font-family="sans-serif" font-size="14" lengthAdjust="spacing" textLength="189.8066" x="37.1" y="750.772">Email Gateway (SMTP/SES)</text></g><!--entity smsGateway--><g class="entity" data-entity="smsGateway" data-source-line="15" data-uid="ent0012" id="entity_smsGateway"><rect fill="#313139" height="46.2969" rx="2.5" ry="2.5" style="stroke:#E7E7E7;stroke-width:0.5;" width="246.0488" x="286.98" y="717.7769"/><rect fill="#313139" height="10" style="stroke:#E7E7E7;stroke-width:0.5;" width="15" x="513.0288" y="722.7769"/><rect fill="#313139" height="2" style="stroke:#E7E7E7;stroke-width:0.5;" width="4" x="511.0288" y="724.7769"/><rect fill="#313139" height="2" style="stroke:#E7E7E7;stroke-width:0.5;" width="4" x="511.0288" y="728.7769"/><text fill="#FFFFFF" font-family="sans-serif" font-size="14" lengthAdjust="spacing" textLength="206.0488" x="301.98" y="750.772">SMS Gateway (Twilio/Nexmo)</text></g><!--entity pushGateway--><g class="entity" data-entity="pushGateway" data-source-line="16" data-uid="ent0013" id="entity_pushGateway"><rect fill="#313139" height="46.2969" rx="2.5" ry="2.5" style="stroke:#E7E7E7;stroke-width:0.5;" width="224.5566" x="567.72" y="717.7769"/><rect fill="#313139" height="10" style="stroke:#E7E7E7;stroke-width:0.5;" width="15" x="772.2766" y="722.7769"/><rect fill="#313139" height="2" style="stroke:#E7E7E7;stroke-width:0.5;" width="4" x="770.2766" y="724.7769"/><rect fill="#313139" height="2" style="stroke:#E7E7E7;stroke-width:0.5;" width="4" x="770.2766" y="728.7769"/><text fill="#FFFFFF" font-family="sans-serif" font-size="14" lengthAdjust="spacing" textLength="184.5566" x="582.72" y="750.772">Push Notification Gateway</text></g><!--entity analyticsAPI--><g class="entity" data-entity="analyticsAPI" data-source-line="17" data-uid="ent0014" id="entity_analyticsAPI"><rect fill="#313139" height="46.2969" rx="2.5" ry="2.5" style="stroke:#E7E7E7;stroke-width:0.5;" width="186.3643" x="826.82" y="717.7769"/><rect fill="#313139" height="10" style="stroke:#E7E7E7;stroke-width:0.5;" width="15" x="993.1843" y="722.7769"/><rect fill="#313139" height="2" style="stroke:#E7E7E7;stroke-width:0.5;" width="4" x="991.1843" y="724.7769"/><rect fill="#313139" height="2" style="stroke:#E7E7E7;stroke-width:0.5;" width="4" x="991.1843" y="728.7769"/><text fill="#FFFFFF" font-family="sans-serif" font-size="14" lengthAdjust="spacing" textLength="146.3643" x="841.82" y="750.772">Analytics Service API</text></g><!--link api to notifCtrl--><g class="link" data-entity-1="api" data-entity-2="notifCtrl" data-source-line="20" data-uid="lnk15" id="link_api_notifCtrl"><path d="M391,124.9769 C391,146.7569 391,173.5869 391,195.3269" fill="none" id="api-to-notifCtrl" style="stroke:#E7E7E7;stroke-width:1;"/><polygon fill="#E7E7E7" points="391,201.3269,395,192.3269,391,196.3269,387,192.3269,391,201.3269" style="stroke:#E7E7E7;stroke-width:1;"/><text fill="#FFFFFF" font-family="sans-serif" font-size="13" lengthAdjust="spacing" textLength="329.7036" x="392" y="167.6638">REST calls (send notification, schedule, templates)</text></g><!--link notifCtrl to notifMgr--><g class="link" data-entity-1="notifCtrl" data-entity-2="notifMgr" data-source-line="21" data-uid="lnk16" id="link_notifCtrl_notifMgr"><path d="M391,248.2669 C391,270.0569 391,296.8769 391,318.6269" fill="none" id="notifCtrl-to-notifMgr" style="stroke:#E7E7E7;stroke-width:1;"/><polygon fill="#E7E7E7" points="391,324.6269,395,315.6269,391,319.6269,387,315.6269,391,324.6269" style="stroke:#E7E7E7;stroke-width:1;"/><text fill="#FFFFFF" font-family="sans-serif" font-size="13" lengthAdjust="spacing" textLength="192.1563" x="392" y="290.9538">Orchestrates notification flow</text></g><!--link notifMgr to templateEng--><g class="link" data-entity-1="notifMgr" data-entity-2="templateEng" data-source-line="22" data-uid="lnk17" id="link_notifMgr_templateEng"><path d="M297.58,363.6969 C277.02,371.4569 257.64,383.2569 245,401.1869 C234.13,416.6069 242.0087,430.1299 256.7387,443.7099" fill="none" id="notifMgr-to-templateEng" style="stroke:#E7E7E7;stroke-width:1;"/><polygon fill="#E7E7E7" points="261.15,447.7769,257.2443,438.7356,257.4739,444.3878,251.8217,444.6174,261.15,447.7769" style="stroke:#E7E7E7;stroke-width:1;"/><text fill="#FFFFFF" font-family="sans-serif" font-size="13" lengthAdjust="spacing" textLength="260.0698" x="246" y="414.2538">Apply templates &amp; merge dynamic data</text></g><!--link notifMgr to queueSched--><g class="link" data-entity-1="notifMgr" data-entity-2="queueSched" data-source-line="23" data-uid="lnk18" id="link_notifMgr_queueSched"><path d="M467.36,371.6469 C483.27,379.0869 498.87,388.7469 511,401.1869 C523.48,413.9869 529.1006,427.2777 533.0506,442.1577" fill="none" id="notifMgr-to-queueSched" style="stroke:#E7E7E7;stroke-width:1;"/><polygon fill="#E7E7E7" points="534.59,447.9569,536.147,438.2319,533.3071,443.1242,528.4148,440.2844,534.59,447.9569" style="stroke:#E7E7E7;stroke-width:1;"/><text fill="#FFFFFF" font-family="sans-serif" font-size="13" lengthAdjust="spacing" textLength="251.3989" x="523" y="414.2538">Schedule notifications, manage retries</text></g><!--link queueSched to delivery--><g class="link" data-entity-1="queueSched" data-entity-2="delivery" data-source-line="24" data-uid="lnk19" id="link_queueSched_delivery"><path d="M526.18,494.8669 C513.79,516.6569 498.0873,544.262 485.7173,566.002" fill="none" id="queueSched-to-delivery" style="stroke:#E7E7E7;stroke-width:1;"/><polygon fill="#E7E7E7" points="482.75,571.2169,490.6775,565.3727,485.2227,566.8711,483.7243,561.4163,482.75,571.2169" style="stroke:#E7E7E7;stroke-width:1;"/><text fill="#FFFFFF" font-family="sans-serif" font-size="13" lengthAdjust="spacing" textLength="274.7456" x="509" y="537.5538">Deliver messages via appropriate channel</text></g><!--link delivery to emailGateway--><g class="link" data-entity-1="delivery" data-entity-2="emailGateway" data-source-line="25" data-uid="lnk20" id="link_delivery_emailGateway"><path d="M408.76,618.2269 C368.66,633.3969 315.3,654.2869 269,674.7769 C239.09,688.0269 211.438,701.5868 185.918,714.5668" fill="none" id="delivery-to-emailGateway" style="stroke:#E7E7E7;stroke-width:1;"/><polygon fill="#E7E7E7" points="180.57,717.2869,190.4054,716.7721,185.0267,715.0201,186.7786,709.6414,180.57,717.2869" style="stroke:#E7E7E7;stroke-width:1;"/><text fill="#FFFFFF" font-family="sans-serif" font-size="13" lengthAdjust="spacing" textLength="79.498" x="324" y="662.8438">Send emails</text></g><!--link delivery to smsGateway--><g class="link" data-entity-1="delivery" data-entity-2="smsGateway" data-source-line="26" data-uid="lnk21" id="link_delivery_smsGateway"><path d="M460.62,618.1769 C449.35,645.2869 432.8538,684.9668 421.6138,711.9968" fill="none" id="delivery-to-smsGateway" style="stroke:#E7E7E7;stroke-width:1;"/><polygon fill="#E7E7E7" points="419.31,717.5369,426.459,710.7626,421.2298,712.9201,419.0722,707.6909,419.31,717.5369" style="stroke:#E7E7E7;stroke-width:1;"/><text fill="#FFFFFF" font-family="sans-serif" font-size="13" lengthAdjust="spacing" textLength="64.5938" x="448" y="662.8438">Send SMS</text></g><!--link delivery to pushGateway--><g class="link" data-entity-1="delivery" data-entity-2="pushGateway" data-source-line="27" data-uid="lnk22" id="link_delivery_pushGateway"><path d="M502.81,618.1769 C542.15,645.2069 602.7351,686.8386 642.1251,713.9086" fill="none" id="delivery-to-pushGateway" style="stroke:#E7E7E7;stroke-width:1;"/><polygon fill="#E7E7E7" points="647.07,717.3069,641.9182,708.9129,642.9493,714.475,637.3872,715.5061,647.07,717.3069" style="stroke:#E7E7E7;stroke-width:1;"/><text fill="#FFFFFF" font-family="sans-serif" font-size="13" lengthAdjust="spacing" textLength="152.3882" x="569" y="662.8438">Send push notifications</text></g><!--link notifMetrics to analyticsAPI--><g class="link" data-entity-1="notifMetrics" data-entity-2="analyticsAPI" data-source-line="28" data-uid="lnk23" id="link_notifMetrics_analyticsAPI"><path d="M803.55,122.0169 C853.76,139.3069 908,170.3369 908,223.7369 C908,223.7369 908,223.7369 908,595.6269 C908,638.8669 912.674,683.1934 916.224,711.5234" fill="none" id="notifMetrics-to-analyticsAPI" style="stroke:#E7E7E7;stroke-width:1;"/><polygon fill="#E7E7E7" points="916.97,717.4769,919.8199,708.0494,916.3483,712.5157,911.882,709.0441,916.97,717.4769" style="stroke:#E7E7E7;stroke-width:1;"/><text fill="#FFFFFF" font-family="sans-serif" font-size="13" lengthAdjust="spacing" textLength="263.4595" x="909" y="414.2538">Send notification success/failure metrics</text></g><!--SRC=[RP9DZzCm48Rl-HMZFQ1TgLNl792gRWH8P2caDyHXv4nJ2ySsjjDkXFZlZ5CdSSHUPvvtlju9CYY25nFaMGeCqcYeoLsb8DZ2mNJMQD81dYMs3hkYi2X-OKlmy9Ra0VuK03_sny_m4GFTS81zWpQG-mde0QsCwPNoO7HmHgc4w9Wx1AV-0olKt3UZgjP5w4ITLTmCIjrAJMC-f1Y78lAjfvxW7TJYGaq_jVeTesCeCi-av9NS09zGDnFIf604lfYMwxTSfgBWfF3P9FT0yJSxJ_dAMsjKK0-Un_7fD6M7Kit7UQohqt5Nb_NJM8nYCkKYN5VrWfvkKacpUw7Npjnnt_aCFlR-ilOn9KVMSZQ3zppP47ZcsMpsxExHbE50N8WzW-tsms8Cl8VlPNq2WKfvUFIactiojTs0JsVUp3xufsBHpzNOG2xsrJ7kWulOgX2SbRaLCnbbcQ-it5khXgK7EzEHuzitWyPE2cWmu5g_MCxowHjMJVq6kl7Hm4LJoHUP9fQONe8Bf9VXhjwpmiDL8l-uTSOw6JzIN51hKiMiYGLoa-CKyNvZpA-vnTs9udTO8vcf4nD3wuMA_4L7MMxnf5iTtlT2y4wxCq_LE-85H_4_]--></g></svg>