<svg xmlns="http://www.w3.org/2000/svg" xmlns:xlink="http://www.w3.org/1999/xlink" contentStyleType="text/css" data-diagram-type="DESCRIPTION" height="435px" preserveAspectRatio="none" style="width:1324px;height:435px;background:#1B1B1B;" version="1.1" viewBox="0 0 1324 435" width="1324px" zoomAndPan="magnify"><title>VISION Frontend Architecture (React)</title><defs/><g><rect fill="#1B1B1B" height="435" style="stroke:none;stroke-width:1;" width="1324" x="0" y="0"/><g class="title" data-source-line="1"><text fill="#FFFFFF" font-family="sans-serif" font-size="14" font-weight="bold" lengthAdjust="spacing" textLength="297.6641" x="506.168" y="22.9951">VISION Frontend Architecture (React)</text></g><!--cluster Frontend (React SPA)--><g class="cluster" data-entity="Frontend .React SPA." data-source-line="3" data-uid="ent0002" id="cluster_Frontend .React SPA."><path d="M8.5,43.2969 L180.166,43.2969 A3.75,3.75 0 0 1 182.666,45.7969 L189.666,65.5938 L1314.5,65.5938 A2.5,2.5 0 0 1 1317,68.0938 L1317,407.6869 A2.5,2.5 0 0 1 1314.5,410.1869 L8.5,410.1869 A2.5,2.5 0 0 1 6,407.6869 L6,45.7969 A2.5,2.5 0 0 1 8.5,43.2969" fill="none" style="stroke:#FFFFFF;stroke-width:1.5;"/><line style="stroke:#FFFFFF;stroke-width:1.5;" x1="6" x2="189.666" y1="65.5938" y2="65.5938"/><text fill="#FFFFFF" font-family="sans-serif" font-size="14" font-weight="bold" lengthAdjust="spacing" textLength="170.666" x="10" y="58.292">Frontend (React SPA)</text></g><!--cluster Shared Components--><g class="cluster" data-entity="Shared Components" data-source-line="11" data-uid="ent0008" id="cluster_Shared Components"><path d="M144.5,187.5969 L304.8662,187.5969 A3.75,3.75 0 0 1 307.3662,190.0969 L314.3662,209.8937 L985.5,209.8937 A2.5,2.5 0 0 1 988,212.3937 L988,282.3869 A2.5,2.5 0 0 1 985.5,284.8869 L144.5,284.8869 A2.5,2.5 0 0 1 142,282.3869 L142,190.0969 A2.5,2.5 0 0 1 144.5,187.5969" fill="none" style="stroke:#FFFFFF;stroke-width:1.5;"/><line style="stroke:#FFFFFF;stroke-width:1.5;" x1="142" x2="314.3662" y1="209.8937" y2="209.8937"/><text fill="#FFFFFF" font-family="sans-serif" font-size="14" font-weight="bold" lengthAdjust="spacing" textLength="159.3662" x="146" y="202.592">Shared Components</text></g><!--entity auth--><g class="entity" data-entity="auth" data-source-line="5" data-uid="ent0003" id="entity_auth"><rect fill="#313139" height="46.2969" rx="2.5" ry="2.5" style="stroke:#E7E7E7;stroke-width:0.5;" width="128.1699" x="134.92" y="78.2969"/><rect fill="#313139" height="10" style="stroke:#E7E7E7;stroke-width:0.5;" width="15" x="243.0899" y="83.2969"/><rect fill="#313139" height="2" style="stroke:#E7E7E7;stroke-width:0.5;" width="4" x="241.0899" y="85.2969"/><rect fill="#313139" height="2" style="stroke:#E7E7E7;stroke-width:0.5;" width="4" x="241.0899" y="89.2969"/><text fill="#FFFFFF" font-family="sans-serif" font-size="14" lengthAdjust="spacing" textLength="88.1699" x="149.92" y="111.292">Auth Module</text></g><!--entity principal--><g class="entity" data-entity="principal" data-source-line="6" data-uid="ent0004" id="entity_principal"><rect fill="#313139" height="46.2969" rx="2.5" ry="2.5" style="stroke:#E7E7E7;stroke-width:0.5;" width="204.5752" x="330.71" y="78.2969"/><rect fill="#313139" height="10" style="stroke:#E7E7E7;stroke-width:0.5;" width="15" x="515.2852" y="83.2969"/><rect fill="#313139" height="2" style="stroke:#E7E7E7;stroke-width:0.5;" width="4" x="513.2852" y="85.2969"/><rect fill="#313139" height="2" style="stroke:#E7E7E7;stroke-width:0.5;" width="4" x="513.2852" y="89.2969"/><text fill="#FFFFFF" font-family="sans-serif" font-size="14" lengthAdjust="spacing" textLength="164.5752" x="345.71" y="111.292">Principal Admin Module</text></g><!--entity dept--><g class="entity" data-entity="dept" data-source-line="7" data-uid="ent0005" id="entity_dept"><rect fill="#313139" height="46.2969" rx="2.5" ry="2.5" style="stroke:#E7E7E7;stroke-width:0.5;" width="178.4414" x="637.78" y="78.2969"/><rect fill="#313139" height="10" style="stroke:#E7E7E7;stroke-width:0.5;" width="15" x="796.2214" y="83.2969"/><rect fill="#313139" height="2" style="stroke:#E7E7E7;stroke-width:0.5;" width="4" x="794.2214" y="85.2969"/><rect fill="#313139" height="2" style="stroke:#E7E7E7;stroke-width:0.5;" width="4" x="794.2214" y="89.2969"/><text fill="#FFFFFF" font-family="sans-serif" font-size="14" lengthAdjust="spacing" textLength="138.4414" x="652.78" y="111.292">Dept Admin Module</text></g><!--entity teacher--><g class="entity" data-entity="teacher" data-source-line="8" data-uid="ent0006" id="entity_teacher"><rect fill="#313139" height="46.2969" rx="2.5" ry="2.5" style="stroke:#E7E7E7;stroke-width:0.5;" width="152.041" x="966.98" y="78.2969"/><rect fill="#313139" height="10" style="stroke:#E7E7E7;stroke-width:0.5;" width="15" x="1099.021" y="83.2969"/><rect fill="#313139" height="2" style="stroke:#E7E7E7;stroke-width:0.5;" width="4" x="1097.021" y="85.2969"/><rect fill="#313139" height="2" style="stroke:#E7E7E7;stroke-width:0.5;" width="4" x="1097.021" y="89.2969"/><text fill="#FFFFFF" font-family="sans-serif" font-size="14" lengthAdjust="spacing" textLength="112.041" x="981.98" y="111.292">Teacher Module</text></g><!--entity student--><g class="entity" data-entity="student" data-source-line="9" data-uid="ent0007" id="entity_student"><rect fill="#313139" height="46.2969" rx="2.5" ry="2.5" style="stroke:#E7E7E7;stroke-width:0.5;" width="150.4688" x="698.77" y="347.8869"/><rect fill="#313139" height="10" style="stroke:#E7E7E7;stroke-width:0.5;" width="15" x="829.2388" y="352.8869"/><rect fill="#313139" height="2" style="stroke:#E7E7E7;stroke-width:0.5;" width="4" x="827.2388" y="354.8869"/><rect fill="#313139" height="2" style="stroke:#E7E7E7;stroke-width:0.5;" width="4" x="827.2388" y="358.8869"/><text fill="#FFFFFF" font-family="sans-serif" font-size="14" lengthAdjust="spacing" textLength="110.4688" x="713.77" y="380.882">Student Module</text></g><!--entity Sidebar--><g class="entity" data-entity="Sidebar" data-source-line="12" data-uid="ent0009" id="entity_Sidebar"><rect fill="#313139" height="46.2969" rx="2.5" ry="2.5" style="stroke:#E7E7E7;stroke-width:0.5;" width="93.498" x="753.25" y="222.5969"/><rect fill="#313139" height="10" style="stroke:#E7E7E7;stroke-width:0.5;" width="15" x="826.748" y="227.5969"/><rect fill="#313139" height="2" style="stroke:#E7E7E7;stroke-width:0.5;" width="4" x="824.748" y="229.5969"/><rect fill="#313139" height="2" style="stroke:#E7E7E7;stroke-width:0.5;" width="4" x="824.748" y="233.5969"/><text fill="#FFFFFF" font-family="sans-serif" font-size="14" lengthAdjust="spacing" textLength="53.498" x="768.25" y="255.592">Sidebar</text></g><!--entity Navbar--><g class="entity" data-entity="Navbar" data-source-line="13" data-uid="ent0010" id="entity_Navbar"><rect fill="#313139" height="46.2969" rx="2.5" ry="2.5" style="stroke:#E7E7E7;stroke-width:0.5;" width="90.5586" x="881.72" y="222.5969"/><rect fill="#313139" height="10" style="stroke:#E7E7E7;stroke-width:0.5;" width="15" x="952.2786" y="227.5969"/><rect fill="#313139" height="2" style="stroke:#E7E7E7;stroke-width:0.5;" width="4" x="950.2786" y="229.5969"/><rect fill="#313139" height="2" style="stroke:#E7E7E7;stroke-width:0.5;" width="4" x="950.2786" y="233.5969"/><text fill="#FFFFFF" font-family="sans-serif" font-size="14" lengthAdjust="spacing" textLength="50.5586" x="896.72" y="255.592">Navbar</text></g><!--entity Footer--><g class="entity" data-entity="Footer" data-source-line="14" data-uid="ent0011" id="entity_Footer"><rect fill="#313139" height="46.2969" rx="2.5" ry="2.5" style="stroke:#E7E7E7;stroke-width:0.5;" width="85.042" x="487.48" y="222.5969"/><rect fill="#313139" height="10" style="stroke:#E7E7E7;stroke-width:0.5;" width="15" x="552.522" y="227.5969"/><rect fill="#313139" height="2" style="stroke:#E7E7E7;stroke-width:0.5;" width="4" x="550.522" y="229.5969"/><rect fill="#313139" height="2" style="stroke:#E7E7E7;stroke-width:0.5;" width="4" x="550.522" y="233.5969"/><text fill="#FFFFFF" font-family="sans-serif" font-size="14" lengthAdjust="spacing" textLength="45.042" x="502.48" y="255.592">Footer</text></g><!--entity DataTable--><g class="entity" data-entity="DataTable" data-source-line="15" data-uid="ent0012" id="entity_DataTable"><rect fill="#313139" height="46.2969" rx="2.5" ry="2.5" style="stroke:#E7E7E7;stroke-width:0.5;" width="111.9482" x="341.03" y="222.5969"/><rect fill="#313139" height="10" style="stroke:#E7E7E7;stroke-width:0.5;" width="15" x="432.9782" y="227.5969"/><rect fill="#313139" height="2" style="stroke:#E7E7E7;stroke-width:0.5;" width="4" x="430.9782" y="229.5969"/><rect fill="#313139" height="2" style="stroke:#E7E7E7;stroke-width:0.5;" width="4" x="430.9782" y="233.5969"/><text fill="#FFFFFF" font-family="sans-serif" font-size="14" lengthAdjust="spacing" textLength="71.9482" x="356.03" y="255.592">DataTable</text></g><!--entity ChartCard--><g class="entity" data-entity="ChartCard" data-source-line="16" data-uid="ent0013" id="entity_ChartCard"><rect fill="#313139" height="46.2969" rx="2.5" ry="2.5" style="stroke:#E7E7E7;stroke-width:0.5;" width="111.4697" x="607.27" y="222.5969"/><rect fill="#313139" height="10" style="stroke:#E7E7E7;stroke-width:0.5;" width="15" x="698.7397" y="227.5969"/><rect fill="#313139" height="2" style="stroke:#E7E7E7;stroke-width:0.5;" width="4" x="696.7397" y="229.5969"/><rect fill="#313139" height="2" style="stroke:#E7E7E7;stroke-width:0.5;" width="4" x="696.7397" y="233.5969"/><text fill="#FFFFFF" font-family="sans-serif" font-size="14" lengthAdjust="spacing" textLength="71.4697" x="622.27" y="255.592">ChartCard</text></g><!--entity ProtectedRoute--><g class="entity" data-entity="ProtectedRoute" data-source-line="17" data-uid="ent0014" id="entity_ProtectedRoute"><rect fill="#313139" height="46.2969" rx="2.5" ry="2.5" style="stroke:#E7E7E7;stroke-width:0.5;" width="148.8213" x="157.59" y="222.5969"/><rect fill="#313139" height="10" style="stroke:#E7E7E7;stroke-width:0.5;" width="15" x="286.4113" y="227.5969"/><rect fill="#313139" height="2" style="stroke:#E7E7E7;stroke-width:0.5;" width="4" x="284.4113" y="229.5969"/><rect fill="#313139" height="2" style="stroke:#E7E7E7;stroke-width:0.5;" width="4" x="284.4113" y="233.5969"/><text fill="#FFFFFF" font-family="sans-serif" font-size="14" lengthAdjust="spacing" textLength="108.8213" x="172.59" y="255.592">ProtectedRoute</text></g><!--link auth to Sidebar--><g class="link" data-entity-1="auth" data-entity-2="Sidebar" data-source-line="21" data-uid="lnk15" id="link_auth_Sidebar"><path d="M190.44,124.7869 C186.2,140.0569 184.19,159.6069 196,171.5969 C206.53,182.2769 722.21,173.6869 736,179.5969 C756.41,188.3269 770.0118,202.2106 781.4418,217.3306" fill="none" id="auth-to-Sidebar" style="stroke:#E7E7E7;stroke-width:1;"/><polygon fill="#E7E7E7" points="785.06,222.1169,782.8235,212.5253,782.0448,218.1283,776.4418,217.3496,785.06,222.1169" style="stroke:#E7E7E7;stroke-width:1;"/><text fill="#FFFFFF" font-family="sans-serif" font-size="13" lengthAdjust="spacing" textLength="113.8008" x="197" y="167.6638">Role-based menu</text></g><!--link auth to ProtectedRoute--><g class="link" data-entity-1="auth" data-entity-2="ProtectedRoute" data-source-line="22" data-uid="lnk16" id="link_auth_ProtectedRoute"><path d="M134.48,110.0569 C85.58,118.7169 30.48,136.4969 54,171.5969 C77.06,206.0069 113.738,222.7568 151.418,232.4168" fill="none" id="auth-to-ProtectedRoute" style="stroke:#E7E7E7;stroke-width:1;"/><polygon fill="#E7E7E7" points="157.23,233.9069,149.5053,227.7971,152.3866,232.6652,147.5186,235.5465,157.23,233.9069" style="stroke:#E7E7E7;stroke-width:1;"/><text fill="#FFFFFF" font-family="sans-serif" font-size="13" lengthAdjust="spacing" textLength="100.6104" x="55" y="167.6638">Route guarding</text></g><!--link Sidebar to principal--><g class="link" data-entity-1="Sidebar" data-entity-2="principal" data-source-line="23" data-uid="lnk17" id="link_Sidebar_principal"><path d="M785.02,222.1969 C773.58,207.1169 756.35,188.4669 736,179.5969 C721.48,173.2669 463.39,181.4569 451,171.5969 C437.22,160.6269 433.5182,146.5379 432.6582,130.8379" fill="none" id="Sidebar-to-principal" style="stroke:#E7E7E7;stroke-width:1;"/><polygon fill="#E7E7E7" points="432.33,124.8469,428.8282,134.0522,432.6035,129.8394,436.8163,133.6146,432.33,124.8469" style="stroke:#E7E7E7;stroke-width:1;"/><text fill="#FFFFFF" font-family="sans-serif" font-size="13" lengthAdjust="spacing" textLength="115.6162" x="452" y="167.6638">Links (if Principal)</text></g><!--link Sidebar to dept--><g class="link" data-entity-1="Sidebar" data-entity-2="dept" data-source-line="24" data-uid="lnk18" id="link_Sidebar_dept"><path d="M779.4,222.2269 C767.81,208.4769 753.91,190.0469 745,171.5969 C737.88,156.8469 734.4837,144.8129 731.7337,130.9029" fill="none" id="Sidebar-to-dept" style="stroke:#E7E7E7;stroke-width:1;"/><polygon fill="#E7E7E7" points="730.57,125.0169,728.3915,134.6218,731.5397,129.9219,736.2396,133.0702,730.57,125.0169" style="stroke:#E7E7E7;stroke-width:1;"/><text fill="#FFFFFF" font-family="sans-serif" font-size="13" lengthAdjust="spacing" textLength="137.1411" x="746" y="167.6638">Links (if Dept Admin)</text></g><!--link Sidebar to teacher--><g class="link" data-entity-1="Sidebar" data-entity-2="teacher" data-source-line="25" data-uid="lnk19" id="link_Sidebar_teacher"><path d="M815.04,222.3369 C826.51,207.3169 843.75,188.6869 864,179.5969 C880.34,172.2569 1011.11,182.8969 1025,171.5969 C1038.57,160.5569 1042.2932,146.6863 1043.2232,131.0763" fill="none" id="Sidebar-to-teacher" style="stroke:#E7E7E7;stroke-width:1;"/><polygon fill="#E7E7E7" points="1043.58,125.0869,1039.0518,133.8331,1043.2826,130.078,1047.0377,134.3088,1043.58,125.0869" style="stroke:#E7E7E7;stroke-width:1;"/><text fill="#FFFFFF" font-family="sans-serif" font-size="13" lengthAdjust="spacing" textLength="112.6265" x="1038" y="167.6638">Links (if Teacher)</text></g><!--link Sidebar to student--><g class="link" data-entity-1="Sidebar" data-entity-2="student" data-source-line="26" data-uid="lnk20" id="link_Sidebar_student"><path d="M784.79,269.1669 C779.3,278.5469 773.78,289.8269 771,300.8869 C767.17,316.1569 767.2707,327.9564 769.0407,341.6464" fill="none" id="Sidebar-to-student" style="stroke:#E7E7E7;stroke-width:1;"/><polygon fill="#E7E7E7" points="769.81,347.5969,772.623,338.1583,769.1689,342.6381,764.689,339.1841,769.81,347.5969" style="stroke:#E7E7E7;stroke-width:1;"/><text fill="#FFFFFF" font-family="sans-serif" font-size="13" lengthAdjust="spacing" textLength="111.1665" x="772" y="313.9538">Links (if Student)</text></g><!--link principal to DataTable--><g class="link" data-entity-1="principal" data-entity-2="DataTable" data-source-line="28" data-uid="lnk21" id="link_principal_DataTable"><path d="M422.12,124.8569 C418.11,133.9069 413.84,144.5769 411,154.5969 C404.6,177.1469 401.5574,197.7808 399.5874,216.2208" fill="none" id="principal-to-DataTable" style="stroke:#E7E7E7;stroke-width:1;"/><polygon fill="#E7E7E7" points="398.95,222.1869,403.8834,213.6627,399.4811,217.2152,395.9287,212.8129,398.95,222.1869" style="stroke:#E7E7E7;stroke-width:1;"/></g><!--link principal to ChartCard--><g class="link" data-entity-1="principal" data-entity-2="ChartCard" data-source-line="29" data-uid="lnk22" id="link_principal_ChartCard"><path d="M419.08,124.8369 C411.65,139.9169 406.21,159.2469 418,171.5969 C431.21,185.4369 572.29,172.3669 590,179.5969 C612.02,188.5769 627.8003,202.7455 641.1903,217.7855" fill="none" id="principal-to-ChartCard" style="stroke:#E7E7E7;stroke-width:1;"/><polygon fill="#E7E7E7" points="645.18,222.2669,642.183,212.8851,641.8553,218.5324,636.2079,218.2047,645.18,222.2669" style="stroke:#E7E7E7;stroke-width:1;"/></g><!--link dept to DataTable--><g class="link" data-entity-1="dept" data-entity-2="DataTable" data-source-line="31" data-uid="lnk23" id="link_dept_DataTable"><path d="M717.31,124.8269 C708.71,144.4769 697.16,170.1569 695,171.5969 C674.16,185.4369 493.21,170.2669 470,179.5969 C447.93,188.4569 432.1521,202.6288 418.7721,217.7088" fill="none" id="dept-to-DataTable" style="stroke:#E7E7E7;stroke-width:1;"/><polygon fill="#E7E7E7" points="414.79,222.1969,423.7552,218.1195,418.1084,218.4568,417.7711,212.81,414.79,222.1969" style="stroke:#E7E7E7;stroke-width:1;"/></g><!--link dept to ChartCard--><g class="link" data-entity-1="dept" data-entity-2="ChartCard" data-source-line="32" data-uid="lnk24" id="link_dept_ChartCard"><path d="M719.8,124.8769 C715.18,138.5669 708.79,156.3169 702,171.5969 C694.28,188.9469 687.0888,202.6259 679.0888,216.8659" fill="none" id="dept-to-ChartCard" style="stroke:#E7E7E7;stroke-width:1;"/><polygon fill="#E7E7E7" points="676.15,222.0969,684.0455,216.2095,678.599,217.7377,677.0708,212.2912,676.15,222.0969" style="stroke:#E7E7E7;stroke-width:1;"/></g><!--link teacher to DataTable--><g class="link" data-entity-1="teacher" data-entity-2="DataTable" data-source-line="34" data-uid="lnk25" id="link_teacher_DataTable"><path d="M1033.22,124.9269 C1024.85,141.1169 1011.1,161.7669 992,171.5969 C966.21,184.8669 497.02,169.0469 470,179.5969 C447.69,188.2969 431.7696,202.669 418.4096,217.879" fill="none" id="teacher-to-DataTable" style="stroke:#E7E7E7;stroke-width:1;"/><polygon fill="#E7E7E7" points="414.45,222.3869,423.3947,218.2647,417.7497,218.6303,417.3842,212.9852,414.45,222.3869" style="stroke:#E7E7E7;stroke-width:1;"/></g><!--link teacher to ChartCard--><g class="link" data-entity-1="teacher" data-entity-2="ChartCard" data-source-line="35" data-uid="lnk26" id="link_teacher_ChartCard"><path d="M1036.27,124.8869 C1030.33,143.9569 1022.01,168.6969 1018,171.5969 C992.6,189.9669 765.13,168.0069 736,179.5969 C713.9,188.3769 698.116,202.5434 684.746,217.6534" fill="none" id="teacher-to-ChartCard" style="stroke:#E7E7E7;stroke-width:1;"/><polygon fill="#E7E7E7" points="680.77,222.1469,689.7297,218.0574,684.0834,218.4023,683.7384,212.756,680.77,222.1469" style="stroke:#E7E7E7;stroke-width:1;"/></g><!--link student to ChartCard--><g class="link" data-entity-1="student" data-entity-2="ChartCard" data-source-line="37" data-uid="lnk27" id="link_student_ChartCard"><path d="M753.77,347.5669 C733.79,325.3669 707.4043,296.0661 687.3743,273.8161" fill="none" id="student-to-ChartCard" style="stroke:#E7E7E7;stroke-width:1;"/><polygon fill="#E7E7E7" points="683.36,269.3569,686.4087,278.722,686.7053,273.0729,692.3544,273.3695,683.36,269.3569" style="stroke:#E7E7E7;stroke-width:1;"/></g><!--link Navbar to auth--><g class="link" data-entity-1="Navbar" data-entity-2="auth" data-source-line="39" data-uid="lnk28" id="link_Navbar_auth"><path d="M912.36,222.1369 C901.15,207.0269 884.21,188.3569 864,179.5969 C839.53,168.9769 410.2,176.5569 384,171.5969 C335.15,162.3369 287.7653,143.8407 251.1053,127.4107" fill="none" id="Navbar-to-auth" style="stroke:#E7E7E7;stroke-width:1;"/><polygon fill="#E7E7E7" points="245.63,124.9569,252.207,132.2878,250.1927,127.0018,255.4788,124.9875,245.63,124.9569" style="stroke:#E7E7E7;stroke-width:1;"/><text fill="#FFFFFF" font-family="sans-serif" font-size="13" lengthAdjust="spacing" textLength="44.7383" x="385" y="167.6638">Logout</text></g><!--link Navbar to student--><g class="link" data-entity-1="Navbar" data-entity-2="student" data-source-line="40" data-uid="lnk29" id="link_Navbar_student"><path d="M918.99,269.3869 C912.6,284.7269 902.34,304.5569 888,317.8869 C874.85,330.1169 863.7778,337.341 847.4378,344.961" fill="none" id="Navbar-to-student" style="stroke:#E7E7E7;stroke-width:1;"/><polygon fill="#E7E7E7" points="842,347.4969,851.8472,347.3183,846.5315,345.3837,848.4661,340.0679,842,347.4969" style="stroke:#E7E7E7;stroke-width:1;"/><text fill="#FFFFFF" font-family="sans-serif" font-size="13" lengthAdjust="spacing" textLength="81.3643" x="903" y="313.9538">Notifications</text></g><!--link Navbar to teacher--><g class="link" data-entity-1="Navbar" data-entity-2="teacher" data-source-line="41" data-uid="lnk30" id="link_Navbar_teacher"><path d="M972.57,238.1169 C1038.2,227.5369 1154.21,204.6069 1179,171.5969 C1200.55,142.8969 1167.016,126.6414 1125.186,116.3414" fill="none" id="Navbar-to-teacher" style="stroke:#E7E7E7;stroke-width:1;"/><polygon fill="#E7E7E7" points="1119.36,114.9069,1127.1426,120.9427,1124.215,116.1023,1129.0553,113.1747,1119.36,114.9069" style="stroke:#E7E7E7;stroke-width:1;"/><text fill="#FFFFFF" font-family="sans-serif" font-size="13" lengthAdjust="spacing" textLength="81.3643" x="1186" y="167.6638">Notifications</text></g><!--link Navbar to dept--><g class="link" data-entity-1="Navbar" data-entity-2="dept" data-source-line="42" data-uid="lnk31" id="link_Navbar_dept"><path d="M922.81,222.4169 C917.86,202.0469 907.68,172.4869 888,154.5969 C868.11,136.5069 847.6128,126.4248 822.1028,118.7048" fill="none" id="Navbar-to-dept" style="stroke:#E7E7E7;stroke-width:1;"/><polygon fill="#E7E7E7" points="816.36,116.9669,823.8156,123.4023,821.1457,118.4151,826.1328,115.7452,816.36,116.9669" style="stroke:#E7E7E7;stroke-width:1;"/><text fill="#FFFFFF" font-family="sans-serif" font-size="13" lengthAdjust="spacing" textLength="81.3643" x="902" y="167.6638">Notifications</text></g><!--link Navbar to principal--><g class="link" data-entity-1="Navbar" data-entity-2="principal" data-source-line="43" data-uid="lnk32" id="link_Navbar_principal"><path d="M912.31,222.2569 C901.07,207.2069 884.12,188.5669 864,179.5969 C841.96,169.7669 670.76,175.7869 647,171.5969 C591.63,161.8169 536.4476,143.3011 493.8576,127.0911" fill="none" id="Navbar-to-principal" style="stroke:#E7E7E7;stroke-width:1;"/><polygon fill="#E7E7E7" points="488.25,124.9569,495.2385,131.8967,492.923,126.7354,498.0842,124.4199,488.25,124.9569" style="stroke:#E7E7E7;stroke-width:1;"/><text fill="#FFFFFF" font-family="sans-serif" font-size="13" lengthAdjust="spacing" textLength="81.3643" x="648" y="167.6638">Notifications</text></g><g class="footer" data-source-line="45"><text fill="#777777" font-family="sans-serif" font-size="10" lengthAdjust="spacing" textLength="77.0361" x="616.4819" y="425.4691">--&gt; All modules</text></g><!--SRC=[TP91QiCm44NtEiNGLRB81Reec8H0e4r37BefMIZMn1Qn9IEFkocvUoNBbgMKWC7C_m_Dw8z8KetmjSjtdtlO6gq8bO3C59KaBAWt28iZyeAMZBMykF4IuILmteBya2rVu9S1sEyxwwc23otw6i_0E-2sTlh1I5N8bjUGYKQg66adot4RREa_8gpgt9FjMA69BVAIStFg1IgAtSvBVhXmXRpY1WMiTTDgPUtEp- -Ea08lt9nzjUS_Sx7Lcd0gDfpuYLzi5r-lxOcqvaQCzS5ebo2Ae-vfWExipfXB0rQhDnZxm2iSTOsh2-_iF0sgVaRI8mRI_SlUTf6gPDCHZWqHMknTgbi72tc5aFaoWLsO2JTdde9Zj0axRY05nvGJS5o6UpbXECU6v1xqa21Zmu0f6wG8cyPBoLYDu6d41zblU527uEqDT6bpZetvTdjDyYeBJbAhBaRcf9uYO-fF_NY5ASJyonkehAwX6PvtzmS0]--></g></svg>