<svg xmlns="http://www.w3.org/2000/svg" xmlns:xlink="http://www.w3.org/1999/xlink" contentStyleType="text/css" data-diagram-type="CLASS" height="436px" preserveAspectRatio="none" style="width:1560px;height:436px;background:#1B1B1B;" version="1.1" viewBox="0 0 1560 436" width="1560px" zoomAndPan="magnify"><title>Analytics Service - ER Diagram</title><defs/><g><rect fill="#1B1B1B" height="436" style="stroke:none;stroke-width:1;" width="1560" x="0" y="0"/><g class="title" data-source-line="1"><text fill="#FFFFFF" font-family="sans-serif" font-size="14" font-weight="bold" lengthAdjust="spacing" textLength="242.9766" x="651.6874" y="22.9951">Analytics Service - ER Diagram</text></g><!--class AttendanceSummary--><g class="entity" data-entity="AttendanceSummary" data-source-line="3" data-uid="ent0002" id="entity_AttendanceSummary"><rect fill="#313139" height="194.6719" rx="2.5" ry="2.5" style="stroke:#E7E7E7;stroke-width:0.5;" width="200.043" x="7" y="52.4469"/><ellipse cx="30.8633" cy="68.4469" fill="#2E5233" rx="11" ry="11" style="stroke:#E7E7E7;stroke-width:1;"/><path d="M34.9727,74.4469 L27.254,74.4469 L27.254,62.0563 L34.9727,62.0563 L34.9727,64.2125 L29.7071,64.2125 L29.7071,66.8844 L34.4727,66.8844 L34.4727,69.0406 L29.7071,69.0406 L29.7071,72.2906 L34.9727,72.2906 L34.9727,74.4469 Z " fill="#FFFFFF"/><text fill="#FFFFFF" font-family="sans-serif" font-size="14" lengthAdjust="spacing" textLength="148.3467" x="46.833" y="73.2936">AttendanceSummary</text><line style="stroke:#E7E7E7;stroke-width:0.5;" x1="8" x2="206.043" y1="84.4469" y2="84.4469"/><ellipse cx="18" cy="98.0953" fill="#000000" rx="3" ry="3" style="stroke:#000000;stroke-width:1;"/><text fill="#FFFFFF" font-family="sans-serif" font-size="14" lengthAdjust="spacing" textLength="134.8594" x="27" y="101.442">summary_id : UUID</text><ellipse cx="18" cy="114.3922" fill="#000000" rx="3" ry="3" style="stroke:#000000;stroke-width:1;"/><text fill="#FFFFFF" font-family="sans-serif" font-size="14" lengthAdjust="spacing" textLength="103.5508" x="27" y="117.7389">class_id : UUID</text><ellipse cx="18" cy="130.6891" fill="#000000" rx="3" ry="3" style="stroke:#000000;stroke-width:1;"/><text fill="#FFFFFF" font-family="sans-serif" font-size="14" lengthAdjust="spacing" textLength="119.54" x="27" y="134.0357">subject_id : UUID</text><ellipse cx="18" cy="146.9859" fill="#000000" rx="3" ry="3" style="stroke:#000000;stroke-width:1;"/><text fill="#FFFFFF" font-family="sans-serif" font-size="14" lengthAdjust="spacing" textLength="82.9404" x="27" y="150.3326">date : DATE</text><ellipse cx="18" cy="163.2828" fill="#000000" rx="3" ry="3" style="stroke:#000000;stroke-width:1;"/><text fill="#FFFFFF" font-family="sans-serif" font-size="14" lengthAdjust="spacing" textLength="136.5957" x="27" y="166.6295">total_students : INT</text><ellipse cx="18" cy="179.5797" fill="#000000" rx="3" ry="3" style="stroke:#000000;stroke-width:1;"/><text fill="#FFFFFF" font-family="sans-serif" font-size="14" lengthAdjust="spacing" textLength="136.7939" x="27" y="182.9264">present_count : INT</text><ellipse cx="18" cy="195.8766" fill="#000000" rx="3" ry="3" style="stroke:#000000;stroke-width:1;"/><text fill="#FFFFFF" font-family="sans-serif" font-size="14" lengthAdjust="spacing" textLength="131.0039" x="27" y="199.2232">absent_count : INT</text><ellipse cx="18" cy="212.1734" fill="#000000" rx="3" ry="3" style="stroke:#000000;stroke-width:1;"/><text fill="#FFFFFF" font-family="sans-serif" font-size="14" lengthAdjust="spacing" textLength="169.4629" x="27" y="215.5201">created_at : TIMESTAMP</text><ellipse cx="18" cy="228.4703" fill="#000000" rx="3" ry="3" style="stroke:#000000;stroke-width:1;"/><text fill="#FFFFFF" font-family="sans-serif" font-size="14" lengthAdjust="spacing" textLength="174.043" x="27" y="231.817">updated_at : TIMESTAMP</text><line style="stroke:#E7E7E7;stroke-width:0.5;" x1="8" x2="206.043" y1="239.1188" y2="239.1188"/></g><!--class StudentStats--><g class="entity" data-entity="StudentStats" data-source-line="15" data-uid="ent0003" id="entity_StudentStats"><rect fill="#313139" height="210.9688" rx="2.5" ry="2.5" style="stroke:#E7E7E7;stroke-width:0.5;" width="251.3193" x="648.36" y="44.2969"/><ellipse cx="684.8602" cy="60.2969" fill="#2E5233" rx="11" ry="11" style="stroke:#E7E7E7;stroke-width:1;"/><path d="M688.9696,66.2969 L681.2509,66.2969 L681.2509,53.9063 L688.9696,53.9063 L688.9696,56.0625 L683.704,56.0625 L683.704,58.7344 L688.4696,58.7344 L688.4696,60.8906 L683.704,60.8906 L683.704,64.1406 L688.9696,64.1406 L688.9696,66.2969 Z " fill="#FFFFFF"/><text fill="#FFFFFF" font-family="sans-serif" font-size="14" lengthAdjust="spacing" textLength="171.541" x="703.6381" y="65.1436">StudentAttendanceStats</text><line style="stroke:#E7E7E7;stroke-width:0.5;" x1="649.36" x2="898.6793" y1="76.2969" y2="76.2969"/><ellipse cx="659.36" cy="89.9453" fill="#000000" rx="3" ry="3" style="stroke:#000000;stroke-width:1;"/><text fill="#FFFFFF" font-family="sans-serif" font-size="14" lengthAdjust="spacing" textLength="102.9424" x="668.36" y="93.292">stats_id : UUID</text><ellipse cx="659.36" cy="106.2422" fill="#000000" rx="3" ry="3" style="stroke:#000000;stroke-width:1;"/><text fill="#FFFFFF" font-family="sans-serif" font-size="14" lengthAdjust="spacing" textLength="122.3154" x="668.36" y="109.5889">student_id : UUID</text><ellipse cx="659.36" cy="122.5391" fill="#000000" rx="3" ry="3" style="stroke:#000000;stroke-width:1;"/><text fill="#FFFFFF" font-family="sans-serif" font-size="14" lengthAdjust="spacing" textLength="103.5508" x="668.36" y="125.8857">class_id : UUID</text><ellipse cx="659.36" cy="138.8359" fill="#000000" rx="3" ry="3" style="stroke:#000000;stroke-width:1;"/><text fill="#FFFFFF" font-family="sans-serif" font-size="14" lengthAdjust="spacing" textLength="119.54" x="668.36" y="142.1826">subject_id : UUID</text><ellipse cx="659.36" cy="155.1328" fill="#000000" rx="3" ry="3" style="stroke:#000000;stroke-width:1;"/><text fill="#FFFFFF" font-family="sans-serif" font-size="14" lengthAdjust="spacing" textLength="134.9004" x="668.36" y="158.4795">total_sessions : INT</text><ellipse cx="659.36" cy="171.4297" fill="#000000" rx="3" ry="3" style="stroke:#000000;stroke-width:1;"/><text fill="#FFFFFF" font-family="sans-serif" font-size="14" lengthAdjust="spacing" textLength="166.3184" x="668.36" y="174.7764">attended_sessions : INT</text><ellipse cx="659.36" cy="187.7266" fill="#000000" rx="3" ry="3" style="stroke:#000000;stroke-width:1;"/><text fill="#FFFFFF" font-family="sans-serif" font-size="14" lengthAdjust="spacing" textLength="150.623" x="668.36" y="191.0732">absent_sessions : INT</text><ellipse cx="659.36" cy="204.0234" fill="#000000" rx="3" ry="3" style="stroke:#000000;stroke-width:1;"/><text fill="#FFFFFF" font-family="sans-serif" font-size="14" lengthAdjust="spacing" textLength="225.3193" x="668.36" y="207.3701">attendance_percentage : FLOAT</text><ellipse cx="659.36" cy="220.3203" fill="#000000" rx="3" ry="3" style="stroke:#000000;stroke-width:1;"/><text fill="#FFFFFF" font-family="sans-serif" font-size="14" lengthAdjust="spacing" textLength="169.4629" x="668.36" y="223.667">created_at : TIMESTAMP</text><ellipse cx="659.36" cy="236.6172" fill="#000000" rx="3" ry="3" style="stroke:#000000;stroke-width:1;"/><text fill="#FFFFFF" font-family="sans-serif" font-size="14" lengthAdjust="spacing" textLength="174.043" x="668.36" y="239.9639">updated_at : TIMESTAMP</text><line style="stroke:#E7E7E7;stroke-width:0.5;" x1="649.36" x2="898.6793" y1="247.2656" y2="247.2656"/></g><!--class RecognitionMetrics--><g class="entity" data-entity="RecognitionMetrics" data-source-line="28" data-uid="ent0004" id="entity_RecognitionMetrics"><rect fill="#313139" height="178.375" rx="2.5" ry="2.5" style="stroke:#E7E7E7;stroke-width:0.5;" width="225.5684" x="1085.24" y="60.5969"/><ellipse cx="1127.0959" cy="76.5969" fill="#2E5233" rx="11" ry="11" style="stroke:#E7E7E7;stroke-width:1;"/><path d="M1131.2052,82.5969 L1123.4865,82.5969 L1123.4865,70.2063 L1131.2052,70.2063 L1131.2052,72.3625 L1125.9396,72.3625 L1125.9396,75.0344 L1130.7052,75.0344 L1130.7052,77.1906 L1125.9396,77.1906 L1125.9396,80.4406 L1131.2052,80.4406 L1131.2052,82.5969 Z " fill="#FFFFFF"/><text fill="#FFFFFF" font-family="sans-serif" font-size="14" lengthAdjust="spacing" textLength="133.8887" x="1147.0638" y="81.4436">RecognitionMetrics</text><line style="stroke:#E7E7E7;stroke-width:0.5;" x1="1086.24" x2="1309.8084" y1="92.5969" y2="92.5969"/><ellipse cx="1096.24" cy="106.2453" fill="#000000" rx="3" ry="3" style="stroke:#000000;stroke-width:1;"/><text fill="#FFFFFF" font-family="sans-serif" font-size="14" lengthAdjust="spacing" textLength="121.1738" x="1105.24" y="109.592">metrics_id : UUID</text><ellipse cx="1096.24" cy="122.5422" fill="#000000" rx="3" ry="3" style="stroke:#000000;stroke-width:1;"/><text fill="#FFFFFF" font-family="sans-serif" font-size="14" lengthAdjust="spacing" textLength="120.6201" x="1105.24" y="125.8889">session_id : UUID</text><ellipse cx="1096.24" cy="138.8391" fill="#000000" rx="3" ry="3" style="stroke:#000000;stroke-width:1;"/><text fill="#FFFFFF" font-family="sans-serif" font-size="14" lengthAdjust="spacing" textLength="112.8955" x="1105.24" y="142.1857">total_faces : INT</text><ellipse cx="1096.24" cy="155.1359" fill="#000000" rx="3" ry="3" style="stroke:#000000;stroke-width:1;"/><text fill="#FFFFFF" font-family="sans-serif" font-size="14" lengthAdjust="spacing" textLength="158.0127" x="1105.24" y="158.4826">recognized_faces : INT</text><ellipse cx="1096.24" cy="171.4328" fill="#000000" rx="3" ry="3" style="stroke:#000000;stroke-width:1;"/><text fill="#FFFFFF" font-family="sans-serif" font-size="14" lengthAdjust="spacing" textLength="175.7588" x="1105.24" y="174.7795">unrecognized_faces : INT</text><ellipse cx="1096.24" cy="187.7297" fill="#000000" rx="3" ry="3" style="stroke:#000000;stroke-width:1;"/><text fill="#FFFFFF" font-family="sans-serif" font-size="14" lengthAdjust="spacing" textLength="199.5684" x="1105.24" y="191.0764">average_confidence : FLOAT</text><ellipse cx="1096.24" cy="204.0266" fill="#000000" rx="3" ry="3" style="stroke:#000000;stroke-width:1;"/><text fill="#FFFFFF" font-family="sans-serif" font-size="14" lengthAdjust="spacing" textLength="170.666" x="1105.24" y="207.3732">model_version_id : UUID</text><ellipse cx="1096.24" cy="220.3234" fill="#000000" rx="3" ry="3" style="stroke:#000000;stroke-width:1;"/><text fill="#FFFFFF" font-family="sans-serif" font-size="14" lengthAdjust="spacing" textLength="169.4629" x="1105.24" y="223.6701">created_at : TIMESTAMP</text><line style="stroke:#E7E7E7;stroke-width:0.5;" x1="1086.24" x2="1309.8084" y1="230.9719" y2="230.9719"/></g><!--class TeacherPerformance--><g class="entity" data-entity="TeacherPerformance" data-source-line="39" data-uid="ent0005" id="entity_TeacherPerformance"><rect fill="#313139" height="178.375" rx="2.5" ry="2.5" style="stroke:#E7E7E7;stroke-width:0.5;" width="284.0703" x="328.99" y="60.5969"/><ellipse cx="393.7024" cy="76.5969" fill="#2E5233" rx="11" ry="11" style="stroke:#E7E7E7;stroke-width:1;"/><path d="M397.8118,82.5969 L390.093,82.5969 L390.093,70.2063 L397.8118,70.2063 L397.8118,72.3625 L392.5462,72.3625 L392.5462,75.0344 L397.3118,75.0344 L397.3118,77.1906 L392.5462,77.1906 L392.5462,80.4406 L397.8118,80.4406 L397.8118,82.5969 Z " fill="#FFFFFF"/><text fill="#FFFFFF" font-family="sans-serif" font-size="14" lengthAdjust="spacing" textLength="146.1455" x="414.2024" y="81.4436">TeacherPerformance</text><line style="stroke:#E7E7E7;stroke-width:0.5;" x1="329.99" x2="612.0603" y1="92.5969" y2="92.5969"/><ellipse cx="339.99" cy="106.2453" fill="#000000" rx="3" ry="3" style="stroke:#000000;stroke-width:1;"/><text fill="#FFFFFF" font-family="sans-serif" font-size="14" lengthAdjust="spacing" textLength="158.7031" x="348.99" y="109.592">performance_id : UUID</text><ellipse cx="339.99" cy="122.5422" fill="#000000" rx="3" ry="3" style="stroke:#000000;stroke-width:1;"/><text fill="#FFFFFF" font-family="sans-serif" font-size="14" lengthAdjust="spacing" textLength="122.418" x="348.99" y="125.8889">teacher_id : UUID</text><ellipse cx="339.99" cy="138.8391" fill="#000000" rx="3" ry="3" style="stroke:#000000;stroke-width:1;"/><text fill="#FFFFFF" font-family="sans-serif" font-size="14" lengthAdjust="spacing" textLength="103.5508" x="348.99" y="142.1857">class_id : UUID</text><ellipse cx="339.99" cy="155.1359" fill="#000000" rx="3" ry="3" style="stroke:#000000;stroke-width:1;"/><text fill="#FFFFFF" font-family="sans-serif" font-size="14" lengthAdjust="spacing" textLength="119.54" x="348.99" y="158.4826">subject_id : UUID</text><ellipse cx="339.99" cy="171.4328" fill="#000000" rx="3" ry="3" style="stroke:#000000;stroke-width:1;"/><text fill="#FFFFFF" font-family="sans-serif" font-size="14" lengthAdjust="spacing" textLength="134.9004" x="348.99" y="174.7795">total_sessions : INT</text><ellipse cx="339.99" cy="187.7297" fill="#000000" rx="3" ry="3" style="stroke:#000000;stroke-width:1;"/><text fill="#FFFFFF" font-family="sans-serif" font-size="14" lengthAdjust="spacing" textLength="258.0703" x="348.99" y="191.0764">avg_attendance_percentage : FLOAT</text><ellipse cx="339.99" cy="204.0266" fill="#000000" rx="3" ry="3" style="stroke:#000000;stroke-width:1;"/><text fill="#FFFFFF" font-family="sans-serif" font-size="14" lengthAdjust="spacing" textLength="169.4629" x="348.99" y="207.3732">created_at : TIMESTAMP</text><ellipse cx="339.99" cy="220.3234" fill="#000000" rx="3" ry="3" style="stroke:#000000;stroke-width:1;"/><text fill="#FFFFFF" font-family="sans-serif" font-size="14" lengthAdjust="spacing" textLength="174.043" x="348.99" y="223.6701">updated_at : TIMESTAMP</text><line style="stroke:#E7E7E7;stroke-width:0.5;" x1="329.99" x2="612.0603" y1="230.9719" y2="230.9719"/></g><!--class Class--><g class="entity" data-entity="Class" data-source-line="50" data-uid="ent0006" id="entity_Class"><rect fill="#313139" height="96.8906" rx="2.5" ry="2.5" style="stroke:#E7E7E7;stroke-width:0.5;" width="147.8096" x="496.12" y="332.2669"/><ellipse cx="547.3588" cy="348.2669" fill="#2E5233" rx="11" ry="11" style="stroke:#E7E7E7;stroke-width:1;"/><path d="M551.4681,354.2669 L543.7494,354.2669 L543.7494,341.8763 L551.4681,341.8763 L551.4681,344.0325 L546.2025,344.0325 L546.2025,346.7044 L550.9681,346.7044 L550.9681,348.8606 L546.2025,348.8606 L546.2025,352.1106 L551.4681,352.1106 L551.4681,354.2669 Z " fill="#FFFFFF"/><text fill="#FFFFFF" font-family="sans-serif" font-size="14" lengthAdjust="spacing" textLength="36.832" x="567.8588" y="353.1136">Class</text><line style="stroke:#E7E7E7;stroke-width:0.5;" x1="497.12" x2="642.9296" y1="364.2669" y2="364.2669"/><ellipse cx="507.12" cy="377.9153" fill="#000000" rx="3" ry="3" style="stroke:#000000;stroke-width:1;"/><text fill="#FFFFFF" font-family="sans-serif" font-size="14" lengthAdjust="spacing" textLength="103.5508" x="516.12" y="381.262">class_id : UUID</text><ellipse cx="507.12" cy="394.2122" fill="#000000" rx="3" ry="3" style="stroke:#000000;stroke-width:1;"/><text fill="#FFFFFF" font-family="sans-serif" font-size="14" lengthAdjust="spacing" textLength="100.6729" x="516.12" y="397.5589">dept_id : UUID</text><ellipse cx="507.12" cy="410.5091" fill="#000000" rx="3" ry="3" style="stroke:#000000;stroke-width:1;"/><text fill="#FFFFFF" font-family="sans-serif" font-size="14" lengthAdjust="spacing" textLength="121.8096" x="516.12" y="413.8557">name : VARCHAR</text><line style="stroke:#E7E7E7;stroke-width:0.5;" x1="497.12" x2="642.9296" y1="421.1575" y2="421.1575"/></g><!--class Student--><g class="entity" data-entity="Student" data-source-line="56" data-uid="ent0007" id="entity_Student"><rect fill="#313139" height="64.2969" rx="2.5" ry="2.5" style="stroke:#E7E7E7;stroke-width:0.5;" width="148.3154" x="1128.86" y="348.5669"/><ellipse cx="1171.4018" cy="364.5669" fill="#2E5233" rx="11" ry="11" style="stroke:#E7E7E7;stroke-width:1;"/><path d="M1175.5112,370.5669 L1167.7925,370.5669 L1167.7925,358.1763 L1175.5112,358.1763 L1175.5112,360.3325 L1170.2456,360.3325 L1170.2456,363.0044 L1175.0112,363.0044 L1175.0112,365.1606 L1170.2456,365.1606 L1170.2456,368.4106 L1175.5112,368.4106 L1175.5112,370.5669 Z " fill="#FFFFFF"/><text fill="#FFFFFF" font-family="sans-serif" font-size="14" lengthAdjust="spacing" textLength="55.1113" x="1191.5223" y="369.4136">Student</text><line style="stroke:#E7E7E7;stroke-width:0.5;" x1="1129.86" x2="1276.1754" y1="380.5669" y2="380.5669"/><ellipse cx="1139.86" cy="394.2153" fill="#000000" rx="3" ry="3" style="stroke:#000000;stroke-width:1;"/><text fill="#FFFFFF" font-family="sans-serif" font-size="14" lengthAdjust="spacing" textLength="122.3154" x="1148.86" y="397.562">student_id : UUID</text><line style="stroke:#E7E7E7;stroke-width:0.5;" x1="1129.86" x2="1276.1754" y1="404.8638" y2="404.8638"/></g><!--class Teacher--><g class="entity" data-entity="Teacher" data-source-line="60" data-uid="ent0008" id="entity_Teacher"><rect fill="#313139" height="64.2969" rx="2.5" ry="2.5" style="stroke:#E7E7E7;stroke-width:0.5;" width="148.418" x="860.81" y="348.5669"/><ellipse cx="902.6905" cy="364.5669" fill="#2E5233" rx="11" ry="11" style="stroke:#E7E7E7;stroke-width:1;"/><path d="M906.7998,370.5669 L899.0811,370.5669 L899.0811,358.1763 L906.7998,358.1763 L906.7998,360.3325 L901.5342,360.3325 L901.5342,363.0044 L906.2998,363.0044 L906.2998,365.1606 L901.5342,365.1606 L901.5342,368.4106 L906.7998,368.4106 L906.7998,370.5669 Z " fill="#FFFFFF"/><text fill="#FFFFFF" font-family="sans-serif" font-size="14" lengthAdjust="spacing" textLength="56.6836" x="922.6639" y="369.4136">Teacher</text><line style="stroke:#E7E7E7;stroke-width:0.5;" x1="861.81" x2="1008.228" y1="380.5669" y2="380.5669"/><ellipse cx="871.81" cy="394.2153" fill="#000000" rx="3" ry="3" style="stroke:#000000;stroke-width:1;"/><text fill="#FFFFFF" font-family="sans-serif" font-size="14" lengthAdjust="spacing" textLength="122.418" x="880.81" y="397.562">teacher_id : UUID</text><line style="stroke:#E7E7E7;stroke-width:0.5;" x1="861.81" x2="1008.228" y1="404.8638" y2="404.8638"/></g><!--class Subject--><g class="entity" data-entity="Subject" data-source-line="64" data-uid="ent0009" id="entity_Subject"><rect fill="#313139" height="64.2969" rx="2.5" ry="2.5" style="stroke:#E7E7E7;stroke-width:0.5;" width="145.54" x="160.25" y="348.5669"/><ellipse cx="202.7918" cy="364.5669" fill="#2E5233" rx="11" ry="11" style="stroke:#E7E7E7;stroke-width:1;"/><path d="M206.9012,370.5669 L199.1825,370.5669 L199.1825,358.1763 L206.9012,358.1763 L206.9012,360.3325 L201.6356,360.3325 L201.6356,363.0044 L206.4012,363.0044 L206.4012,365.1606 L201.6356,365.1606 L201.6356,368.4106 L206.9012,368.4106 L206.9012,370.5669 Z " fill="#FFFFFF"/><text fill="#FFFFFF" font-family="sans-serif" font-size="14" lengthAdjust="spacing" textLength="52.3359" x="222.9123" y="369.4136">Subject</text><line style="stroke:#E7E7E7;stroke-width:0.5;" x1="161.25" x2="304.79" y1="380.5669" y2="380.5669"/><ellipse cx="171.25" cy="394.2153" fill="#000000" rx="3" ry="3" style="stroke:#000000;stroke-width:1;"/><text fill="#FFFFFF" font-family="sans-serif" font-size="14" lengthAdjust="spacing" textLength="119.54" x="180.25" y="397.562">subject_id : UUID</text><line style="stroke:#E7E7E7;stroke-width:0.5;" x1="161.25" x2="304.79" y1="404.8638" y2="404.8638"/></g><!--class RecognitionJob--><g class="entity" data-entity="RecognitionJob" data-source-line="77" data-uid="ent0019" id="entity_RecognitionJob"><rect fill="#313139" height="48" rx="2.5" ry="2.5" style="stroke:#E7E7E7;stroke-width:0.5;" width="136.6514" x="1416.7" y="356.7069"/><ellipse cx="1431.7" cy="372.7069" fill="#2E5233" rx="11" ry="11" style="stroke:#E7E7E7;stroke-width:1;"/><path d="M1434.6688,378.3475 Q1434.0906,378.6444 1433.45,378.785 Q1432.8094,378.9413 1432.1063,378.9413 Q1429.6063,378.9413 1428.2781,377.3006 Q1426.9656,375.6444 1426.9656,372.5194 Q1426.9656,369.3944 1428.2781,367.7381 Q1429.6063,366.0819 1432.1063,366.0819 Q1432.8094,366.0819 1433.45,366.2381 Q1434.1063,366.3944 1434.6688,366.6913 L1434.6688,369.41 Q1434.0438,368.8319 1433.45,368.5663 Q1432.8563,368.285 1432.2313,368.285 Q1430.8875,368.285 1430.2,369.3631 Q1429.5125,370.4256 1429.5125,372.5194 Q1429.5125,374.6131 1430.2,375.6913 Q1430.8875,376.7538 1432.2313,376.7538 Q1432.8563,376.7538 1433.45,376.4881 Q1434.0438,376.2069 1434.6688,375.6288 L1434.6688,378.3475 Z " fill="#FFFFFF"/><text fill="#FFFFFF" font-family="sans-serif" font-size="14" lengthAdjust="spacing" textLength="104.6514" x="1445.7" y="377.5536">RecognitionJob</text><line style="stroke:#E7E7E7;stroke-width:0.5;" x1="1417.7" x2="1552.3514" y1="388.7069" y2="388.7069"/><line style="stroke:#E7E7E7;stroke-width:0.5;" x1="1417.7" x2="1552.3514" y1="396.7069" y2="396.7069"/></g><!--link AttendanceSummary to Class--><g class="link" data-entity-1="AttendanceSummary" data-entity-2="Class" data-source-line="68" data-uid="lnk10" id="link_AttendanceSummary_Class"><path codeLine="68" d="M214.5265,206.4913 C247.4565,223.4013 277.16,238.4669 311.02,255.2669 C373.02,286.0369 436.6737,316.5746 488.5937,341.2346" fill="none" id="AttendanceSummary-Class" style="stroke:#E7E7E7;stroke-width:1;"/><line style="stroke:#E7E7E7;stroke-width:1;" x1="209.141" x2="212.7955" y1="208.2224" y2="201.1058"/><line style="stroke:#E7E7E7;stroke-width:1;" x1="211.8098" x2="215.4642" y1="209.5928" y2="202.4762"/><line style="stroke:#E7E7E7;stroke-width:1;" x1="214.5265" x2="207.41" y1="206.4913" y2="202.8369"/><line style="stroke:#E7E7E7;stroke-width:1;" x1="493.9229" x2="490.4907" y1="339.3376" y2="346.5639"/><line style="stroke:#E7E7E7;stroke-width:1;" x1="491.2131" x2="487.7808" y1="338.0505" y2="345.2768"/><line style="stroke:#E7E7E7;stroke-width:1;" x1="488.5937" x2="495.82" y1="341.2346" y2="344.6669"/><text fill="#FFFFFF" font-family="sans-serif" font-size="13" lengthAdjust="spacing" textLength="70.6304" x="405.02" y="298.3338">belongs_to</text></g><!--link AttendanceSummary to Subject--><g class="link" data-entity-1="AttendanceSummary" data-entity-2="Subject" data-source-line="69" data-uid="lnk11" id="link_AttendanceSummary_Subject"><path codeLine="69" d="M50.6784,255.096 C46.5484,274.186 49.24,285.6269 60.02,302.2669 C82.21,336.5069 115.8123,353.4988 152.4923,364.2388" fill="none" id="AttendanceSummary-Subject" style="stroke:#E7E7E7;stroke-width:1;"/><line style="stroke:#E7E7E7;stroke-width:1;" x1="47.6146" x2="55.4337" y1="250.3406" y2="252.0322"/><line style="stroke:#E7E7E7;stroke-width:1;" x1="46.9803" x2="54.7994" y1="253.2728" y2="254.9644"/><line style="stroke:#E7E7E7;stroke-width:1;" x1="50.6784" x2="52.37" y1="255.096" y2="247.2769"/><line style="stroke:#E7E7E7;stroke-width:1;" x1="157.4552" x2="155.2072" y1="361.524" y2="369.2017"/><line style="stroke:#E7E7E7;stroke-width:1;" x1="154.5761" x2="152.328" y1="360.681" y2="368.3587"/><line style="stroke:#E7E7E7;stroke-width:1;" x1="152.4923" x2="160.17" y1="364.2388" y2="366.4869"/><text fill="#FFFFFF" font-family="sans-serif" font-size="13" lengthAdjust="spacing" textLength="71.4937" x="61.02" y="298.3338">for_subject</text></g><!--link StudentStats to Student--><g class="link" data-entity-1="StudentStats" data-entity-2="Student" data-source-line="70" data-uid="lnk12" id="link_StudentStats_Student"><path codeLine="70" d="M907.3509,209.0036 C957.6009,232.0636 1008.19,256.7869 1059.02,285.2669 C1093.45,304.5569 1124.0655,324.5377 1152.0355,343.7477" fill="none" id="StudentStats-Student" style="stroke:#E7E7E7;stroke-width:1;"/><line style="stroke:#E7E7E7;stroke-width:1;" x1="902.0471" x2="905.3838" y1="210.9707" y2="203.6997"/><line style="stroke:#E7E7E7;stroke-width:1;" x1="904.7737" x2="908.1104" y1="212.2219" y2="204.951"/><line style="stroke:#E7E7E7;stroke-width:1;" x1="907.3509" x2="900.08" y1="209.0036" y2="205.6669"/><line style="stroke:#E7E7E7;stroke-width:1;" x1="1157.5973" x2="1153.0682" y1="342.7151" y2="349.3095"/><line style="stroke:#E7E7E7;stroke-width:1;" x1="1155.1244" x2="1150.5953" y1="341.0167" y2="347.6111"/><line style="stroke:#E7E7E7;stroke-width:1;" x1="1152.0355" x2="1158.63" y1="343.7477" y2="348.2769"/><text fill="#FFFFFF" font-family="sans-serif" font-size="13" lengthAdjust="spacing" textLength="58.792" x="1088.02" y="298.3338">linked_to</text></g><!--link StudentStats to Class--><g class="link" data-entity-1="StudentStats" data-entity-2="Class" data-source-line="71" data-uid="lnk13" id="link_StudentStats_Class"><path codeLine="71" d="M643.8941,261.1925 C634.5541,270.9025 631.16,275.1469 623.02,285.2669 C611.59,299.4769 605.0232,309.4441 596.5432,325.0841" fill="none" id="StudentStats-Class" style="stroke:#E7E7E7;stroke-width:1;"/><line style="stroke:#E7E7E7;stroke-width:1;" x1="643.7842" x2="649.5498" y1="255.5367" y2="261.0827"/><line style="stroke:#E7E7E7;stroke-width:1;" x1="641.7045" x2="647.4701" y1="257.6988" y2="263.2448"/><line style="stroke:#E7E7E7;stroke-width:1;" x1="643.8941" x2="649.44" y1="261.1925" y2="255.4269"/><line style="stroke:#E7E7E7;stroke-width:1;" x1="598.153" x2="591.1202" y1="330.5071" y2="326.6939"/><line style="stroke:#E7E7E7;stroke-width:1;" x1="599.5829" x2="592.5501" y1="327.8698" y2="324.0566"/><line style="stroke:#E7E7E7;stroke-width:1;" x1="596.5432" x2="592.73" y1="325.0841" y2="332.1169"/><text fill="#FFFFFF" font-family="sans-serif" font-size="13" lengthAdjust="spacing" textLength="70.6304" x="624.02" y="298.3338">belongs_to</text></g><!--link StudentStats to Subject--><g class="link" data-entity-1="StudentStats" data-entity-2="Subject" data-source-line="72" data-uid="lnk14" id="link_StudentStats_Subject"><path codeLine="72" d="M640.9621,251.3767 C635.2921,254.0867 636.78,253.0969 631.02,255.2669 C560.65,281.7469 358.39,246.4169 294.02,285.2669 C270.46,299.4869 257.6367,319.4032 247.9167,340.9732" fill="none" id="StudentStats-Subject" style="stroke:#E7E7E7;stroke-width:1;"/><line style="stroke:#E7E7E7;stroke-width:1;" x1="642.8461" x2="646.296" y1="246.0428" y2="253.2608"/><line style="stroke:#E7E7E7;stroke-width:1;" x1="640.1394" x2="643.5892" y1="247.3365" y2="254.5545"/><line style="stroke:#E7E7E7;stroke-width:1;" x1="640.9621" x2="648.18" y1="251.3767" y2="247.9269"/><line style="stroke:#E7E7E7;stroke-width:1;" x1="249.9202" x2="242.6265" y1="346.2634" y2="342.9767"/><line style="stroke:#E7E7E7;stroke-width:1;" x1="251.1527" x2="243.859" y1="343.5283" y2="340.2416"/><line style="stroke:#E7E7E7;stroke-width:1;" x1="247.9167" x2="244.63" y1="340.9732" y2="348.2669"/><text fill="#FFFFFF" font-family="sans-serif" font-size="13" lengthAdjust="spacing" textLength="71.4937" x="295.02" y="298.3338">for_subject</text></g><!--link RecognitionMetrics to Class--><g class="link" data-entity-1="RecognitionMetrics" data-entity-2="Class" data-source-line="73" data-uid="lnk15" id="link_RecognitionMetrics_Class"><path codeLine="73" d="M1077.691,214.7524 C1000.821,255.4824 918.54,298.7569 909.02,302.2669 C820.67,334.8869 722.0057,355.1596 652.2357,367.0796" fill="none" id="RecognitionMetrics-Class" style="stroke:#E7E7E7;stroke-width:1;"/><line style="stroke:#E7E7E7;stroke-width:1;" x1="1079.3527" x2="1083.0983" y1="209.3451" y2="216.4142"/><line style="stroke:#E7E7E7;stroke-width:1;" x1="1076.7018" x2="1080.4474" y1="210.7497" y2="217.8187"/><line style="stroke:#E7E7E7;stroke-width:1;" x1="1077.691" x2="1084.76" y1="214.7524" y2="211.0069"/><line style="stroke:#E7E7E7;stroke-width:1;" x1="648.9665" x2="647.6192" y1="371.6961" y2="363.8104"/><line style="stroke:#E7E7E7;stroke-width:1;" x1="651.9237" x2="650.5764" y1="371.1909" y2="363.3052"/><line style="stroke:#E7E7E7;stroke-width:1;" x1="652.2357" x2="644.35" y1="367.0796" y2="368.4269"/><text fill="#FFFFFF" font-family="sans-serif" font-size="13" lengthAdjust="spacing" textLength="105.9233" x="940.02" y="298.3338">class_session_of</text></g><!--link RecognitionMetrics to Subject--><g class="link" data-entity-1="RecognitionMetrics" data-entity-2="Subject" data-source-line="74" data-uid="lnk16" id="link_RecognitionMetrics_Subject"><path codeLine="74" d="M1077.3741,201.5823 C1026.7741,221.4623 973.39,240.3969 917.02,255.2669 C836.06,276.6269 810.4,258.5969 731.02,285.2669 C715.76,290.3969 714.35,297.3269 699.02,302.2669 C605.1,332.5469 576.4,316.2469 479.02,332.2669 C420.65,341.8669 362.7112,353.0707 313.8712,362.9507" fill="none" id="RecognitionMetrics-Subject" style="stroke:#E7E7E7;stroke-width:1;"/><line style="stroke:#E7E7E7;stroke-width:1;" x1="1079.6343" x2="1082.5597" y1="196.3966" y2="203.8425"/><line style="stroke:#E7E7E7;stroke-width:1;" x1="1076.8421" x2="1079.7675" y1="197.4936" y2="204.9396"/><line style="stroke:#E7E7E7;stroke-width:1;" x1="1077.3741" x2="1084.82" y1="201.5823" y2="198.6569"/><line style="stroke:#E7E7E7;stroke-width:1;" x1="310.7437" x2="309.1575" y1="367.6644" y2="359.8232"/><line style="stroke:#E7E7E7;stroke-width:1;" x1="313.6841" x2="312.0979" y1="367.0695" y2="359.2284"/><line style="stroke:#E7E7E7;stroke-width:1;" x1="313.8712" x2="306.03" y1="362.9507" y2="364.5369"/><text fill="#FFFFFF" font-family="sans-serif" font-size="13" lengthAdjust="spacing" textLength="71.4937" x="732.02" y="298.3338">for_subject</text></g><!--link RecognitionMetrics to Teacher--><g class="link" data-entity-1="RecognitionMetrics" data-entity-2="Teacher" data-source-line="75" data-uid="lnk17" id="link_RecognitionMetrics_Teacher"><path codeLine="75" d="M1188.3497,247.113 C1182.5997,269.863 1174.95,284.9969 1159.02,302.2669 C1138.34,324.6869 1074.2283,345.0873 1017.4183,359.9873" fill="none" id="RecognitionMetrics-Teacher" style="stroke:#E7E7E7;stroke-width:1;"/><line style="stroke:#E7E7E7;stroke-width:1;" x1="1185.4518" x2="1193.2079" y1="242.2548" y2="244.2151"/><line style="stroke:#E7E7E7;stroke-width:1;" x1="1184.7167" x2="1192.4728" y1="245.1633" y2="247.1236"/><line style="stroke:#E7E7E7;stroke-width:1;" x1="1188.3497" x2="1190.31" y1="247.113" y2="239.3569"/><line style="stroke:#E7E7E7;stroke-width:1;" x1="1014.5639" x2="1012.5343" y1="364.8712" y2="357.133"/><line style="stroke:#E7E7E7;stroke-width:1;" x1="1017.4658" x2="1015.4362" y1="364.1101" y2="356.3719"/><line style="stroke:#E7E7E7;stroke-width:1;" x1="1017.4183" x2="1009.68" y1="359.9873" y2="362.0169"/><text fill="#FFFFFF" font-family="sans-serif" font-size="13" lengthAdjust="spacing" textLength="104.4126" x="1172.02" y="298.3338">session_teacher</text></g><!--link RecognitionMetrics to Student--><g class="link" data-entity-1="RecognitionMetrics" data-entity-2="Student" data-source-line="76" data-uid="lnk18" id="link_RecognitionMetrics_Student"><path codeLine="76" d="M1285.7461,245.7776 C1295.4461,260.2876 1299.41,269.2069 1305.02,285.2669 C1313.97,310.8969 1302.0043,327.7812 1278.3243,343.6612" fill="none" id="RecognitionMetrics-Student" style="stroke:#E7E7E7;stroke-width:1;"/><line style="stroke:#E7E7E7;stroke-width:1;" x1="1280.1977" x2="1286.8484" y1="244.6753" y2="240.2292"/><line style="stroke:#E7E7E7;stroke-width:1;" x1="1281.8649" x2="1288.5157" y1="247.1693" y2="242.7233"/><line style="stroke:#E7E7E7;stroke-width:1;" x1="1285.7461" x2="1281.3" y1="245.7776" y2="239.1269"/><line style="stroke:#E7E7E7;stroke-width:1;" x1="1277.23" x2="1272.7743" y1="349.2112" y2="342.5669"/><line style="stroke:#E7E7E7;stroke-width:1;" x1="1279.7216" x2="1275.2659" y1="347.5403" y2="340.896"/><line style="stroke:#E7E7E7;stroke-width:1;" x1="1278.3243" x2="1271.68" y1="343.6612" y2="348.1169"/><text fill="#FFFFFF" font-family="sans-serif" font-size="13" lengthAdjust="spacing" textLength="99.5122" x="1308.02" y="298.3338">analyzed_faces</text></g><!--link RecognitionMetrics to RecognitionJob--><g class="link" data-entity-1="RecognitionMetrics" data-entity-2="RecognitionJob" data-source-line="77" data-uid="lnk20" id="link_RecognitionMetrics_RecognitionJob"><path codeLine="77" d="M1318.0274,213.3504 C1353.6574,234.6404 1384.92,256.5069 1416.02,285.2669 C1438.83,306.3569 1454.8272,329.1636 1467.3872,349.5736" fill="none" id="RecognitionMetrics-RecognitionJob" style="stroke:#E7E7E7;stroke-width:1;"/><line style="stroke:#E7E7E7;stroke-width:1;" x1="1312.542" x2="1316.6455" y1="214.7323" y2="207.8649"/><line style="stroke:#E7E7E7;stroke-width:1;" x1="1315.1172" x2="1319.2207" y1="216.2711" y2="209.4037"/><line style="stroke:#E7E7E7;stroke-width:1;" x1="1318.0274" x2="1311.16" y1="213.3504" y2="209.2469"/><line style="stroke:#E7E7E7;stroke-width:1;" x1="1472.8902" x2="1466.077" y1="350.8839" y2="355.0766"/><line style="stroke:#E7E7E7;stroke-width:1;" x1="1471.318" x2="1464.5047" y1="348.3289" y2="352.5217"/><line style="stroke:#E7E7E7;stroke-width:1;" x1="1467.3872" x2="1471.58" y1="349.5736" y2="356.3869"/><text fill="#FFFFFF" font-family="sans-serif" font-size="13" lengthAdjust="spacing" textLength="72.5854" x="1432.02" y="298.3338">related_job</text></g><!--link TeacherPerformance to Teacher--><g class="link" data-entity-1="TeacherPerformance" data-entity-2="Teacher" data-source-line="78" data-uid="lnk21" id="link_TeacherPerformance_Teacher"><path codeLine="78" d="M603.4732,243.0454 C614.8832,249.0354 619.43,250.7469 631.02,255.2669 C707,284.8569 737.22,252.7969 812.02,285.2669 C846.47,300.2169 873.9839,321.5417 897.2739,342.7417" fill="none" id="TeacherPerformance-Teacher" style="stroke:#E7E7E7;stroke-width:1;"/><line style="stroke:#E7E7E7;stroke-width:1;" x1="598.0723" x2="601.7909" y1="244.7278" y2="237.6445"/><line style="stroke:#E7E7E7;stroke-width:1;" x1="600.7286" x2="604.4471" y1="246.1222" y2="239.039"/><line style="stroke:#E7E7E7;stroke-width:1;" x1="603.4732" x2="596.39" y1="243.0454" y2="239.3269"/><line style="stroke:#E7E7E7;stroke-width:1;" x1="902.9246" x2="897.5394" y1="342.4763" y2="348.3923"/><line style="stroke:#E7E7E7;stroke-width:1;" x1="900.706" x2="895.3209" y1="340.4568" y2="346.3729"/><line style="stroke:#E7E7E7;stroke-width:1;" x1="897.2739" x2="903.19" y1="342.7417" y2="348.1269"/><text fill="#FFFFFF" font-family="sans-serif" font-size="13" lengthAdjust="spacing" textLength="58.792" x="842.02" y="298.3338">linked_to</text></g><!--link TeacherPerformance to Class--><g class="link" data-entity-1="TeacherPerformance" data-entity-2="Class" data-source-line="79" data-uid="lnk22" id="link_TeacherPerformance_Class"><path codeLine="79" d="M490.3062,247.1246 C496.0862,268.3046 501.47,282.7169 511.02,302.2669 C515.99,312.4369 517.7568,316.0893 524.5068,325.5293" fill="none" id="TeacherPerformance-Class" style="stroke:#E7E7E7;stroke-width:1;"/><line style="stroke:#E7E7E7;stroke-width:1;" x1="485.3942" x2="493.112" y1="244.3188" y2="242.2127"/><line style="stroke:#E7E7E7;stroke-width:1;" x1="486.184" x2="493.9018" y1="247.213" y2="245.1068"/><line style="stroke:#E7E7E7;stroke-width:1;" x1="490.3062" x2="488.2" y1="247.1246" y2="239.4069"/><line style="stroke:#E7E7E7;stroke-width:1;" x1="530.0872" x2="523.5796" y1="326.4565" y2="331.1097"/><line style="stroke:#E7E7E7;stroke-width:1;" x1="528.3422" x2="521.8347" y1="324.0162" y2="328.6694"/><line style="stroke:#E7E7E7;stroke-width:1;" x1="524.5068" x2="529.16" y1="325.5293" y2="332.0369"/><text fill="#FFFFFF" font-family="sans-serif" font-size="13" lengthAdjust="spacing" textLength="70.6304" x="512.02" y="298.3338">belongs_to</text></g><!--link TeacherPerformance to Subject--><g class="link" data-entity-1="TeacherPerformance" data-entity-2="Subject" data-source-line="80" data-uid="lnk23" id="link_TeacherPerformance_Subject"><path codeLine="80" d="M321.377,214.1817 C247.157,246.2717 178.02,277.5369 173.02,285.2669 C159.53,306.1569 168.8762,324.1069 187.2462,342.4969" fill="none" id="TeacherPerformance-Subject" style="stroke:#E7E7E7;stroke-width:1;"/><line style="stroke:#E7E7E7;stroke-width:1;" x1="323.461" x2="326.6359" y1="208.9228" y2="216.2658"/><line style="stroke:#E7E7E7;stroke-width:1;" x1="320.7074" x2="323.8823" y1="210.1134" y2="217.4564"/><line style="stroke:#E7E7E7;stroke-width:1;" x1="321.377" x2="328.72" y1="214.1817" y2="211.0069"/><line style="stroke:#E7E7E7;stroke-width:1;" x1="192.9031" x2="187.2431" y1="342.5" y2="348.1538"/><line style="stroke:#E7E7E7;stroke-width:1;" x1="190.7829" x2="185.123" y1="340.3775" y2="346.0313"/><line style="stroke:#E7E7E7;stroke-width:1;" x1="187.2462" x2="192.9" y1="342.4969" y2="348.1569"/><text fill="#FFFFFF" font-family="sans-serif" font-size="13" lengthAdjust="spacing" textLength="71.4937" x="174.02" y="298.3338">for_subject</text></g><!--SRC=[jPNDZfim483lUGfhZvNo0jpG9bLJDUqgONj5nanORy56jecKDdtt3hOXh36HMdLlU7uyCz_C6CDD3IGLjBuOpZGvWZfp1cHDjWUouRHIj5cjG1XkBkGXDGP4IGM3OzSqL5qU2DLa9YM_LeHy8DgTSbwIX3m_xpPMocggTI3JNV4Ap0JIaXh0yoRDjlPifA5rharNOZuQDRklcLMq2ZIASYOxOIPoMaJ5J07UNEQq5sQx_VQOfVidg-hQCgRwVKDmTE4dDHjgjENWLLOm8EY_msATsJzZyHX0Qox550ErEM7sCPr3iUZLLvAte1XQqQh7_l7Bj_G_y3e0avNW1gFkmIYSCSjgBlR46dSAIRYyeoHEbC6q8EMk_ebfXQfEt57ICoWi7ST5d3XsYBsbqCWIwXnj8eai49fWo82o5r1Fe4vIDJrjYs4kzXZQcoGishcym_YSg_oTX-6npz8MRhzyhR7SIsZ3n0Lj-bI-fuV7J-aXifFJ9HptBzorUK-cZV1kSyRJQ0whY-Q-nmSl18vkyzVnUbslhrUF8245r59KEZTosNQ8an2SYjp7MRrvS0PBNtz2QYv-O3VmsfXT97hqkcZWoFO6rxgU3cihJtTS_ZR4qAfaV1Lyk-x56AdG_bSthlyTbudciopGKq5jn_jL5gl8tiwok_5VjevqOTau2keF]--></g></svg>