<svg xmlns="http://www.w3.org/2000/svg" xmlns:xlink="http://www.w3.org/1999/xlink" contentStyleType="text/css" data-diagram-type="CLASS" height="403px" preserveAspectRatio="none" style="width:527px;height:403px;background:#1B1B1B;" version="1.1" viewBox="0 0 527 403" width="527px" zoomAndPan="magnify"><title>Media / Storage Service - ER Diagram</title><defs/><g><rect fill="#1B1B1B" height="403" style="stroke:none;stroke-width:1;" width="527" x="0" y="0"/><g class="title" data-source-line="1"><text fill="#FFFFFF" font-family="sans-serif" font-size="14" font-weight="bold" lengthAdjust="spacing" textLength="295.4971" x="108.9354" y="22.9951">Media / Storage Service - ER Diagram</text></g><!--class MediaFile--><g class="entity" data-entity="MediaFile" data-source-line="3" data-uid="ent0002" id="entity_MediaFile"><rect fill="#313139" height="210.9688" rx="2.5" ry="2.5" style="stroke:#E7E7E7;stroke-width:0.5;" width="459.6514" x="33.33" y="44.2969"/><ellipse cx="225.6591" cy="60.2969" fill="#2E5233" rx="11" ry="11" style="stroke:#E7E7E7;stroke-width:1;"/><path d="M229.7685,66.2969 L222.0497,66.2969 L222.0497,53.9063 L229.7685,53.9063 L229.7685,56.0625 L224.5029,56.0625 L224.5029,58.7344 L229.2685,58.7344 L229.2685,60.8906 L224.5029,60.8906 L224.5029,64.1406 L229.7685,64.1406 L229.7685,66.2969 Z " fill="#FFFFFF"/><text fill="#FFFFFF" font-family="sans-serif" font-size="14" lengthAdjust="spacing" textLength="66.4932" x="246.1591" y="65.1436">MediaFile</text><line style="stroke:#E7E7E7;stroke-width:0.5;" x1="34.33" x2="491.9814" y1="76.2969" y2="76.2969"/><ellipse cx="44.33" cy="89.9453" fill="#000000" rx="3" ry="3" style="stroke:#000000;stroke-width:1;"/><text fill="#FFFFFF" font-family="sans-serif" font-size="14" lengthAdjust="spacing" textLength="112.4033" x="53.33" y="93.292">media_id : UUID</text><ellipse cx="44.33" cy="106.2422" fill="#000000" rx="3" ry="3" style="stroke:#000000;stroke-width:1;"/><text fill="#FFFFFF" font-family="sans-serif" font-size="14" lengthAdjust="spacing" textLength="112.0547" x="53.33" y="109.5889">owner_id : UUID</text><ellipse cx="44.33" cy="122.5391" fill="#000000" rx="3" ry="3" style="stroke:#000000;stroke-width:1;"/><text fill="#FFFFFF" font-family="sans-serif" font-size="14" lengthAdjust="spacing" textLength="150.1309" x="53.33" y="125.8857">file_name : VARCHAR</text><ellipse cx="44.33" cy="138.8359" fill="#000000" rx="3" ry="3" style="stroke:#000000;stroke-width:1;"/><text fill="#FFFFFF" font-family="sans-serif" font-size="14" lengthAdjust="spacing" textLength="116.8193" x="53.33" y="142.1826">file_size : BIGINT</text><ellipse cx="44.33" cy="155.1328" fill="#000000" rx="3" ry="3" style="stroke:#000000;stroke-width:1;"/><text fill="#FFFFFF" font-family="sans-serif" font-size="14" lengthAdjust="spacing" textLength="174.1182" x="53.33" y="158.4795">storage_path : VARCHAR</text><ellipse cx="44.33" cy="171.4297" fill="#000000" rx="3" ry="3" style="stroke:#000000;stroke-width:1;"/><text fill="#FFFFFF" font-family="sans-serif" font-size="14" lengthAdjust="spacing" textLength="181.0088" x="53.33" y="174.7764">uploaded_at : TIMESTAMP</text><ellipse cx="44.33" cy="187.7266" fill="#000000" rx="3" ry="3" style="stroke:#000000;stroke-width:1;"/><text fill="#FFFFFF" font-family="sans-serif" font-size="14" lengthAdjust="spacing" textLength="153.5625" x="53.33" y="191.0732">processed : BOOLEAN</text><ellipse cx="44.33" cy="204.0234" fill="#000000" rx="3" ry="3" style="stroke:#000000;stroke-width:1;"/><text fill="#FFFFFF" font-family="sans-serif" font-size="14" lengthAdjust="spacing" textLength="187.4346" x="53.33" y="207.3701">processed_at : TIMESTAMP</text><line style="stroke:#E7E7E7;stroke-width:0.5;" x1="34.33" x2="491.9814" y1="214.6719" y2="214.6719"/><ellipse cx="44.33" cy="228.3203" fill="#000000" rx="3" ry="3" style="stroke:#000000;stroke-width:1;"/><text fill="#FFFFFF" font-family="sans-serif" font-size="14" lengthAdjust="spacing" textLength="433.6514" x="53.33" y="231.667">owner_type : ENUM('Student','ClassSession','Teacher','Other')</text><ellipse cx="44.33" cy="244.6172" fill="#000000" rx="3" ry="3" style="stroke:#000000;stroke-width:1;"/><text fill="#FFFFFF" font-family="sans-serif" font-size="14" lengthAdjust="spacing" textLength="313.6807" x="53.33" y="247.9639">file_type : ENUM('Image','Video','Document')</text></g><!--class Student--><g class="entity" data-entity="Student" data-source-line="16" data-uid="ent0003" id="entity_Student"><rect fill="#313139" height="64.2969" rx="2.5" ry="2.5" style="stroke:#E7E7E7;stroke-width:0.5;" width="148.3154" x="7" y="332.2669"/><ellipse cx="49.5418" cy="348.2669" fill="#2E5233" rx="11" ry="11" style="stroke:#E7E7E7;stroke-width:1;"/><path d="M53.6512,354.2669 L45.9325,354.2669 L45.9325,341.8762 L53.6512,341.8762 L53.6512,344.0325 L48.3856,344.0325 L48.3856,346.7044 L53.1512,346.7044 L53.1512,348.8606 L48.3856,348.8606 L48.3856,352.1106 L53.6512,352.1106 L53.6512,354.2669 Z " fill="#FFFFFF"/><text fill="#FFFFFF" font-family="sans-serif" font-size="14" lengthAdjust="spacing" textLength="55.1113" x="69.6623" y="353.1136">Student</text><line style="stroke:#E7E7E7;stroke-width:0.5;" x1="8" x2="154.3154" y1="364.2669" y2="364.2669"/><ellipse cx="18" cy="377.9153" fill="#000000" rx="3" ry="3" style="stroke:#000000;stroke-width:1;"/><text fill="#FFFFFF" font-family="sans-serif" font-size="14" lengthAdjust="spacing" textLength="122.3154" x="27" y="381.262">student_id : UUID</text><line style="stroke:#E7E7E7;stroke-width:0.5;" x1="8" x2="154.3154" y1="388.5637" y2="388.5637"/></g><!--class ClassSession--><g class="entity" data-entity="ClassSession" data-source-line="20" data-uid="ent0004" id="entity_ClassSession"><rect fill="#313139" height="64.2969" rx="2.5" ry="2.5" style="stroke:#E7E7E7;stroke-width:0.5;" width="146.6201" x="189.85" y="332.2669"/><ellipse cx="215.8174" cy="348.2669" fill="#2E5233" rx="11" ry="11" style="stroke:#E7E7E7;stroke-width:1;"/><path d="M219.9268,354.2669 L212.2081,354.2669 L212.2081,341.8762 L219.9268,341.8762 L219.9268,344.0325 L214.6612,344.0325 L214.6612,346.7044 L219.4268,346.7044 L219.4268,348.8606 L214.6612,348.8606 L214.6612,352.1106 L219.9268,352.1106 L219.9268,354.2669 Z " fill="#FFFFFF"/><text fill="#FFFFFF" font-family="sans-serif" font-size="14" lengthAdjust="spacing" textLength="90.248" x="232.2546" y="353.1136">ClassSession</text><line style="stroke:#E7E7E7;stroke-width:0.5;" x1="190.85" x2="335.4701" y1="364.2669" y2="364.2669"/><ellipse cx="200.85" cy="377.9153" fill="#000000" rx="3" ry="3" style="stroke:#000000;stroke-width:1;"/><text fill="#FFFFFF" font-family="sans-serif" font-size="14" lengthAdjust="spacing" textLength="120.6201" x="209.85" y="381.262">session_id : UUID</text><line style="stroke:#E7E7E7;stroke-width:0.5;" x1="190.85" x2="335.4701" y1="388.5637" y2="388.5637"/></g><!--class Teacher--><g class="entity" data-entity="Teacher" data-source-line="24" data-uid="ent0005" id="entity_Teacher"><rect fill="#313139" height="64.2969" rx="2.5" ry="2.5" style="stroke:#E7E7E7;stroke-width:0.5;" width="148.418" x="371.95" y="332.2669"/><ellipse cx="413.8305" cy="348.2669" fill="#2E5233" rx="11" ry="11" style="stroke:#E7E7E7;stroke-width:1;"/><path d="M417.9398,354.2669 L410.2211,354.2669 L410.2211,341.8762 L417.9398,341.8762 L417.9398,344.0325 L412.6742,344.0325 L412.6742,346.7044 L417.4398,346.7044 L417.4398,348.8606 L412.6742,348.8606 L412.6742,352.1106 L417.9398,352.1106 L417.9398,354.2669 Z " fill="#FFFFFF"/><text fill="#FFFFFF" font-family="sans-serif" font-size="14" lengthAdjust="spacing" textLength="56.6836" x="433.8039" y="353.1136">Teacher</text><line style="stroke:#E7E7E7;stroke-width:0.5;" x1="372.95" x2="519.368" y1="364.2669" y2="364.2669"/><ellipse cx="382.95" cy="377.9153" fill="#000000" rx="3" ry="3" style="stroke:#000000;stroke-width:1;"/><text fill="#FFFFFF" font-family="sans-serif" font-size="14" lengthAdjust="spacing" textLength="122.418" x="391.95" y="381.262">teacher_id : UUID</text><line style="stroke:#E7E7E7;stroke-width:0.5;" x1="372.95" x2="519.368" y1="388.5637" y2="388.5637"/></g><!--link MediaFile to Student--><g class="link" data-entity-1="MediaFile" data-entity-2="Student" data-source-line="28" data-uid="lnk6" id="link_MediaFile_Student"><path codeLine="28" d="M168.2871,261.6239 C144.4171,289.5039 130.8324,305.3795 113.2924,325.8695" fill="none" id="MediaFile-Student" style="stroke:#E7E7E7;stroke-width:1;"/><line style="stroke:#E7E7E7;stroke-width:1;" x1="167.8501" x2="173.927" y1="255.9839" y2="261.1868"/><line style="stroke:#E7E7E7;stroke-width:1;" x1="165.899" x2="171.9759" y1="258.2628" y2="263.4657"/><line style="stroke:#E7E7E7;stroke-width:1;" x1="168.2871" x2="173.49" y1="261.6239" y2="255.5469"/><line style="stroke:#E7E7E7;stroke-width:1;" x1="113.7299" x2="107.6525" y1="331.5094" y2="326.307"/><line style="stroke:#E7E7E7;stroke-width:1;" x1="115.6808" x2="109.6034" y1="329.2304" y2="324.0279"/><line style="stroke:#E7E7E7;stroke-width:1;" x1="113.2924" x2="108.09" y1="325.8695" y2="331.9469"/><text fill="#FFFFFF" font-family="sans-serif" font-size="13" lengthAdjust="spacing" textLength="65.5205" x="147.16" y="298.3338">owned_by</text></g><!--link MediaFile to ClassSession--><g class="link" data-entity-1="MediaFile" data-entity-2="ClassSession" data-source-line="29" data-uid="lnk7" id="link_MediaFile_ClassSession"><path codeLine="29" d="M263.16,263.5469 C263.16,291.4269 263.16,303.4569 263.16,323.9469" fill="none" id="MediaFile-ClassSession" style="stroke:#E7E7E7;stroke-width:1;"/><line style="stroke:#E7E7E7;stroke-width:1;" x1="259.16" x2="267.16" y1="259.5469" y2="259.5469"/><line style="stroke:#E7E7E7;stroke-width:1;" x1="259.16" x2="267.16" y1="262.5469" y2="262.5469"/><line style="stroke:#E7E7E7;stroke-width:1;" x1="263.16" x2="263.16" y1="263.5469" y2="255.5469"/><line style="stroke:#E7E7E7;stroke-width:1;" x1="267.16" x2="259.16" y1="327.9469" y2="327.9469"/><line style="stroke:#E7E7E7;stroke-width:1;" x1="267.16" x2="259.16" y1="324.9469" y2="324.9469"/><line style="stroke:#E7E7E7;stroke-width:1;" x1="263.16" x2="263.16" y1="323.9469" y2="331.9469"/><text fill="#FFFFFF" font-family="sans-serif" font-size="13" lengthAdjust="spacing" textLength="103.6191" x="264.16" y="298.3338">associated_with</text></g><!--link MediaFile to Teacher--><g class="link" data-entity-1="MediaFile" data-entity-2="Teacher" data-source-line="30" data-uid="lnk8" id="link_MediaFile_Teacher"><path codeLine="30" d="M358.5392,261.6099 C382.5392,289.4899 396.2205,305.3941 413.8605,325.8841" fill="none" id="MediaFile-Teacher" style="stroke:#E7E7E7;stroke-width:1;"/><line style="stroke:#E7E7E7;stroke-width:1;" x1="352.8981" x2="358.9611" y1="261.188" y2="255.9688"/><line style="stroke:#E7E7E7;stroke-width:1;" x1="354.8553" x2="360.9183" y1="263.4616" y2="258.2424"/><line style="stroke:#E7E7E7;stroke-width:1;" x1="358.5392" x2="353.32" y1="261.6099" y2="255.5469"/><line style="stroke:#E7E7E7;stroke-width:1;" x1="419.5016" x2="413.4389" y1="326.3058" y2="331.5252"/><line style="stroke:#E7E7E7;stroke-width:1;" x1="417.5443" x2="411.4816" y1="324.0322" y2="329.2517"/><line style="stroke:#E7E7E7;stroke-width:1;" x1="413.8605" x2="419.08" y1="325.8841" y2="331.9469"/><text fill="#FFFFFF" font-family="sans-serif" font-size="13" lengthAdjust="spacing" textLength="82.9702" x="392.16" y="298.3338">uploaded_by</text></g><!--SRC=[RL71Se8m4Btx5JjUR3jrUkU6IbjcYdG4lJAHR3KpG1YorA6b_zuGK40zPT_BlhUR5nAK87Z81OCN24WMx80GOF4jOeGvE1jO2NOeM3gPO4Q2AfYQxbUHu1IOWWk2tmd04wGDZWG72xPRTsKuUSgmkCjHbQDcdVNMUvW5L78zPFOyMoPCgG2L4ZBJC4GM7x7GbK_D-MWSllJGA6DfOx2pDyjtUzFp8sCtrQ_IwftWAFMvad6PDfC6HahyD8A5- -QkGqEhDeqePtIy6b7cYMGSUSH8tuIkvmIXxNsQkxoGiTuSczSkVF_3iTTZ_bhqrqVR9M22xUekLjMYGOW3sJ0kenqIPuCMtJVe0ZRQhkvarAAnhF_pkfxFw_gogsM-bKVxwhPdj9Eb9oaP2qQw-oJeUDj_tiFgqzvN_m00]--></g></svg>