<svg xmlns="http://www.w3.org/2000/svg" xmlns:xlink="http://www.w3.org/1999/xlink" contentStyleType="text/css" data-diagram-type="CLASS" height="540px" preserveAspectRatio="none" style="width:647px;height:540px;background:#1B1B1B;" version="1.1" viewBox="0 0 647 540" width="647px" zoomAndPan="magnify"><defs/><g><rect fill="#1B1B1B" height="540" style="stroke:none;stroke-width:1;" width="647" x="0" y="0"/><!--class U--><g class="entity" data-entity="U" data-source-line="1" data-uid="ent0002" id="entity_U"><rect fill="#313139" height="129.4844" rx="2.5" ry="2.5" style="stroke:#E7E7E7;stroke-width:0.5;" width="398.8457" x="7" y="7"/><ellipse cx="186.2178" cy="23" fill="#2E5233" rx="11" ry="11" style="stroke:#E7E7E7;stroke-width:1;"/><path d="M190.3271,29 L182.6084,29 L182.6084,16.6094 L190.3271,16.6094 L190.3271,18.7656 L185.0615,18.7656 L185.0615,21.4375 L189.8271,21.4375 L189.8271,23.5938 L185.0615,23.5938 L185.0615,26.8438 L190.3271,26.8438 L190.3271,29 Z " fill="#FFFFFF"/><text fill="#FFFFFF" font-family="sans-serif" font-size="14" lengthAdjust="spacing" textLength="31.9102" x="206.7178" y="27.8467">User</text><line style="stroke:#E7E7E7;stroke-width:0.5;" x1="8" x2="404.8457" y1="39" y2="39"/><ellipse cx="18" cy="52.6484" fill="#000000" rx="3" ry="3" style="stroke:#000000;stroke-width:1;"/><text fill="#FFFFFF" font-family="sans-serif" font-size="14" lengthAdjust="spacing" textLength="61.7969" x="27" y="55.9951">id : UUID</text><ellipse cx="18" cy="68.9453" fill="#000000" rx="3" ry="3" style="stroke:#000000;stroke-width:1;"/><text fill="#FFFFFF" font-family="sans-serif" font-size="14" lengthAdjust="spacing" textLength="93.5088" x="27" y="72.292">name : string</text><ellipse cx="18" cy="85.2422" fill="#000000" rx="3" ry="3" style="stroke:#000000;stroke-width:1;"/><text fill="#FFFFFF" font-family="sans-serif" font-size="14" lengthAdjust="spacing" textLength="92.415" x="27" y="88.5889">email : string</text><ellipse cx="18" cy="101.5391" fill="#000000" rx="3" ry="3" style="stroke:#000000;stroke-width:1;"/><text fill="#FFFFFF" font-family="sans-serif" font-size="14" lengthAdjust="spacing" textLength="161.1367" x="27" y="104.8857">password_hash : string</text><line style="stroke:#E7E7E7;stroke-width:0.5;" x1="8" x2="404.8457" y1="112.1875" y2="112.1875"/><ellipse cx="18" cy="125.8359" fill="#000000" rx="3" ry="3" style="stroke:#000000;stroke-width:1;"/><text fill="#FFFFFF" font-family="sans-serif" font-size="14" lengthAdjust="spacing" textLength="372.8457" x="27" y="129.1826">role : enum (Principal, DeptAdmin, Teacher, Student)</text></g><!--class D--><g class="entity" data-entity="D" data-source-line="9" data-uid="ent0003" id="entity_D"><rect fill="#313139" height="80.5938" rx="2.5" ry="2.5" style="stroke:#E7E7E7;stroke-width:0.5;" width="119.5088" x="491.67" y="31.45"/><ellipse cx="507.926" cy="47.45" fill="#2E5233" rx="11" ry="11" style="stroke:#E7E7E7;stroke-width:1;"/><path d="M512.0353,53.45 L504.3166,53.45 L504.3166,41.0594 L512.0353,41.0594 L512.0353,43.2156 L506.7697,43.2156 L506.7697,45.8875 L511.5353,45.8875 L511.5353,48.0437 L506.7697,48.0437 L506.7697,51.2937 L512.0353,51.2937 L512.0353,53.45 Z " fill="#FFFFFF"/><text fill="#FFFFFF" font-family="sans-serif" font-size="14" lengthAdjust="spacing" textLength="84.7178" x="522.2051" y="52.2967">Department</text><line style="stroke:#E7E7E7;stroke-width:0.5;" x1="492.67" x2="610.1788" y1="63.45" y2="63.45"/><ellipse cx="502.67" cy="77.0984" fill="#000000" rx="3" ry="3" style="stroke:#000000;stroke-width:1;"/><text fill="#FFFFFF" font-family="sans-serif" font-size="14" lengthAdjust="spacing" textLength="61.7969" x="511.67" y="80.4451">id : UUID</text><ellipse cx="502.67" cy="93.3953" fill="#000000" rx="3" ry="3" style="stroke:#000000;stroke-width:1;"/><text fill="#FFFFFF" font-family="sans-serif" font-size="14" lengthAdjust="spacing" textLength="93.5088" x="511.67" y="96.742">name : string</text><line style="stroke:#E7E7E7;stroke-width:0.5;" x1="492.67" x2="610.1788" y1="104.0437" y2="104.0437"/></g><!--class C--><g class="entity" data-entity="C" data-source-line="14" data-uid="ent0004" id="entity_C"><rect fill="#313139" height="96.8906" rx="2.5" ry="2.5" style="stroke:#E7E7E7;stroke-width:0.5;" width="177.6211" x="462.61" y="213.49"/><ellipse cx="528.7545" cy="229.49" fill="#2E5233" rx="11" ry="11" style="stroke:#E7E7E7;stroke-width:1;"/><path d="M532.8639,235.49 L525.1452,235.49 L525.1452,223.0994 L532.8639,223.0994 L532.8639,225.2556 L527.5983,225.2556 L527.5983,227.9275 L532.3639,227.9275 L532.3639,230.0837 L527.5983,230.0837 L527.5983,233.3337 L532.8639,233.3337 L532.8639,235.49 Z " fill="#FFFFFF"/><text fill="#FFFFFF" font-family="sans-serif" font-size="14" lengthAdjust="spacing" textLength="36.832" x="549.2545" y="234.3367">Class</text><line style="stroke:#E7E7E7;stroke-width:0.5;" x1="463.61" x2="639.2311" y1="245.49" y2="245.49"/><ellipse cx="473.61" cy="259.1384" fill="#000000" rx="3" ry="3" style="stroke:#000000;stroke-width:1;"/><text fill="#FFFFFF" font-family="sans-serif" font-size="14" lengthAdjust="spacing" textLength="61.7969" x="482.61" y="262.4851">id : UUID</text><ellipse cx="473.61" cy="275.4353" fill="#000000" rx="3" ry="3" style="stroke:#000000;stroke-width:1;"/><text fill="#FFFFFF" font-family="sans-serif" font-size="14" lengthAdjust="spacing" textLength="93.5088" x="482.61" y="278.782">name : string</text><ellipse cx="473.61" cy="291.7322" fill="#000000" rx="3" ry="3" style="stroke:#000000;stroke-width:1;"/><text fill="#FFFFFF" font-family="sans-serif" font-size="14" lengthAdjust="spacing" textLength="151.6211" x="482.61" y="295.0789">department_id : UUID</text><line style="stroke:#E7E7E7;stroke-width:0.5;" x1="463.61" x2="639.2311" y1="302.3806" y2="302.3806"/></g><!--class ST--><g class="entity" data-entity="ST" data-source-line="20" data-uid="ent0005" id="entity_ST"><rect fill="#313139" height="96.8906" rx="2.5" ry="2.5" style="stroke:#E7E7E7;stroke-width:0.5;" width="177.6211" x="66.61" y="213.49"/><ellipse cx="123.6149" cy="229.49" fill="#2E5233" rx="11" ry="11" style="stroke:#E7E7E7;stroke-width:1;"/><path d="M127.7243,235.49 L120.0055,235.49 L120.0055,223.0994 L127.7243,223.0994 L127.7243,225.2556 L122.4586,225.2556 L122.4586,227.9275 L127.2243,227.9275 L127.2243,230.0837 L122.4586,230.0837 L122.4586,233.3337 L127.7243,233.3337 L127.7243,235.49 Z " fill="#FFFFFF"/><text fill="#FFFFFF" font-family="sans-serif" font-size="14" lengthAdjust="spacing" textLength="55.1113" x="144.1149" y="234.3367">Student</text><line style="stroke:#E7E7E7;stroke-width:0.5;" x1="67.61" x2="243.2311" y1="245.49" y2="245.49"/><ellipse cx="77.61" cy="259.1384" fill="#000000" rx="3" ry="3" style="stroke:#000000;stroke-width:1;"/><text fill="#FFFFFF" font-family="sans-serif" font-size="14" lengthAdjust="spacing" textLength="99.333" x="86.61" y="262.4851">user_id : UUID</text><ellipse cx="77.61" cy="275.4353" fill="#000000" rx="3" ry="3" style="stroke:#000000;stroke-width:1;"/><text fill="#FFFFFF" font-family="sans-serif" font-size="14" lengthAdjust="spacing" textLength="100.3447" x="86.61" y="278.782">roll_no : string</text><ellipse cx="77.61" cy="291.7322" fill="#000000" rx="3" ry="3" style="stroke:#000000;stroke-width:1;"/><text fill="#FFFFFF" font-family="sans-serif" font-size="14" lengthAdjust="spacing" textLength="151.6211" x="86.61" y="295.0789">department_id : UUID</text><line style="stroke:#E7E7E7;stroke-width:0.5;" x1="67.61" x2="243.2311" y1="302.3806" y2="302.3806"/></g><!--class TC--><g class="entity" data-entity="TC" data-source-line="26" data-uid="ent0006" id="entity_TC"><rect fill="#313139" height="80.5938" rx="2.5" ry="2.5" style="stroke:#E7E7E7;stroke-width:0.5;" width="148.418" x="279.21" y="221.64"/><ellipse cx="304.5161" cy="237.64" fill="#2E5233" rx="11" ry="11" style="stroke:#E7E7E7;stroke-width:1;"/><path d="M308.6254,243.64 L300.9067,243.64 L300.9067,231.2494 L308.6254,231.2494 L308.6254,233.4056 L303.3598,233.4056 L303.3598,236.0775 L308.1254,236.0775 L308.1254,238.2338 L303.3598,238.2338 L303.3598,241.4838 L308.6254,241.4838 L308.6254,243.64 Z " fill="#FFFFFF"/><text fill="#FFFFFF" font-family="sans-serif" font-size="14" lengthAdjust="spacing" textLength="93.5156" x="320.8063" y="242.4867">TeacherClass</text><line style="stroke:#E7E7E7;stroke-width:0.5;" x1="280.21" x2="426.628" y1="253.64" y2="253.64"/><ellipse cx="290.21" cy="267.2884" fill="#000000" rx="3" ry="3" style="stroke:#000000;stroke-width:1;"/><text fill="#FFFFFF" font-family="sans-serif" font-size="14" lengthAdjust="spacing" textLength="122.418" x="299.21" y="270.6351">teacher_id : UUID</text><ellipse cx="290.21" cy="283.5853" fill="#000000" rx="3" ry="3" style="stroke:#000000;stroke-width:1;"/><text fill="#FFFFFF" font-family="sans-serif" font-size="14" lengthAdjust="spacing" textLength="103.5508" x="299.21" y="286.932">class_id : UUID</text><line style="stroke:#E7E7E7;stroke-width:0.5;" x1="280.21" x2="426.628" y1="294.2338" y2="294.2338"/></g><!--class A--><g class="entity" data-entity="A" data-source-line="31" data-uid="ent0007" id="entity_A"><rect fill="#313139" height="145.7813" rx="2.5" ry="2.5" style="stroke:#E7E7E7;stroke-width:0.5;" width="248.7217" x="229.06" y="387.38"/><ellipse cx="308.8251" cy="403.38" fill="#2E5233" rx="11" ry="11" style="stroke:#E7E7E7;stroke-width:1;"/><path d="M312.9345,409.38 L305.2158,409.38 L305.2158,396.9894 L312.9345,396.9894 L312.9345,399.1456 L307.6689,399.1456 L307.6689,401.8175 L312.4345,401.8175 L312.4345,403.9738 L307.6689,403.9738 L307.6689,407.2238 L312.9345,407.2238 L312.9345,409.38 Z " fill="#FFFFFF"/><text fill="#FFFFFF" font-family="sans-serif" font-size="14" lengthAdjust="spacing" textLength="80.6914" x="329.3251" y="408.2267">Attendance</text><line style="stroke:#E7E7E7;stroke-width:0.5;" x1="230.06" x2="476.7817" y1="419.38" y2="419.38"/><ellipse cx="240.06" cy="433.0284" fill="#000000" rx="3" ry="3" style="stroke:#000000;stroke-width:1;"/><text fill="#FFFFFF" font-family="sans-serif" font-size="14" lengthAdjust="spacing" textLength="61.7969" x="249.06" y="436.3751">id : UUID</text><ellipse cx="240.06" cy="449.3253" fill="#000000" rx="3" ry="3" style="stroke:#000000;stroke-width:1;"/><text fill="#FFFFFF" font-family="sans-serif" font-size="14" lengthAdjust="spacing" textLength="103.5508" x="249.06" y="452.672">class_id : UUID</text><ellipse cx="240.06" cy="465.6222" fill="#000000" rx="3" ry="3" style="stroke:#000000;stroke-width:1;"/><text fill="#FFFFFF" font-family="sans-serif" font-size="14" lengthAdjust="spacing" textLength="122.3154" x="249.06" y="468.9689">student_id : UUID</text><ellipse cx="240.06" cy="481.9191" fill="#000000" rx="3" ry="3" style="stroke:#000000;stroke-width:1;"/><text fill="#FFFFFF" font-family="sans-serif" font-size="14" lengthAdjust="spacing" textLength="76.7539" x="249.06" y="485.2657">date : date</text><ellipse cx="240.06" cy="498.2159" fill="#000000" rx="3" ry="3" style="stroke:#000000;stroke-width:1;"/><text fill="#FFFFFF" font-family="sans-serif" font-size="14" lengthAdjust="spacing" textLength="126.7725" x="249.06" y="501.5626">marked_by : UUID</text><line style="stroke:#E7E7E7;stroke-width:0.5;" x1="230.06" x2="476.7817" y1="508.8644" y2="508.8644"/><ellipse cx="240.06" cy="522.5128" fill="#000000" rx="3" ry="3" style="stroke:#000000;stroke-width:1;"/><text fill="#FFFFFF" font-family="sans-serif" font-size="14" lengthAdjust="spacing" textLength="222.7217" x="249.06" y="525.8595">status : enum (Present, Absent)</text></g><!--link U to ST--><g class="link" data-entity-1="U" data-entity-2="ST" data-source-line="40" data-uid="lnk8" id="link_U_ST"><path codeLine="40" d="M186.9184,144.7017 C180.1684,169.6217 179.3781,172.5566 173.1181,195.6566" fill="none" id="U-ST" style="stroke:#E7E7E7;stroke-width:1;"/><line style="stroke:#E7E7E7;stroke-width:1;" x1="184.1033" x2="191.8251" y1="139.7951" y2="141.8867"/><line style="stroke:#E7E7E7;stroke-width:1;" x1="183.319" x2="191.0408" y1="142.6907" y2="144.7823"/><line style="stroke:#E7E7E7;stroke-width:1;" x1="186.9184" x2="189.01" y1="144.7017" y2="136.98"/><line style="stroke:#E7E7E7;stroke-width:1;" x1="170.5025" x2="174.2011" y1="205.3085" y2="214.5994"/><line style="stroke:#E7E7E7;stroke-width:1;" x1="170.5025" x2="162.6189" y1="205.3085" y2="211.4606"/><line style="stroke:#E7E7E7;stroke-width:1;" x1="170.5025" x2="168.41" y1="205.3085" y2="213.03"/><ellipse cx="172.0719" cy="199.5174" fill="none" rx="4" ry="4" style="stroke:#E7E7E7;stroke-width:1;"/><text fill="#FFFFFF" font-family="sans-serif" font-size="13" lengthAdjust="spacing" textLength="10.3848" x="182.42" y="179.5569">is</text></g><!--link U to TC--><g class="link" data-entity-1="U" data-entity-2="TC" data-source-line="41" data-uid="lnk9" id="link_U_TC"><path codeLine="41" d="M261.5248,143.2845 C283.4048,171.2945 292.3362,182.7473 311.4362,207.1873" fill="none" id="U-TC" style="stroke:#E7E7E7;stroke-width:1;"/><line style="stroke:#E7E7E7;stroke-width:1;" x1="255.9101" x2="262.2146" y1="142.5946" y2="137.6699"/><line style="stroke:#E7E7E7;stroke-width:1;" x1="257.7569" x2="264.0614" y1="144.9588" y2="140.0341"/><line style="stroke:#E7E7E7;stroke-width:1;" x1="261.5248" x2="256.6" y1="143.2845" y2="136.98"/><line style="stroke:#E7E7E7;stroke-width:1;" x1="317.5938" x2="327.2476" y1="215.0666" y2="217.6754"/><line style="stroke:#E7E7E7;stroke-width:1;" x1="317.5938" x2="317.7924" y1="215.0666" y2="225.0646"/><line style="stroke:#E7E7E7;stroke-width:1;" x1="317.5938" x2="322.52" y1="215.0666" y2="221.37"/><ellipse cx="313.8992" cy="210.339" fill="none" rx="4" ry="4" style="stroke:#E7E7E7;stroke-width:1;"/><text fill="#FFFFFF" font-family="sans-serif" font-size="13" lengthAdjust="spacing" textLength="51.2192" x="290.42" y="179.5569">teaches</text></g><!--link D to C--><g class="link" data-entity-1="D" data-entity-2="C" data-source-line="42" data-uid="lnk10" id="link_D_C"><path codeLine="42" d="M551.42,120.2 C551.42,149.62 551.42,163.95 551.42,195.2" fill="none" id="D-C" style="stroke:#E7E7E7;stroke-width:1;"/><line style="stroke:#E7E7E7;stroke-width:1;" x1="547.42" x2="555.42" y1="116.2" y2="116.2"/><line style="stroke:#E7E7E7;stroke-width:1;" x1="547.42" x2="555.42" y1="119.2" y2="119.2"/><line style="stroke:#E7E7E7;stroke-width:1;" x1="551.42" x2="551.42" y1="120.2" y2="112.2"/><line style="stroke:#E7E7E7;stroke-width:1;" x1="551.42" x2="557.42" y1="205.2" y2="213.2"/><line style="stroke:#E7E7E7;stroke-width:1;" x1="551.42" x2="545.42" y1="205.2" y2="213.2"/><line style="stroke:#E7E7E7;stroke-width:1;" x1="551.42" x2="551.42" y1="205.2" y2="213.2"/><ellipse cx="551.42" cy="199.2" fill="none" rx="4" ry="4" style="stroke:#E7E7E7;stroke-width:1;"/><text fill="#FFFFFF" font-family="sans-serif" font-size="13" lengthAdjust="spacing" textLength="22.9785" x="552.42" y="179.5569">has</text></g><!--link C to A--><g class="link" data-entity-1="C" data-entity-2="A" data-source-line="43" data-uid="lnk11" id="link_C_A"><path codeLine="43" d="M497.5599,316.3435 C474.4399,339.2735 464.7026,348.927 439.0326,374.377" fill="none" id="C-A" style="stroke:#E7E7E7;stroke-width:1;"/><line style="stroke:#E7E7E7;stroke-width:1;" x1="497.5832" x2="503.2167" y1="310.6867" y2="316.3668"/><line style="stroke:#E7E7E7;stroke-width:1;" x1="495.4531" x2="501.0866" y1="312.7992" y2="318.4794"/><line style="stroke:#E7E7E7;stroke-width:1;" x1="497.5599" x2="503.24" y1="316.3435" y2="310.71"/><line style="stroke:#E7E7E7;stroke-width:1;" x1="431.9311" x2="430.4743" y1="381.4175" y2="391.3109"/><line style="stroke:#E7E7E7;stroke-width:1;" x1="431.9311" x2="422.0257" y1="381.4175" y2="382.7891"/><line style="stroke:#E7E7E7;stroke-width:1;" x1="431.9311" x2="426.25" y1="381.4175" y2="387.05"/><ellipse cx="436.192" cy="377.1932" fill="none" rx="4" ry="4" style="stroke:#E7E7E7;stroke-width:1;"/><text fill="#FFFFFF" font-family="sans-serif" font-size="13" lengthAdjust="spacing" textLength="48.8135" x="470.42" y="353.4469">records</text></g><!--link ST to A--><g class="link" data-entity-1="ST" data-entity-2="A" data-source-line="44" data-uid="lnk12" id="link_ST_A"><path codeLine="44" d="M209.2901,316.3435 C232.4101,339.2735 242.1499,348.9245 267.8099,374.3745" fill="none" id="ST-A" style="stroke:#E7E7E7;stroke-width:1;"/><line style="stroke:#E7E7E7;stroke-width:1;" x1="203.6333" x2="209.2668" y1="316.3668" y2="310.6867"/><line style="stroke:#E7E7E7;stroke-width:1;" x1="205.7634" x2="211.3969" y1="318.4794" y2="312.7992"/><line style="stroke:#E7E7E7;stroke-width:1;" x1="209.2901" x2="203.61" y1="316.3435" y2="310.71"/><line style="stroke:#E7E7E7;stroke-width:1;" x1="274.91" x2="284.8152" y1="381.4164" y2="382.79"/><line style="stroke:#E7E7E7;stroke-width:1;" x1="274.91" x2="276.3648" y1="381.4164" y2="391.31"/><line style="stroke:#E7E7E7;stroke-width:1;" x1="274.91" x2="280.59" y1="381.4164" y2="387.05"/><ellipse cx="270.6499" cy="377.1913" fill="none" rx="4" ry="4" style="stroke:#E7E7E7;stroke-width:1;"/><text fill="#FFFFFF" font-family="sans-serif" font-size="13" lengthAdjust="spacing" textLength="22.9785" x="250.42" y="353.4469">has</text></g><!--SRC=[bPBFReCm3CRlF8N5QPle2_I6uBBRfC8PkSGQqKX0YL5LjNltEVmPC5NQTaB-uU_BPoTaMVCLujAJYm4zb72B05wqWYEKvMiU2ek6fFJij7qFW0pgTaTSruOMieE1fpUXjUwnJI2ddbDbj4sW8AmRSWcSU51a-JdeUlJ-qZbLDUYRrV4pYcXE9Wxes4Wvvij_pRVHPgtOZxBiBsEfxwEgjN5ZDmSV3K_5v3Z8uggThQoYhMptB-TvDslUOWxCqu_z2NLeUsoKCfDLQ6iQRT87O_zK2_BJO7keaCDwmcVgGHxyvex9YoI1zEoNopJeFaXLv-icM0dt- -7GtSB2ZX1h7wz8XXGqZIWyN_Y8vK74KRQWD217jJmLmUArvQ7r2m00]--></g></svg>