<svg xmlns="http://www.w3.org/2000/svg" xmlns:xlink="http://www.w3.org/1999/xlink" contentStyleType="text/css" data-diagram-type="DESCRIPTION" height="663px" preserveAspectRatio="none" style="width:2080px;height:663px;background:#1B1B1B;" version="1.1" viewBox="0 0 2080 663" width="2080px" zoomAndPan="magnify"><title>Attendance Service - Component Diagram</title><defs/><g><rect fill="#1B1B1B" height="663" style="stroke:none;stroke-width:1;" width="2080" x="0" y="0"/><g class="title" data-source-line="1"><text fill="#FFFFFF" font-family="sans-serif" font-size="14" font-weight="bold" lengthAdjust="spacing" textLength="331.4883" x="867.3384" y="22.9951">Attendance Service - Component Diagram</text></g><!--cluster Attendance Service--><g class="cluster" data-entity="Attendance Service" data-source-line="3" data-uid="ent0002" id="cluster_Attendance Service"><path d="M8.5,43.2969 L163.4863,43.2969 A3.75,3.75 0 0 1 165.9863,45.7969 L172.9863,65.5938 L892.5,65.5938 A2.5,2.5 0 0 1 895,68.0938 L895,507.9769 A2.5,2.5 0 0 1 892.5,510.4769 L8.5,510.4769 A2.5,2.5 0 0 1 6,507.9769 L6,45.7969 A2.5,2.5 0 0 1 8.5,43.2969" fill="none" style="stroke:#FFFFFF;stroke-width:1.5;"/><line style="stroke:#FFFFFF;stroke-width:1.5;" x1="6" x2="172.9863" y1="65.5938" y2="65.5938"/><text fill="#FFFFFF" font-family="sans-serif" font-size="14" font-weight="bold" lengthAdjust="spacing" textLength="153.9863" x="10" y="58.292">Attendance Service</text></g><!--cluster External Systems--><g class="cluster" data-entity="External Systems" data-source-line="12" data-uid="ent0009" id="cluster_External Systems"><path d="M517.5,559.4769 L655.9229,559.4769 A3.75,3.75 0 0 1 658.4229,561.9769 L665.4229,581.7738 L1967.5,581.7738 A2.5,2.5 0 0 1 1970,584.2738 L1970,654.2769 A2.5,2.5 0 0 1 1967.5,656.7769 L517.5,656.7769 A2.5,2.5 0 0 1 515,654.2769 L515,561.9769 A2.5,2.5 0 0 1 517.5,559.4769" fill="none" style="stroke:#FFFFFF;stroke-width:1.5;"/><line style="stroke:#FFFFFF;stroke-width:1.5;" x1="515" x2="665.4229" y1="581.7738" y2="581.7738"/><text fill="#FFFFFF" font-family="sans-serif" font-size="14" font-weight="bold" lengthAdjust="spacing" textLength="137.4229" x="519" y="574.472">External Systems</text></g><!--entity api--><g class="entity" data-entity="api" data-source-line="4" data-uid="ent0003" id="entity_api"><rect fill="#313139" height="46.2969" rx="2.5" ry="2.5" style="stroke:#E7E7E7;stroke-width:0.5;" width="188.6816" x="589.66" y="78.2969"/><rect fill="#313139" height="10" style="stroke:#E7E7E7;stroke-width:0.5;" width="15" x="758.3416" y="83.2969"/><rect fill="#313139" height="2" style="stroke:#E7E7E7;stroke-width:0.5;" width="4" x="756.3416" y="85.2969"/><rect fill="#313139" height="2" style="stroke:#E7E7E7;stroke-width:0.5;" width="4" x="756.3416" y="89.2969"/><text fill="#FFFFFF" font-family="sans-serif" font-size="14" lengthAdjust="spacing" textLength="148.6816" x="604.66" y="111.292">API Gateway Adapter</text></g><!--entity attCtrl--><g class="entity" data-entity="attCtrl" data-source-line="5" data-uid="ent0004" id="entity_attCtrl"><rect fill="#313139" height="46.2969" rx="2.5" ry="2.5" style="stroke:#E7E7E7;stroke-width:0.5;" width="194.3145" x="684.84" y="201.5869"/><rect fill="#313139" height="10" style="stroke:#E7E7E7;stroke-width:0.5;" width="15" x="859.1545" y="206.5869"/><rect fill="#313139" height="2" style="stroke:#E7E7E7;stroke-width:0.5;" width="4" x="857.1545" y="208.5869"/><rect fill="#313139" height="2" style="stroke:#E7E7E7;stroke-width:0.5;" width="4" x="857.1545" y="212.5869"/><text fill="#FFFFFF" font-family="sans-serif" font-size="14" lengthAdjust="spacing" textLength="154.3145" x="699.84" y="234.582">Attendance Controller</text></g><!--entity attMgr--><g class="entity" data-entity="attMgr" data-source-line="6" data-uid="ent0005" id="entity_attMgr"><rect fill="#313139" height="46.2969" rx="2.5" ry="2.5" style="stroke:#E7E7E7;stroke-width:0.5;" width="186.5078" x="487.75" y="324.8869"/><rect fill="#313139" height="10" style="stroke:#E7E7E7;stroke-width:0.5;" width="15" x="654.2578" y="329.8869"/><rect fill="#313139" height="2" style="stroke:#E7E7E7;stroke-width:0.5;" width="4" x="652.2578" y="331.8869"/><rect fill="#313139" height="2" style="stroke:#E7E7E7;stroke-width:0.5;" width="4" x="652.2578" y="335.8869"/><text fill="#FFFFFF" font-family="sans-serif" font-size="14" lengthAdjust="spacing" textLength="146.5078" x="502.75" y="357.882">Attendance Manager</text></g><!--entity eventPub--><g class="entity" data-entity="eventPub" data-source-line="7" data-uid="ent0006" id="entity_eventPub"><rect fill="#313139" height="46.2969" rx="2.5" ry="2.5" style="stroke:#E7E7E7;stroke-width:0.5;" width="149.0742" x="22.46" y="448.1869"/><rect fill="#313139" height="10" style="stroke:#E7E7E7;stroke-width:0.5;" width="15" x="151.5342" y="453.1869"/><rect fill="#313139" height="2" style="stroke:#E7E7E7;stroke-width:0.5;" width="4" x="149.5342" y="455.1869"/><rect fill="#313139" height="2" style="stroke:#E7E7E7;stroke-width:0.5;" width="4" x="149.5342" y="459.1869"/><text fill="#FFFFFF" font-family="sans-serif" font-size="14" lengthAdjust="spacing" textLength="109.0742" x="37.46" y="481.182">Event Publisher</text></g><!--entity attRepo--><g class="entity" data-entity="attRepo" data-source-line="8" data-uid="ent0007" id="entity_attRepo"><rect fill="#313139" height="46.2969" rx="2.5" ry="2.5" style="stroke:#E7E7E7;stroke-width:0.5;" width="200.2139" x="218.89" y="448.1869"/><rect fill="#313139" height="10" style="stroke:#E7E7E7;stroke-width:0.5;" width="15" x="399.1039" y="453.1869"/><rect fill="#313139" height="2" style="stroke:#E7E7E7;stroke-width:0.5;" width="4" x="397.1039" y="455.1869"/><rect fill="#313139" height="2" style="stroke:#E7E7E7;stroke-width:0.5;" width="4" x="397.1039" y="459.1869"/><text fill="#FFFFFF" font-family="sans-serif" font-size="14" lengthAdjust="spacing" textLength="160.2139" x="233.89" y="481.182">Attendance Repository</text></g><!--entity rules--><g class="entity" data-entity="rules" data-source-line="9" data-uid="ent0008" id="entity_rules"><rect fill="#313139" height="46.2969" rx="2.5" ry="2.5" style="stroke:#E7E7E7;stroke-width:0.5;" width="220.8652" x="454.57" y="448.1869"/><rect fill="#313139" height="10" style="stroke:#E7E7E7;stroke-width:0.5;" width="15" x="655.4352" y="453.1869"/><rect fill="#313139" height="2" style="stroke:#E7E7E7;stroke-width:0.5;" width="4" x="653.4352" y="455.1869"/><rect fill="#313139" height="2" style="stroke:#E7E7E7;stroke-width:0.5;" width="4" x="653.4352" y="459.1869"/><text fill="#FFFFFF" font-family="sans-serif" font-size="14" lengthAdjust="spacing" textLength="180.8652" x="469.57" y="481.182">Validation &amp; Rules Engine</text></g><!--entity attDB--><g class="entity" data-entity="attDB" data-source-line="13" data-uid="ent0010" id="entity_attDB"><rect fill="#313139" height="46.2969" rx="2.5" ry="2.5" style="stroke:#E7E7E7;stroke-width:0.5;" width="230.7295" x="530.64" y="594.4769"/><rect fill="#313139" height="10" style="stroke:#E7E7E7;stroke-width:0.5;" width="15" x="741.3695" y="599.4769"/><rect fill="#313139" height="2" style="stroke:#E7E7E7;stroke-width:0.5;" width="4" x="739.3695" y="601.4769"/><rect fill="#313139" height="2" style="stroke:#E7E7E7;stroke-width:0.5;" width="4" x="739.3695" y="605.4769"/><text fill="#FFFFFF" font-family="sans-serif" font-size="14" lengthAdjust="spacing" textLength="190.7295" x="545.64" y="627.472">PostgreSQL Attendance DB</text></g><!--entity aiAPI--><g class="entity" data-entity="aiAPI" data-source-line="14" data-uid="ent0011" id="entity_aiAPI"><rect fill="#313139" height="46.2969" rx="2.5" ry="2.5" style="stroke:#E7E7E7;stroke-width:0.5;" width="266.249" x="1255.88" y="594.4769"/><rect fill="#313139" height="10" style="stroke:#E7E7E7;stroke-width:0.5;" width="15" x="1502.129" y="599.4769"/><rect fill="#313139" height="2" style="stroke:#E7E7E7;stroke-width:0.5;" width="4" x="1500.129" y="601.4769"/><rect fill="#313139" height="2" style="stroke:#E7E7E7;stroke-width:0.5;" width="4" x="1500.129" y="605.4769"/><text fill="#FFFFFF" font-family="sans-serif" font-size="14" lengthAdjust="spacing" textLength="226.249" x="1270.88" y="627.472">AI / Computer Vision Service API</text></g><!--entity userAPI--><g class="entity" data-entity="userAPI" data-source-line="15" data-uid="ent0012" id="entity_userAPI"><rect fill="#313139" height="46.2969" rx="2.5" ry="2.5" style="stroke:#E7E7E7;stroke-width:0.5;" width="154.7002" x="1556.65" y="594.4769"/><rect fill="#313139" height="10" style="stroke:#E7E7E7;stroke-width:0.5;" width="15" x="1691.3502" y="599.4769"/><rect fill="#313139" height="2" style="stroke:#E7E7E7;stroke-width:0.5;" width="4" x="1689.3502" y="601.4769"/><rect fill="#313139" height="2" style="stroke:#E7E7E7;stroke-width:0.5;" width="4" x="1689.3502" y="605.4769"/><text fill="#FFFFFF" font-family="sans-serif" font-size="14" lengthAdjust="spacing" textLength="114.7002" x="1571.65" y="627.472">User Service API</text></g><!--entity deptAPI--><g class="entity" data-entity="deptAPI" data-source-line="16" data-uid="ent0013" id="entity_deptAPI"><rect fill="#313139" height="46.2969" rx="2.5" ry="2.5" style="stroke:#E7E7E7;stroke-width:0.5;" width="207.5078" x="1746.25" y="594.4769"/><rect fill="#313139" height="10" style="stroke:#E7E7E7;stroke-width:0.5;" width="15" x="1933.7578" y="599.4769"/><rect fill="#313139" height="2" style="stroke:#E7E7E7;stroke-width:0.5;" width="4" x="1931.7578" y="601.4769"/><rect fill="#313139" height="2" style="stroke:#E7E7E7;stroke-width:0.5;" width="4" x="1931.7578" y="605.4769"/><text fill="#FFFFFF" font-family="sans-serif" font-size="14" lengthAdjust="spacing" textLength="167.5078" x="1761.25" y="627.472">Department Service API</text></g><!--entity notifAPI--><g class="entity" data-entity="notifAPI" data-source-line="17" data-uid="ent0014" id="entity_notifAPI"><rect fill="#313139" height="46.2969" rx="2.5" ry="2.5" style="stroke:#E7E7E7;stroke-width:0.5;" width="203.1191" x="796.44" y="594.4769"/><rect fill="#313139" height="10" style="stroke:#E7E7E7;stroke-width:0.5;" width="15" x="979.5591" y="599.4769"/><rect fill="#313139" height="2" style="stroke:#E7E7E7;stroke-width:0.5;" width="4" x="977.5591" y="601.4769"/><rect fill="#313139" height="2" style="stroke:#E7E7E7;stroke-width:0.5;" width="4" x="977.5591" y="605.4769"/><text fill="#FFFFFF" font-family="sans-serif" font-size="14" lengthAdjust="spacing" textLength="163.1191" x="811.44" y="627.472">Notification Service API</text></g><!--entity analyticsAPI--><g class="entity" data-entity="analyticsAPI" data-source-line="18" data-uid="ent0015" id="entity_analyticsAPI"><rect fill="#313139" height="46.2969" rx="2.5" ry="2.5" style="stroke:#E7E7E7;stroke-width:0.5;" width="186.3643" x="1034.82" y="594.4769"/><rect fill="#313139" height="10" style="stroke:#E7E7E7;stroke-width:0.5;" width="15" x="1201.1843" y="599.4769"/><rect fill="#313139" height="2" style="stroke:#E7E7E7;stroke-width:0.5;" width="4" x="1199.1843" y="601.4769"/><rect fill="#313139" height="2" style="stroke:#E7E7E7;stroke-width:0.5;" width="4" x="1199.1843" y="605.4769"/><text fill="#FFFFFF" font-family="sans-serif" font-size="14" lengthAdjust="spacing" textLength="146.3643" x="1049.82" y="627.472">Analytics Service API</text></g><!--link api to attCtrl--><g class="link" data-entity-1="api" data-entity-2="attCtrl" data-source-line="21" data-uid="lnk16" id="link_api_attCtrl"><path d="M702.2,124.9669 C719.81,146.7569 742.5496,174.9095 760.1196,196.6595" fill="none" id="api-to-attCtrl" style="stroke:#E7E7E7;stroke-width:1;"/><polygon fill="#E7E7E7" points="763.89,201.3269,761.346,191.8122,760.748,197.4374,755.1229,196.8394,763.89,201.3269" style="stroke:#E7E7E7;stroke-width:1;"/><text fill="#FFFFFF" font-family="sans-serif" font-size="13" lengthAdjust="spacing" textLength="193.4766" x="740" y="167.6538">REST calls (mark, edit, query)</text></g><!--link attCtrl to attMgr--><g class="link" data-entity-1="attCtrl" data-entity-2="attMgr" data-source-line="22" data-uid="lnk17" id="link_attCtrl_attMgr"><path d="M744.66,248.2669 C708.68,269.9869 659.6473,299.5771 623.6173,321.3171" fill="none" id="attCtrl-to-attMgr" style="stroke:#E7E7E7;stroke-width:1;"/><polygon fill="#E7E7E7" points="618.48,324.4169,628.2524,323.1921,622.7611,321.8337,624.1194,316.3424,618.48,324.4169" style="stroke:#E7E7E7;stroke-width:1;"/><text fill="#FFFFFF" font-family="sans-serif" font-size="13" lengthAdjust="spacing" textLength="180.7813" x="695" y="290.9538">Business logic &amp; processing</text></g><!--link attMgr to attRepo--><g class="link" data-entity-1="attMgr" data-entity-2="attRepo" data-source-line="23" data-uid="lnk18" id="link_attMgr_attRepo"><path d="M487.25,354.2469 C444.7,360.5969 395.8,373.8669 359,401.1869 C343.41,412.7569 335.1892,426.7966 328.8692,442.1866" fill="none" id="attMgr-to-attRepo" style="stroke:#E7E7E7;stroke-width:1;"/><polygon fill="#E7E7E7" points="326.59,447.7369,333.709,440.931,328.4894,443.1117,326.3087,437.892,326.59,447.7369" style="stroke:#E7E7E7;stroke-width:1;"/><text fill="#FFFFFF" font-family="sans-serif" font-size="13" lengthAdjust="spacing" textLength="168.7144" x="360" y="414.2538">CRUD attendance records</text></g><!--link attMgr to rules--><g class="link" data-entity-1="attMgr" data-entity-2="rules" data-source-line="24" data-uid="lnk19" id="link_attMgr_rules"><path d="M557.3,371.5769 C549.98,380.0669 542.83,390.3269 539,401.1869 C533.46,416.9069 537.1827,429.3402 545.2127,442.8402" fill="none" id="attMgr-to-rules" style="stroke:#E7E7E7;stroke-width:1;"/><polygon fill="#E7E7E7" points="548.28,447.9969,547.1169,438.2169,545.7239,443.6996,540.2413,442.3067,548.28,447.9969" style="stroke:#E7E7E7;stroke-width:1;"/><text fill="#FFFFFF" font-family="sans-serif" font-size="13" lengthAdjust="spacing" textLength="335.5815" x="540" y="414.2538">Validate business rules (e.g., no duplicate marking)</text></g><!--link attMgr to eventPub--><g class="link" data-entity-1="attMgr" data-entity-2="eventPub" data-source-line="25" data-uid="lnk20" id="link_attMgr_eventPub"><path d="M487.45,352.7969 C355.31,359.0669 127.08,373.7469 101,401.1869 C89.48,413.2969 88.413,426.7013 90.653,441.8613" fill="none" id="attMgr-to-eventPub" style="stroke:#E7E7E7;stroke-width:1;"/><polygon fill="#E7E7E7" points="91.53,447.7969,94.1715,438.3089,90.7991,442.8506,86.2574,439.4782,91.53,447.7969" style="stroke:#E7E7E7;stroke-width:1;"/><text fill="#FFFFFF" font-family="sans-serif" font-size="13" lengthAdjust="spacing" textLength="233.8223" x="102" y="414.2538">Publish "AttendanceMarked" events</text></g><!--link attRepo to attDB--><g class="link" data-entity-1="attRepo" data-entity-2="attDB" data-source-line="27" data-uid="lnk21" id="link_attRepo_attDB"><path d="M370.09,494.8769 C431.35,521.9069 527.9008,564.5144 589.2408,591.5844" fill="none" id="attRepo-to-attDB" style="stroke:#E7E7E7;stroke-width:1;"/><polygon fill="#E7E7E7" points="594.73,594.0069,588.1111,586.7137,590.1556,591.9882,584.8812,594.0327,594.73,594.0069" style="stroke:#E7E7E7;stroke-width:1;"/><text fill="#FFFFFF" font-family="sans-serif" font-size="13" lengthAdjust="spacing" textLength="215.6807" x="474" y="539.5438">Store &amp; retrieve attendance data</text></g><!--link attCtrl to aiAPI--><g class="link" data-entity-1="attCtrl" data-entity-2="aiAPI" data-source-line="29" data-uid="lnk22" id="link_attCtrl_aiAPI"><path d="M833.19,248.2669 C918.86,285.6269 1097.06,361.8669 1251,418.1869 C1291.79,433.1069 1314.08,416.6969 1344,448.1869 C1382.47,488.6669 1388.7643,552.2876 1389.3343,588.0276" fill="none" id="attCtrl-to-aiAPI" style="stroke:#E7E7E7;stroke-width:1;"/><polygon fill="#E7E7E7" points="1389.43,594.0269,1393.286,584.9642,1389.3503,589.0275,1385.287,585.0918,1389.43,594.0269" style="stroke:#E7E7E7;stroke-width:1;"/><text fill="#FFFFFF" font-family="sans-serif" font-size="13" lengthAdjust="spacing" textLength="338.3999" x="1252" y="414.2538">Send classroom images, get recognized student IDs</text></g><!--link attCtrl to userAPI--><g class="link" data-entity-1="attCtrl" data-entity-2="userAPI" data-source-line="30" data-uid="lnk23" id="link_attCtrl_userAPI"><path d="M879.57,233.4369 C1073.4,250.7869 1496.75,299.5969 1595,401.1869 C1646.26,454.1969 1642.9085,544.6254 1637.9485,588.2054" fill="none" id="attCtrl-to-userAPI" style="stroke:#E7E7E7;stroke-width:1;"/><polygon fill="#E7E7E7" points="1637.27,594.1669,1642.2621,585.6769,1637.8354,589.1989,1634.3134,584.7723,1637.27,594.1669" style="stroke:#E7E7E7;stroke-width:1;"/><text fill="#FFFFFF" font-family="sans-serif" font-size="13" lengthAdjust="spacing" textLength="262.6152" x="1608" y="414.2538">Fetch student/teacher info for validation</text></g><!--link attCtrl to deptAPI--><g class="link" data-entity-1="attCtrl" data-entity-2="deptAPI" data-source-line="31" data-uid="lnk24" id="link_attCtrl_deptAPI"><path d="M879.56,225.5469 C1124.47,227.3969 1754.49,247.3169 1879,401.1869 C1924.82,457.8069 1887.8519,546.1908 1865.5119,588.8808" fill="none" id="attCtrl-to-deptAPI" style="stroke:#E7E7E7;stroke-width:1;"/><polygon fill="#E7E7E7" points="1862.73,594.1969,1870.447,588.0774,1865.0483,589.7668,1863.3589,584.3681,1862.73,594.1969" style="stroke:#E7E7E7;stroke-width:1;"/><text fill="#FFFFFF" font-family="sans-serif" font-size="13" lengthAdjust="spacing" textLength="182.165" x="1890" y="414.2538">Fetch class/department info</text></g><!--link attMgr to notifAPI--><g class="link" data-entity-1="attMgr" data-entity-2="notifAPI" data-source-line="32" data-uid="lnk25" id="link_attMgr_notifAPI"><path d="M674.66,352.5869 C752.33,357.7269 854.06,370.3269 880,401.1869 C884.86,406.9669 884.57,412.1669 880,418.1869 C849.85,457.8469 802.15,408.5269 772,448.1869 C753.09,473.0569 758.28,490.4069 772,518.4769 C788.43,552.1169 817.3764,574.5625 845.9864,591.1125" fill="none" id="attMgr-to-notifAPI" style="stroke:#E7E7E7;stroke-width:1;"/><polygon fill="#E7E7E7" points="851.18,594.1169,845.3925,586.1479,846.852,591.6132,841.3866,593.0728,851.18,594.1169" style="stroke:#E7E7E7;stroke-width:1;"/><text fill="#FFFFFF" font-family="sans-serif" font-size="13" lengthAdjust="spacing" textLength="311.5303" x="773" y="475.8938">Trigger notifications for missing/low attendance</text></g><!--link attMgr to analyticsAPI--><g class="link" data-entity-1="attMgr" data-entity-2="analyticsAPI" data-source-line="33" data-uid="lnk26" id="link_attMgr_analyticsAPI"><path d="M674.63,354.8069 C805.3,364.8669 1032.7,390.3669 1089,448.1869 C1127.74,487.9669 1131.0704,552.2206 1129.8104,588.1306" fill="none" id="attMgr-to-analyticsAPI" style="stroke:#E7E7E7;stroke-width:1;"/><polygon fill="#E7E7E7" points="1129.6,594.1269,1133.9131,585.2727,1129.7753,589.13,1125.9181,584.9921,1129.6,594.1269" style="stroke:#E7E7E7;stroke-width:1;"/><text fill="#FFFFFF" font-family="sans-serif" font-size="13" lengthAdjust="spacing" textLength="211.8213" x="1124" y="475.8938">Send attendance metrics/events</text></g><!--SRC=[PLDDRzf04BtxLumuL8a4uTv39S2qGYeLXIINgeVDUd1MMU-wEsDIMlM_TzRi4aDEjcVUcuytpspO8ioOqLNAQOGTXeEHvmGMlcczGyTG6bK7rHH5g_IBgX56xmaZ-5i0_9XjLl15CRwg8ymgrJA6dw08L6lwz1jluHq7Rsq6C2yus2lGMZdfTqQiwn01oqESQjCzMKFFAOin9g6h0bjiFHdsuPXhn4W4FIfhAiN6E_W0syuYmTBLnc4F335G_1kilFmjkpXbONSaneRImXjFN0VSVVywLB6SvtRbl9ze1TDUq4wAmAEXs3PBBPgTq4RU8lg117ITxIIOyYMsAd0JHRX6LTXoGdtpRFP6drQynhcOJC2PR7Lae-dzH3aJaIA6N14caq_vMF0HjilTFMXbBS5DeyBB6B0oF8PV7ORZRP61YIJt4ywy8v6P2AolZHRrs-2rV1jN5mcKyF5MGbXi7yhucTKDg7seQ0ZkxoNGT5M4fzpabBd1k_fkB6j3rRKsge8GvvMUjyCwsKPIAlbhQFQrCB0QdL1K57d4D6uv5zfEp8QoL40EHe33mMKoLLoA4cyUMG81RHLHyBu1quZdQ0mrShzjxSmVh82ug-BLLoLTL4dUa3gVaVLpnaqPbPOV18pRUzZx08UpwI_uoJLdVZ_8j7gpMImmb2dRHnZtmTJoYvv2oMxKDsjCVzEfzQy34IvEFF1N5c4WLnCbr3GzoVqV]--></g></svg>