<svg xmlns="http://www.w3.org/2000/svg" xmlns:xlink="http://www.w3.org/1999/xlink" contentStyleType="text/css" data-diagram-type="SEQUENCE" height="473px" preserveAspectRatio="none" style="width:1437px;height:473px;background:#1B1B1B;" version="1.1" viewBox="0 0 1437 473" width="1437px" zoomAndPan="magnify"><defs/><g><rect fill="#1B1B1B" height="473" style="stroke:none;stroke-width:1;" width="1437" x="0" y="0"/><g><title>Teacher</title><rect fill="#000000" fill-opacity="0.00000" height="311.3281" width="8" x="32.3418" y="81.2969"/><line style="stroke:#E7E7E7;stroke-width:0.5;stroke-dasharray:5,5;" x1="36" x2="36" y1="81.2969" y2="392.625"/></g><g><title>React Frontend</title><rect fill="#000000" fill-opacity="0.00000" height="311.3281" width="8" x="302.4595" y="81.2969"/><line style="stroke:#E7E7E7;stroke-width:0.5;stroke-dasharray:5,5;" x1="305.6265" x2="305.6265" y1="81.2969" y2="392.625"/></g><g><title>Attendance Service</title><rect fill="#000000" fill-opacity="0.00000" height="311.3281" width="8" x="537.9888" y="81.2969"/><line style="stroke:#E7E7E7;stroke-width:0.5;stroke-dasharray:5,5;" x1="541.5474" x2="541.5474" y1="81.2969" y2="392.625"/></g><g><title>AI Recognition Service</title><rect fill="#000000" fill-opacity="0.00000" height="311.3281" width="8" x="918.6255" y="81.2969"/><line style="stroke:#E7E7E7;stroke-width:0.5;stroke-dasharray:5,5;" x1="921.9165" x2="921.9165" y1="81.2969" y2="392.625"/></g><g><title>FAISS Index</title><rect fill="#000000" fill-opacity="0.00000" height="311.3281" width="8" x="1153.9136" y="81.2969"/><line style="stroke:#E7E7E7;stroke-width:0.5;stroke-dasharray:5,5;" x1="1157.5288" x2="1157.5288" y1="81.2969" y2="392.625"/></g><g><title>PostgreSQL .Attendance DB.</title><rect fill="#000000" fill-opacity="0.00000" height="311.3281" width="8" x="1320.125" y="81.2969"/><line style="stroke:#E7E7E7;stroke-width:0.5;stroke-dasharray:5,5;" x1="1323.2983" x2="1323.2983" y1="81.2969" y2="392.625"/></g><g class="participant participant-head" data-participant="Teacher"><text fill="#FFFFFF" font-family="sans-serif" font-size="14" lengthAdjust="spacing" textLength="56.6836" x="5" y="77.9951">Teacher</text><ellipse cx="36.3418" cy="13.5" fill="#222222" rx="8" ry="8" style="stroke:#E7E7E7;stroke-width:0.5;"/><path d="M36.3418,21.5 L36.3418,48.5 M23.3418,29.5 L49.3418,29.5 M36.3418,48.5 L23.3418,63.5 M36.3418,48.5 L49.3418,63.5" fill="none" style="stroke:#E7E7E7;stroke-width:0.5;"/></g><g class="participant participant-tail" data-participant="Teacher"><text fill="#FFFFFF" font-family="sans-serif" font-size="14" lengthAdjust="spacing" textLength="56.6836" x="5" y="404.6201">Teacher</text><ellipse cx="36.3418" cy="416.4219" fill="#222222" rx="8" ry="8" style="stroke:#E7E7E7;stroke-width:0.5;"/><path d="M36.3418,424.4219 L36.3418,451.4219 M23.3418,432.4219 L49.3418,432.4219 M36.3418,451.4219 L23.3418,466.4219 M36.3418,451.4219 L49.3418,466.4219" fill="none" style="stroke:#E7E7E7;stroke-width:0.5;"/></g><g class="participant participant-head" data-participant="FE"><rect fill="#222222" height="30.2969" rx="2.5" ry="2.5" style="stroke:#E7E7E7;stroke-width:0.5;" width="121.666" x="245.6265" y="50"/><text fill="#FFFFFF" font-family="sans-serif" font-size="14" lengthAdjust="spacing" textLength="107.666" x="252.6265" y="69.9951">React Frontend</text></g><g class="participant participant-tail" data-participant="FE"><rect fill="#222222" height="30.2969" rx="2.5" ry="2.5" style="stroke:#E7E7E7;stroke-width:0.5;" width="121.666" x="245.6265" y="391.625"/><text fill="#FFFFFF" font-family="sans-serif" font-size="14" lengthAdjust="spacing" textLength="107.666" x="252.6265" y="411.6201">React Frontend</text></g><g class="participant participant-head" data-participant="AS"><rect fill="#222222" height="30.2969" rx="2.5" ry="2.5" style="stroke:#E7E7E7;stroke-width:0.5;" width="150.8828" x="466.5474" y="50"/><text fill="#FFFFFF" font-family="sans-serif" font-size="14" lengthAdjust="spacing" textLength="136.8828" x="473.5474" y="69.9951">Attendance Service</text></g><g class="participant participant-tail" data-participant="AS"><rect fill="#222222" height="30.2969" rx="2.5" ry="2.5" style="stroke:#E7E7E7;stroke-width:0.5;" width="150.8828" x="466.5474" y="391.625"/><text fill="#FFFFFF" font-family="sans-serif" font-size="14" lengthAdjust="spacing" textLength="136.8828" x="473.5474" y="411.6201">Attendance Service</text></g><g class="participant participant-head" data-participant="AI"><rect fill="#222222" height="30.2969" rx="2.5" ry="2.5" style="stroke:#E7E7E7;stroke-width:0.5;" width="171.418" x="836.9165" y="50"/><text fill="#FFFFFF" font-family="sans-serif" font-size="14" lengthAdjust="spacing" textLength="157.418" x="843.9165" y="69.9951">AI Recognition Service</text></g><g class="participant participant-tail" data-participant="AI"><rect fill="#222222" height="30.2969" rx="2.5" ry="2.5" style="stroke:#E7E7E7;stroke-width:0.5;" width="171.418" x="836.9165" y="391.625"/><text fill="#FFFFFF" font-family="sans-serif" font-size="14" lengthAdjust="spacing" textLength="157.418" x="843.9165" y="411.6201">AI Recognition Service</text></g><g class="participant participant-head" data-participant="FAISS"><rect fill="#222222" height="30.2969" rx="2.5" ry="2.5" style="stroke:#E7E7E7;stroke-width:0.5;" width="96.7695" x="1109.5288" y="50"/><text fill="#FFFFFF" font-family="sans-serif" font-size="14" lengthAdjust="spacing" textLength="82.7695" x="1116.5288" y="69.9951">FAISS Index</text></g><g class="participant participant-tail" data-participant="FAISS"><rect fill="#222222" height="30.2969" rx="2.5" ry="2.5" style="stroke:#E7E7E7;stroke-width:0.5;" width="96.7695" x="1109.5288" y="391.625"/><text fill="#FFFFFF" font-family="sans-serif" font-size="14" lengthAdjust="spacing" textLength="82.7695" x="1116.5288" y="411.6201">FAISS Index</text></g><g class="participant participant-head" data-participant="DB"><rect fill="#222222" height="30.2969" rx="2.5" ry="2.5" style="stroke:#E7E7E7;stroke-width:0.5;" width="215.6533" x="1216.2983" y="50"/><text fill="#FFFFFF" font-family="sans-serif" font-size="14" lengthAdjust="spacing" textLength="201.6533" x="1223.2983" y="69.9951">PostgreSQL (Attendance DB)</text></g><g class="participant participant-tail" data-participant="DB"><rect fill="#222222" height="30.2969" rx="2.5" ry="2.5" style="stroke:#E7E7E7;stroke-width:0.5;" width="215.6533" x="1216.2983" y="391.625"/><text fill="#FFFFFF" font-family="sans-serif" font-size="14" lengthAdjust="spacing" textLength="201.6533" x="1223.2983" y="411.6201">PostgreSQL (Attendance DB)</text></g><g class="message" data-participant-1="Teacher" data-participant-2="FE"><polygon fill="#E7E7E7" points="294.4595,108.4297,304.4595,112.4297,294.4595,116.4297,298.4595,112.4297" style="stroke:#E7E7E7;stroke-width:1;"/><line style="stroke:#E7E7E7;stroke-width:1;" x1="36.3418" x2="300.4595" y1="112.4297" y2="112.4297"/><text fill="#FFFFFF" font-family="sans-serif" font-size="13" lengthAdjust="spacing" textLength="246.1177" x="43.3418" y="107.3638">Upload class photo / Start attendance</text></g><g class="message" data-participant-1="FE" data-participant-2="AS"><polygon fill="#E7E7E7" points="529.9888,137.5625,539.9888,141.5625,529.9888,145.5625,533.9888,141.5625" style="stroke:#E7E7E7;stroke-width:1;"/><line style="stroke:#E7E7E7;stroke-width:1;" x1="306.4595" x2="535.9888" y1="141.5625" y2="141.5625"/><text fill="#FFFFFF" font-family="sans-serif" font-size="13" lengthAdjust="spacing" textLength="203.2075" x="313.4595" y="136.4966">POST /attendance/start (photo)</text></g><g class="message" data-participant-1="AS" data-participant-2="AI"><polygon fill="#E7E7E7" points="910.6255,166.6953,920.6255,170.6953,910.6255,174.6953,914.6255,170.6953" style="stroke:#E7E7E7;stroke-width:1;"/><line style="stroke:#E7E7E7;stroke-width:1;" x1="541.9888" x2="916.6255" y1="170.6953" y2="170.6953"/><text fill="#FFFFFF" font-family="sans-serif" font-size="13" lengthAdjust="spacing" textLength="193.7241" x="548.9888" y="165.6294">Send photo for face detection</text></g><g class="message" data-participant-1="AI" data-participant-2="FAISS"><polygon fill="#E7E7E7" points="1145.9136,195.8281,1155.9136,199.8281,1145.9136,203.8281,1149.9136,199.8281" style="stroke:#E7E7E7;stroke-width:1;"/><line style="stroke:#E7E7E7;stroke-width:1;" x1="922.6255" x2="1151.9136" y1="199.8281" y2="199.8281"/><text fill="#FFFFFF" font-family="sans-serif" font-size="13" lengthAdjust="spacing" textLength="211.2881" x="929.6255" y="194.7622">Query embeddings for matching</text></g><g class="message" data-participant-1="FAISS" data-participant-2="AI"><polygon fill="#E7E7E7" points="933.6255,224.9609,923.6255,228.9609,933.6255,232.9609,929.6255,228.9609" style="stroke:#E7E7E7;stroke-width:1;"/><line style="stroke:#E7E7E7;stroke-width:1;stroke-dasharray:2,2;" x1="927.6255" x2="1156.9136" y1="228.9609" y2="228.9609"/><text fill="#FFFFFF" font-family="sans-serif" font-size="13" lengthAdjust="spacing" textLength="184.0249" x="939.6255" y="223.895">Return matched student IDs</text></g><g class="message" data-participant-1="AI" data-participant-2="AS"><polygon fill="#E7E7E7" points="552.9888,254.0938,542.9888,258.0938,552.9888,262.0938,548.9888,258.0938" style="stroke:#E7E7E7;stroke-width:1;"/><line style="stroke:#E7E7E7;stroke-width:1;stroke-dasharray:2,2;" x1="546.9888" x2="921.6255" y1="258.0938" y2="258.0938"/><text fill="#FFFFFF" font-family="sans-serif" font-size="13" lengthAdjust="spacing" textLength="356.6367" x="558.9888" y="253.0278">Return list of recognized students + confidence scores</text></g><g class="message" data-participant-1="AS" data-participant-2="DB"><polygon fill="#E7E7E7" points="1312.125,283.2266,1322.125,287.2266,1312.125,291.2266,1316.125,287.2266" style="stroke:#E7E7E7;stroke-width:1;"/><line style="stroke:#E7E7E7;stroke-width:1;" x1="541.9888" x2="1318.125" y1="287.2266" y2="287.2266"/><text fill="#FFFFFF" font-family="sans-serif" font-size="13" lengthAdjust="spacing" textLength="336.4893" x="548.9888" y="282.1606">Insert attendance records (student_id, date, status)</text></g><g class="message" data-participant-1="DB" data-participant-2="AS"><polygon fill="#E7E7E7" points="552.9888,312.3594,542.9888,316.3594,552.9888,320.3594,548.9888,316.3594" style="stroke:#E7E7E7;stroke-width:1;"/><line style="stroke:#E7E7E7;stroke-width:1;stroke-dasharray:2,2;" x1="546.9888" x2="1323.125" y1="316.3594" y2="316.3594"/><text fill="#FFFFFF" font-family="sans-serif" font-size="13" lengthAdjust="spacing" textLength="84.335" x="558.9888" y="311.2935">Confirmation</text></g><g class="message" data-participant-1="AS" data-participant-2="FE"><polygon fill="#E7E7E7" points="317.4595,341.4922,307.4595,345.4922,317.4595,349.4922,313.4595,345.4922" style="stroke:#E7E7E7;stroke-width:1;"/><line style="stroke:#E7E7E7;stroke-width:1;stroke-dasharray:2,2;" x1="311.4595" x2="540.9888" y1="345.4922" y2="345.4922"/><text fill="#FFFFFF" font-family="sans-serif" font-size="13" lengthAdjust="spacing" textLength="211.5293" x="323.4595" y="340.4263">Attendance marked successfully</text></g><g class="message" data-participant-1="FE" data-participant-2="Teacher"><polygon fill="#E7E7E7" points="47.3418,370.625,37.3418,374.625,47.3418,378.625,43.3418,374.625" style="stroke:#E7E7E7;stroke-width:1;"/><line style="stroke:#E7E7E7;stroke-width:1;stroke-dasharray:2,2;" x1="41.3418" x2="305.4595" y1="374.625" y2="374.625"/><text fill="#FFFFFF" font-family="sans-serif" font-size="13" lengthAdjust="spacing" textLength="178.6865" x="53.3418" y="369.5591">Show attendance summary</text></g><!--SRC=[NP7DRi8m48JlUOeL9r11t3bK2gL8aIeLC3rNhhq1gy6El9kszEcxSS9FUjpiDvEPjJOS8knHcoF6hDQHdN6rzWoZdNnaMCVW6RqTWIPOFm-HdDkLzWP1OVno1XEMgtzO0JiquU0Tk-27Q354rtcX51JUua_tntOU8fj0V8YejYymlWkmMawIOhNCihuFp1ubCYpWhQw2jc0gJGJrCN20EIWMLz1NXqnG4UHA19jNjOVvRJUd18-JTf89qvA5a4g8thAKIvPQebXaD6tLJ90sGogrW6s3yGnu-a1hdJzGKfmqcwDCMKVDBiOxv2RwReqMY1kBKhzOKNAz9EsnoX53A25sT_wzAGWUm0HVEXaa6vaGaVe6gwKu59vmS8Xa4Yt1kBTuTtOALZDEnLHpGvDCbDS8JwrxbA2fSLSXdVtkTKuwVhQP6cEGg6ogwfpkBUZbiUIMn_1zduEQa-ZEVm00]--></g></svg>