<svg xmlns="http://www.w3.org/2000/svg" xmlns:xlink="http://www.w3.org/1999/xlink" contentStyleType="text/css" data-diagram-type="SEQUENCE" height="415px" preserveAspectRatio="none" style="width:1009px;height:415px;background:#1B1B1B;" version="1.1" viewBox="0 0 1009 415" width="1009px" zoomAndPan="magnify"><defs/><g><rect fill="#1B1B1B" height="415" style="stroke:none;stroke-width:1;" width="1009" x="0" y="0"/><g><title>Department Admin</title><rect fill="#000000" fill-opacity="0.00000" height="253.0625" width="8" x="71.0161" y="81.2969"/><line style="stroke:#E7E7E7;stroke-width:0.5;stroke-dasharray:5,5;" x1="75" x2="75" y1="81.2969" y2="334.3594"/></g><g><title>React Frontend</title><rect fill="#000000" fill-opacity="0.00000" height="253.0625" width="8" x="272.814" y="81.2969"/><line style="stroke:#E7E7E7;stroke-width:0.5;stroke-dasharray:5,5;" x1="275.981" x2="275.981" y1="81.2969" y2="334.3594"/></g><g><title>Attendance Service</title><rect fill="#000000" fill-opacity="0.00000" height="253.0625" width="8" x="549.8188" y="81.2969"/><line style="stroke:#E7E7E7;stroke-width:0.5;stroke-dasharray:5,5;" x1="553.3774" x2="553.3774" y1="81.2969" y2="334.3594"/></g><g><title>PostgreSQL .Attendance DB.</title><rect fill="#000000" fill-opacity="0.00000" height="253.0625" width="8" x="745.2056" y="81.2969"/><line style="stroke:#E7E7E7;stroke-width:0.5;stroke-dasharray:5,5;" x1="748.3789" x2="748.3789" y1="81.2969" y2="334.3594"/></g><g><title>Audit Log Service</title><rect fill="#000000" fill-opacity="0.00000" height="253.0625" width="8" x="931.3369" y="81.2969"/><line style="stroke:#E7E7E7;stroke-width:0.5;stroke-dasharray:5,5;" x1="935.0322" x2="935.0322" y1="81.2969" y2="334.3594"/></g><g class="participant participant-head" data-participant="DA"><text fill="#FFFFFF" font-family="sans-serif" font-size="14" lengthAdjust="spacing" textLength="134.0322" x="5" y="77.9951">Department Admin</text><ellipse cx="75.0161" cy="13.5" fill="#222222" rx="8" ry="8" style="stroke:#E7E7E7;stroke-width:0.5;"/><path d="M75.0161,21.5 L75.0161,48.5 M62.0161,29.5 L88.0161,29.5 M75.0161,48.5 L62.0161,63.5 M75.0161,48.5 L88.0161,63.5" fill="none" style="stroke:#E7E7E7;stroke-width:0.5;"/></g><g class="participant participant-tail" data-participant="DA"><text fill="#FFFFFF" font-family="sans-serif" font-size="14" lengthAdjust="spacing" textLength="134.0322" x="5" y="346.3545">Department Admin</text><ellipse cx="75.0161" cy="358.1563" fill="#222222" rx="8" ry="8" style="stroke:#E7E7E7;stroke-width:0.5;"/><path d="M75.0161,366.1563 L75.0161,393.1563 M62.0161,374.1563 L88.0161,374.1563 M75.0161,393.1563 L62.0161,408.1563 M75.0161,393.1563 L88.0161,408.1563" fill="none" style="stroke:#E7E7E7;stroke-width:0.5;"/></g><g class="participant participant-head" data-participant="FE"><rect fill="#222222" height="30.2969" rx="2.5" ry="2.5" style="stroke:#E7E7E7;stroke-width:0.5;" width="121.666" x="215.981" y="50"/><text fill="#FFFFFF" font-family="sans-serif" font-size="14" lengthAdjust="spacing" textLength="107.666" x="222.981" y="69.9951">React Frontend</text></g><g class="participant participant-tail" data-participant="FE"><rect fill="#222222" height="30.2969" rx="2.5" ry="2.5" style="stroke:#E7E7E7;stroke-width:0.5;" width="121.666" x="215.981" y="333.3594"/><text fill="#FFFFFF" font-family="sans-serif" font-size="14" lengthAdjust="spacing" textLength="107.666" x="222.981" y="353.3545">React Frontend</text></g><g class="participant participant-head" data-participant="AS"><rect fill="#222222" height="30.2969" rx="2.5" ry="2.5" style="stroke:#E7E7E7;stroke-width:0.5;" width="150.8828" x="478.3774" y="50"/><text fill="#FFFFFF" font-family="sans-serif" font-size="14" lengthAdjust="spacing" textLength="136.8828" x="485.3774" y="69.9951">Attendance Service</text></g><g class="participant participant-tail" data-participant="AS"><rect fill="#222222" height="30.2969" rx="2.5" ry="2.5" style="stroke:#E7E7E7;stroke-width:0.5;" width="150.8828" x="478.3774" y="333.3594"/><text fill="#FFFFFF" font-family="sans-serif" font-size="14" lengthAdjust="spacing" textLength="136.8828" x="485.3774" y="353.3545">Attendance Service</text></g><g class="participant participant-head" data-participant="DB"><rect fill="#222222" height="30.2969" rx="2.5" ry="2.5" style="stroke:#E7E7E7;stroke-width:0.5;" width="215.6533" x="641.3789" y="50"/><text fill="#FFFFFF" font-family="sans-serif" font-size="14" lengthAdjust="spacing" textLength="201.6533" x="648.3789" y="69.9951">PostgreSQL (Attendance DB)</text></g><g class="participant participant-tail" data-participant="DB"><rect fill="#222222" height="30.2969" rx="2.5" ry="2.5" style="stroke:#E7E7E7;stroke-width:0.5;" width="215.6533" x="641.3789" y="333.3594"/><text fill="#FFFFFF" font-family="sans-serif" font-size="14" lengthAdjust="spacing" textLength="201.6533" x="648.3789" y="353.3545">PostgreSQL (Attendance DB)</text></g><g class="participant participant-head" data-participant="ALS"><rect fill="#222222" height="30.2969" rx="2.5" ry="2.5" style="stroke:#E7E7E7;stroke-width:0.5;" width="136.6094" x="867.0322" y="50"/><text fill="#FFFFFF" font-family="sans-serif" font-size="14" lengthAdjust="spacing" textLength="122.6094" x="874.0322" y="69.9951">Audit Log Service</text></g><g class="participant participant-tail" data-participant="ALS"><rect fill="#222222" height="30.2969" rx="2.5" ry="2.5" style="stroke:#E7E7E7;stroke-width:0.5;" width="136.6094" x="867.0322" y="333.3594"/><text fill="#FFFFFF" font-family="sans-serif" font-size="14" lengthAdjust="spacing" textLength="122.6094" x="874.0322" y="353.3545">Audit Log Service</text></g><g class="message" data-participant-1="DA" data-participant-2="FE"><polygon fill="#E7E7E7" points="264.814,108.4297,274.814,112.4297,264.814,116.4297,268.814,112.4297" style="stroke:#E7E7E7;stroke-width:1;"/><line style="stroke:#E7E7E7;stroke-width:1;" x1="75.0161" x2="270.814" y1="112.4297" y2="112.4297"/><text fill="#FFFFFF" font-family="sans-serif" font-size="13" lengthAdjust="spacing" textLength="177.7979" x="82.0161" y="107.3638">Request to edit attendance</text></g><g class="message" data-participant-1="FE" data-participant-2="AS"><polygon fill="#E7E7E7" points="541.8188,137.5625,551.8188,141.5625,541.8188,145.5625,545.8188,141.5625" style="stroke:#E7E7E7;stroke-width:1;"/><line style="stroke:#E7E7E7;stroke-width:1;" x1="276.814" x2="547.8188" y1="141.5625" y2="141.5625"/><text fill="#FFFFFF" font-family="sans-serif" font-size="13" lengthAdjust="spacing" textLength="253.0049" x="283.814" y="136.4966">PUT /attendance/{id} (updated status)</text></g><g class="message" data-participant-1="AS" data-participant-2="DB"><polygon fill="#E7E7E7" points="737.2056,166.6953,747.2056,170.6953,737.2056,174.6953,741.2056,170.6953" style="stroke:#E7E7E7;stroke-width:1;"/><line style="stroke:#E7E7E7;stroke-width:1;" x1="553.8188" x2="743.2056" y1="170.6953" y2="170.6953"/><text fill="#FFFFFF" font-family="sans-serif" font-size="13" lengthAdjust="spacing" textLength="171.3867" x="560.8188" y="165.6294">Update attendance record</text></g><g class="message" data-participant-1="DB" data-participant-2="AS"><polygon fill="#E7E7E7" points="564.8188,195.8281,554.8188,199.8281,564.8188,203.8281,560.8188,199.8281" style="stroke:#E7E7E7;stroke-width:1;"/><line style="stroke:#E7E7E7;stroke-width:1;stroke-dasharray:2,2;" x1="558.8188" x2="748.2056" y1="199.8281" y2="199.8281"/><text fill="#FFFFFF" font-family="sans-serif" font-size="13" lengthAdjust="spacing" textLength="84.335" x="570.8188" y="194.7622">Confirmation</text></g><g class="message" data-participant-1="AS" data-participant-2="ALS"><polygon fill="#E7E7E7" points="923.3369,224.9609,933.3369,228.9609,923.3369,232.9609,927.3369,228.9609" style="stroke:#E7E7E7;stroke-width:1;"/><line style="stroke:#E7E7E7;stroke-width:1;" x1="553.8188" x2="929.3369" y1="228.9609" y2="228.9609"/><text fill="#FFFFFF" font-family="sans-serif" font-size="13" lengthAdjust="spacing" textLength="229.4932" x="560.8188" y="223.895">Log edit action (user, time, reason)</text></g><g class="message" data-participant-1="ALS" data-participant-2="AS"><polygon fill="#E7E7E7" points="564.8188,254.0938,554.8188,258.0938,564.8188,262.0938,560.8188,258.0938" style="stroke:#E7E7E7;stroke-width:1;"/><line style="stroke:#E7E7E7;stroke-width:1;stroke-dasharray:2,2;" x1="558.8188" x2="934.3369" y1="258.0938" y2="258.0938"/><text fill="#FFFFFF" font-family="sans-serif" font-size="13" lengthAdjust="spacing" textLength="130.6665" x="570.8188" y="253.0278">Logged successfully</text></g><g class="message" data-participant-1="AS" data-participant-2="FE"><polygon fill="#E7E7E7" points="287.814,283.2266,277.814,287.2266,287.814,291.2266,283.814,287.2266" style="stroke:#E7E7E7;stroke-width:1;"/><line style="stroke:#E7E7E7;stroke-width:1;stroke-dasharray:2,2;" x1="281.814" x2="552.8188" y1="287.2266" y2="287.2266"/><text fill="#FFFFFF" font-family="sans-serif" font-size="13" lengthAdjust="spacing" textLength="118.4917" x="293.814" y="282.1606">Update successful</text></g><g class="message" data-participant-1="FE" data-participant-2="DA"><polygon fill="#E7E7E7" points="86.0161,312.3594,76.0161,316.3594,86.0161,320.3594,82.0161,316.3594" style="stroke:#E7E7E7;stroke-width:1;"/><line style="stroke:#E7E7E7;stroke-width:1;stroke-dasharray:2,2;" x1="80.0161" x2="275.814" y1="316.3594" y2="316.3594"/><text fill="#FFFFFF" font-family="sans-serif" font-size="13" lengthAdjust="spacing" textLength="171.3994" x="92.0161" y="311.2935">Show updated attendance</text></g><!--SRC=[NOz1Ri8m44NtFiM85KWWzbrKSfgooeBYSW3B7b9Bn0xsk5LLzUuT1q98jtxlV__HXaA4HOszZjIX9v2sStu1Ea4jHNbrnlMQmUA0sX3iOl24tWxAxdMkI2f8UuEWC7uwWuCcrLpRXqHjHFNMmF8XKbUhwyVLlzPi7K4JsdbfeuIe9MoUUGOymG4l6HC11S3YwtknOCwML6pjZ- -mdT3snzbVMERUQa8BYJJbj1AiSg2kE70Sq4CRH3GXMi5qCxQ-17zoiTFaWh-5UHw3ClgwnXJ6FoMCQo3NuPgBT0gUVsFrNiM9jYp9nc1Aftm-Vm-DuvctFHCVhYjh9LFr4RvWl6RQ_0S0]--></g></svg>