<svg xmlns="http://www.w3.org/2000/svg" xmlns:xlink="http://www.w3.org/1999/xlink" contentStyleType="text/css" data-diagram-type="SEQUENCE" height="415px" preserveAspectRatio="none" style="width:1000px;height:415px;background:#1B1B1B;" version="1.1" viewBox="0 0 1000 415" width="1000px" zoomAndPan="magnify"><defs/><g><rect fill="#1B1B1B" height="415" style="stroke:none;stroke-width:1;" width="1000" x="0" y="0"/><g><title>Principal Admin</title><rect fill="#000000" fill-opacity="0.00000" height="253.0625" width="8" x="58.6089" y="81.2969"/><line style="stroke:#E7E7E7;stroke-width:0.5;stroke-dasharray:5,5;" x1="62" x2="62" y1="81.2969" y2="334.3594"/></g><g><title>React Frontend</title><rect fill="#000000" fill-opacity="0.00000" height="253.0625" width="8" x="297.8896" y="81.2969"/><line style="stroke:#E7E7E7;stroke-width:0.5;stroke-dasharray:5,5;" x1="301.0566" x2="301.0566" y1="81.2969" y2="334.3594"/></g><g><title>Department Service</title><rect fill="#000000" fill-opacity="0.00000" height="253.0625" width="8" x="537.2085" y="81.2969"/><line style="stroke:#E7E7E7;stroke-width:0.5;stroke-dasharray:5,5;" x1="540.7539" x2="540.7539" y1="81.2969" y2="334.3594"/></g><g><title>PostgreSQL .Department DB.</title><rect fill="#000000" fill-opacity="0.00000" height="253.0625" width="8" x="734.5029" y="81.2969"/><line style="stroke:#E7E7E7;stroke-width:0.5;stroke-dasharray:5,5;" x1="737.6631" x2="737.6631" y1="81.2969" y2="334.3594"/></g><g><title>Audit Log Service</title><rect fill="#000000" fill-opacity="0.00000" height="253.0625" width="8" x="922.6475" y="81.2969"/><line style="stroke:#E7E7E7;stroke-width:0.5;stroke-dasharray:5,5;" x1="926.3428" x2="926.3428" y1="81.2969" y2="334.3594"/></g><g class="participant participant-head" data-participant="PA"><text fill="#FFFFFF" font-family="sans-serif" font-size="14" lengthAdjust="spacing" textLength="109.2178" x="5" y="77.9951">Principal Admin</text><ellipse cx="62.6089" cy="13.5" fill="#222222" rx="8" ry="8" style="stroke:#E7E7E7;stroke-width:0.5;"/><path d="M62.6089,21.5 L62.6089,48.5 M49.6089,29.5 L75.6089,29.5 M62.6089,48.5 L49.6089,63.5 M62.6089,48.5 L75.6089,63.5" fill="none" style="stroke:#E7E7E7;stroke-width:0.5;"/></g><g class="participant participant-tail" data-participant="PA"><text fill="#FFFFFF" font-family="sans-serif" font-size="14" lengthAdjust="spacing" textLength="109.2178" x="5" y="346.3545">Principal Admin</text><ellipse cx="62.6089" cy="358.1563" fill="#222222" rx="8" ry="8" style="stroke:#E7E7E7;stroke-width:0.5;"/><path d="M62.6089,366.1563 L62.6089,393.1563 M49.6089,374.1563 L75.6089,374.1563 M62.6089,393.1563 L49.6089,408.1563 M62.6089,393.1563 L75.6089,408.1563" fill="none" style="stroke:#E7E7E7;stroke-width:0.5;"/></g><g class="participant participant-head" data-participant="FE"><rect fill="#222222" height="30.2969" rx="2.5" ry="2.5" style="stroke:#E7E7E7;stroke-width:0.5;" width="121.666" x="241.0566" y="50"/><text fill="#FFFFFF" font-family="sans-serif" font-size="14" lengthAdjust="spacing" textLength="107.666" x="248.0566" y="69.9951">React Frontend</text></g><g class="participant participant-tail" data-participant="FE"><rect fill="#222222" height="30.2969" rx="2.5" ry="2.5" style="stroke:#E7E7E7;stroke-width:0.5;" width="121.666" x="241.0566" y="333.3594"/><text fill="#FFFFFF" font-family="sans-serif" font-size="14" lengthAdjust="spacing" textLength="107.666" x="248.0566" y="353.3545">React Frontend</text></g><g class="participant participant-head" data-participant="DS"><rect fill="#222222" height="30.2969" rx="2.5" ry="2.5" style="stroke:#E7E7E7;stroke-width:0.5;" width="154.9092" x="463.7539" y="50"/><text fill="#FFFFFF" font-family="sans-serif" font-size="14" lengthAdjust="spacing" textLength="140.9092" x="470.7539" y="69.9951">Department Service</text></g><g class="participant participant-tail" data-participant="DS"><rect fill="#222222" height="30.2969" rx="2.5" ry="2.5" style="stroke:#E7E7E7;stroke-width:0.5;" width="154.9092" x="463.7539" y="333.3594"/><text fill="#FFFFFF" font-family="sans-serif" font-size="14" lengthAdjust="spacing" textLength="140.9092" x="470.7539" y="353.3545">Department Service</text></g><g class="participant participant-head" data-participant="DB"><rect fill="#222222" height="30.2969" rx="2.5" ry="2.5" style="stroke:#E7E7E7;stroke-width:0.5;" width="219.6797" x="628.6631" y="50"/><text fill="#FFFFFF" font-family="sans-serif" font-size="14" lengthAdjust="spacing" textLength="205.6797" x="635.6631" y="69.9951">PostgreSQL (Department DB)</text></g><g class="participant participant-tail" data-participant="DB"><rect fill="#222222" height="30.2969" rx="2.5" ry="2.5" style="stroke:#E7E7E7;stroke-width:0.5;" width="219.6797" x="628.6631" y="333.3594"/><text fill="#FFFFFF" font-family="sans-serif" font-size="14" lengthAdjust="spacing" textLength="205.6797" x="635.6631" y="353.3545">PostgreSQL (Department DB)</text></g><g class="participant participant-head" data-participant="ALS"><rect fill="#222222" height="30.2969" rx="2.5" ry="2.5" style="stroke:#E7E7E7;stroke-width:0.5;" width="136.6094" x="858.3428" y="50"/><text fill="#FFFFFF" font-family="sans-serif" font-size="14" lengthAdjust="spacing" textLength="122.6094" x="865.3428" y="69.9951">Audit Log Service</text></g><g class="participant participant-tail" data-participant="ALS"><rect fill="#222222" height="30.2969" rx="2.5" ry="2.5" style="stroke:#E7E7E7;stroke-width:0.5;" width="136.6094" x="858.3428" y="333.3594"/><text fill="#FFFFFF" font-family="sans-serif" font-size="14" lengthAdjust="spacing" textLength="122.6094" x="865.3428" y="353.3545">Audit Log Service</text></g><g class="message" data-participant-1="PA" data-participant-2="FE"><polygon fill="#E7E7E7" points="289.8896,108.4297,299.8896,112.4297,289.8896,116.4297,293.8896,112.4297" style="stroke:#E7E7E7;stroke-width:1;"/><line style="stroke:#E7E7E7;stroke-width:1;" x1="62.6089" x2="295.8896" y1="112.4297" y2="112.4297"/><text fill="#FFFFFF" font-family="sans-serif" font-size="13" lengthAdjust="spacing" textLength="215.2808" x="69.6089" y="107.3638">Create department (name, code)</text></g><g class="message" data-participant-1="FE" data-participant-2="DS"><polygon fill="#E7E7E7" points="529.2085,137.5625,539.2085,141.5625,529.2085,145.5625,533.2085,141.5625" style="stroke:#E7E7E7;stroke-width:1;"/><line style="stroke:#E7E7E7;stroke-width:1;" x1="301.8896" x2="535.2085" y1="141.5625" y2="141.5625"/><text fill="#FFFFFF" font-family="sans-serif" font-size="13" lengthAdjust="spacing" textLength="126.458" x="308.8896" y="136.4966">POST /departments</text></g><g class="message" data-participant-1="DS" data-participant-2="DB"><polygon fill="#E7E7E7" points="726.5029,166.6953,736.5029,170.6953,726.5029,174.6953,730.5029,170.6953" style="stroke:#E7E7E7;stroke-width:1;"/><line style="stroke:#E7E7E7;stroke-width:1;" x1="541.2085" x2="732.5029" y1="170.6953" y2="170.6953"/><text fill="#FFFFFF" font-family="sans-serif" font-size="13" lengthAdjust="spacing" textLength="164.4995" x="548.2085" y="165.6294">Insert department record</text></g><g class="message" data-participant-1="DB" data-participant-2="DS"><polygon fill="#E7E7E7" points="552.2085,195.8281,542.2085,199.8281,552.2085,203.8281,548.2085,199.8281" style="stroke:#E7E7E7;stroke-width:1;"/><line style="stroke:#E7E7E7;stroke-width:1;stroke-dasharray:2,2;" x1="546.2085" x2="737.5029" y1="199.8281" y2="199.8281"/><text fill="#FFFFFF" font-family="sans-serif" font-size="13" lengthAdjust="spacing" textLength="84.335" x="558.2085" y="194.7622">Confirmation</text></g><g class="message" data-participant-1="DS" data-participant-2="ALS"><polygon fill="#E7E7E7" points="914.6475,224.9609,924.6475,228.9609,914.6475,232.9609,918.6475,228.9609" style="stroke:#E7E7E7;stroke-width:1;"/><line style="stroke:#E7E7E7;stroke-width:1;" x1="541.2085" x2="920.6475" y1="228.9609" y2="228.9609"/><text fill="#FFFFFF" font-family="sans-serif" font-size="13" lengthAdjust="spacing" textLength="161.9795" x="548.2085" y="223.895">Log department creation</text></g><g class="message" data-participant-1="ALS" data-participant-2="DS"><polygon fill="#E7E7E7" points="552.2085,254.0938,542.2085,258.0938,552.2085,262.0938,548.2085,258.0938" style="stroke:#E7E7E7;stroke-width:1;"/><line style="stroke:#E7E7E7;stroke-width:1;stroke-dasharray:2,2;" x1="546.2085" x2="925.6475" y1="258.0938" y2="258.0938"/><text fill="#FFFFFF" font-family="sans-serif" font-size="13" lengthAdjust="spacing" textLength="47.9502" x="558.2085" y="253.0278">Logged</text></g><g class="message" data-participant-1="DS" data-participant-2="FE"><polygon fill="#E7E7E7" points="312.8896,283.2266,302.8896,287.2266,312.8896,291.2266,308.8896,287.2266" style="stroke:#E7E7E7;stroke-width:1;"/><line style="stroke:#E7E7E7;stroke-width:1;stroke-dasharray:2,2;" x1="306.8896" x2="540.2085" y1="287.2266" y2="287.2266"/><text fill="#FFFFFF" font-family="sans-serif" font-size="13" lengthAdjust="spacing" textLength="215.3188" x="318.8896" y="282.1606">Department created successfully</text></g><g class="message" data-participant-1="FE" data-participant-2="PA"><polygon fill="#E7E7E7" points="73.6089,312.3594,63.6089,316.3594,73.6089,320.3594,69.6089,316.3594" style="stroke:#E7E7E7;stroke-width:1;"/><line style="stroke:#E7E7E7;stroke-width:1;stroke-dasharray:2,2;" x1="67.6089" x2="300.8896" y1="316.3594" y2="316.3594"/><text fill="#FFFFFF" font-family="sans-serif" font-size="13" lengthAdjust="spacing" textLength="121.6147" x="79.6089" y="311.2935">Show confirmation</text></g><!--SRC=[NO_1IiGm48RlUOgXfrrmyRu78Tsu81ICnXS8oMmDjCaoIHNVtabrRUijcV_xXs-iAucWqHIY2rSxWFHZY0tO35gAgwKIwZmMQ5xHkW9dIh5Wz3DoVjmY2kjtH7uRf8_WSCQKsM8wvT8JcfSETgkAQlS_UBl5vUH3WIxrcwMoCq9e2OS7re0Zd0XjGV3Blbsq8zw1InxtWXacbM5IFvitk5_0B7XSmvR3fvYHodeDeKla1QU7suPJYfT0eoqXnTyowt1G9LTLLvqgKzE_DaCz-hbtarV_EkWXJyvXpfTf6BvcUsRvt2EOz_J9Hoq6tm00]--></g></svg>