<svg xmlns="http://www.w3.org/2000/svg" xmlns:xlink="http://www.w3.org/1999/xlink" contentStyleType="text/css" data-diagram-type="SEQUENCE" height="735px" preserveAspectRatio="none" style="width:931px;height:735px;background:#1B1B1B;" version="1.1" viewBox="0 0 931 735" width="931px" zoomAndPan="magnify"><defs/><g><rect fill="#1B1B1B" height="735" style="stroke:none;stroke-width:1;" width="931" x="0" y="0"/><g><title>Student</title><rect fill="#000000" fill-opacity="0.00000" height="573.5234" width="8" x="31.5557" y="81.2969"/><line style="stroke:#E7E7E7;stroke-width:0.5;stroke-dasharray:5,5;" x1="35" x2="35" y1="81.2969" y2="654.8203"/></g><g><title>Teacher</title><rect fill="#000000" fill-opacity="0.00000" height="573.5234" width="8" x="103.4531" y="81.2969"/><line style="stroke:#E7E7E7;stroke-width:0.5;stroke-dasharray:5,5;" x1="107.1113" x2="107.1113" y1="81.2969" y2="654.8203"/></g><g><title>React Frontend</title><rect fill="#000000" fill-opacity="0.00000" height="573.5234" width="8" x="315.5723" y="81.2969"/><line style="stroke:#E7E7E7;stroke-width:0.5;stroke-dasharray:5,5;" x1="318.7393" x2="318.7393" y1="81.2969" y2="654.8203"/></g><g><title>Leave.Notification Service</title><rect fill="#000000" fill-opacity="0.00000" height="573.5234" width="8" x="611.9121" y="81.2969"/><line style="stroke:#E7E7E7;stroke-width:0.5;stroke-dasharray:5,5;" x1="615.3481" x2="615.3481" y1="81.2969" y2="654.8203"/></g><g><title>PostgreSQL .Leave DB.</title><rect fill="#000000" fill-opacity="0.00000" height="573.5234" width="8" x="833.5527" y="81.2969"/><line style="stroke:#E7E7E7;stroke-width:0.5;stroke-dasharray:5,5;" x1="837.1265" x2="837.1265" y1="81.2969" y2="654.8203"/></g><g class="participant participant-head" data-participant="Student"><text fill="#FFFFFF" font-family="sans-serif" font-size="14" lengthAdjust="spacing" textLength="55.1113" x="5" y="77.9951">Student</text><ellipse cx="35.5557" cy="13.5" fill="#222222" rx="8" ry="8" style="stroke:#E7E7E7;stroke-width:0.5;"/><path d="M35.5557,21.5 L35.5557,48.5 M22.5557,29.5 L48.5557,29.5 M35.5557,48.5 L22.5557,63.5 M35.5557,48.5 L48.5557,63.5" fill="none" style="stroke:#E7E7E7;stroke-width:0.5;"/></g><g class="participant participant-tail" data-participant="Student"><text fill="#FFFFFF" font-family="sans-serif" font-size="14" lengthAdjust="spacing" textLength="55.1113" x="5" y="666.8154">Student</text><ellipse cx="35.5557" cy="678.6172" fill="#222222" rx="8" ry="8" style="stroke:#E7E7E7;stroke-width:0.5;"/><path d="M35.5557,686.6172 L35.5557,713.6172 M22.5557,694.6172 L48.5557,694.6172 M35.5557,713.6172 L22.5557,728.6172 M35.5557,713.6172 L48.5557,728.6172" fill="none" style="stroke:#E7E7E7;stroke-width:0.5;"/></g><g class="participant participant-head" data-participant="Teacher"><text fill="#FFFFFF" font-family="sans-serif" font-size="14" lengthAdjust="spacing" textLength="56.6836" x="76.1113" y="77.9951">Teacher</text><ellipse cx="107.4531" cy="13.5" fill="#222222" rx="8" ry="8" style="stroke:#E7E7E7;stroke-width:0.5;"/><path d="M107.4531,21.5 L107.4531,48.5 M94.4531,29.5 L120.4531,29.5 M107.4531,48.5 L94.4531,63.5 M107.4531,48.5 L120.4531,63.5" fill="none" style="stroke:#E7E7E7;stroke-width:0.5;"/></g><g class="participant participant-tail" data-participant="Teacher"><text fill="#FFFFFF" font-family="sans-serif" font-size="14" lengthAdjust="spacing" textLength="56.6836" x="76.1113" y="666.8154">Teacher</text><ellipse cx="107.4531" cy="678.6172" fill="#222222" rx="8" ry="8" style="stroke:#E7E7E7;stroke-width:0.5;"/><path d="M107.4531,686.6172 L107.4531,713.6172 M94.4531,694.6172 L120.4531,694.6172 M107.4531,713.6172 L94.4531,728.6172 M107.4531,713.6172 L120.4531,728.6172" fill="none" style="stroke:#E7E7E7;stroke-width:0.5;"/></g><g class="participant participant-head" data-participant="FE"><rect fill="#222222" height="30.2969" rx="2.5" ry="2.5" style="stroke:#E7E7E7;stroke-width:0.5;" width="121.666" x="258.7393" y="50"/><text fill="#FFFFFF" font-family="sans-serif" font-size="14" lengthAdjust="spacing" textLength="107.666" x="265.7393" y="69.9951">React Frontend</text></g><g class="participant participant-tail" data-participant="FE"><rect fill="#222222" height="30.2969" rx="2.5" ry="2.5" style="stroke:#E7E7E7;stroke-width:0.5;" width="121.666" x="258.7393" y="653.8203"/><text fill="#FFFFFF" font-family="sans-serif" font-size="14" lengthAdjust="spacing" textLength="107.666" x="265.7393" y="673.8154">React Frontend</text></g><g class="participant participant-head" data-participant="NS"><rect fill="#222222" height="30.2969" rx="2.5" ry="2.5" style="stroke:#E7E7E7;stroke-width:0.5;" width="197.1279" x="517.3481" y="50"/><text fill="#FFFFFF" font-family="sans-serif" font-size="14" lengthAdjust="spacing" textLength="183.1279" x="524.3481" y="69.9951">Leave/Notification Service</text></g><g class="participant participant-tail" data-participant="NS"><rect fill="#222222" height="30.2969" rx="2.5" ry="2.5" style="stroke:#E7E7E7;stroke-width:0.5;" width="197.1279" x="517.3481" y="653.8203"/><text fill="#FFFFFF" font-family="sans-serif" font-size="14" lengthAdjust="spacing" textLength="183.1279" x="524.3481" y="673.8154">Leave/Notification Service</text></g><g class="participant participant-head" data-participant="DB"><rect fill="#222222" height="30.2969" rx="2.5" ry="2.5" style="stroke:#E7E7E7;stroke-width:0.5;" width="176.8525" x="749.1265" y="50"/><text fill="#FFFFFF" font-family="sans-serif" font-size="14" lengthAdjust="spacing" textLength="162.8525" x="756.1265" y="69.9951">PostgreSQL (Leave DB)</text></g><g class="participant participant-tail" data-participant="DB"><rect fill="#222222" height="30.2969" rx="2.5" ry="2.5" style="stroke:#E7E7E7;stroke-width:0.5;" width="176.8525" x="749.1265" y="653.8203"/><text fill="#FFFFFF" font-family="sans-serif" font-size="14" lengthAdjust="spacing" textLength="162.8525" x="756.1265" y="673.8154">PostgreSQL (Leave DB)</text></g><g class="message" data-participant-1="Student" data-participant-2="FE"><polygon fill="#E7E7E7" points="307.5723,108.4297,317.5723,112.4297,307.5723,116.4297,311.5723,112.4297" style="stroke:#E7E7E7;stroke-width:1;"/><line style="stroke:#E7E7E7;stroke-width:1;" x1="35.5557" x2="313.5723" y1="112.4297" y2="112.4297"/><text fill="#FFFFFF" font-family="sans-serif" font-size="13" lengthAdjust="spacing" textLength="242.252" x="42.5557" y="107.3638">Submit leave request (dates, reason)</text></g><g class="message" data-participant-1="FE" data-participant-2="NS"><polygon fill="#E7E7E7" points="603.9121,137.5625,613.9121,141.5625,603.9121,145.5625,607.9121,141.5625" style="stroke:#E7E7E7;stroke-width:1;"/><line style="stroke:#E7E7E7;stroke-width:1;" x1="319.5723" x2="609.9121" y1="141.5625" y2="141.5625"/><text fill="#FFFFFF" font-family="sans-serif" font-size="13" lengthAdjust="spacing" textLength="139.2104" x="326.5723" y="136.4966">POST /leave-requests</text></g><g class="message" data-participant-1="NS" data-participant-2="DB"><polygon fill="#E7E7E7" points="825.5527,166.6953,835.5527,170.6953,825.5527,174.6953,829.5527,170.6953" style="stroke:#E7E7E7;stroke-width:1;"/><line style="stroke:#E7E7E7;stroke-width:1;" x1="615.9121" x2="831.5527" y1="170.6953" y2="170.6953"/><text fill="#FFFFFF" font-family="sans-serif" font-size="13" lengthAdjust="spacing" textLength="197.6406" x="622.9121" y="165.6294">Insert leave request (pending)</text></g><g class="message" data-participant-1="DB" data-participant-2="NS"><polygon fill="#E7E7E7" points="626.9121,195.8281,616.9121,199.8281,626.9121,203.8281,622.9121,199.8281" style="stroke:#E7E7E7;stroke-width:1;"/><line style="stroke:#E7E7E7;stroke-width:1;stroke-dasharray:2,2;" x1="620.9121" x2="836.5527" y1="199.8281" y2="199.8281"/><text fill="#FFFFFF" font-family="sans-serif" font-size="13" lengthAdjust="spacing" textLength="84.335" x="632.9121" y="194.7622">Confirmation</text></g><g class="message" data-participant-1="NS" data-participant-2="FE"><polygon fill="#E7E7E7" points="330.5723,224.9609,320.5723,228.9609,330.5723,232.9609,326.5723,228.9609" style="stroke:#E7E7E7;stroke-width:1;"/><line style="stroke:#E7E7E7;stroke-width:1;stroke-dasharray:2,2;" x1="324.5723" x2="614.9121" y1="228.9609" y2="228.9609"/><text fill="#FFFFFF" font-family="sans-serif" font-size="13" lengthAdjust="spacing" textLength="162.8491" x="336.5723" y="223.895">Leave request submitted</text></g><g class="message" data-participant-1="FE" data-participant-2="Student"><polygon fill="#E7E7E7" points="46.5557,254.0938,36.5557,258.0938,46.5557,262.0938,42.5557,258.0938" style="stroke:#E7E7E7;stroke-width:1;"/><line style="stroke:#E7E7E7;stroke-width:1;stroke-dasharray:2,2;" x1="40.5557" x2="318.5723" y1="258.0938" y2="258.0938"/><text fill="#FFFFFF" font-family="sans-serif" font-size="13" lengthAdjust="spacing" textLength="201.5127" x="52.5557" y="253.0278">Show request status "Pending"</text></g><g class="message" data-participant-1="Teacher" data-participant-2="FE"><polygon fill="#E7E7E7" points="307.5723,283.2266,317.5723,287.2266,307.5723,291.2266,311.5723,287.2266" style="stroke:#E7E7E7;stroke-width:1;"/><line style="stroke:#E7E7E7;stroke-width:1;" x1="107.4531" x2="313.5723" y1="287.2266" y2="287.2266"/><text fill="#FFFFFF" font-family="sans-serif" font-size="13" lengthAdjust="spacing" textLength="188.1191" x="114.4531" y="282.1606">View pending leave requests</text></g><g class="message" data-participant-1="FE" data-participant-2="NS"><polygon fill="#E7E7E7" points="603.9121,312.3594,613.9121,316.3594,603.9121,320.3594,607.9121,316.3594" style="stroke:#E7E7E7;stroke-width:1;"/><line style="stroke:#E7E7E7;stroke-width:1;" x1="319.5723" x2="609.9121" y1="316.3594" y2="316.3594"/><text fill="#FFFFFF" font-family="sans-serif" font-size="13" lengthAdjust="spacing" textLength="225.3545" x="326.5723" y="311.2935">GET /leave-requests?class_id=XYZ</text></g><g class="message" data-participant-1="NS" data-participant-2="DB"><polygon fill="#E7E7E7" points="825.5527,341.4922,835.5527,345.4922,825.5527,349.4922,829.5527,345.4922" style="stroke:#E7E7E7;stroke-width:1;"/><line style="stroke:#E7E7E7;stroke-width:1;" x1="615.9121" x2="831.5527" y1="345.4922" y2="345.4922"/><text fill="#FFFFFF" font-family="sans-serif" font-size="13" lengthAdjust="spacing" textLength="96.5669" x="622.9121" y="340.4263">Fetch requests</text></g><g class="message" data-participant-1="DB" data-participant-2="NS"><polygon fill="#E7E7E7" points="626.9121,370.625,616.9121,374.625,626.9121,378.625,622.9121,374.625" style="stroke:#E7E7E7;stroke-width:1;"/><line style="stroke:#E7E7E7;stroke-width:1;stroke-dasharray:2,2;" x1="620.9121" x2="836.5527" y1="374.625" y2="374.625"/><text fill="#FFFFFF" font-family="sans-serif" font-size="13" lengthAdjust="spacing" textLength="104.5586" x="632.9121" y="369.5591">Return requests</text></g><g class="message" data-participant-1="NS" data-participant-2="FE"><polygon fill="#E7E7E7" points="330.5723,399.7578,320.5723,403.7578,330.5723,407.7578,326.5723,403.7578" style="stroke:#E7E7E7;stroke-width:1;"/><line style="stroke:#E7E7E7;stroke-width:1;stroke-dasharray:2,2;" x1="324.5723" x2="614.9121" y1="403.7578" y2="403.7578"/><text fill="#FFFFFF" font-family="sans-serif" font-size="13" lengthAdjust="spacing" textLength="83.3892" x="336.5723" y="398.6919">Requests list</text></g><g class="message" data-participant-1="FE" data-participant-2="Teacher"><polygon fill="#E7E7E7" points="118.4531,428.8906,108.4531,432.8906,118.4531,436.8906,114.4531,432.8906" style="stroke:#E7E7E7;stroke-width:1;"/><line style="stroke:#E7E7E7;stroke-width:1;stroke-dasharray:2,2;" x1="112.4531" x2="318.5723" y1="432.8906" y2="432.8906"/><text fill="#FFFFFF" font-family="sans-serif" font-size="13" lengthAdjust="spacing" textLength="108.5259" x="124.4531" y="427.8247">Display requests</text></g><g class="message" data-participant-1="Teacher" data-participant-2="FE"><polygon fill="#E7E7E7" points="307.5723,458.0234,317.5723,462.0234,307.5723,466.0234,311.5723,462.0234" style="stroke:#E7E7E7;stroke-width:1;"/><line style="stroke:#E7E7E7;stroke-width:1;" x1="107.4531" x2="313.5723" y1="462.0234" y2="462.0234"/><text fill="#FFFFFF" font-family="sans-serif" font-size="13" lengthAdjust="spacing" textLength="153.4863" x="114.4531" y="456.9575">Approve/Reject request</text></g><g class="message" data-participant-1="FE" data-participant-2="NS"><polygon fill="#E7E7E7" points="603.9121,487.1563,613.9121,491.1563,603.9121,495.1563,607.9121,491.1563" style="stroke:#E7E7E7;stroke-width:1;"/><line style="stroke:#E7E7E7;stroke-width:1;" x1="319.5723" x2="609.9121" y1="491.1563" y2="491.1563"/><text fill="#FFFFFF" font-family="sans-serif" font-size="13" lengthAdjust="spacing" textLength="272.3398" x="326.5723" y="486.0903">PUT /leave-requests/{id} (approve/reject)</text></g><g class="message" data-participant-1="NS" data-participant-2="DB"><polygon fill="#E7E7E7" points="825.5527,516.2891,835.5527,520.2891,825.5527,524.2891,829.5527,520.2891" style="stroke:#E7E7E7;stroke-width:1;"/><line style="stroke:#E7E7E7;stroke-width:1;" x1="615.9121" x2="831.5527" y1="520.2891" y2="520.2891"/><text fill="#FFFFFF" font-family="sans-serif" font-size="13" lengthAdjust="spacing" textLength="91.1587" x="622.9121" y="515.2231">Update status</text></g><g class="message" data-participant-1="DB" data-participant-2="NS"><polygon fill="#E7E7E7" points="626.9121,545.4219,616.9121,549.4219,626.9121,553.4219,622.9121,549.4219" style="stroke:#E7E7E7;stroke-width:1;"/><line style="stroke:#E7E7E7;stroke-width:1;stroke-dasharray:2,2;" x1="620.9121" x2="836.5527" y1="549.4219" y2="549.4219"/><text fill="#FFFFFF" font-family="sans-serif" font-size="13" lengthAdjust="spacing" textLength="84.335" x="632.9121" y="544.356">Confirmation</text></g><g class="message" data-participant-1="NS" data-participant-2="FE"><polygon fill="#E7E7E7" points="330.5723,574.5547,320.5723,578.5547,330.5723,582.5547,326.5723,578.5547" style="stroke:#E7E7E7;stroke-width:1;"/><line style="stroke:#E7E7E7;stroke-width:1;stroke-dasharray:2,2;" x1="324.5723" x2="614.9121" y1="578.5547" y2="578.5547"/><text fill="#FFFFFF" font-family="sans-serif" font-size="13" lengthAdjust="spacing" textLength="99.6138" x="336.5723" y="573.4888">Status updated</text></g><g class="message" data-participant-1="FE" data-participant-2="Teacher"><polygon fill="#E7E7E7" points="118.4531,603.6875,108.4531,607.6875,118.4531,611.6875,114.4531,607.6875" style="stroke:#E7E7E7;stroke-width:1;"/><line style="stroke:#E7E7E7;stroke-width:1;stroke-dasharray:2,2;" x1="112.4531" x2="318.5723" y1="607.6875" y2="607.6875"/><text fill="#FFFFFF" font-family="sans-serif" font-size="13" lengthAdjust="spacing" textLength="121.6147" x="124.4531" y="602.6216">Show confirmation</text></g><g class="message" data-participant-1="NS" data-participant-2="Student"><polygon fill="#E7E7E7" points="46.5557,632.8203,36.5557,636.8203,46.5557,640.8203,42.5557,636.8203" style="stroke:#E7E7E7;stroke-width:1;"/><line style="stroke:#E7E7E7;stroke-width:1;stroke-dasharray:2,2;" x1="40.5557" x2="614.9121" y1="636.8203" y2="636.8203"/><text fill="#FFFFFF" font-family="sans-serif" font-size="13" lengthAdjust="spacing" textLength="249.1963" x="52.5557" y="631.7544">Send notification of approval/rejection</text></g><!--SRC=[ZP91JyCm38Nl-HNMJgl4jFiaG8nk26aQenq8kA3GUbjGbvJ4tOGG_nsJfQob73Z6USzvdnsPaR6GKfMZ9Y7zQOaosw0LfRIaCbLAJT1Bk4WmjKOJwhm7qi5qqfRCKEvmE3UaLYgJf8o65ErEPUZbyxGjNnX7QulfxGpwtWhnEFBAU2n4Y0I3Ctu7Hf1MBrj5K7YXnRSA7K4_buJkXC_I6Hq9Lh9-dh9-SPCkOUZbWo1tWc_uFXxp_RLsQ3lzIcPJUXq9rWpgLfT6hvJTUYBVeiuqQvcTJqYO-nYigH4u_CRiZpgIL3dcFxpL4o8C_8VrNk4UGfHsGjT4l9fq2C-pGZhthFBJXyUd9kuKATiSkpJn4gJAQcWDgKwIX28Kob7DLSSTGQnSMSZte_StoKLPMiEV8i5NvEyJTAqztNKWXXyg_uI-35xhlL6JvgxyNdoOvFzsbHwcNdbdtaNnAyh-S3Uso1i1tVpUPWM7bB88CRdw1G00]--></g></svg>